%TF.GenerationSoftware,KiCad,Pcbnew,9.0.5*%
%TF.CreationDate,2026-06-15T22:10:03-05:00*%
%TF.ProjectId,keepsake-keychain,6b656570-7361-46b6-952d-6b6579636861,rev?*%
%TF.SameCoordinates,Original*%
%TF.FileFunction,AssemblyDrawing,Top*%
%FSLAX46Y46*%
G04 Gerber Fmt 4.6, Leading zero omitted, Abs format (unit mm)*
G04 Created by KiCad (PCBNEW 9.0.5) date 2026-06-15 22:10:03*
%MOMM*%
%LPD*%
G01*
G04 APERTURE LIST*
%ADD10C,0.060000*%
%ADD11C,0.150000*%
%ADD12C,0.100000*%
%ADD13C,0.200000*%
%ADD14C,0.025400*%
%ADD15C,0.127000*%
G04 APERTURE END LIST*
D10*
X183942857Y-102735147D02*
X183809524Y-102544671D01*
X183714286Y-102735147D02*
X183714286Y-102335147D01*
X183714286Y-102335147D02*
X183866667Y-102335147D01*
X183866667Y-102335147D02*
X183904762Y-102354195D01*
X183904762Y-102354195D02*
X183923809Y-102373242D01*
X183923809Y-102373242D02*
X183942857Y-102411338D01*
X183942857Y-102411338D02*
X183942857Y-102468480D01*
X183942857Y-102468480D02*
X183923809Y-102506576D01*
X183923809Y-102506576D02*
X183904762Y-102525623D01*
X183904762Y-102525623D02*
X183866667Y-102544671D01*
X183866667Y-102544671D02*
X183714286Y-102544671D01*
X184095238Y-102373242D02*
X184114286Y-102354195D01*
X184114286Y-102354195D02*
X184152381Y-102335147D01*
X184152381Y-102335147D02*
X184247619Y-102335147D01*
X184247619Y-102335147D02*
X184285714Y-102354195D01*
X184285714Y-102354195D02*
X184304762Y-102373242D01*
X184304762Y-102373242D02*
X184323809Y-102411338D01*
X184323809Y-102411338D02*
X184323809Y-102449433D01*
X184323809Y-102449433D02*
X184304762Y-102506576D01*
X184304762Y-102506576D02*
X184076190Y-102735147D01*
X184076190Y-102735147D02*
X184323809Y-102735147D01*
X184514285Y-102735147D02*
X184590476Y-102735147D01*
X184590476Y-102735147D02*
X184628571Y-102716100D01*
X184628571Y-102716100D02*
X184647619Y-102697052D01*
X184647619Y-102697052D02*
X184685714Y-102639909D01*
X184685714Y-102639909D02*
X184704761Y-102563719D01*
X184704761Y-102563719D02*
X184704761Y-102411338D01*
X184704761Y-102411338D02*
X184685714Y-102373242D01*
X184685714Y-102373242D02*
X184666666Y-102354195D01*
X184666666Y-102354195D02*
X184628571Y-102335147D01*
X184628571Y-102335147D02*
X184552380Y-102335147D01*
X184552380Y-102335147D02*
X184514285Y-102354195D01*
X184514285Y-102354195D02*
X184495238Y-102373242D01*
X184495238Y-102373242D02*
X184476190Y-102411338D01*
X184476190Y-102411338D02*
X184476190Y-102506576D01*
X184476190Y-102506576D02*
X184495238Y-102544671D01*
X184495238Y-102544671D02*
X184514285Y-102563719D01*
X184514285Y-102563719D02*
X184552380Y-102582766D01*
X184552380Y-102582766D02*
X184628571Y-102582766D01*
X184628571Y-102582766D02*
X184666666Y-102563719D01*
X184666666Y-102563719D02*
X184685714Y-102544671D01*
X184685714Y-102544671D02*
X184704761Y-102506576D01*
X160101121Y-87689658D02*
X159910645Y-87822991D01*
X160101121Y-87918229D02*
X159701121Y-87918229D01*
X159701121Y-87918229D02*
X159701121Y-87765848D01*
X159701121Y-87765848D02*
X159720169Y-87727753D01*
X159720169Y-87727753D02*
X159739216Y-87708706D01*
X159739216Y-87708706D02*
X159777312Y-87689658D01*
X159777312Y-87689658D02*
X159834454Y-87689658D01*
X159834454Y-87689658D02*
X159872550Y-87708706D01*
X159872550Y-87708706D02*
X159891597Y-87727753D01*
X159891597Y-87727753D02*
X159910645Y-87765848D01*
X159910645Y-87765848D02*
X159910645Y-87918229D01*
X159701121Y-87556325D02*
X159701121Y-87308706D01*
X159701121Y-87308706D02*
X159853502Y-87442039D01*
X159853502Y-87442039D02*
X159853502Y-87384896D01*
X159853502Y-87384896D02*
X159872550Y-87346801D01*
X159872550Y-87346801D02*
X159891597Y-87327753D01*
X159891597Y-87327753D02*
X159929693Y-87308706D01*
X159929693Y-87308706D02*
X160024931Y-87308706D01*
X160024931Y-87308706D02*
X160063026Y-87327753D01*
X160063026Y-87327753D02*
X160082074Y-87346801D01*
X160082074Y-87346801D02*
X160101121Y-87384896D01*
X160101121Y-87384896D02*
X160101121Y-87499182D01*
X160101121Y-87499182D02*
X160082074Y-87537277D01*
X160082074Y-87537277D02*
X160063026Y-87556325D01*
X159701121Y-87061087D02*
X159701121Y-87022992D01*
X159701121Y-87022992D02*
X159720169Y-86984896D01*
X159720169Y-86984896D02*
X159739216Y-86965849D01*
X159739216Y-86965849D02*
X159777312Y-86946801D01*
X159777312Y-86946801D02*
X159853502Y-86927754D01*
X159853502Y-86927754D02*
X159948740Y-86927754D01*
X159948740Y-86927754D02*
X160024931Y-86946801D01*
X160024931Y-86946801D02*
X160063026Y-86965849D01*
X160063026Y-86965849D02*
X160082074Y-86984896D01*
X160082074Y-86984896D02*
X160101121Y-87022992D01*
X160101121Y-87022992D02*
X160101121Y-87061087D01*
X160101121Y-87061087D02*
X160082074Y-87099182D01*
X160082074Y-87099182D02*
X160063026Y-87118230D01*
X160063026Y-87118230D02*
X160024931Y-87137277D01*
X160024931Y-87137277D02*
X159948740Y-87156325D01*
X159948740Y-87156325D02*
X159853502Y-87156325D01*
X159853502Y-87156325D02*
X159777312Y-87137277D01*
X159777312Y-87137277D02*
X159739216Y-87118230D01*
X159739216Y-87118230D02*
X159720169Y-87099182D01*
X159720169Y-87099182D02*
X159701121Y-87061087D01*
X183342857Y-92835147D02*
X183209524Y-92644671D01*
X183114286Y-92835147D02*
X183114286Y-92435147D01*
X183114286Y-92435147D02*
X183266667Y-92435147D01*
X183266667Y-92435147D02*
X183304762Y-92454195D01*
X183304762Y-92454195D02*
X183323809Y-92473242D01*
X183323809Y-92473242D02*
X183342857Y-92511338D01*
X183342857Y-92511338D02*
X183342857Y-92568480D01*
X183342857Y-92568480D02*
X183323809Y-92606576D01*
X183323809Y-92606576D02*
X183304762Y-92625623D01*
X183304762Y-92625623D02*
X183266667Y-92644671D01*
X183266667Y-92644671D02*
X183114286Y-92644671D01*
X183495238Y-92473242D02*
X183514286Y-92454195D01*
X183514286Y-92454195D02*
X183552381Y-92435147D01*
X183552381Y-92435147D02*
X183647619Y-92435147D01*
X183647619Y-92435147D02*
X183685714Y-92454195D01*
X183685714Y-92454195D02*
X183704762Y-92473242D01*
X183704762Y-92473242D02*
X183723809Y-92511338D01*
X183723809Y-92511338D02*
X183723809Y-92549433D01*
X183723809Y-92549433D02*
X183704762Y-92606576D01*
X183704762Y-92606576D02*
X183476190Y-92835147D01*
X183476190Y-92835147D02*
X183723809Y-92835147D01*
X184066666Y-92435147D02*
X183990476Y-92435147D01*
X183990476Y-92435147D02*
X183952380Y-92454195D01*
X183952380Y-92454195D02*
X183933333Y-92473242D01*
X183933333Y-92473242D02*
X183895238Y-92530385D01*
X183895238Y-92530385D02*
X183876190Y-92606576D01*
X183876190Y-92606576D02*
X183876190Y-92758957D01*
X183876190Y-92758957D02*
X183895238Y-92797052D01*
X183895238Y-92797052D02*
X183914285Y-92816100D01*
X183914285Y-92816100D02*
X183952380Y-92835147D01*
X183952380Y-92835147D02*
X184028571Y-92835147D01*
X184028571Y-92835147D02*
X184066666Y-92816100D01*
X184066666Y-92816100D02*
X184085714Y-92797052D01*
X184085714Y-92797052D02*
X184104761Y-92758957D01*
X184104761Y-92758957D02*
X184104761Y-92663719D01*
X184104761Y-92663719D02*
X184085714Y-92625623D01*
X184085714Y-92625623D02*
X184066666Y-92606576D01*
X184066666Y-92606576D02*
X184028571Y-92587528D01*
X184028571Y-92587528D02*
X183952380Y-92587528D01*
X183952380Y-92587528D02*
X183914285Y-92606576D01*
X183914285Y-92606576D02*
X183895238Y-92625623D01*
X183895238Y-92625623D02*
X183876190Y-92663719D01*
X180233333Y-106597052D02*
X180214285Y-106616100D01*
X180214285Y-106616100D02*
X180157143Y-106635147D01*
X180157143Y-106635147D02*
X180119047Y-106635147D01*
X180119047Y-106635147D02*
X180061904Y-106616100D01*
X180061904Y-106616100D02*
X180023809Y-106578004D01*
X180023809Y-106578004D02*
X180004762Y-106539909D01*
X180004762Y-106539909D02*
X179985714Y-106463719D01*
X179985714Y-106463719D02*
X179985714Y-106406576D01*
X179985714Y-106406576D02*
X180004762Y-106330385D01*
X180004762Y-106330385D02*
X180023809Y-106292290D01*
X180023809Y-106292290D02*
X180061904Y-106254195D01*
X180061904Y-106254195D02*
X180119047Y-106235147D01*
X180119047Y-106235147D02*
X180157143Y-106235147D01*
X180157143Y-106235147D02*
X180214285Y-106254195D01*
X180214285Y-106254195D02*
X180233333Y-106273242D01*
X180423809Y-106635147D02*
X180500000Y-106635147D01*
X180500000Y-106635147D02*
X180538095Y-106616100D01*
X180538095Y-106616100D02*
X180557143Y-106597052D01*
X180557143Y-106597052D02*
X180595238Y-106539909D01*
X180595238Y-106539909D02*
X180614285Y-106463719D01*
X180614285Y-106463719D02*
X180614285Y-106311338D01*
X180614285Y-106311338D02*
X180595238Y-106273242D01*
X180595238Y-106273242D02*
X180576190Y-106254195D01*
X180576190Y-106254195D02*
X180538095Y-106235147D01*
X180538095Y-106235147D02*
X180461904Y-106235147D01*
X180461904Y-106235147D02*
X180423809Y-106254195D01*
X180423809Y-106254195D02*
X180404762Y-106273242D01*
X180404762Y-106273242D02*
X180385714Y-106311338D01*
X180385714Y-106311338D02*
X180385714Y-106406576D01*
X180385714Y-106406576D02*
X180404762Y-106444671D01*
X180404762Y-106444671D02*
X180423809Y-106463719D01*
X180423809Y-106463719D02*
X180461904Y-106482766D01*
X180461904Y-106482766D02*
X180538095Y-106482766D01*
X180538095Y-106482766D02*
X180576190Y-106463719D01*
X180576190Y-106463719D02*
X180595238Y-106444671D01*
X180595238Y-106444671D02*
X180614285Y-106406576D01*
X166942857Y-90835147D02*
X166809524Y-90644671D01*
X166714286Y-90835147D02*
X166714286Y-90435147D01*
X166714286Y-90435147D02*
X166866667Y-90435147D01*
X166866667Y-90435147D02*
X166904762Y-90454195D01*
X166904762Y-90454195D02*
X166923809Y-90473242D01*
X166923809Y-90473242D02*
X166942857Y-90511338D01*
X166942857Y-90511338D02*
X166942857Y-90568480D01*
X166942857Y-90568480D02*
X166923809Y-90606576D01*
X166923809Y-90606576D02*
X166904762Y-90625623D01*
X166904762Y-90625623D02*
X166866667Y-90644671D01*
X166866667Y-90644671D02*
X166714286Y-90644671D01*
X167323809Y-90835147D02*
X167095238Y-90835147D01*
X167209524Y-90835147D02*
X167209524Y-90435147D01*
X167209524Y-90435147D02*
X167171428Y-90492290D01*
X167171428Y-90492290D02*
X167133333Y-90530385D01*
X167133333Y-90530385D02*
X167095238Y-90549433D01*
X167704761Y-90835147D02*
X167476190Y-90835147D01*
X167590476Y-90835147D02*
X167590476Y-90435147D01*
X167590476Y-90435147D02*
X167552380Y-90492290D01*
X167552380Y-90492290D02*
X167514285Y-90530385D01*
X167514285Y-90530385D02*
X167476190Y-90549433D01*
X175333333Y-95597052D02*
X175314285Y-95616100D01*
X175314285Y-95616100D02*
X175257143Y-95635147D01*
X175257143Y-95635147D02*
X175219047Y-95635147D01*
X175219047Y-95635147D02*
X175161904Y-95616100D01*
X175161904Y-95616100D02*
X175123809Y-95578004D01*
X175123809Y-95578004D02*
X175104762Y-95539909D01*
X175104762Y-95539909D02*
X175085714Y-95463719D01*
X175085714Y-95463719D02*
X175085714Y-95406576D01*
X175085714Y-95406576D02*
X175104762Y-95330385D01*
X175104762Y-95330385D02*
X175123809Y-95292290D01*
X175123809Y-95292290D02*
X175161904Y-95254195D01*
X175161904Y-95254195D02*
X175219047Y-95235147D01*
X175219047Y-95235147D02*
X175257143Y-95235147D01*
X175257143Y-95235147D02*
X175314285Y-95254195D01*
X175314285Y-95254195D02*
X175333333Y-95273242D01*
X175695238Y-95235147D02*
X175504762Y-95235147D01*
X175504762Y-95235147D02*
X175485714Y-95425623D01*
X175485714Y-95425623D02*
X175504762Y-95406576D01*
X175504762Y-95406576D02*
X175542857Y-95387528D01*
X175542857Y-95387528D02*
X175638095Y-95387528D01*
X175638095Y-95387528D02*
X175676190Y-95406576D01*
X175676190Y-95406576D02*
X175695238Y-95425623D01*
X175695238Y-95425623D02*
X175714285Y-95463719D01*
X175714285Y-95463719D02*
X175714285Y-95558957D01*
X175714285Y-95558957D02*
X175695238Y-95597052D01*
X175695238Y-95597052D02*
X175676190Y-95616100D01*
X175676190Y-95616100D02*
X175638095Y-95635147D01*
X175638095Y-95635147D02*
X175542857Y-95635147D01*
X175542857Y-95635147D02*
X175504762Y-95616100D01*
X175504762Y-95616100D02*
X175485714Y-95597052D01*
X167442857Y-100635147D02*
X167309524Y-100444671D01*
X167214286Y-100635147D02*
X167214286Y-100235147D01*
X167214286Y-100235147D02*
X167366667Y-100235147D01*
X167366667Y-100235147D02*
X167404762Y-100254195D01*
X167404762Y-100254195D02*
X167423809Y-100273242D01*
X167423809Y-100273242D02*
X167442857Y-100311338D01*
X167442857Y-100311338D02*
X167442857Y-100368480D01*
X167442857Y-100368480D02*
X167423809Y-100406576D01*
X167423809Y-100406576D02*
X167404762Y-100425623D01*
X167404762Y-100425623D02*
X167366667Y-100444671D01*
X167366667Y-100444671D02*
X167214286Y-100444671D01*
X167823809Y-100635147D02*
X167595238Y-100635147D01*
X167709524Y-100635147D02*
X167709524Y-100235147D01*
X167709524Y-100235147D02*
X167671428Y-100292290D01*
X167671428Y-100292290D02*
X167633333Y-100330385D01*
X167633333Y-100330385D02*
X167595238Y-100349433D01*
X168185714Y-100235147D02*
X167995238Y-100235147D01*
X167995238Y-100235147D02*
X167976190Y-100425623D01*
X167976190Y-100425623D02*
X167995238Y-100406576D01*
X167995238Y-100406576D02*
X168033333Y-100387528D01*
X168033333Y-100387528D02*
X168128571Y-100387528D01*
X168128571Y-100387528D02*
X168166666Y-100406576D01*
X168166666Y-100406576D02*
X168185714Y-100425623D01*
X168185714Y-100425623D02*
X168204761Y-100463719D01*
X168204761Y-100463719D02*
X168204761Y-100558957D01*
X168204761Y-100558957D02*
X168185714Y-100597052D01*
X168185714Y-100597052D02*
X168166666Y-100616100D01*
X168166666Y-100616100D02*
X168128571Y-100635147D01*
X168128571Y-100635147D02*
X168033333Y-100635147D01*
X168033333Y-100635147D02*
X167995238Y-100616100D01*
X167995238Y-100616100D02*
X167976190Y-100597052D01*
X176633333Y-81297052D02*
X176614285Y-81316100D01*
X176614285Y-81316100D02*
X176557143Y-81335147D01*
X176557143Y-81335147D02*
X176519047Y-81335147D01*
X176519047Y-81335147D02*
X176461904Y-81316100D01*
X176461904Y-81316100D02*
X176423809Y-81278004D01*
X176423809Y-81278004D02*
X176404762Y-81239909D01*
X176404762Y-81239909D02*
X176385714Y-81163719D01*
X176385714Y-81163719D02*
X176385714Y-81106576D01*
X176385714Y-81106576D02*
X176404762Y-81030385D01*
X176404762Y-81030385D02*
X176423809Y-80992290D01*
X176423809Y-80992290D02*
X176461904Y-80954195D01*
X176461904Y-80954195D02*
X176519047Y-80935147D01*
X176519047Y-80935147D02*
X176557143Y-80935147D01*
X176557143Y-80935147D02*
X176614285Y-80954195D01*
X176614285Y-80954195D02*
X176633333Y-80973242D01*
X176976190Y-81068480D02*
X176976190Y-81335147D01*
X176880952Y-80916100D02*
X176785714Y-81201814D01*
X176785714Y-81201814D02*
X177033333Y-81201814D01*
X160101121Y-92389658D02*
X159910645Y-92522991D01*
X160101121Y-92618229D02*
X159701121Y-92618229D01*
X159701121Y-92618229D02*
X159701121Y-92465848D01*
X159701121Y-92465848D02*
X159720169Y-92427753D01*
X159720169Y-92427753D02*
X159739216Y-92408706D01*
X159739216Y-92408706D02*
X159777312Y-92389658D01*
X159777312Y-92389658D02*
X159834454Y-92389658D01*
X159834454Y-92389658D02*
X159872550Y-92408706D01*
X159872550Y-92408706D02*
X159891597Y-92427753D01*
X159891597Y-92427753D02*
X159910645Y-92465848D01*
X159910645Y-92465848D02*
X159910645Y-92618229D01*
X159701121Y-92256325D02*
X159701121Y-92008706D01*
X159701121Y-92008706D02*
X159853502Y-92142039D01*
X159853502Y-92142039D02*
X159853502Y-92084896D01*
X159853502Y-92084896D02*
X159872550Y-92046801D01*
X159872550Y-92046801D02*
X159891597Y-92027753D01*
X159891597Y-92027753D02*
X159929693Y-92008706D01*
X159929693Y-92008706D02*
X160024931Y-92008706D01*
X160024931Y-92008706D02*
X160063026Y-92027753D01*
X160063026Y-92027753D02*
X160082074Y-92046801D01*
X160082074Y-92046801D02*
X160101121Y-92084896D01*
X160101121Y-92084896D02*
X160101121Y-92199182D01*
X160101121Y-92199182D02*
X160082074Y-92237277D01*
X160082074Y-92237277D02*
X160063026Y-92256325D01*
X160101121Y-91627754D02*
X160101121Y-91856325D01*
X160101121Y-91742039D02*
X159701121Y-91742039D01*
X159701121Y-91742039D02*
X159758264Y-91780135D01*
X159758264Y-91780135D02*
X159796359Y-91818230D01*
X159796359Y-91818230D02*
X159815407Y-91856325D01*
X160101121Y-97089658D02*
X159910645Y-97222991D01*
X160101121Y-97318229D02*
X159701121Y-97318229D01*
X159701121Y-97318229D02*
X159701121Y-97165848D01*
X159701121Y-97165848D02*
X159720169Y-97127753D01*
X159720169Y-97127753D02*
X159739216Y-97108706D01*
X159739216Y-97108706D02*
X159777312Y-97089658D01*
X159777312Y-97089658D02*
X159834454Y-97089658D01*
X159834454Y-97089658D02*
X159872550Y-97108706D01*
X159872550Y-97108706D02*
X159891597Y-97127753D01*
X159891597Y-97127753D02*
X159910645Y-97165848D01*
X159910645Y-97165848D02*
X159910645Y-97318229D01*
X159701121Y-96956325D02*
X159701121Y-96708706D01*
X159701121Y-96708706D02*
X159853502Y-96842039D01*
X159853502Y-96842039D02*
X159853502Y-96784896D01*
X159853502Y-96784896D02*
X159872550Y-96746801D01*
X159872550Y-96746801D02*
X159891597Y-96727753D01*
X159891597Y-96727753D02*
X159929693Y-96708706D01*
X159929693Y-96708706D02*
X160024931Y-96708706D01*
X160024931Y-96708706D02*
X160063026Y-96727753D01*
X160063026Y-96727753D02*
X160082074Y-96746801D01*
X160082074Y-96746801D02*
X160101121Y-96784896D01*
X160101121Y-96784896D02*
X160101121Y-96899182D01*
X160101121Y-96899182D02*
X160082074Y-96937277D01*
X160082074Y-96937277D02*
X160063026Y-96956325D01*
X159739216Y-96556325D02*
X159720169Y-96537277D01*
X159720169Y-96537277D02*
X159701121Y-96499182D01*
X159701121Y-96499182D02*
X159701121Y-96403944D01*
X159701121Y-96403944D02*
X159720169Y-96365849D01*
X159720169Y-96365849D02*
X159739216Y-96346801D01*
X159739216Y-96346801D02*
X159777312Y-96327754D01*
X159777312Y-96327754D02*
X159815407Y-96327754D01*
X159815407Y-96327754D02*
X159872550Y-96346801D01*
X159872550Y-96346801D02*
X160101121Y-96575373D01*
X160101121Y-96575373D02*
X160101121Y-96327754D01*
X179642857Y-99535147D02*
X179509524Y-99344671D01*
X179414286Y-99535147D02*
X179414286Y-99135147D01*
X179414286Y-99135147D02*
X179566667Y-99135147D01*
X179566667Y-99135147D02*
X179604762Y-99154195D01*
X179604762Y-99154195D02*
X179623809Y-99173242D01*
X179623809Y-99173242D02*
X179642857Y-99211338D01*
X179642857Y-99211338D02*
X179642857Y-99268480D01*
X179642857Y-99268480D02*
X179623809Y-99306576D01*
X179623809Y-99306576D02*
X179604762Y-99325623D01*
X179604762Y-99325623D02*
X179566667Y-99344671D01*
X179566667Y-99344671D02*
X179414286Y-99344671D01*
X179795238Y-99173242D02*
X179814286Y-99154195D01*
X179814286Y-99154195D02*
X179852381Y-99135147D01*
X179852381Y-99135147D02*
X179947619Y-99135147D01*
X179947619Y-99135147D02*
X179985714Y-99154195D01*
X179985714Y-99154195D02*
X180004762Y-99173242D01*
X180004762Y-99173242D02*
X180023809Y-99211338D01*
X180023809Y-99211338D02*
X180023809Y-99249433D01*
X180023809Y-99249433D02*
X180004762Y-99306576D01*
X180004762Y-99306576D02*
X179776190Y-99535147D01*
X179776190Y-99535147D02*
X180023809Y-99535147D01*
X180385714Y-99135147D02*
X180195238Y-99135147D01*
X180195238Y-99135147D02*
X180176190Y-99325623D01*
X180176190Y-99325623D02*
X180195238Y-99306576D01*
X180195238Y-99306576D02*
X180233333Y-99287528D01*
X180233333Y-99287528D02*
X180328571Y-99287528D01*
X180328571Y-99287528D02*
X180366666Y-99306576D01*
X180366666Y-99306576D02*
X180385714Y-99325623D01*
X180385714Y-99325623D02*
X180404761Y-99363719D01*
X180404761Y-99363719D02*
X180404761Y-99458957D01*
X180404761Y-99458957D02*
X180385714Y-99497052D01*
X180385714Y-99497052D02*
X180366666Y-99516100D01*
X180366666Y-99516100D02*
X180328571Y-99535147D01*
X180328571Y-99535147D02*
X180233333Y-99535147D01*
X180233333Y-99535147D02*
X180195238Y-99516100D01*
X180195238Y-99516100D02*
X180176190Y-99497052D01*
X179433333Y-93997052D02*
X179414285Y-94016100D01*
X179414285Y-94016100D02*
X179357143Y-94035147D01*
X179357143Y-94035147D02*
X179319047Y-94035147D01*
X179319047Y-94035147D02*
X179261904Y-94016100D01*
X179261904Y-94016100D02*
X179223809Y-93978004D01*
X179223809Y-93978004D02*
X179204762Y-93939909D01*
X179204762Y-93939909D02*
X179185714Y-93863719D01*
X179185714Y-93863719D02*
X179185714Y-93806576D01*
X179185714Y-93806576D02*
X179204762Y-93730385D01*
X179204762Y-93730385D02*
X179223809Y-93692290D01*
X179223809Y-93692290D02*
X179261904Y-93654195D01*
X179261904Y-93654195D02*
X179319047Y-93635147D01*
X179319047Y-93635147D02*
X179357143Y-93635147D01*
X179357143Y-93635147D02*
X179414285Y-93654195D01*
X179414285Y-93654195D02*
X179433333Y-93673242D01*
X179776190Y-93635147D02*
X179700000Y-93635147D01*
X179700000Y-93635147D02*
X179661904Y-93654195D01*
X179661904Y-93654195D02*
X179642857Y-93673242D01*
X179642857Y-93673242D02*
X179604762Y-93730385D01*
X179604762Y-93730385D02*
X179585714Y-93806576D01*
X179585714Y-93806576D02*
X179585714Y-93958957D01*
X179585714Y-93958957D02*
X179604762Y-93997052D01*
X179604762Y-93997052D02*
X179623809Y-94016100D01*
X179623809Y-94016100D02*
X179661904Y-94035147D01*
X179661904Y-94035147D02*
X179738095Y-94035147D01*
X179738095Y-94035147D02*
X179776190Y-94016100D01*
X179776190Y-94016100D02*
X179795238Y-93997052D01*
X179795238Y-93997052D02*
X179814285Y-93958957D01*
X179814285Y-93958957D02*
X179814285Y-93863719D01*
X179814285Y-93863719D02*
X179795238Y-93825623D01*
X179795238Y-93825623D02*
X179776190Y-93806576D01*
X179776190Y-93806576D02*
X179738095Y-93787528D01*
X179738095Y-93787528D02*
X179661904Y-93787528D01*
X179661904Y-93787528D02*
X179623809Y-93806576D01*
X179623809Y-93806576D02*
X179604762Y-93825623D01*
X179604762Y-93825623D02*
X179585714Y-93863719D01*
X167633333Y-107654052D02*
X167614285Y-107673100D01*
X167614285Y-107673100D02*
X167557143Y-107692147D01*
X167557143Y-107692147D02*
X167519047Y-107692147D01*
X167519047Y-107692147D02*
X167461904Y-107673100D01*
X167461904Y-107673100D02*
X167423809Y-107635004D01*
X167423809Y-107635004D02*
X167404762Y-107596909D01*
X167404762Y-107596909D02*
X167385714Y-107520719D01*
X167385714Y-107520719D02*
X167385714Y-107463576D01*
X167385714Y-107463576D02*
X167404762Y-107387385D01*
X167404762Y-107387385D02*
X167423809Y-107349290D01*
X167423809Y-107349290D02*
X167461904Y-107311195D01*
X167461904Y-107311195D02*
X167519047Y-107292147D01*
X167519047Y-107292147D02*
X167557143Y-107292147D01*
X167557143Y-107292147D02*
X167614285Y-107311195D01*
X167614285Y-107311195D02*
X167633333Y-107330242D01*
X167766666Y-107292147D02*
X168014285Y-107292147D01*
X168014285Y-107292147D02*
X167880952Y-107444528D01*
X167880952Y-107444528D02*
X167938095Y-107444528D01*
X167938095Y-107444528D02*
X167976190Y-107463576D01*
X167976190Y-107463576D02*
X167995238Y-107482623D01*
X167995238Y-107482623D02*
X168014285Y-107520719D01*
X168014285Y-107520719D02*
X168014285Y-107615957D01*
X168014285Y-107615957D02*
X167995238Y-107654052D01*
X167995238Y-107654052D02*
X167976190Y-107673100D01*
X167976190Y-107673100D02*
X167938095Y-107692147D01*
X167938095Y-107692147D02*
X167823809Y-107692147D01*
X167823809Y-107692147D02*
X167785714Y-107673100D01*
X167785714Y-107673100D02*
X167766666Y-107654052D01*
X175333333Y-94097052D02*
X175314285Y-94116100D01*
X175314285Y-94116100D02*
X175257143Y-94135147D01*
X175257143Y-94135147D02*
X175219047Y-94135147D01*
X175219047Y-94135147D02*
X175161904Y-94116100D01*
X175161904Y-94116100D02*
X175123809Y-94078004D01*
X175123809Y-94078004D02*
X175104762Y-94039909D01*
X175104762Y-94039909D02*
X175085714Y-93963719D01*
X175085714Y-93963719D02*
X175085714Y-93906576D01*
X175085714Y-93906576D02*
X175104762Y-93830385D01*
X175104762Y-93830385D02*
X175123809Y-93792290D01*
X175123809Y-93792290D02*
X175161904Y-93754195D01*
X175161904Y-93754195D02*
X175219047Y-93735147D01*
X175219047Y-93735147D02*
X175257143Y-93735147D01*
X175257143Y-93735147D02*
X175314285Y-93754195D01*
X175314285Y-93754195D02*
X175333333Y-93773242D01*
X175561904Y-93906576D02*
X175523809Y-93887528D01*
X175523809Y-93887528D02*
X175504762Y-93868480D01*
X175504762Y-93868480D02*
X175485714Y-93830385D01*
X175485714Y-93830385D02*
X175485714Y-93811338D01*
X175485714Y-93811338D02*
X175504762Y-93773242D01*
X175504762Y-93773242D02*
X175523809Y-93754195D01*
X175523809Y-93754195D02*
X175561904Y-93735147D01*
X175561904Y-93735147D02*
X175638095Y-93735147D01*
X175638095Y-93735147D02*
X175676190Y-93754195D01*
X175676190Y-93754195D02*
X175695238Y-93773242D01*
X175695238Y-93773242D02*
X175714285Y-93811338D01*
X175714285Y-93811338D02*
X175714285Y-93830385D01*
X175714285Y-93830385D02*
X175695238Y-93868480D01*
X175695238Y-93868480D02*
X175676190Y-93887528D01*
X175676190Y-93887528D02*
X175638095Y-93906576D01*
X175638095Y-93906576D02*
X175561904Y-93906576D01*
X175561904Y-93906576D02*
X175523809Y-93925623D01*
X175523809Y-93925623D02*
X175504762Y-93944671D01*
X175504762Y-93944671D02*
X175485714Y-93982766D01*
X175485714Y-93982766D02*
X175485714Y-94058957D01*
X175485714Y-94058957D02*
X175504762Y-94097052D01*
X175504762Y-94097052D02*
X175523809Y-94116100D01*
X175523809Y-94116100D02*
X175561904Y-94135147D01*
X175561904Y-94135147D02*
X175638095Y-94135147D01*
X175638095Y-94135147D02*
X175676190Y-94116100D01*
X175676190Y-94116100D02*
X175695238Y-94097052D01*
X175695238Y-94097052D02*
X175714285Y-94058957D01*
X175714285Y-94058957D02*
X175714285Y-93982766D01*
X175714285Y-93982766D02*
X175695238Y-93944671D01*
X175695238Y-93944671D02*
X175676190Y-93925623D01*
X175676190Y-93925623D02*
X175638095Y-93906576D01*
D11*
X174433495Y-97658038D02*
X174433495Y-98467561D01*
X174433495Y-98467561D02*
X174481114Y-98562799D01*
X174481114Y-98562799D02*
X174528733Y-98610419D01*
X174528733Y-98610419D02*
X174623971Y-98658038D01*
X174623971Y-98658038D02*
X174814447Y-98658038D01*
X174814447Y-98658038D02*
X174909685Y-98610419D01*
X174909685Y-98610419D02*
X174957304Y-98562799D01*
X174957304Y-98562799D02*
X175004923Y-98467561D01*
X175004923Y-98467561D02*
X175004923Y-97658038D01*
X175909685Y-97991371D02*
X175909685Y-98658038D01*
X175671590Y-97610419D02*
X175433495Y-98324704D01*
X175433495Y-98324704D02*
X176052542Y-98324704D01*
D10*
X183533333Y-95797052D02*
X183514285Y-95816100D01*
X183514285Y-95816100D02*
X183457143Y-95835147D01*
X183457143Y-95835147D02*
X183419047Y-95835147D01*
X183419047Y-95835147D02*
X183361904Y-95816100D01*
X183361904Y-95816100D02*
X183323809Y-95778004D01*
X183323809Y-95778004D02*
X183304762Y-95739909D01*
X183304762Y-95739909D02*
X183285714Y-95663719D01*
X183285714Y-95663719D02*
X183285714Y-95606576D01*
X183285714Y-95606576D02*
X183304762Y-95530385D01*
X183304762Y-95530385D02*
X183323809Y-95492290D01*
X183323809Y-95492290D02*
X183361904Y-95454195D01*
X183361904Y-95454195D02*
X183419047Y-95435147D01*
X183419047Y-95435147D02*
X183457143Y-95435147D01*
X183457143Y-95435147D02*
X183514285Y-95454195D01*
X183514285Y-95454195D02*
X183533333Y-95473242D01*
X183666666Y-95435147D02*
X183933333Y-95435147D01*
X183933333Y-95435147D02*
X183761904Y-95835147D01*
X160101121Y-101789658D02*
X159910645Y-101922991D01*
X160101121Y-102018229D02*
X159701121Y-102018229D01*
X159701121Y-102018229D02*
X159701121Y-101865848D01*
X159701121Y-101865848D02*
X159720169Y-101827753D01*
X159720169Y-101827753D02*
X159739216Y-101808706D01*
X159739216Y-101808706D02*
X159777312Y-101789658D01*
X159777312Y-101789658D02*
X159834454Y-101789658D01*
X159834454Y-101789658D02*
X159872550Y-101808706D01*
X159872550Y-101808706D02*
X159891597Y-101827753D01*
X159891597Y-101827753D02*
X159910645Y-101865848D01*
X159910645Y-101865848D02*
X159910645Y-102018229D01*
X159701121Y-101656325D02*
X159701121Y-101408706D01*
X159701121Y-101408706D02*
X159853502Y-101542039D01*
X159853502Y-101542039D02*
X159853502Y-101484896D01*
X159853502Y-101484896D02*
X159872550Y-101446801D01*
X159872550Y-101446801D02*
X159891597Y-101427753D01*
X159891597Y-101427753D02*
X159929693Y-101408706D01*
X159929693Y-101408706D02*
X160024931Y-101408706D01*
X160024931Y-101408706D02*
X160063026Y-101427753D01*
X160063026Y-101427753D02*
X160082074Y-101446801D01*
X160082074Y-101446801D02*
X160101121Y-101484896D01*
X160101121Y-101484896D02*
X160101121Y-101599182D01*
X160101121Y-101599182D02*
X160082074Y-101637277D01*
X160082074Y-101637277D02*
X160063026Y-101656325D01*
X159701121Y-101275373D02*
X159701121Y-101027754D01*
X159701121Y-101027754D02*
X159853502Y-101161087D01*
X159853502Y-101161087D02*
X159853502Y-101103944D01*
X159853502Y-101103944D02*
X159872550Y-101065849D01*
X159872550Y-101065849D02*
X159891597Y-101046801D01*
X159891597Y-101046801D02*
X159929693Y-101027754D01*
X159929693Y-101027754D02*
X160024931Y-101027754D01*
X160024931Y-101027754D02*
X160063026Y-101046801D01*
X160063026Y-101046801D02*
X160082074Y-101065849D01*
X160082074Y-101065849D02*
X160101121Y-101103944D01*
X160101121Y-101103944D02*
X160101121Y-101218230D01*
X160101121Y-101218230D02*
X160082074Y-101256325D01*
X160082074Y-101256325D02*
X160063026Y-101275373D01*
X183955357Y-104335147D02*
X183822024Y-104144671D01*
X183726786Y-104335147D02*
X183726786Y-103935147D01*
X183726786Y-103935147D02*
X183879167Y-103935147D01*
X183879167Y-103935147D02*
X183917262Y-103954195D01*
X183917262Y-103954195D02*
X183936309Y-103973242D01*
X183936309Y-103973242D02*
X183955357Y-104011338D01*
X183955357Y-104011338D02*
X183955357Y-104068480D01*
X183955357Y-104068480D02*
X183936309Y-104106576D01*
X183936309Y-104106576D02*
X183917262Y-104125623D01*
X183917262Y-104125623D02*
X183879167Y-104144671D01*
X183879167Y-104144671D02*
X183726786Y-104144671D01*
X184107738Y-103973242D02*
X184126786Y-103954195D01*
X184126786Y-103954195D02*
X184164881Y-103935147D01*
X184164881Y-103935147D02*
X184260119Y-103935147D01*
X184260119Y-103935147D02*
X184298214Y-103954195D01*
X184298214Y-103954195D02*
X184317262Y-103973242D01*
X184317262Y-103973242D02*
X184336309Y-104011338D01*
X184336309Y-104011338D02*
X184336309Y-104049433D01*
X184336309Y-104049433D02*
X184317262Y-104106576D01*
X184317262Y-104106576D02*
X184088690Y-104335147D01*
X184088690Y-104335147D02*
X184336309Y-104335147D01*
X184469642Y-103935147D02*
X184736309Y-103935147D01*
X184736309Y-103935147D02*
X184564880Y-104335147D01*
X167442857Y-99035147D02*
X167309524Y-98844671D01*
X167214286Y-99035147D02*
X167214286Y-98635147D01*
X167214286Y-98635147D02*
X167366667Y-98635147D01*
X167366667Y-98635147D02*
X167404762Y-98654195D01*
X167404762Y-98654195D02*
X167423809Y-98673242D01*
X167423809Y-98673242D02*
X167442857Y-98711338D01*
X167442857Y-98711338D02*
X167442857Y-98768480D01*
X167442857Y-98768480D02*
X167423809Y-98806576D01*
X167423809Y-98806576D02*
X167404762Y-98825623D01*
X167404762Y-98825623D02*
X167366667Y-98844671D01*
X167366667Y-98844671D02*
X167214286Y-98844671D01*
X167823809Y-99035147D02*
X167595238Y-99035147D01*
X167709524Y-99035147D02*
X167709524Y-98635147D01*
X167709524Y-98635147D02*
X167671428Y-98692290D01*
X167671428Y-98692290D02*
X167633333Y-98730385D01*
X167633333Y-98730385D02*
X167595238Y-98749433D01*
X168052380Y-98806576D02*
X168014285Y-98787528D01*
X168014285Y-98787528D02*
X167995238Y-98768480D01*
X167995238Y-98768480D02*
X167976190Y-98730385D01*
X167976190Y-98730385D02*
X167976190Y-98711338D01*
X167976190Y-98711338D02*
X167995238Y-98673242D01*
X167995238Y-98673242D02*
X168014285Y-98654195D01*
X168014285Y-98654195D02*
X168052380Y-98635147D01*
X168052380Y-98635147D02*
X168128571Y-98635147D01*
X168128571Y-98635147D02*
X168166666Y-98654195D01*
X168166666Y-98654195D02*
X168185714Y-98673242D01*
X168185714Y-98673242D02*
X168204761Y-98711338D01*
X168204761Y-98711338D02*
X168204761Y-98730385D01*
X168204761Y-98730385D02*
X168185714Y-98768480D01*
X168185714Y-98768480D02*
X168166666Y-98787528D01*
X168166666Y-98787528D02*
X168128571Y-98806576D01*
X168128571Y-98806576D02*
X168052380Y-98806576D01*
X168052380Y-98806576D02*
X168014285Y-98825623D01*
X168014285Y-98825623D02*
X167995238Y-98844671D01*
X167995238Y-98844671D02*
X167976190Y-98882766D01*
X167976190Y-98882766D02*
X167976190Y-98958957D01*
X167976190Y-98958957D02*
X167995238Y-98997052D01*
X167995238Y-98997052D02*
X168014285Y-99016100D01*
X168014285Y-99016100D02*
X168052380Y-99035147D01*
X168052380Y-99035147D02*
X168128571Y-99035147D01*
X168128571Y-99035147D02*
X168166666Y-99016100D01*
X168166666Y-99016100D02*
X168185714Y-98997052D01*
X168185714Y-98997052D02*
X168204761Y-98958957D01*
X168204761Y-98958957D02*
X168204761Y-98882766D01*
X168204761Y-98882766D02*
X168185714Y-98844671D01*
X168185714Y-98844671D02*
X168166666Y-98825623D01*
X168166666Y-98825623D02*
X168128571Y-98806576D01*
X167633333Y-81297052D02*
X167614285Y-81316100D01*
X167614285Y-81316100D02*
X167557143Y-81335147D01*
X167557143Y-81335147D02*
X167519047Y-81335147D01*
X167519047Y-81335147D02*
X167461904Y-81316100D01*
X167461904Y-81316100D02*
X167423809Y-81278004D01*
X167423809Y-81278004D02*
X167404762Y-81239909D01*
X167404762Y-81239909D02*
X167385714Y-81163719D01*
X167385714Y-81163719D02*
X167385714Y-81106576D01*
X167385714Y-81106576D02*
X167404762Y-81030385D01*
X167404762Y-81030385D02*
X167423809Y-80992290D01*
X167423809Y-80992290D02*
X167461904Y-80954195D01*
X167461904Y-80954195D02*
X167519047Y-80935147D01*
X167519047Y-80935147D02*
X167557143Y-80935147D01*
X167557143Y-80935147D02*
X167614285Y-80954195D01*
X167614285Y-80954195D02*
X167633333Y-80973242D01*
X168014285Y-81335147D02*
X167785714Y-81335147D01*
X167900000Y-81335147D02*
X167900000Y-80935147D01*
X167900000Y-80935147D02*
X167861904Y-80992290D01*
X167861904Y-80992290D02*
X167823809Y-81030385D01*
X167823809Y-81030385D02*
X167785714Y-81049433D01*
X166942857Y-89235147D02*
X166809524Y-89044671D01*
X166714286Y-89235147D02*
X166714286Y-88835147D01*
X166714286Y-88835147D02*
X166866667Y-88835147D01*
X166866667Y-88835147D02*
X166904762Y-88854195D01*
X166904762Y-88854195D02*
X166923809Y-88873242D01*
X166923809Y-88873242D02*
X166942857Y-88911338D01*
X166942857Y-88911338D02*
X166942857Y-88968480D01*
X166942857Y-88968480D02*
X166923809Y-89006576D01*
X166923809Y-89006576D02*
X166904762Y-89025623D01*
X166904762Y-89025623D02*
X166866667Y-89044671D01*
X166866667Y-89044671D02*
X166714286Y-89044671D01*
X167323809Y-89235147D02*
X167095238Y-89235147D01*
X167209524Y-89235147D02*
X167209524Y-88835147D01*
X167209524Y-88835147D02*
X167171428Y-88892290D01*
X167171428Y-88892290D02*
X167133333Y-88930385D01*
X167133333Y-88930385D02*
X167095238Y-88949433D01*
X167666666Y-88968480D02*
X167666666Y-89235147D01*
X167571428Y-88816100D02*
X167476190Y-89101814D01*
X167476190Y-89101814D02*
X167723809Y-89101814D01*
D11*
X184092565Y-84874120D02*
X184092565Y-83874120D01*
X184092565Y-84350310D02*
X184663993Y-84350310D01*
X184663993Y-84874120D02*
X184663993Y-83874120D01*
X185663993Y-84874120D02*
X185092565Y-84874120D01*
X185378279Y-84874120D02*
X185378279Y-83874120D01*
X185378279Y-83874120D02*
X185283041Y-84016977D01*
X185283041Y-84016977D02*
X185187803Y-84112215D01*
X185187803Y-84112215D02*
X185092565Y-84159834D01*
X183867565Y-84374833D02*
X185883284Y-84374833D01*
D10*
X170743832Y-89982386D02*
X170762880Y-90001434D01*
X170762880Y-90001434D02*
X170781927Y-90058576D01*
X170781927Y-90058576D02*
X170781927Y-90096672D01*
X170781927Y-90096672D02*
X170762880Y-90153815D01*
X170762880Y-90153815D02*
X170724784Y-90191910D01*
X170724784Y-90191910D02*
X170686689Y-90210957D01*
X170686689Y-90210957D02*
X170610499Y-90230005D01*
X170610499Y-90230005D02*
X170553356Y-90230005D01*
X170553356Y-90230005D02*
X170477165Y-90210957D01*
X170477165Y-90210957D02*
X170439070Y-90191910D01*
X170439070Y-90191910D02*
X170400975Y-90153815D01*
X170400975Y-90153815D02*
X170381927Y-90096672D01*
X170381927Y-90096672D02*
X170381927Y-90058576D01*
X170381927Y-90058576D02*
X170400975Y-90001434D01*
X170400975Y-90001434D02*
X170420022Y-89982386D01*
X170420022Y-89830005D02*
X170400975Y-89810957D01*
X170400975Y-89810957D02*
X170381927Y-89772862D01*
X170381927Y-89772862D02*
X170381927Y-89677624D01*
X170381927Y-89677624D02*
X170400975Y-89639529D01*
X170400975Y-89639529D02*
X170420022Y-89620481D01*
X170420022Y-89620481D02*
X170458118Y-89601434D01*
X170458118Y-89601434D02*
X170496213Y-89601434D01*
X170496213Y-89601434D02*
X170553356Y-89620481D01*
X170553356Y-89620481D02*
X170781927Y-89849053D01*
X170781927Y-89849053D02*
X170781927Y-89601434D01*
X183942857Y-101135147D02*
X183809524Y-100944671D01*
X183714286Y-101135147D02*
X183714286Y-100735147D01*
X183714286Y-100735147D02*
X183866667Y-100735147D01*
X183866667Y-100735147D02*
X183904762Y-100754195D01*
X183904762Y-100754195D02*
X183923809Y-100773242D01*
X183923809Y-100773242D02*
X183942857Y-100811338D01*
X183942857Y-100811338D02*
X183942857Y-100868480D01*
X183942857Y-100868480D02*
X183923809Y-100906576D01*
X183923809Y-100906576D02*
X183904762Y-100925623D01*
X183904762Y-100925623D02*
X183866667Y-100944671D01*
X183866667Y-100944671D02*
X183714286Y-100944671D01*
X184095238Y-100773242D02*
X184114286Y-100754195D01*
X184114286Y-100754195D02*
X184152381Y-100735147D01*
X184152381Y-100735147D02*
X184247619Y-100735147D01*
X184247619Y-100735147D02*
X184285714Y-100754195D01*
X184285714Y-100754195D02*
X184304762Y-100773242D01*
X184304762Y-100773242D02*
X184323809Y-100811338D01*
X184323809Y-100811338D02*
X184323809Y-100849433D01*
X184323809Y-100849433D02*
X184304762Y-100906576D01*
X184304762Y-100906576D02*
X184076190Y-101135147D01*
X184076190Y-101135147D02*
X184323809Y-101135147D01*
X184552380Y-100906576D02*
X184514285Y-100887528D01*
X184514285Y-100887528D02*
X184495238Y-100868480D01*
X184495238Y-100868480D02*
X184476190Y-100830385D01*
X184476190Y-100830385D02*
X184476190Y-100811338D01*
X184476190Y-100811338D02*
X184495238Y-100773242D01*
X184495238Y-100773242D02*
X184514285Y-100754195D01*
X184514285Y-100754195D02*
X184552380Y-100735147D01*
X184552380Y-100735147D02*
X184628571Y-100735147D01*
X184628571Y-100735147D02*
X184666666Y-100754195D01*
X184666666Y-100754195D02*
X184685714Y-100773242D01*
X184685714Y-100773242D02*
X184704761Y-100811338D01*
X184704761Y-100811338D02*
X184704761Y-100830385D01*
X184704761Y-100830385D02*
X184685714Y-100868480D01*
X184685714Y-100868480D02*
X184666666Y-100887528D01*
X184666666Y-100887528D02*
X184628571Y-100906576D01*
X184628571Y-100906576D02*
X184552380Y-100906576D01*
X184552380Y-100906576D02*
X184514285Y-100925623D01*
X184514285Y-100925623D02*
X184495238Y-100944671D01*
X184495238Y-100944671D02*
X184476190Y-100982766D01*
X184476190Y-100982766D02*
X184476190Y-101058957D01*
X184476190Y-101058957D02*
X184495238Y-101097052D01*
X184495238Y-101097052D02*
X184514285Y-101116100D01*
X184514285Y-101116100D02*
X184552380Y-101135147D01*
X184552380Y-101135147D02*
X184628571Y-101135147D01*
X184628571Y-101135147D02*
X184666666Y-101116100D01*
X184666666Y-101116100D02*
X184685714Y-101097052D01*
X184685714Y-101097052D02*
X184704761Y-101058957D01*
X184704761Y-101058957D02*
X184704761Y-100982766D01*
X184704761Y-100982766D02*
X184685714Y-100944671D01*
X184685714Y-100944671D02*
X184666666Y-100925623D01*
X184666666Y-100925623D02*
X184628571Y-100906576D01*
D12*
X172736500Y-101740720D02*
X172736500Y-106940720D01*
X172863500Y-106940720D02*
G75*
G02*
X172736500Y-106940720I-63500J0D01*
G01*
X172863500Y-106940720D02*
X172863500Y-101740720D01*
X172863500Y-101740720D02*
G75*
G03*
X172736500Y-101740720I-63500J0D01*
G01*
X172800000Y-107004220D02*
X178000000Y-107004220D01*
X178000000Y-106877220D02*
G75*
G02*
X178000000Y-107004220I0J-63500D01*
G01*
X178000000Y-106877220D02*
X172800000Y-106877220D01*
X172800000Y-106877220D02*
G75*
G03*
X172800000Y-107004220I0J-63500D01*
G01*
X178000000Y-101677220D02*
X172800000Y-101677220D01*
X172800000Y-101804220D02*
G75*
G02*
X172800000Y-101677220I0J63500D01*
G01*
X172800000Y-101804220D02*
X178000000Y-101804220D01*
X178000000Y-101804220D02*
G75*
G03*
X178000000Y-101677220I0J63500D01*
G01*
X178063500Y-106940720D02*
X178063500Y-101740720D01*
X177936500Y-101740720D02*
G75*
G02*
X178063500Y-101740720I63500J0D01*
G01*
X177936500Y-101740720D02*
X177936500Y-106940720D01*
X177936500Y-106940720D02*
G75*
G03*
X178063500Y-106940720I63500J0D01*
G01*
D13*
%TO.C,SW2*%
D12*
X173550000Y-109040720D02*
G75*
G02*
X173450000Y-109040720I-50000J0D01*
G01*
X173450000Y-109040720D02*
G75*
G02*
X173550000Y-109040720I50000J0D01*
G01*
X173650000Y-109040720D02*
G75*
G02*
X173350000Y-109040720I-150000J0D01*
G01*
X173350000Y-109040720D02*
G75*
G02*
X173650000Y-109040720I150000J0D01*
G01*
D14*
%TO.C,U5*%
X173648500Y-82579220D02*
X173648500Y-83087220D01*
X173648500Y-83087220D02*
X174689900Y-83087220D01*
X173648500Y-83849220D02*
X173648500Y-84357220D01*
X173648500Y-84357220D02*
X174689900Y-84357220D01*
X173648500Y-85119220D02*
X173648500Y-85627220D01*
X173648500Y-85627220D02*
X174689900Y-85627220D01*
X173648500Y-86389220D02*
X173648500Y-86897220D01*
X173648500Y-86897220D02*
X174689900Y-86897220D01*
X173648500Y-87659220D02*
X173648500Y-88167220D01*
X173648500Y-88167220D02*
X174689900Y-88167220D01*
X173648500Y-88929220D02*
X173648500Y-89437220D01*
X173648500Y-89437220D02*
X174689900Y-89437220D01*
X173648500Y-90199220D02*
X173648500Y-90707220D01*
X173648500Y-90707220D02*
X174689900Y-90707220D01*
X174689900Y-82312520D02*
X174689900Y-90973920D01*
X174689900Y-82579220D02*
X173648500Y-82579220D01*
X174689900Y-83087220D02*
X174689900Y-82579220D01*
X174689900Y-83849220D02*
X173648500Y-83849220D01*
X174689900Y-84357220D02*
X174689900Y-83849220D01*
X174689900Y-85119220D02*
X173648500Y-85119220D01*
X174689900Y-85627220D02*
X174689900Y-85119220D01*
X174689900Y-86389220D02*
X173648500Y-86389220D01*
X174689900Y-86897220D02*
X174689900Y-86389220D01*
X174689900Y-87659220D02*
X173648500Y-87659220D01*
X174689900Y-88167220D02*
X174689900Y-87659220D01*
X174689900Y-88929220D02*
X173648500Y-88929220D01*
X174689900Y-89437220D02*
X174689900Y-88929220D01*
X174689900Y-90199220D02*
X173648500Y-90199220D01*
X174689900Y-90707220D02*
X174689900Y-90199220D01*
X174689900Y-90973920D02*
X178601500Y-90973920D01*
X178601500Y-82312520D02*
X174689900Y-82312520D01*
X178601500Y-82579220D02*
X178601500Y-83087220D01*
X178601500Y-83087220D02*
X179642900Y-83087220D01*
X178601500Y-83849220D02*
X178601500Y-84357220D01*
X178601500Y-84357220D02*
X179642900Y-84357220D01*
X178601500Y-85119220D02*
X178601500Y-85627220D01*
X178601500Y-85627220D02*
X179642900Y-85627220D01*
X178601500Y-86389220D02*
X178601500Y-86897220D01*
X178601500Y-86897220D02*
X179642900Y-86897220D01*
X178601500Y-87659220D02*
X178601500Y-88167220D01*
X178601500Y-88167220D02*
X179642900Y-88167220D01*
X178601500Y-88929220D02*
X178601500Y-89437220D01*
X178601500Y-89437220D02*
X179642900Y-89437220D01*
X178601500Y-90199220D02*
X178601500Y-90707220D01*
X178601500Y-90707220D02*
X179642900Y-90707220D01*
X178601500Y-90973920D02*
X178601500Y-82312520D01*
X179642900Y-82579220D02*
X178601500Y-82579220D01*
X179642900Y-83087220D02*
X179642900Y-82579220D01*
X179642900Y-83849220D02*
X178601500Y-83849220D01*
X179642900Y-84357220D02*
X179642900Y-83849220D01*
X179642900Y-85119220D02*
X178601500Y-85119220D01*
X179642900Y-85627220D02*
X179642900Y-85119220D01*
X179642900Y-86389220D02*
X178601500Y-86389220D01*
X179642900Y-86897220D02*
X179642900Y-86389220D01*
X179642900Y-87659220D02*
X178601500Y-87659220D01*
X179642900Y-88167220D02*
X179642900Y-87659220D01*
X179642900Y-88929220D02*
X178601500Y-88929220D01*
X179642900Y-89437220D02*
X179642900Y-88929220D01*
X179642900Y-90199220D02*
X178601500Y-90199220D01*
X179642900Y-90707220D02*
X179642900Y-90199220D01*
X176950500Y-82312520D02*
G75*
G02*
X176340900Y-82312520I-304800J0D01*
G01*
%TO.C,LED28*%
X145618183Y-101184820D02*
X145618183Y-102175420D01*
X145618183Y-102175420D02*
X146608783Y-102175420D01*
X146608783Y-101184820D02*
X145618183Y-101184820D01*
X146608783Y-102175420D02*
X146608783Y-101184820D01*
X146418283Y-101184820D02*
G75*
G02*
X145808683Y-101184820I-304800J0D01*
G01*
X146024783Y-101350120D02*
G75*
G02*
X145872383Y-101350120I-76200J0D01*
G01*
X145872383Y-101350120D02*
G75*
G02*
X146024783Y-101350120I76200J0D01*
G01*
%TO.C,LED26*%
X125655862Y-101184820D02*
X125655862Y-102175420D01*
X125655862Y-102175420D02*
X126646462Y-102175420D01*
X126646462Y-101184820D02*
X125655862Y-101184820D01*
X126646462Y-102175420D02*
X126646462Y-101184820D01*
X126455962Y-101184820D02*
G75*
G02*
X125846362Y-101184820I-304800J0D01*
G01*
X126062462Y-101350120D02*
G75*
G02*
X125910062Y-101350120I-76200J0D01*
G01*
X125910062Y-101350120D02*
G75*
G02*
X126062462Y-101350120I76200J0D01*
G01*
%TO.C,LED31*%
X140627602Y-101184820D02*
X140627602Y-102175420D01*
X140627602Y-102175420D02*
X141618202Y-102175420D01*
X141618202Y-101184820D02*
X140627602Y-101184820D01*
X141618202Y-102175420D02*
X141618202Y-101184820D01*
X141427702Y-101184820D02*
G75*
G02*
X140818102Y-101184820I-304800J0D01*
G01*
X141034202Y-101350120D02*
G75*
G02*
X140881802Y-101350120I-76200J0D01*
G01*
X140881802Y-101350120D02*
G75*
G02*
X141034202Y-101350120I76200J0D01*
G01*
%TO.C,LED25*%
X115674701Y-101184820D02*
X115674701Y-102175420D01*
X115674701Y-102175420D02*
X116665301Y-102175420D01*
X116665301Y-101184820D02*
X115674701Y-101184820D01*
X116665301Y-102175420D02*
X116665301Y-101184820D01*
X116474801Y-101184820D02*
G75*
G02*
X115865201Y-101184820I-304800J0D01*
G01*
X116081301Y-101350120D02*
G75*
G02*
X115928901Y-101350120I-76200J0D01*
G01*
X115928901Y-101350120D02*
G75*
G02*
X116081301Y-101350120I76200J0D01*
G01*
%TO.C,LED3*%
X135637022Y-87037921D02*
X135637022Y-88028521D01*
X135637022Y-88028521D02*
X136627622Y-88028521D01*
X136627622Y-87037921D02*
X135637022Y-87037921D01*
X136627622Y-88028521D02*
X136627622Y-87037921D01*
X136437122Y-87037921D02*
G75*
G02*
X135827522Y-87037921I-304800J0D01*
G01*
X136043622Y-87203221D02*
G75*
G02*
X135891222Y-87203221I-76200J0D01*
G01*
X135891222Y-87203221D02*
G75*
G02*
X136043622Y-87203221I76200J0D01*
G01*
%TO.C,LED5*%
X120665281Y-87037921D02*
X120665281Y-88028521D01*
X120665281Y-88028521D02*
X121655881Y-88028521D01*
X121655881Y-87037921D02*
X120665281Y-87037921D01*
X121655881Y-88028521D02*
X121655881Y-87037921D01*
X121465381Y-87037921D02*
G75*
G02*
X120855781Y-87037921I-304800J0D01*
G01*
X121071881Y-87203221D02*
G75*
G02*
X120919481Y-87203221I-76200J0D01*
G01*
X120919481Y-87203221D02*
G75*
G02*
X121071881Y-87203221I76200J0D01*
G01*
D12*
%TO.C,R29*%
X183400000Y-102140720D02*
X185000000Y-102140720D01*
X183400000Y-102965720D02*
X183400000Y-102140720D01*
X185000000Y-102140720D02*
X185000000Y-102965720D01*
X185000000Y-102965720D02*
X183400000Y-102965720D01*
%TO.C,R30*%
X159506694Y-86632516D02*
X160331694Y-86632516D01*
X159506694Y-88232516D02*
X159506694Y-86632516D01*
X160331694Y-86632516D02*
X160331694Y-88232516D01*
X160331694Y-88232516D02*
X159506694Y-88232516D01*
D14*
%TO.C,LED11*%
X135637022Y-91753554D02*
X135637022Y-92744154D01*
X135637022Y-92744154D02*
X136627622Y-92744154D01*
X136627622Y-91753554D02*
X135637022Y-91753554D01*
X136627622Y-92744154D02*
X136627622Y-91753554D01*
X136437122Y-91753554D02*
G75*
G02*
X135827522Y-91753554I-304800J0D01*
G01*
X136043622Y-91918854D02*
G75*
G02*
X135891222Y-91918854I-76200J0D01*
G01*
X135891222Y-91918854D02*
G75*
G02*
X136043622Y-91918854I76200J0D01*
G01*
D12*
%TO.C,U2*%
X164398000Y-91940220D02*
X164398000Y-92219620D01*
X164398000Y-92219620D02*
X165439400Y-92219620D01*
X164398000Y-92575220D02*
X164398000Y-92880020D01*
X164398000Y-92880020D02*
X165439400Y-92880020D01*
X164398000Y-93235620D02*
X164398000Y-93540420D01*
X164398000Y-93540420D02*
X165439400Y-93540420D01*
X164398000Y-93870620D02*
X164398000Y-94175420D01*
X164398000Y-94175420D02*
X165439400Y-94175420D01*
X164398000Y-94531020D02*
X164398000Y-94835820D01*
X164398000Y-94835820D02*
X165439400Y-94835820D01*
X164398000Y-95166020D02*
X164398000Y-95470820D01*
X164398000Y-95470820D02*
X165439400Y-95470820D01*
X164398000Y-95826420D02*
X164398000Y-96131220D01*
X164398000Y-96131220D02*
X165439400Y-96131220D01*
X164398000Y-96486820D02*
X164398000Y-96766220D01*
X164398000Y-96766220D02*
X165439400Y-96766220D01*
X165439400Y-91813220D02*
X165439400Y-96893220D01*
X165439400Y-91940220D02*
X164398000Y-91940220D01*
X165439400Y-92219620D02*
X165439400Y-91940220D01*
X165439400Y-92575220D02*
X164398000Y-92575220D01*
X165439400Y-92880020D02*
X165439400Y-92575220D01*
X165439400Y-93235620D02*
X164398000Y-93235620D01*
X165439400Y-93540420D02*
X165439400Y-93235620D01*
X165439400Y-93870620D02*
X164398000Y-93870620D01*
X165439400Y-94175420D02*
X165439400Y-93870620D01*
X165439400Y-94531020D02*
X164398000Y-94531020D01*
X165439400Y-94835820D02*
X165439400Y-94531020D01*
X165439400Y-95166020D02*
X164398000Y-95166020D01*
X165439400Y-95470820D02*
X165439400Y-95166020D01*
X165439400Y-95826420D02*
X164398000Y-95826420D01*
X165439400Y-96131220D02*
X165439400Y-95826420D01*
X165439400Y-96486820D02*
X164398000Y-96486820D01*
X165439400Y-96766220D02*
X165439400Y-96486820D01*
X165439400Y-96893220D02*
X169960600Y-96893220D01*
X167395200Y-91813220D02*
X165439400Y-91813220D01*
X168004800Y-91813220D02*
X167395200Y-91813220D01*
X169960600Y-91813220D02*
X168004800Y-91813220D01*
X169960600Y-91940220D02*
X169960600Y-92219620D01*
X169960600Y-92219620D02*
X171002000Y-92219620D01*
X169960600Y-92575220D02*
X169960600Y-92880020D01*
X169960600Y-92880020D02*
X171002000Y-92880020D01*
X169960600Y-93235620D02*
X169960600Y-93540420D01*
X169960600Y-93540420D02*
X171002000Y-93540420D01*
X169960600Y-93870620D02*
X169960600Y-94175420D01*
X169960600Y-94175420D02*
X171002000Y-94175420D01*
X169960600Y-94531020D02*
X169960600Y-94835820D01*
X169960600Y-94835820D02*
X171002000Y-94835820D01*
X169960600Y-95166020D02*
X169960600Y-95470820D01*
X169960600Y-95470820D02*
X171002000Y-95470820D01*
X169960600Y-95826420D02*
X169960600Y-96131220D01*
X169960600Y-96131220D02*
X171002000Y-96131220D01*
X169960600Y-96486820D02*
X169960600Y-96766220D01*
X169960600Y-96766220D02*
X171002000Y-96766220D01*
X169960600Y-96893220D02*
X169960600Y-91813220D01*
X171002000Y-91940220D02*
X169960600Y-91940220D01*
X171002000Y-92219620D02*
X171002000Y-91940220D01*
X171002000Y-92575220D02*
X169960600Y-92575220D01*
X171002000Y-92880020D02*
X171002000Y-92575220D01*
X171002000Y-93235620D02*
X169960600Y-93235620D01*
X171002000Y-93540420D02*
X171002000Y-93235620D01*
X171002000Y-93870620D02*
X169960600Y-93870620D01*
X171002000Y-94175420D02*
X171002000Y-93870620D01*
X171002000Y-94531020D02*
X169960600Y-94531020D01*
X171002000Y-94835820D02*
X171002000Y-94531020D01*
X171002000Y-95166020D02*
X169960600Y-95166020D01*
X171002000Y-95470820D02*
X171002000Y-95166020D01*
X171002000Y-95826420D02*
X169960600Y-95826420D01*
X171002000Y-96131220D02*
X171002000Y-95826420D01*
X171002000Y-96486820D02*
X169960600Y-96486820D01*
X171002000Y-96766220D02*
X171002000Y-96486820D01*
X168004800Y-91813220D02*
G75*
G02*
X167395200Y-91813220I-304800J0D01*
G01*
D15*
%TO.C,D1*%
X179525000Y-102158220D02*
X179525000Y-105058220D01*
X179525000Y-105058220D02*
X180825000Y-105058220D01*
X180825000Y-102158220D02*
X179525000Y-102158220D01*
X180825000Y-105058220D02*
X180825000Y-102158220D01*
D14*
%TO.C,LED8*%
X150608763Y-87037921D02*
X150608763Y-88028521D01*
X150608763Y-88028521D02*
X151599363Y-88028521D01*
X151599363Y-87037921D02*
X150608763Y-87037921D01*
X151599363Y-88028521D02*
X151599363Y-87037921D01*
X151408863Y-87037921D02*
G75*
G02*
X150799263Y-87037921I-304800J0D01*
G01*
X151015363Y-87203221D02*
G75*
G02*
X150862963Y-87203221I-76200J0D01*
G01*
X150862963Y-87203221D02*
G75*
G02*
X151015363Y-87203221I76200J0D01*
G01*
%TO.C,LED27*%
X135637022Y-101184820D02*
X135637022Y-102175420D01*
X135637022Y-102175420D02*
X136627622Y-102175420D01*
X136627622Y-101184820D02*
X135637022Y-101184820D01*
X136627622Y-102175420D02*
X136627622Y-101184820D01*
X136437122Y-101184820D02*
G75*
G02*
X135827522Y-101184820I-304800J0D01*
G01*
X136043622Y-101350120D02*
G75*
G02*
X135891222Y-101350120I-76200J0D01*
G01*
X135891222Y-101350120D02*
G75*
G02*
X136043622Y-101350120I76200J0D01*
G01*
D12*
%TO.C,R26*%
X182800000Y-92240720D02*
X184400000Y-92240720D01*
X182800000Y-93065720D02*
X182800000Y-92240720D01*
X184400000Y-92240720D02*
X184400000Y-93065720D01*
X184400000Y-93065720D02*
X182800000Y-93065720D01*
D14*
%TO.C,LED7*%
X140627602Y-87037921D02*
X140627602Y-88028521D01*
X140627602Y-88028521D02*
X141618202Y-88028521D01*
X141618202Y-87037921D02*
X140627602Y-87037921D01*
X141618202Y-88028521D02*
X141618202Y-87037921D01*
X141427702Y-87037921D02*
G75*
G02*
X140818102Y-87037921I-304800J0D01*
G01*
X141034202Y-87203221D02*
G75*
G02*
X140881802Y-87203221I-76200J0D01*
G01*
X140881802Y-87203221D02*
G75*
G02*
X141034202Y-87203221I76200J0D01*
G01*
%TO.C,LED23*%
X140627602Y-96469187D02*
X140627602Y-97459787D01*
X140627602Y-97459787D02*
X141618202Y-97459787D01*
X141618202Y-96469187D02*
X140627602Y-96469187D01*
X141618202Y-97459787D02*
X141618202Y-96469187D01*
X141427702Y-96469187D02*
G75*
G02*
X140818102Y-96469187I-304800J0D01*
G01*
X141034202Y-96634487D02*
G75*
G02*
X140881802Y-96634487I-76200J0D01*
G01*
X140881802Y-96634487D02*
G75*
G02*
X141034202Y-96634487I76200J0D01*
G01*
%TO.C,LED6*%
X130646442Y-87037921D02*
X130646442Y-88028521D01*
X130646442Y-88028521D02*
X131637042Y-88028521D01*
X131637042Y-87037921D02*
X130646442Y-87037921D01*
X131637042Y-88028521D02*
X131637042Y-87037921D01*
X131446542Y-87037921D02*
G75*
G02*
X130836942Y-87037921I-304800J0D01*
G01*
X131053042Y-87203221D02*
G75*
G02*
X130900642Y-87203221I-76200J0D01*
G01*
X130900642Y-87203221D02*
G75*
G02*
X131053042Y-87203221I76200J0D01*
G01*
D12*
%TO.C,C9*%
X179500000Y-106053220D02*
X181100000Y-106053220D01*
X179500000Y-106853220D02*
X179500000Y-106053220D01*
X181100000Y-106053220D02*
X181100000Y-106853220D01*
X181100000Y-106853220D02*
X179500000Y-106853220D01*
%TO.C,U1*%
X164398000Y-82383220D02*
X164398000Y-82662620D01*
X164398000Y-82662620D02*
X165439400Y-82662620D01*
X164398000Y-83018220D02*
X164398000Y-83323020D01*
X164398000Y-83323020D02*
X165439400Y-83323020D01*
X164398000Y-83678620D02*
X164398000Y-83983420D01*
X164398000Y-83983420D02*
X165439400Y-83983420D01*
X164398000Y-84313620D02*
X164398000Y-84618420D01*
X164398000Y-84618420D02*
X165439400Y-84618420D01*
X164398000Y-84974020D02*
X164398000Y-85278820D01*
X164398000Y-85278820D02*
X165439400Y-85278820D01*
X164398000Y-85609020D02*
X164398000Y-85913820D01*
X164398000Y-85913820D02*
X165439400Y-85913820D01*
X164398000Y-86269420D02*
X164398000Y-86574220D01*
X164398000Y-86574220D02*
X165439400Y-86574220D01*
X164398000Y-86929820D02*
X164398000Y-87209220D01*
X164398000Y-87209220D02*
X165439400Y-87209220D01*
X165439400Y-82256220D02*
X165439400Y-87336220D01*
X165439400Y-82383220D02*
X164398000Y-82383220D01*
X165439400Y-82662620D02*
X165439400Y-82383220D01*
X165439400Y-83018220D02*
X164398000Y-83018220D01*
X165439400Y-83323020D02*
X165439400Y-83018220D01*
X165439400Y-83678620D02*
X164398000Y-83678620D01*
X165439400Y-83983420D02*
X165439400Y-83678620D01*
X165439400Y-84313620D02*
X164398000Y-84313620D01*
X165439400Y-84618420D02*
X165439400Y-84313620D01*
X165439400Y-84974020D02*
X164398000Y-84974020D01*
X165439400Y-85278820D02*
X165439400Y-84974020D01*
X165439400Y-85609020D02*
X164398000Y-85609020D01*
X165439400Y-85913820D02*
X165439400Y-85609020D01*
X165439400Y-86269420D02*
X164398000Y-86269420D01*
X165439400Y-86574220D02*
X165439400Y-86269420D01*
X165439400Y-86929820D02*
X164398000Y-86929820D01*
X165439400Y-87209220D02*
X165439400Y-86929820D01*
X165439400Y-87336220D02*
X169960600Y-87336220D01*
X167395200Y-82256220D02*
X165439400Y-82256220D01*
X168004800Y-82256220D02*
X167395200Y-82256220D01*
X169960600Y-82256220D02*
X168004800Y-82256220D01*
X169960600Y-82383220D02*
X169960600Y-82662620D01*
X169960600Y-82662620D02*
X171002000Y-82662620D01*
X169960600Y-83018220D02*
X169960600Y-83323020D01*
X169960600Y-83323020D02*
X171002000Y-83323020D01*
X169960600Y-83678620D02*
X169960600Y-83983420D01*
X169960600Y-83983420D02*
X171002000Y-83983420D01*
X169960600Y-84313620D02*
X169960600Y-84618420D01*
X169960600Y-84618420D02*
X171002000Y-84618420D01*
X169960600Y-84974020D02*
X169960600Y-85278820D01*
X169960600Y-85278820D02*
X171002000Y-85278820D01*
X169960600Y-85609020D02*
X169960600Y-85913820D01*
X169960600Y-85913820D02*
X171002000Y-85913820D01*
X169960600Y-86269420D02*
X169960600Y-86574220D01*
X169960600Y-86574220D02*
X171002000Y-86574220D01*
X169960600Y-86929820D02*
X169960600Y-87209220D01*
X169960600Y-87209220D02*
X171002000Y-87209220D01*
X169960600Y-87336220D02*
X169960600Y-82256220D01*
X171002000Y-82383220D02*
X169960600Y-82383220D01*
X171002000Y-82662620D02*
X171002000Y-82383220D01*
X171002000Y-83018220D02*
X169960600Y-83018220D01*
X171002000Y-83323020D02*
X171002000Y-83018220D01*
X171002000Y-83678620D02*
X169960600Y-83678620D01*
X171002000Y-83983420D02*
X171002000Y-83678620D01*
X171002000Y-84313620D02*
X169960600Y-84313620D01*
X171002000Y-84618420D02*
X171002000Y-84313620D01*
X171002000Y-84974020D02*
X169960600Y-84974020D01*
X171002000Y-85278820D02*
X171002000Y-84974020D01*
X171002000Y-85609020D02*
X169960600Y-85609020D01*
X171002000Y-85913820D02*
X171002000Y-85609020D01*
X171002000Y-86269420D02*
X169960600Y-86269420D01*
X171002000Y-86574220D02*
X171002000Y-86269420D01*
X171002000Y-86929820D02*
X169960600Y-86929820D01*
X171002000Y-87209220D02*
X171002000Y-86929820D01*
X168004800Y-82256220D02*
G75*
G02*
X167395200Y-82256220I-304800J0D01*
G01*
D14*
%TO.C,LED30*%
X130646442Y-101184820D02*
X130646442Y-102175420D01*
X130646442Y-102175420D02*
X131637042Y-102175420D01*
X131637042Y-101184820D02*
X130646442Y-101184820D01*
X131637042Y-102175420D02*
X131637042Y-101184820D01*
X131446542Y-101184820D02*
G75*
G02*
X130836942Y-101184820I-304800J0D01*
G01*
X131053042Y-101350120D02*
G75*
G02*
X130900642Y-101350120I-76200J0D01*
G01*
X130900642Y-101350120D02*
G75*
G02*
X131053042Y-101350120I76200J0D01*
G01*
%TO.C,LED9*%
X115674701Y-91753554D02*
X115674701Y-92744154D01*
X115674701Y-92744154D02*
X116665301Y-92744154D01*
X116665301Y-91753554D02*
X115674701Y-91753554D01*
X116665301Y-92744154D02*
X116665301Y-91753554D01*
X116474801Y-91753554D02*
G75*
G02*
X115865201Y-91753554I-304800J0D01*
G01*
X116081301Y-91918854D02*
G75*
G02*
X115928901Y-91918854I-76200J0D01*
G01*
X115928901Y-91918854D02*
G75*
G02*
X116081301Y-91918854I76200J0D01*
G01*
D12*
%TO.C,R11*%
X166400000Y-90240720D02*
X168000000Y-90240720D01*
X166400000Y-91065720D02*
X166400000Y-90240720D01*
X168000000Y-90240720D02*
X168000000Y-91065720D01*
X168000000Y-91065720D02*
X166400000Y-91065720D01*
%TO.C,C5*%
X174600000Y-95053220D02*
X176200000Y-95053220D01*
X174600000Y-95853220D02*
X174600000Y-95053220D01*
X176200000Y-95053220D02*
X176200000Y-95853220D01*
X176200000Y-95853220D02*
X174600000Y-95853220D01*
D14*
%TO.C,LED24*%
X150608763Y-96469187D02*
X150608763Y-97459787D01*
X150608763Y-97459787D02*
X151599363Y-97459787D01*
X151599363Y-96469187D02*
X150608763Y-96469187D01*
X151599363Y-97459787D02*
X151599363Y-96469187D01*
X151408863Y-96469187D02*
G75*
G02*
X150799263Y-96469187I-304800J0D01*
G01*
X151015363Y-96634487D02*
G75*
G02*
X150862963Y-96634487I-76200J0D01*
G01*
X150862963Y-96634487D02*
G75*
G02*
X151015363Y-96634487I76200J0D01*
G01*
D12*
%TO.C,R15*%
X166900000Y-100040720D02*
X168500000Y-100040720D01*
X166900000Y-100865720D02*
X166900000Y-100040720D01*
X168500000Y-100040720D02*
X168500000Y-100865720D01*
X168500000Y-100865720D02*
X166900000Y-100865720D01*
D15*
%TO.C,Q3*%
X156350000Y-95387587D02*
X156350000Y-98287587D01*
X156350000Y-98287587D02*
X157650000Y-98287587D01*
X157650000Y-95387587D02*
X156350000Y-95387587D01*
X157650000Y-98287587D02*
X157650000Y-95387587D01*
D13*
X159100000Y-97787587D02*
G75*
G02*
X158900000Y-97787587I-100000J0D01*
G01*
X158900000Y-97787587D02*
G75*
G02*
X159100000Y-97787587I100000J0D01*
G01*
D15*
%TO.C,Q1*%
X156350000Y-85956321D02*
X156350000Y-88856321D01*
X156350000Y-88856321D02*
X157650000Y-88856321D01*
X157650000Y-85956321D02*
X156350000Y-85956321D01*
X157650000Y-88856321D02*
X157650000Y-85956321D01*
D13*
X159100000Y-88356321D02*
G75*
G02*
X158900000Y-88356321I-100000J0D01*
G01*
X158900000Y-88356321D02*
G75*
G02*
X159100000Y-88356321I100000J0D01*
G01*
D12*
%TO.C,C4*%
X175900000Y-80753220D02*
X177500000Y-80753220D01*
X175900000Y-81553220D02*
X175900000Y-80753220D01*
X177500000Y-80753220D02*
X177500000Y-81553220D01*
X177500000Y-81553220D02*
X175900000Y-81553220D01*
%TO.C,R31*%
X159506694Y-91332516D02*
X160331694Y-91332516D01*
X159506694Y-92932516D02*
X159506694Y-91332516D01*
X160331694Y-91332516D02*
X160331694Y-92932516D01*
X160331694Y-92932516D02*
X159506694Y-92932516D01*
D15*
%TO.C,Q2*%
X156350000Y-90671954D02*
X156350000Y-93571954D01*
X156350000Y-93571954D02*
X157650000Y-93571954D01*
X157650000Y-90671954D02*
X156350000Y-90671954D01*
X157650000Y-93571954D02*
X157650000Y-90671954D01*
D13*
X159100000Y-93071954D02*
G75*
G02*
X158900000Y-93071954I-100000J0D01*
G01*
X158900000Y-93071954D02*
G75*
G02*
X159100000Y-93071954I100000J0D01*
G01*
D15*
%TO.C,Q4*%
X156350000Y-100103220D02*
X156350000Y-103003220D01*
X156350000Y-103003220D02*
X157650000Y-103003220D01*
X157650000Y-100103220D02*
X156350000Y-100103220D01*
X157650000Y-103003220D02*
X157650000Y-100103220D01*
D13*
X159100000Y-102503220D02*
G75*
G02*
X158900000Y-102503220I-100000J0D01*
G01*
X158900000Y-102503220D02*
G75*
G02*
X159100000Y-102503220I100000J0D01*
G01*
D12*
%TO.C,R32*%
X159506694Y-96032516D02*
X160331694Y-96032516D01*
X159506694Y-97632516D02*
X159506694Y-96032516D01*
X160331694Y-96032516D02*
X160331694Y-97632516D01*
X160331694Y-97632516D02*
X159506694Y-97632516D01*
%TO.C,R25*%
X179100000Y-98940720D02*
X180700000Y-98940720D01*
X179100000Y-99765720D02*
X179100000Y-98940720D01*
X180700000Y-98940720D02*
X180700000Y-99765720D01*
X180700000Y-99765720D02*
X179100000Y-99765720D01*
%TO.C,C6*%
X178700000Y-93453220D02*
X180300000Y-93453220D01*
X178700000Y-94253220D02*
X178700000Y-93453220D01*
X180300000Y-93453220D02*
X180300000Y-94253220D01*
X180300000Y-94253220D02*
X178700000Y-94253220D01*
%TO.C,C3*%
X166900000Y-107110220D02*
X168500000Y-107110220D01*
X166900000Y-107910220D02*
X166900000Y-107110220D01*
X168500000Y-107110220D02*
X168500000Y-107910220D01*
X168500000Y-107910220D02*
X166900000Y-107910220D01*
%TO.C,C8*%
X174600000Y-93553220D02*
X176200000Y-93553220D01*
X174600000Y-94353220D02*
X174600000Y-93553220D01*
X176200000Y-93553220D02*
X176200000Y-94353220D01*
X176200000Y-94353220D02*
X174600000Y-94353220D01*
D14*
%TO.C,LED4*%
X145618183Y-87037921D02*
X145618183Y-88028521D01*
X145618183Y-88028521D02*
X146608783Y-88028521D01*
X146608783Y-87037921D02*
X145618183Y-87037921D01*
X146608783Y-88028521D02*
X146608783Y-87037921D01*
X146418283Y-87037921D02*
G75*
G02*
X145808683Y-87037921I-304800J0D01*
G01*
X146024783Y-87203221D02*
G75*
G02*
X145872383Y-87203221I-76200J0D01*
G01*
X145872383Y-87203221D02*
G75*
G02*
X146024783Y-87203221I76200J0D01*
G01*
%TO.C,LED16*%
X150608763Y-91753554D02*
X150608763Y-92744154D01*
X150608763Y-92744154D02*
X151599363Y-92744154D01*
X151599363Y-91753554D02*
X150608763Y-91753554D01*
X151599363Y-92744154D02*
X151599363Y-91753554D01*
X151408863Y-91753554D02*
G75*
G02*
X150799263Y-91753554I-304800J0D01*
G01*
X151015363Y-91918854D02*
G75*
G02*
X150862963Y-91918854I-76200J0D01*
G01*
X150862963Y-91918854D02*
G75*
G02*
X151015363Y-91918854I76200J0D01*
G01*
%TO.C,LED12*%
X145618183Y-91753554D02*
X145618183Y-92744154D01*
X145618183Y-92744154D02*
X146608783Y-92744154D01*
X146608783Y-91753554D02*
X145618183Y-91753554D01*
X146608783Y-92744154D02*
X146608783Y-91753554D01*
X146418283Y-91753554D02*
G75*
G02*
X145808683Y-91753554I-304800J0D01*
G01*
X146024783Y-91918854D02*
G75*
G02*
X145872383Y-91918854I-76200J0D01*
G01*
X145872383Y-91918854D02*
G75*
G02*
X146024783Y-91918854I76200J0D01*
G01*
%TO.C,U4*%
X173595200Y-96999219D02*
X173595200Y-97507219D01*
X173595200Y-97507219D02*
X174293700Y-97507219D01*
X173595200Y-97949219D02*
X173595200Y-98457219D01*
X173595200Y-98457219D02*
X174293700Y-98457219D01*
X173595200Y-98899219D02*
X173595200Y-99407219D01*
X173595200Y-99407219D02*
X174293700Y-99407219D01*
X174293700Y-96653819D02*
X174293700Y-99752619D01*
X174293700Y-96999219D02*
X173595200Y-96999219D01*
X174293700Y-97507219D02*
X174293700Y-96999219D01*
X174293700Y-97949219D02*
X173595200Y-97949219D01*
X174293700Y-98457219D02*
X174293700Y-97949219D01*
X174293700Y-98899219D02*
X173595200Y-98899219D01*
X174293700Y-99407219D02*
X174293700Y-98899219D01*
X174293700Y-99752619D02*
X176097100Y-99752619D01*
X176097100Y-96653819D02*
X174293700Y-96653819D01*
X176097100Y-96999219D02*
X176097100Y-97507219D01*
X176097100Y-97507219D02*
X176795600Y-97507219D01*
X176097100Y-98899219D02*
X176097100Y-99407219D01*
X176097100Y-99407219D02*
X176795600Y-99407219D01*
X176097100Y-99752619D02*
X176097100Y-96653819D01*
X176795600Y-96999219D02*
X176097100Y-96999219D01*
X176795600Y-97507219D02*
X176795600Y-96999219D01*
X176795600Y-98899219D02*
X176097100Y-98899219D01*
X176795600Y-99407219D02*
X176795600Y-98899219D01*
X175500200Y-96653819D02*
G75*
G02*
X174890600Y-96653819I-304800J0D01*
G01*
D12*
%TO.C,C7*%
X182800000Y-95253220D02*
X184400000Y-95253220D01*
X182800000Y-96053220D02*
X182800000Y-95253220D01*
X184400000Y-95253220D02*
X184400000Y-96053220D01*
X184400000Y-96053220D02*
X182800000Y-96053220D01*
%TO.C,R33*%
X159506694Y-100732516D02*
X160331694Y-100732516D01*
X159506694Y-102332516D02*
X159506694Y-100732516D01*
X160331694Y-100732516D02*
X160331694Y-102332516D01*
X160331694Y-102332516D02*
X159506694Y-102332516D01*
%TO.C,R27*%
X183412500Y-103740720D02*
X185012500Y-103740720D01*
X183412500Y-104565720D02*
X183412500Y-103740720D01*
X185012500Y-103740720D02*
X185012500Y-104565720D01*
X185012500Y-104565720D02*
X183412500Y-104565720D01*
D14*
%TO.C,LED14*%
X130646442Y-91753554D02*
X130646442Y-92744154D01*
X130646442Y-92744154D02*
X131637042Y-92744154D01*
X131637042Y-91753554D02*
X130646442Y-91753554D01*
X131637042Y-92744154D02*
X131637042Y-91753554D01*
X131446542Y-91753554D02*
G75*
G02*
X130836942Y-91753554I-304800J0D01*
G01*
X131053042Y-91918854D02*
G75*
G02*
X130900642Y-91918854I-76200J0D01*
G01*
X130900642Y-91918854D02*
G75*
G02*
X131053042Y-91918854I76200J0D01*
G01*
%TO.C,LED10*%
X125655862Y-91753554D02*
X125655862Y-92744154D01*
X125655862Y-92744154D02*
X126646462Y-92744154D01*
X126646462Y-91753554D02*
X125655862Y-91753554D01*
X126646462Y-92744154D02*
X126646462Y-91753554D01*
X126455962Y-91753554D02*
G75*
G02*
X125846362Y-91753554I-304800J0D01*
G01*
X126062462Y-91918854D02*
G75*
G02*
X125910062Y-91918854I-76200J0D01*
G01*
X125910062Y-91918854D02*
G75*
G02*
X126062462Y-91918854I76200J0D01*
G01*
%TO.C,LED15*%
X140627602Y-91753554D02*
X140627602Y-92744154D01*
X140627602Y-92744154D02*
X141618202Y-92744154D01*
X141618202Y-91753554D02*
X140627602Y-91753554D01*
X141618202Y-92744154D02*
X141618202Y-91753554D01*
X141427702Y-91753554D02*
G75*
G02*
X140818102Y-91753554I-304800J0D01*
G01*
X141034202Y-91918854D02*
G75*
G02*
X140881802Y-91918854I-76200J0D01*
G01*
X140881802Y-91918854D02*
G75*
G02*
X141034202Y-91918854I76200J0D01*
G01*
D12*
%TO.C,R18*%
X166900000Y-98440720D02*
X168500000Y-98440720D01*
X166900000Y-99265720D02*
X166900000Y-98440720D01*
X168500000Y-98440720D02*
X168500000Y-99265720D01*
X168500000Y-99265720D02*
X166900000Y-99265720D01*
%TO.C,C1*%
X166900000Y-80753220D02*
X168500000Y-80753220D01*
X166900000Y-81553220D02*
X166900000Y-80753220D01*
X168500000Y-80753220D02*
X168500000Y-81553220D01*
X168500000Y-81553220D02*
X166900000Y-81553220D01*
D14*
%TO.C,LED17*%
X115674701Y-96469187D02*
X115674701Y-97459787D01*
X115674701Y-97459787D02*
X116665301Y-97459787D01*
X116665301Y-96469187D02*
X115674701Y-96469187D01*
X116665301Y-97459787D02*
X116665301Y-96469187D01*
X116474801Y-96469187D02*
G75*
G02*
X115865201Y-96469187I-304800J0D01*
G01*
X116081301Y-96634487D02*
G75*
G02*
X115928901Y-96634487I-76200J0D01*
G01*
X115928901Y-96634487D02*
G75*
G02*
X116081301Y-96634487I76200J0D01*
G01*
D15*
%TO.C,U6*%
X177920000Y-95233220D02*
X181680000Y-95233220D01*
X177920000Y-97473220D02*
X177920000Y-95233220D01*
X181680000Y-95233220D02*
X181680000Y-97473220D01*
X181680000Y-97473220D02*
X177920000Y-97473220D01*
D12*
%TO.C,R14*%
X166400000Y-88640720D02*
X168000000Y-88640720D01*
X166400000Y-89465720D02*
X166400000Y-88640720D01*
X168000000Y-88640720D02*
X168000000Y-89465720D01*
X168000000Y-89465720D02*
X166400000Y-89465720D01*
%TO.C,U3*%
X164398000Y-101497220D02*
X164398000Y-101776620D01*
X164398000Y-101776620D02*
X165439400Y-101776620D01*
X164398000Y-102132220D02*
X164398000Y-102437020D01*
X164398000Y-102437020D02*
X165439400Y-102437020D01*
X164398000Y-102792620D02*
X164398000Y-103097420D01*
X164398000Y-103097420D02*
X165439400Y-103097420D01*
X164398000Y-103427620D02*
X164398000Y-103732420D01*
X164398000Y-103732420D02*
X165439400Y-103732420D01*
X164398000Y-104088020D02*
X164398000Y-104392820D01*
X164398000Y-104392820D02*
X165439400Y-104392820D01*
X164398000Y-104723020D02*
X164398000Y-105027820D01*
X164398000Y-105027820D02*
X165439400Y-105027820D01*
X164398000Y-105383420D02*
X164398000Y-105688220D01*
X164398000Y-105688220D02*
X165439400Y-105688220D01*
X164398000Y-106043820D02*
X164398000Y-106323220D01*
X164398000Y-106323220D02*
X165439400Y-106323220D01*
X165439400Y-101370220D02*
X165439400Y-106450220D01*
X165439400Y-101497220D02*
X164398000Y-101497220D01*
X165439400Y-101776620D02*
X165439400Y-101497220D01*
X165439400Y-102132220D02*
X164398000Y-102132220D01*
X165439400Y-102437020D02*
X165439400Y-102132220D01*
X165439400Y-102792620D02*
X164398000Y-102792620D01*
X165439400Y-103097420D02*
X165439400Y-102792620D01*
X165439400Y-103427620D02*
X164398000Y-103427620D01*
X165439400Y-103732420D02*
X165439400Y-103427620D01*
X165439400Y-104088020D02*
X164398000Y-104088020D01*
X165439400Y-104392820D02*
X165439400Y-104088020D01*
X165439400Y-104723020D02*
X164398000Y-104723020D01*
X165439400Y-105027820D02*
X165439400Y-104723020D01*
X165439400Y-105383420D02*
X164398000Y-105383420D01*
X165439400Y-105688220D02*
X165439400Y-105383420D01*
X165439400Y-106043820D02*
X164398000Y-106043820D01*
X165439400Y-106323220D02*
X165439400Y-106043820D01*
X165439400Y-106450220D02*
X169960600Y-106450220D01*
X167395200Y-101370220D02*
X165439400Y-101370220D01*
X168004800Y-101370220D02*
X167395200Y-101370220D01*
X169960600Y-101370220D02*
X168004800Y-101370220D01*
X169960600Y-101497220D02*
X169960600Y-101776620D01*
X169960600Y-101776620D02*
X171002000Y-101776620D01*
X169960600Y-102132220D02*
X169960600Y-102437020D01*
X169960600Y-102437020D02*
X171002000Y-102437020D01*
X169960600Y-102792620D02*
X169960600Y-103097420D01*
X169960600Y-103097420D02*
X171002000Y-103097420D01*
X169960600Y-103427620D02*
X169960600Y-103732420D01*
X169960600Y-103732420D02*
X171002000Y-103732420D01*
X169960600Y-104088020D02*
X169960600Y-104392820D01*
X169960600Y-104392820D02*
X171002000Y-104392820D01*
X169960600Y-104723020D02*
X169960600Y-105027820D01*
X169960600Y-105027820D02*
X171002000Y-105027820D01*
X169960600Y-105383420D02*
X169960600Y-105688220D01*
X169960600Y-105688220D02*
X171002000Y-105688220D01*
X169960600Y-106043820D02*
X169960600Y-106323220D01*
X169960600Y-106323220D02*
X171002000Y-106323220D01*
X169960600Y-106450220D02*
X169960600Y-101370220D01*
X171002000Y-101497220D02*
X169960600Y-101497220D01*
X171002000Y-101776620D02*
X171002000Y-101497220D01*
X171002000Y-102132220D02*
X169960600Y-102132220D01*
X171002000Y-102437020D02*
X171002000Y-102132220D01*
X171002000Y-102792620D02*
X169960600Y-102792620D01*
X171002000Y-103097420D02*
X171002000Y-102792620D01*
X171002000Y-103427620D02*
X169960600Y-103427620D01*
X171002000Y-103732420D02*
X171002000Y-103427620D01*
X171002000Y-104088020D02*
X169960600Y-104088020D01*
X171002000Y-104392820D02*
X171002000Y-104088020D01*
X171002000Y-104723020D02*
X169960600Y-104723020D01*
X171002000Y-105027820D02*
X171002000Y-104723020D01*
X171002000Y-105383420D02*
X169960600Y-105383420D01*
X171002000Y-105688220D02*
X171002000Y-105383420D01*
X171002000Y-106043820D02*
X169960600Y-106043820D01*
X171002000Y-106323220D02*
X171002000Y-106043820D01*
X168004800Y-101370220D02*
G75*
G02*
X167395200Y-101370220I-304800J0D01*
G01*
D14*
%TO.C,LED2*%
X125655862Y-87037921D02*
X125655862Y-88028521D01*
X125655862Y-88028521D02*
X126646462Y-88028521D01*
X126646462Y-87037921D02*
X125655862Y-87037921D01*
X126646462Y-88028521D02*
X126646462Y-87037921D01*
X126455962Y-87037921D02*
G75*
G02*
X125846362Y-87037921I-304800J0D01*
G01*
X126062462Y-87203221D02*
G75*
G02*
X125910062Y-87203221I-76200J0D01*
G01*
X125910062Y-87203221D02*
G75*
G02*
X126062462Y-87203221I76200J0D01*
G01*
%TO.C,LED13*%
X120665281Y-91753554D02*
X120665281Y-92744154D01*
X120665281Y-92744154D02*
X121655881Y-92744154D01*
X121655881Y-91753554D02*
X120665281Y-91753554D01*
X121655881Y-92744154D02*
X121655881Y-91753554D01*
X121465381Y-91753554D02*
G75*
G02*
X120855781Y-91753554I-304800J0D01*
G01*
X121071881Y-91918854D02*
G75*
G02*
X120919481Y-91918854I-76200J0D01*
G01*
X120919481Y-91918854D02*
G75*
G02*
X121071881Y-91918854I76200J0D01*
G01*
%TO.C,LED32*%
X150608763Y-101184820D02*
X150608763Y-102175420D01*
X150608763Y-102175420D02*
X151599363Y-102175420D01*
X151599363Y-101184820D02*
X150608763Y-101184820D01*
X151599363Y-102175420D02*
X151599363Y-101184820D01*
X151408863Y-101184820D02*
G75*
G02*
X150799263Y-101184820I-304800J0D01*
G01*
X151015363Y-101350120D02*
G75*
G02*
X150862963Y-101350120I-76200J0D01*
G01*
X150862963Y-101350120D02*
G75*
G02*
X151015363Y-101350120I76200J0D01*
G01*
%TO.C,LED1*%
X115674701Y-87037921D02*
X115674701Y-88028521D01*
X115674701Y-88028521D02*
X116665301Y-88028521D01*
X116665301Y-87037921D02*
X115674701Y-87037921D01*
X116665301Y-88028521D02*
X116665301Y-87037921D01*
X116474801Y-87037921D02*
G75*
G02*
X115865201Y-87037921I-304800J0D01*
G01*
X116081301Y-87203221D02*
G75*
G02*
X115928901Y-87203221I-76200J0D01*
G01*
X115928901Y-87203221D02*
G75*
G02*
X116081301Y-87203221I76200J0D01*
G01*
%TO.C,LED19*%
X135637022Y-96469187D02*
X135637022Y-97459787D01*
X135637022Y-97459787D02*
X136627622Y-97459787D01*
X136627622Y-96469187D02*
X135637022Y-96469187D01*
X136627622Y-97459787D02*
X136627622Y-96469187D01*
X136437122Y-96469187D02*
G75*
G02*
X135827522Y-96469187I-304800J0D01*
G01*
X136043622Y-96634487D02*
G75*
G02*
X135891222Y-96634487I-76200J0D01*
G01*
X135891222Y-96634487D02*
G75*
G02*
X136043622Y-96634487I76200J0D01*
G01*
%TO.C,LED29*%
X120665281Y-101184820D02*
X120665281Y-102175420D01*
X120665281Y-102175420D02*
X121655881Y-102175420D01*
X121655881Y-101184820D02*
X120665281Y-101184820D01*
X121655881Y-102175420D02*
X121655881Y-101184820D01*
X121465381Y-101184820D02*
G75*
G02*
X120855781Y-101184820I-304800J0D01*
G01*
X121071881Y-101350120D02*
G75*
G02*
X120919481Y-101350120I-76200J0D01*
G01*
X120919481Y-101350120D02*
G75*
G02*
X121071881Y-101350120I76200J0D01*
G01*
%TO.C,LED21*%
X120665281Y-96469187D02*
X120665281Y-97459787D01*
X120665281Y-97459787D02*
X121655881Y-97459787D01*
X121655881Y-96469187D02*
X120665281Y-96469187D01*
X121655881Y-97459787D02*
X121655881Y-96469187D01*
X121465381Y-96469187D02*
G75*
G02*
X120855781Y-96469187I-304800J0D01*
G01*
X121071881Y-96634487D02*
G75*
G02*
X120919481Y-96634487I-76200J0D01*
G01*
X120919481Y-96634487D02*
G75*
G02*
X121071881Y-96634487I76200J0D01*
G01*
%TO.C,LED22*%
X130646442Y-96469187D02*
X130646442Y-97459787D01*
X130646442Y-97459787D02*
X131637042Y-97459787D01*
X131637042Y-96469187D02*
X130646442Y-96469187D01*
X131637042Y-97459787D02*
X131637042Y-96469187D01*
X131446542Y-96469187D02*
G75*
G02*
X130836942Y-96469187I-304800J0D01*
G01*
X131053042Y-96634487D02*
G75*
G02*
X130900642Y-96634487I-76200J0D01*
G01*
X130900642Y-96634487D02*
G75*
G02*
X131053042Y-96634487I76200J0D01*
G01*
%TO.C,LED18*%
X125655862Y-96469187D02*
X125655862Y-97459787D01*
X125655862Y-97459787D02*
X126646462Y-97459787D01*
X126646462Y-96469187D02*
X125655862Y-96469187D01*
X126646462Y-97459787D02*
X126646462Y-96469187D01*
X126455962Y-96469187D02*
G75*
G02*
X125846362Y-96469187I-304800J0D01*
G01*
X126062462Y-96634487D02*
G75*
G02*
X125910062Y-96634487I-76200J0D01*
G01*
X125910062Y-96634487D02*
G75*
G02*
X126062462Y-96634487I76200J0D01*
G01*
%TO.C,LED20*%
X145618183Y-96469187D02*
X145618183Y-97459787D01*
X145618183Y-97459787D02*
X146608783Y-97459787D01*
X146608783Y-96469187D02*
X145618183Y-96469187D01*
X146608783Y-97459787D02*
X146608783Y-96469187D01*
X146418283Y-96469187D02*
G75*
G02*
X145808683Y-96469187I-304800J0D01*
G01*
X146024783Y-96634487D02*
G75*
G02*
X145872383Y-96634487I-76200J0D01*
G01*
X145872383Y-96634487D02*
G75*
G02*
X146024783Y-96634487I76200J0D01*
G01*
D12*
%TO.C,C2*%
X170200000Y-89115720D02*
X171000000Y-89115720D01*
X170200000Y-90715720D02*
X170200000Y-89115720D01*
X171000000Y-89115720D02*
X171000000Y-90715720D01*
X171000000Y-90715720D02*
X170200000Y-90715720D01*
%TO.C,R28*%
X183400000Y-100540720D02*
X185000000Y-100540720D01*
X183400000Y-101365720D02*
X183400000Y-100540720D01*
X185000000Y-100540720D02*
X185000000Y-101365720D01*
X185000000Y-101365720D02*
X183400000Y-101365720D01*
%TD*%
X172505000Y-100045720D02*
X178295000Y-108635720D01*
X172505000Y-108635720D02*
X178295000Y-100045720D01*
X169652447Y-98006947D02*
X171744998Y-100099492D01*
X169652447Y-100099492D02*
X171744998Y-98006947D01*
X185259470Y-88799301D02*
X192449470Y-99339301D01*
X185259470Y-99339301D02*
X192449470Y-88799301D01*
X182255000Y-97108220D02*
X185345000Y-100198220D01*
X182255000Y-100198220D02*
X185345000Y-97108220D01*
X182257562Y-105005667D02*
X185344998Y-108100773D01*
X182257562Y-108100773D02*
X185344998Y-105005667D01*
X181057562Y-87605667D02*
X184144998Y-90700773D01*
X181057562Y-90700773D02*
X184144998Y-87605667D01*
X176252447Y-91206947D02*
X178344998Y-93299492D01*
X176252447Y-93299492D02*
X178344998Y-91206947D01*
X181056987Y-80623060D02*
X188649469Y-88215541D01*
X181056987Y-88215541D02*
X188649469Y-80623060D01*
X172052447Y-91106947D02*
X174144998Y-93199492D01*
X172052447Y-93199492D02*
X174144998Y-91106947D01*
M02*
