G04 #@! TF.GenerationSoftware,KiCad,Pcbnew,9.0.5*
G04 #@! TF.CreationDate,2026-06-17T17:35:32-05:00*
G04 #@! TF.ProjectId,keepsake-keychain,6b656570-7361-46b6-952d-6b6579636861,rev?*
G04 #@! TF.SameCoordinates,Original*
G04 #@! TF.FileFunction,Legend,Bot*
G04 #@! TF.FilePolarity,Positive*
%FSLAX46Y46*%
G04 Gerber Fmt 4.6, Leading zero omitted, Abs format (unit mm)*
G04 Created by KiCad (PCBNEW 9.0.5) date 2026-06-17 17:35:32*
%MOMM*%
%LPD*%
G01*
G04 APERTURE LIST*
G04 Aperture macros list*
%AMRoundRect*
0 Rectangle with rounded corners*
0 $1 Rounding radius*
0 $2 $3 $4 $5 $6 $7 $8 $9 X,Y pos of 4 corners*
0 Add a 4 corners polygon primitive as box body*
4,1,4,$2,$3,$4,$5,$6,$7,$8,$9,$2,$3,0*
0 Add four circle primitives for the rounded corners*
1,1,$1+$1,$2,$3*
1,1,$1+$1,$4,$5*
1,1,$1+$1,$6,$7*
1,1,$1+$1,$8,$9*
0 Add four rect primitives between the rounded corners*
20,1,$1+$1,$2,$3,$4,$5,0*
20,1,$1+$1,$4,$5,$6,$7,0*
20,1,$1+$1,$6,$7,$8,$9,0*
20,1,$1+$1,$8,$9,$2,$3,0*%
G04 Aperture macros list end*
%ADD10C,0.625000*%
%ADD11C,0.280000*%
%ADD12C,0.120000*%
%ADD13RoundRect,0.102000X0.654000X-0.654000X0.654000X0.654000X-0.654000X0.654000X-0.654000X-0.654000X0*%
%ADD14C,1.512000*%
%ADD15C,1.854000*%
%ADD16R,2.000000X2.000000*%
%ADD17C,2.000000*%
%ADD18C,3.900000*%
%ADD19C,7.000000*%
%ADD20RoundRect,0.237500X0.190480X-0.287443X0.277304X0.204960X-0.190480X0.287443X-0.277304X-0.204960X0*%
%ADD21RoundRect,0.237500X-0.302951X-0.164703X0.180012X-0.294112X0.302951X0.164703X-0.180012X0.294112X0*%
%ADD22RoundRect,0.237500X-0.344715X0.008839X0.008839X-0.344715X0.344715X-0.008839X-0.008839X0.344715X0*%
%ADD23RoundRect,0.237500X-0.008839X-0.344715X0.344715X0.008839X0.008839X0.344715X-0.344715X-0.008839X0*%
%ADD24RoundRect,0.237500X0.008839X0.344715X-0.344715X-0.008839X-0.008839X-0.344715X0.344715X0.008839X0*%
%ADD25RoundRect,0.102000X2.650000X2.650000X-2.650000X2.650000X-2.650000X-2.650000X2.650000X-2.650000X0*%
%ADD26RoundRect,0.102000X2.500000X2.500000X-2.500000X2.500000X-2.500000X-2.500000X2.500000X-2.500000X0*%
%ADD27RoundRect,0.237500X-0.180012X-0.294112X0.302951X-0.164703X0.180012X0.294112X-0.302951X0.164703X0*%
%ADD28RoundRect,0.237500X0.277304X-0.204960X0.190480X0.287443X-0.277304X0.204960X-0.190480X-0.287443X0*%
%ADD29RoundRect,0.237500X0.180012X0.294112X-0.302951X0.164703X-0.180012X-0.294112X0.302951X-0.164703X0*%
G04 APERTURE END LIST*
D10*
G36*
X140647596Y-88051292D02*
G01*
X140661485Y-88201899D01*
X140701951Y-88337280D01*
X140768801Y-88460551D01*
X140859043Y-88568345D01*
X140973599Y-88660980D01*
X141116084Y-88738835D01*
X141270000Y-88792794D01*
X141449761Y-88827108D01*
X141659830Y-88839280D01*
X141893103Y-88826530D01*
X142087669Y-88791042D01*
X142249523Y-88736088D01*
X142403198Y-88659404D01*
X142533677Y-88574025D01*
X142643518Y-88480243D01*
X142345541Y-88150057D01*
X142199817Y-88256890D01*
X142040543Y-88335835D01*
X141867845Y-88384526D01*
X141674332Y-88401322D01*
X141553255Y-88391513D01*
X141454774Y-88364244D01*
X141374523Y-88321485D01*
X141310548Y-88260745D01*
X141272748Y-88187070D01*
X141259577Y-88096171D01*
X141270815Y-88009807D01*
X141302761Y-87939937D01*
X141355747Y-87882612D01*
X141474904Y-87812979D01*
X141711884Y-87726449D01*
X141998721Y-87622293D01*
X142198850Y-87517297D01*
X142332108Y-87413207D01*
X142412000Y-87317421D01*
X142468923Y-87209878D01*
X142503895Y-87088248D01*
X142516053Y-86949299D01*
X142501371Y-86801653D01*
X142459035Y-86673118D01*
X142389505Y-86559731D01*
X142297159Y-86462022D01*
X142184729Y-86379894D01*
X142049397Y-86313046D01*
X141904763Y-86266276D01*
X141748579Y-86237566D01*
X141579077Y-86227714D01*
X141387726Y-86237661D01*
X141218775Y-86266057D01*
X141069373Y-86311214D01*
X140927425Y-86375415D01*
X140800498Y-86454601D01*
X140687132Y-86549046D01*
X140965264Y-86868546D01*
X141096906Y-86775699D01*
X141236374Y-86711467D01*
X141383451Y-86673048D01*
X141532518Y-86660329D01*
X141643671Y-86668103D01*
X141732586Y-86689456D01*
X141803475Y-86722305D01*
X141860706Y-86770509D01*
X141894127Y-86829955D01*
X141905752Y-86904419D01*
X141894192Y-86978078D01*
X141860872Y-87037226D01*
X141804979Y-87085850D01*
X141704709Y-87138739D01*
X141396047Y-87248954D01*
X141171723Y-87330397D01*
X140993199Y-87420535D01*
X140888129Y-87494167D01*
X140803253Y-87577433D01*
X140736439Y-87670883D01*
X140688831Y-87774960D01*
X140658465Y-87900251D01*
X140647596Y-88051292D01*
G37*
G36*
X139461491Y-85874172D02*
G01*
X139367140Y-85884885D01*
X139288143Y-85915480D01*
X139221065Y-85965763D01*
X139169225Y-86031621D01*
X139138300Y-86106618D01*
X139127642Y-86193672D01*
X139138274Y-86280659D01*
X139169179Y-86355986D01*
X139221065Y-86422497D01*
X139288199Y-86473231D01*
X139367194Y-86504063D01*
X139461491Y-86514852D01*
X139557037Y-86504038D01*
X139636930Y-86473175D01*
X139704666Y-86422497D01*
X139757007Y-86355931D01*
X139788147Y-86280607D01*
X139798852Y-86193672D01*
X139788120Y-86106671D01*
X139756962Y-86031676D01*
X139704666Y-85965763D01*
X139636986Y-85915534D01*
X139557091Y-85884909D01*
X139461491Y-85874172D01*
G37*
G36*
X139118635Y-86872057D02*
G01*
X139118635Y-88390484D01*
X138633966Y-88390484D01*
X138633966Y-88778220D01*
X140226124Y-88778220D01*
X140226124Y-88390484D01*
X139685737Y-88390484D01*
X139685737Y-87259792D01*
X140208111Y-87259792D01*
X140208111Y-86872057D01*
X139118635Y-86872057D01*
G37*
G36*
X137690120Y-88778220D02*
G01*
X138304086Y-88778220D01*
X137650736Y-87776671D01*
X138243025Y-86872057D01*
X137607688Y-86872057D01*
X137302537Y-87482359D01*
X137008072Y-86872057D01*
X136405097Y-86872057D01*
X136965024Y-87755147D01*
X136308164Y-88778220D01*
X136950675Y-88778220D01*
X137327572Y-88065641D01*
X137690120Y-88778220D01*
G37*
G36*
X134264004Y-88666936D02*
G01*
X134383044Y-88731517D01*
X134533281Y-88788905D01*
X134697219Y-88826126D01*
X134888655Y-88839280D01*
X135076249Y-88825353D01*
X135226788Y-88786967D01*
X135347350Y-88727562D01*
X135443391Y-88648160D01*
X135520379Y-88547720D01*
X135576659Y-88430025D01*
X135612059Y-88291743D01*
X135624589Y-88128534D01*
X135624589Y-87263303D01*
X136024842Y-87263303D01*
X136024842Y-86872057D01*
X135624589Y-86872057D01*
X135624589Y-86459286D01*
X135057335Y-86391051D01*
X135057335Y-86872057D01*
X134443522Y-86872057D01*
X134499240Y-87263303D01*
X135057335Y-87263303D01*
X135057335Y-88128534D01*
X135048810Y-88220930D01*
X135026383Y-88286193D01*
X134992763Y-88331408D01*
X134945757Y-88363103D01*
X134879152Y-88384291D01*
X134786378Y-88392316D01*
X134688388Y-88386060D01*
X134602433Y-88368197D01*
X134521985Y-88340060D01*
X134452529Y-88306220D01*
X134264004Y-88666936D01*
G37*
G36*
X133180337Y-86825640D02*
G01*
X133347598Y-86872044D01*
X133491586Y-86946551D01*
X133618589Y-87048287D01*
X133723128Y-87170168D01*
X133806659Y-87314442D01*
X133865730Y-87471429D01*
X133901876Y-87641463D01*
X133914278Y-87826894D01*
X133901223Y-88021776D01*
X133863640Y-88195453D01*
X133802995Y-88351100D01*
X133716510Y-88492362D01*
X133606563Y-88611036D01*
X133470978Y-88709221D01*
X133318608Y-88779228D01*
X133138096Y-88823531D01*
X132923568Y-88839280D01*
X132762106Y-88830596D01*
X132617755Y-88805655D01*
X132488358Y-88765702D01*
X132308305Y-88680052D01*
X132162599Y-88577177D01*
X132390508Y-88268515D01*
X132506353Y-88333320D01*
X132625745Y-88383309D01*
X132749774Y-88415563D01*
X132878689Y-88426357D01*
X132995855Y-88414518D01*
X133096421Y-88380559D01*
X133183840Y-88324996D01*
X133251945Y-88248724D01*
X133303620Y-88140373D01*
X133336339Y-87990231D01*
X132101538Y-87990231D01*
X132093448Y-87891618D01*
X132090700Y-87787509D01*
X132099770Y-87649207D01*
X132643605Y-87649207D01*
X133343513Y-87649207D01*
X133319316Y-87491065D01*
X133280468Y-87377998D01*
X133230551Y-87299329D01*
X133161926Y-87238581D01*
X133081238Y-87202322D01*
X132984629Y-87189725D01*
X132870583Y-87205009D01*
X132786363Y-87247051D01*
X132724358Y-87315357D01*
X132682240Y-87402647D01*
X132654484Y-87512190D01*
X132643605Y-87649207D01*
X132099770Y-87649207D01*
X132103966Y-87585236D01*
X132141529Y-87411417D01*
X132201067Y-87261624D01*
X132285790Y-87125429D01*
X132388850Y-87014426D01*
X132511561Y-86925943D01*
X132649364Y-86862444D01*
X132805794Y-86823064D01*
X132984629Y-86809317D01*
X133180337Y-86825640D01*
G37*
G36*
X131028557Y-86825640D02*
G01*
X131195818Y-86872044D01*
X131339806Y-86946551D01*
X131466810Y-87048287D01*
X131571348Y-87170168D01*
X131654879Y-87314442D01*
X131713951Y-87471429D01*
X131750097Y-87641463D01*
X131762499Y-87826894D01*
X131749443Y-88021776D01*
X131711860Y-88195453D01*
X131651216Y-88351100D01*
X131564731Y-88492362D01*
X131454784Y-88611036D01*
X131319198Y-88709221D01*
X131166829Y-88779228D01*
X130986317Y-88823531D01*
X130771789Y-88839280D01*
X130610326Y-88830596D01*
X130465976Y-88805655D01*
X130336579Y-88765702D01*
X130156525Y-88680052D01*
X130010820Y-88577177D01*
X130238729Y-88268515D01*
X130354574Y-88333320D01*
X130473965Y-88383309D01*
X130597994Y-88415563D01*
X130726909Y-88426357D01*
X130844075Y-88414518D01*
X130944642Y-88380559D01*
X131032060Y-88324996D01*
X131100166Y-88248724D01*
X131151840Y-88140373D01*
X131184559Y-87990231D01*
X129949759Y-87990231D01*
X129941668Y-87891618D01*
X129938921Y-87787509D01*
X129947991Y-87649207D01*
X130491825Y-87649207D01*
X131191734Y-87649207D01*
X131167537Y-87491065D01*
X131128689Y-87377998D01*
X131078772Y-87299329D01*
X131010146Y-87238581D01*
X130929459Y-87202322D01*
X130832850Y-87189725D01*
X130718804Y-87205009D01*
X130634584Y-87247051D01*
X130572578Y-87315357D01*
X130530460Y-87402647D01*
X130502705Y-87512190D01*
X130491825Y-87649207D01*
X129947991Y-87649207D01*
X129952187Y-87585236D01*
X129989750Y-87411417D01*
X130049288Y-87261624D01*
X130134010Y-87125429D01*
X130237071Y-87014426D01*
X130359782Y-86925943D01*
X130497584Y-86862444D01*
X130654014Y-86823064D01*
X130832850Y-86809317D01*
X131028557Y-86825640D01*
G37*
G36*
X129524624Y-88778220D02*
G01*
X129524624Y-86872057D01*
X129029269Y-86872057D01*
X128989732Y-87092791D01*
X128855387Y-86965096D01*
X128720454Y-86879384D01*
X128571515Y-86827429D01*
X128397443Y-86809317D01*
X128241115Y-86827124D01*
X128115412Y-86877167D01*
X128013371Y-86958305D01*
X127938355Y-87065611D01*
X127890691Y-87202739D01*
X127873389Y-87378250D01*
X127873389Y-88778220D01*
X128440491Y-88778220D01*
X128440491Y-87541587D01*
X128452301Y-87379650D01*
X128479112Y-87296581D01*
X128510616Y-87259477D01*
X128556902Y-87236137D01*
X128623520Y-87227430D01*
X128710104Y-87241433D01*
X128794948Y-87284980D01*
X128873558Y-87350829D01*
X128957370Y-87444654D01*
X128957370Y-88778220D01*
X129524624Y-88778220D01*
G37*
G36*
X123419011Y-86872057D02*
G01*
X124054347Y-88778220D01*
X124128871Y-88963976D01*
X124217301Y-89119472D01*
X124318948Y-89248585D01*
X124433992Y-89354327D01*
X124564479Y-89438246D01*
X124719725Y-89504330D01*
X124903975Y-89551363D01*
X125122299Y-89576894D01*
X125186871Y-89176641D01*
X125008288Y-89145485D01*
X124882788Y-89106573D01*
X124776361Y-89050455D01*
X124696095Y-88980178D01*
X124631559Y-88892570D01*
X124573058Y-88778220D01*
X124766926Y-88778220D01*
X125371885Y-86872057D01*
X124772269Y-86872057D01*
X124402546Y-88415672D01*
X124000461Y-86872057D01*
X123419011Y-86872057D01*
G37*
G36*
X122421439Y-86825640D02*
G01*
X122588700Y-86872044D01*
X122732688Y-86946551D01*
X122859692Y-87048287D01*
X122964230Y-87170168D01*
X123047761Y-87314442D01*
X123106833Y-87471429D01*
X123142979Y-87641463D01*
X123155381Y-87826894D01*
X123142325Y-88021776D01*
X123104742Y-88195453D01*
X123044098Y-88351100D01*
X122957613Y-88492362D01*
X122847666Y-88611036D01*
X122712080Y-88709221D01*
X122559711Y-88779228D01*
X122379199Y-88823531D01*
X122164671Y-88839280D01*
X122003208Y-88830596D01*
X121858858Y-88805655D01*
X121729461Y-88765702D01*
X121549407Y-88680052D01*
X121403702Y-88577177D01*
X121631611Y-88268515D01*
X121747456Y-88333320D01*
X121866847Y-88383309D01*
X121990877Y-88415563D01*
X122119791Y-88426357D01*
X122236957Y-88414518D01*
X122337524Y-88380559D01*
X122424942Y-88324996D01*
X122493048Y-88248724D01*
X122544722Y-88140373D01*
X122577441Y-87990231D01*
X121342641Y-87990231D01*
X121334550Y-87891618D01*
X121331803Y-87787509D01*
X121340873Y-87649207D01*
X121884708Y-87649207D01*
X122584616Y-87649207D01*
X122560419Y-87491065D01*
X122521571Y-87377998D01*
X122471654Y-87299329D01*
X122403028Y-87238581D01*
X122322341Y-87202322D01*
X122225732Y-87189725D01*
X122111686Y-87205009D01*
X122027466Y-87247051D01*
X121965460Y-87315357D01*
X121923343Y-87402647D01*
X121895587Y-87512190D01*
X121884708Y-87649207D01*
X121340873Y-87649207D01*
X121345069Y-87585236D01*
X121382632Y-87411417D01*
X121442170Y-87261624D01*
X121526892Y-87125429D01*
X121629953Y-87014426D01*
X121752664Y-86925943D01*
X121890466Y-86862444D01*
X122046896Y-86823064D01*
X122225732Y-86809317D01*
X122421439Y-86825640D01*
G37*
G36*
X120308258Y-86817696D02*
G01*
X120503820Y-86845190D01*
X120700782Y-86889753D01*
X120888807Y-86950978D01*
X120757679Y-87328028D01*
X120613528Y-87284962D01*
X120470694Y-87253534D01*
X120333064Y-87233198D01*
X120235458Y-87227430D01*
X120085370Y-87242147D01*
X119982854Y-87280470D01*
X119914755Y-87337704D01*
X119873475Y-87415218D01*
X119858560Y-87520064D01*
X119858560Y-87591810D01*
X120115168Y-87591810D01*
X120340089Y-87604214D01*
X120525052Y-87638533D01*
X120676505Y-87691326D01*
X120799964Y-87760490D01*
X120906838Y-87854247D01*
X120981549Y-87963100D01*
X121027180Y-88089975D01*
X121043138Y-88239817D01*
X121031617Y-88368891D01*
X120998443Y-88481988D01*
X120944339Y-88582144D01*
X120868199Y-88671516D01*
X120776081Y-88743133D01*
X120669183Y-88795204D01*
X120544665Y-88827792D01*
X120398795Y-88839280D01*
X120223407Y-88823458D01*
X120050596Y-88775624D01*
X119942405Y-88724873D01*
X119849678Y-88660102D01*
X119770633Y-88580841D01*
X119691370Y-88684779D01*
X119588519Y-88757612D01*
X119464329Y-88804089D01*
X119303824Y-88832106D01*
X119187198Y-88458719D01*
X119245780Y-88426666D01*
X119283216Y-88385141D01*
X119304102Y-88328493D01*
X119312830Y-88228978D01*
X119312830Y-88223636D01*
X119858560Y-88223636D01*
X119922632Y-88312549D01*
X120011212Y-88378882D01*
X120112124Y-88420633D01*
X120203096Y-88433532D01*
X120313489Y-88416948D01*
X120390705Y-88371708D01*
X120427360Y-88326394D01*
X120449970Y-88270317D01*
X120458024Y-88200280D01*
X120445189Y-88112966D01*
X120408573Y-88043568D01*
X120346741Y-87987636D01*
X120268595Y-87950477D01*
X120156158Y-87924718D01*
X119998542Y-87914821D01*
X119858560Y-87914821D01*
X119858560Y-88223636D01*
X119312830Y-88223636D01*
X119312830Y-87482359D01*
X119326913Y-87321220D01*
X119366516Y-87187476D01*
X119429563Y-87075842D01*
X119516620Y-86982577D01*
X119621534Y-86912301D01*
X119756469Y-86858155D01*
X119928390Y-86822431D01*
X120145698Y-86809317D01*
X120308258Y-86817696D01*
G37*
G36*
X118747713Y-88778220D02*
G01*
X118747713Y-88397659D01*
X118496449Y-88397659D01*
X118496449Y-87248954D01*
X118747713Y-87248954D01*
X118747713Y-86872057D01*
X118063986Y-86872057D01*
X117959878Y-87301008D01*
X117881061Y-87143914D01*
X117793851Y-87023948D01*
X117698690Y-86934949D01*
X117587318Y-86869199D01*
X117459151Y-86828780D01*
X117310039Y-86814660D01*
X117137848Y-86829925D01*
X116996034Y-86872057D01*
X117101822Y-87669052D01*
X117457195Y-87669052D01*
X117457195Y-87317189D01*
X117558511Y-87348461D01*
X117652461Y-87405634D01*
X117740975Y-87492281D01*
X117814367Y-87594418D01*
X117877303Y-87713602D01*
X117929347Y-87852081D01*
X117929347Y-88397659D01*
X117552450Y-88397659D01*
X117552450Y-88778220D01*
X118747713Y-88778220D01*
G37*
G36*
X115849314Y-88433532D02*
G01*
X115715671Y-88421236D01*
X115620489Y-88388805D01*
X115571079Y-88352783D01*
X115543063Y-88308807D01*
X115533478Y-88254166D01*
X115542279Y-88197201D01*
X115567519Y-88151889D01*
X115611613Y-88114941D01*
X115698494Y-88072816D01*
X115985785Y-87983056D01*
X116156457Y-87926927D01*
X116297106Y-87859599D01*
X116411989Y-87782167D01*
X116482377Y-87710899D01*
X116533121Y-87625281D01*
X116564930Y-87522384D01*
X116576242Y-87397942D01*
X116562913Y-87275880D01*
X116523911Y-87166802D01*
X116458596Y-87067578D01*
X116363598Y-86976318D01*
X116254481Y-86907718D01*
X116119418Y-86855535D01*
X115953029Y-86821608D01*
X115748869Y-86809317D01*
X115579617Y-86817225D01*
X115432478Y-86839607D01*
X115304653Y-86874804D01*
X115124743Y-86950705D01*
X114977062Y-87040737D01*
X115203139Y-87374586D01*
X115325676Y-87308608D01*
X115458068Y-87257045D01*
X115595461Y-87223979D01*
X115732688Y-87213081D01*
X115870824Y-87226098D01*
X115950273Y-87257619D01*
X115991711Y-87301549D01*
X116005477Y-87360237D01*
X115996779Y-87405286D01*
X115970520Y-87443738D01*
X115926242Y-87475678D01*
X115838628Y-87515484D01*
X115555001Y-87606159D01*
X115377259Y-87664054D01*
X115232906Y-87726449D01*
X115109494Y-87807440D01*
X115020110Y-87908715D01*
X114979930Y-87988093D01*
X114954064Y-88086749D01*
X114944700Y-88209286D01*
X114959099Y-88343400D01*
X115000499Y-88458385D01*
X115068653Y-88558401D01*
X115158040Y-88642807D01*
X115266522Y-88713147D01*
X115397007Y-88769366D01*
X115608083Y-88821273D01*
X115845650Y-88839280D01*
X116028750Y-88829883D01*
X116190638Y-88803047D01*
X116333984Y-88760359D01*
X116533062Y-88666970D01*
X116694700Y-88551990D01*
X116409241Y-88232642D01*
X116291754Y-88310879D01*
X116157060Y-88376135D01*
X116011412Y-88418856D01*
X115849314Y-88433532D01*
G37*
G36*
X140750163Y-91017696D02*
G01*
X140945724Y-91045190D01*
X141142687Y-91089753D01*
X141330712Y-91150978D01*
X141199584Y-91528028D01*
X141055433Y-91484962D01*
X140912599Y-91453534D01*
X140774968Y-91433198D01*
X140677363Y-91427430D01*
X140527274Y-91442147D01*
X140424759Y-91480470D01*
X140356660Y-91537704D01*
X140315380Y-91615218D01*
X140300465Y-91720064D01*
X140300465Y-91791810D01*
X140557073Y-91791810D01*
X140781993Y-91804214D01*
X140966957Y-91838533D01*
X141118410Y-91891326D01*
X141241869Y-91960490D01*
X141348743Y-92054247D01*
X141423454Y-92163100D01*
X141469085Y-92289975D01*
X141485043Y-92439817D01*
X141473522Y-92568891D01*
X141440348Y-92681988D01*
X141386244Y-92782144D01*
X141310104Y-92871516D01*
X141217986Y-92943133D01*
X141111087Y-92995204D01*
X140986570Y-93027792D01*
X140840700Y-93039280D01*
X140665312Y-93023458D01*
X140492501Y-92975624D01*
X140384309Y-92924873D01*
X140291583Y-92860102D01*
X140212538Y-92780841D01*
X140133275Y-92884779D01*
X140030424Y-92957612D01*
X139906234Y-93004089D01*
X139745729Y-93032106D01*
X139629103Y-92658719D01*
X139687685Y-92626666D01*
X139725121Y-92585141D01*
X139746007Y-92528493D01*
X139754735Y-92428978D01*
X139754735Y-92423636D01*
X140300465Y-92423636D01*
X140364537Y-92512549D01*
X140453117Y-92578882D01*
X140554029Y-92620633D01*
X140645000Y-92633532D01*
X140755394Y-92616948D01*
X140832609Y-92571708D01*
X140869265Y-92526394D01*
X140891874Y-92470317D01*
X140899929Y-92400280D01*
X140887094Y-92312966D01*
X140850478Y-92243568D01*
X140788646Y-92187636D01*
X140710499Y-92150477D01*
X140598063Y-92124718D01*
X140440447Y-92114821D01*
X140300465Y-92114821D01*
X140300465Y-92423636D01*
X139754735Y-92423636D01*
X139754735Y-91682359D01*
X139768818Y-91521220D01*
X139808420Y-91387476D01*
X139871467Y-91275842D01*
X139958525Y-91182577D01*
X140063439Y-91112301D01*
X140198374Y-91058155D01*
X140370295Y-91022431D01*
X140587603Y-91009317D01*
X140750163Y-91017696D01*
G37*
G36*
X139207631Y-92978220D02*
G01*
X139207631Y-91072057D01*
X138712276Y-91072057D01*
X138672739Y-91292791D01*
X138538394Y-91165096D01*
X138403462Y-91079384D01*
X138254522Y-91027429D01*
X138080450Y-91009317D01*
X137924122Y-91027124D01*
X137798420Y-91077167D01*
X137696379Y-91158305D01*
X137621362Y-91265611D01*
X137573698Y-91402739D01*
X137556397Y-91578250D01*
X137556397Y-92978220D01*
X138123498Y-92978220D01*
X138123498Y-91741587D01*
X138135308Y-91579650D01*
X138162119Y-91496581D01*
X138193623Y-91459477D01*
X138239909Y-91436137D01*
X138306528Y-91427430D01*
X138393111Y-91441433D01*
X138477956Y-91484980D01*
X138556566Y-91550829D01*
X138640377Y-91644654D01*
X138640377Y-92978220D01*
X139207631Y-92978220D01*
G37*
G36*
X135971719Y-91185172D02*
G01*
X136065050Y-91108002D01*
X136166910Y-91053643D01*
X136279142Y-91020658D01*
X136404334Y-91009317D01*
X136556630Y-91024332D01*
X136690553Y-91067788D01*
X136809930Y-91139376D01*
X136912910Y-91234807D01*
X137000207Y-91353054D01*
X137072033Y-91497497D01*
X137121648Y-91652001D01*
X137152657Y-91825144D01*
X137163471Y-92019719D01*
X137154272Y-92223643D01*
X137128233Y-92401153D01*
X137087298Y-92555527D01*
X137025330Y-92701183D01*
X136948058Y-92818556D01*
X136855725Y-92911816D01*
X136746023Y-92981283D01*
X136616962Y-93024183D01*
X136463563Y-93039280D01*
X136341279Y-93029762D01*
X136236394Y-93002716D01*
X136145894Y-92959443D01*
X136026286Y-92870231D01*
X135935846Y-92768171D01*
X135907147Y-92978220D01*
X135404617Y-92978220D01*
X135404617Y-91580082D01*
X135971719Y-91580082D01*
X135971719Y-92402112D01*
X136038764Y-92495601D01*
X136110937Y-92563617D01*
X136193537Y-92608148D01*
X136284044Y-92622846D01*
X136365411Y-92609766D01*
X136436543Y-92570792D01*
X136492476Y-92504876D01*
X136540652Y-92388678D01*
X136567523Y-92245279D01*
X136578357Y-92023383D01*
X136565815Y-91808622D01*
X136533749Y-91660909D01*
X136488598Y-91562985D01*
X136420136Y-91483835D01*
X136342420Y-91439015D01*
X136251682Y-91423919D01*
X136168003Y-91434528D01*
X136097351Y-91465135D01*
X136034258Y-91513097D01*
X135971719Y-91580082D01*
X135404617Y-91580082D01*
X135404617Y-90314599D01*
X135971719Y-90255370D01*
X135971719Y-91185172D01*
G37*
G36*
X131133268Y-92978220D02*
G01*
X131759751Y-92978220D01*
X131923088Y-91696708D01*
X132093600Y-92978220D01*
X132709245Y-92978220D01*
X132991040Y-91072057D01*
X132472329Y-91072057D01*
X132348376Y-92624678D01*
X132147334Y-91312636D01*
X131669992Y-91312636D01*
X131490473Y-92624678D01*
X131363009Y-91072057D01*
X130862311Y-91072057D01*
X131133268Y-92978220D01*
G37*
G36*
X129952667Y-91025640D02*
G01*
X130119928Y-91072044D01*
X130263916Y-91146551D01*
X130390920Y-91248287D01*
X130495458Y-91370168D01*
X130578989Y-91514442D01*
X130638061Y-91671429D01*
X130674207Y-91841463D01*
X130686609Y-92026894D01*
X130673553Y-92221776D01*
X130635970Y-92395453D01*
X130575326Y-92551100D01*
X130488841Y-92692362D01*
X130378894Y-92811036D01*
X130243308Y-92909221D01*
X130090939Y-92979228D01*
X129910427Y-93023531D01*
X129695899Y-93039280D01*
X129534436Y-93030596D01*
X129390086Y-93005655D01*
X129260689Y-92965702D01*
X129080635Y-92880052D01*
X128934930Y-92777177D01*
X129162839Y-92468515D01*
X129278684Y-92533320D01*
X129398075Y-92583309D01*
X129522104Y-92615563D01*
X129651019Y-92626357D01*
X129768185Y-92614518D01*
X129868752Y-92580559D01*
X129956170Y-92524996D01*
X130024276Y-92448724D01*
X130075950Y-92340373D01*
X130108669Y-92190231D01*
X128873869Y-92190231D01*
X128865778Y-92091618D01*
X128863031Y-91987509D01*
X128872101Y-91849207D01*
X129415935Y-91849207D01*
X130115844Y-91849207D01*
X130091647Y-91691065D01*
X130052799Y-91577998D01*
X130002882Y-91499329D01*
X129934256Y-91438581D01*
X129853569Y-91402322D01*
X129756960Y-91389725D01*
X129642914Y-91405009D01*
X129558694Y-91447051D01*
X129496688Y-91515357D01*
X129454570Y-91602647D01*
X129426815Y-91712190D01*
X129415935Y-91849207D01*
X128872101Y-91849207D01*
X128876297Y-91785236D01*
X128913860Y-91611417D01*
X128973398Y-91461624D01*
X129058120Y-91325429D01*
X129161181Y-91214426D01*
X129283892Y-91125943D01*
X129421694Y-91062444D01*
X129578124Y-91023064D01*
X129756960Y-91009317D01*
X129952667Y-91025640D01*
G37*
G36*
X126296954Y-92978220D02*
G01*
X126296954Y-91072057D01*
X125801599Y-91072057D01*
X125762062Y-91292791D01*
X125627718Y-91165096D01*
X125492785Y-91079384D01*
X125343845Y-91027429D01*
X125169774Y-91009317D01*
X125013445Y-91027124D01*
X124887743Y-91077167D01*
X124785702Y-91158305D01*
X124710686Y-91265611D01*
X124663021Y-91402739D01*
X124645720Y-91578250D01*
X124645720Y-92978220D01*
X125212821Y-92978220D01*
X125212821Y-91741587D01*
X125224631Y-91579650D01*
X125251442Y-91496581D01*
X125282946Y-91459477D01*
X125329232Y-91436137D01*
X125395851Y-91427430D01*
X125482434Y-91441433D01*
X125567279Y-91484980D01*
X125645889Y-91550829D01*
X125729700Y-91644654D01*
X125729700Y-92978220D01*
X126296954Y-92978220D01*
G37*
G36*
X123497329Y-91025640D02*
G01*
X123664590Y-91072044D01*
X123808578Y-91146551D01*
X123935582Y-91248287D01*
X124040120Y-91370168D01*
X124123651Y-91514442D01*
X124182722Y-91671429D01*
X124218868Y-91841463D01*
X124231270Y-92026894D01*
X124218215Y-92221776D01*
X124180632Y-92395453D01*
X124119987Y-92551100D01*
X124033502Y-92692362D01*
X123923555Y-92811036D01*
X123787970Y-92909221D01*
X123635600Y-92979228D01*
X123455088Y-93023531D01*
X123240560Y-93039280D01*
X123079098Y-93030596D01*
X122934748Y-93005655D01*
X122805350Y-92965702D01*
X122625297Y-92880052D01*
X122479591Y-92777177D01*
X122707500Y-92468515D01*
X122823345Y-92533320D01*
X122942737Y-92583309D01*
X123066766Y-92615563D01*
X123195681Y-92626357D01*
X123312847Y-92614518D01*
X123413413Y-92580559D01*
X123500832Y-92524996D01*
X123568937Y-92448724D01*
X123620612Y-92340373D01*
X123653331Y-92190231D01*
X122418531Y-92190231D01*
X122410440Y-92091618D01*
X122407692Y-91987509D01*
X122416762Y-91849207D01*
X122960597Y-91849207D01*
X123660505Y-91849207D01*
X123636308Y-91691065D01*
X123597460Y-91577998D01*
X123547543Y-91499329D01*
X123478918Y-91438581D01*
X123398231Y-91402322D01*
X123301621Y-91389725D01*
X123187575Y-91405009D01*
X123103355Y-91447051D01*
X123041350Y-91515357D01*
X122999232Y-91602647D01*
X122971476Y-91712190D01*
X122960597Y-91849207D01*
X122416762Y-91849207D01*
X122420958Y-91785236D01*
X122458521Y-91611417D01*
X122518059Y-91461624D01*
X122602782Y-91325429D01*
X122705842Y-91214426D01*
X122828553Y-91125943D01*
X122966356Y-91062444D01*
X123122786Y-91023064D01*
X123301621Y-91009317D01*
X123497329Y-91025640D01*
G37*
G36*
X120194852Y-91072057D02*
G01*
X120830341Y-92978220D01*
X121498040Y-92978220D01*
X122140552Y-91072057D01*
X121528571Y-91072057D01*
X121157016Y-92543925D01*
X120769281Y-91072057D01*
X120194852Y-91072057D01*
G37*
G36*
X119193770Y-91025640D02*
G01*
X119361031Y-91072044D01*
X119505019Y-91146551D01*
X119632023Y-91248287D01*
X119736561Y-91370168D01*
X119820092Y-91514442D01*
X119879163Y-91671429D01*
X119915309Y-91841463D01*
X119927711Y-92026894D01*
X119914656Y-92221776D01*
X119877073Y-92395453D01*
X119816428Y-92551100D01*
X119729943Y-92692362D01*
X119619996Y-92811036D01*
X119484411Y-92909221D01*
X119332041Y-92979228D01*
X119151529Y-93023531D01*
X118937001Y-93039280D01*
X118775539Y-93030596D01*
X118631189Y-93005655D01*
X118501791Y-92965702D01*
X118321738Y-92880052D01*
X118176032Y-92777177D01*
X118403941Y-92468515D01*
X118519786Y-92533320D01*
X118639178Y-92583309D01*
X118763207Y-92615563D01*
X118892122Y-92626357D01*
X119009288Y-92614518D01*
X119109854Y-92580559D01*
X119197273Y-92524996D01*
X119265378Y-92448724D01*
X119317053Y-92340373D01*
X119349772Y-92190231D01*
X118114972Y-92190231D01*
X118106881Y-92091618D01*
X118104133Y-91987509D01*
X118113203Y-91849207D01*
X118657038Y-91849207D01*
X119356946Y-91849207D01*
X119332749Y-91691065D01*
X119293901Y-91577998D01*
X119243984Y-91499329D01*
X119175359Y-91438581D01*
X119094672Y-91402322D01*
X118998062Y-91389725D01*
X118884016Y-91405009D01*
X118799796Y-91447051D01*
X118737791Y-91515357D01*
X118695673Y-91602647D01*
X118667917Y-91712190D01*
X118657038Y-91849207D01*
X118113203Y-91849207D01*
X118117399Y-91785236D01*
X118154962Y-91611417D01*
X118214501Y-91461624D01*
X118299223Y-91325429D01*
X118402283Y-91214426D01*
X118524994Y-91125943D01*
X118662797Y-91062444D01*
X118819227Y-91023064D01*
X118998062Y-91009317D01*
X119193770Y-91025640D01*
G37*
G36*
X117671823Y-92978220D02*
G01*
X117671823Y-92597659D01*
X117420559Y-92597659D01*
X117420559Y-91448954D01*
X117671823Y-91448954D01*
X117671823Y-91072057D01*
X116988096Y-91072057D01*
X116883988Y-91501008D01*
X116805171Y-91343914D01*
X116717961Y-91223948D01*
X116622800Y-91134949D01*
X116511428Y-91069199D01*
X116383261Y-91028780D01*
X116234149Y-91014660D01*
X116061958Y-91029925D01*
X115920144Y-91072057D01*
X116025932Y-91869052D01*
X116381305Y-91869052D01*
X116381305Y-91517189D01*
X116482621Y-91548461D01*
X116576571Y-91605634D01*
X116665085Y-91692281D01*
X116738477Y-91794418D01*
X116801413Y-91913602D01*
X116853457Y-92052081D01*
X116853457Y-92597659D01*
X116476560Y-92597659D01*
X116476560Y-92978220D01*
X117671823Y-92978220D01*
G37*
G36*
X139272967Y-96792316D02*
G01*
X139159265Y-96780776D01*
X139053148Y-96746520D01*
X138951483Y-96694979D01*
X138847679Y-96628978D01*
X138594582Y-96988015D01*
X138730843Y-97084896D01*
X138900649Y-97167534D01*
X139022776Y-97206710D01*
X139156487Y-97230921D01*
X139303497Y-97239280D01*
X139504869Y-97224246D01*
X139679278Y-97181398D01*
X139831214Y-97112732D01*
X139967369Y-97017100D01*
X140079777Y-96900543D01*
X140170407Y-96761022D01*
X140234945Y-96606728D01*
X140274945Y-96433480D01*
X140288864Y-96237732D01*
X140274777Y-96042071D01*
X140234028Y-95866361D01*
X140167812Y-95707420D01*
X140075211Y-95562948D01*
X139960921Y-95441890D01*
X139823124Y-95342124D01*
X139669058Y-95269833D01*
X139493697Y-95224986D01*
X139292659Y-95209317D01*
X139082881Y-95225074D01*
X138905992Y-95269462D01*
X138743845Y-95343782D01*
X138594582Y-95447912D01*
X138840352Y-95788936D01*
X138940448Y-95728214D01*
X139045058Y-95683148D01*
X139154645Y-95654923D01*
X139269456Y-95645443D01*
X139391291Y-95661075D01*
X139492863Y-95705987D01*
X139579034Y-95780998D01*
X139639020Y-95879065D01*
X139680500Y-96025494D01*
X139696576Y-96237732D01*
X139680960Y-96435468D01*
X139641010Y-96568986D01*
X139573244Y-96674780D01*
X139489274Y-96741177D01*
X139388531Y-96779212D01*
X139272967Y-96792316D01*
G37*
G36*
X137564488Y-94459033D02*
G01*
X137564488Y-95460582D01*
X137436780Y-95348311D01*
X137302465Y-95270909D01*
X137159424Y-95224889D01*
X137004561Y-95209317D01*
X136878102Y-95219745D01*
X136773625Y-95248953D01*
X136686988Y-95295130D01*
X136615147Y-95358305D01*
X136543200Y-95465190D01*
X136497238Y-95602307D01*
X136480508Y-95778250D01*
X136480508Y-97178220D01*
X137047609Y-97178220D01*
X137047609Y-95936092D01*
X137059384Y-95777630D01*
X137086230Y-95695665D01*
X137117656Y-95659113D01*
X137163927Y-95636049D01*
X137230639Y-95627430D01*
X137316932Y-95642407D01*
X137402067Y-95689407D01*
X137480592Y-95759689D01*
X137564488Y-95859003D01*
X137564488Y-97178220D01*
X138131742Y-97178220D01*
X138131742Y-94514599D01*
X137564488Y-94459033D01*
G37*
G36*
X135370715Y-95217696D02*
G01*
X135566276Y-95245190D01*
X135763239Y-95289753D01*
X135951264Y-95350978D01*
X135820136Y-95728028D01*
X135675985Y-95684962D01*
X135533151Y-95653534D01*
X135395520Y-95633198D01*
X135297915Y-95627430D01*
X135147827Y-95642147D01*
X135045311Y-95680470D01*
X134977212Y-95737704D01*
X134935932Y-95815218D01*
X134921017Y-95920064D01*
X134921017Y-95991810D01*
X135177625Y-95991810D01*
X135402545Y-96004214D01*
X135587509Y-96038533D01*
X135738962Y-96091326D01*
X135862421Y-96160490D01*
X135969295Y-96254247D01*
X136044006Y-96363100D01*
X136089637Y-96489975D01*
X136105595Y-96639817D01*
X136094074Y-96768891D01*
X136060900Y-96881988D01*
X136006796Y-96982144D01*
X135930656Y-97071516D01*
X135838538Y-97143133D01*
X135731639Y-97195204D01*
X135607122Y-97227792D01*
X135461252Y-97239280D01*
X135285864Y-97223458D01*
X135113053Y-97175624D01*
X135004861Y-97124873D01*
X134912135Y-97060102D01*
X134833090Y-96980841D01*
X134753827Y-97084779D01*
X134650976Y-97157612D01*
X134526786Y-97204089D01*
X134366281Y-97232106D01*
X134249655Y-96858719D01*
X134308237Y-96826666D01*
X134345673Y-96785141D01*
X134366559Y-96728493D01*
X134375287Y-96628978D01*
X134375287Y-96623636D01*
X134921017Y-96623636D01*
X134985089Y-96712549D01*
X135073669Y-96778882D01*
X135174581Y-96820633D01*
X135265552Y-96833532D01*
X135375946Y-96816948D01*
X135453161Y-96771708D01*
X135489817Y-96726394D01*
X135512427Y-96670317D01*
X135520481Y-96600280D01*
X135507646Y-96512966D01*
X135471030Y-96443568D01*
X135409198Y-96387636D01*
X135331051Y-96350477D01*
X135218615Y-96324718D01*
X135060999Y-96314821D01*
X134921017Y-96314821D01*
X134921017Y-96623636D01*
X134375287Y-96623636D01*
X134375287Y-95882359D01*
X134389370Y-95721220D01*
X134428972Y-95587476D01*
X134492019Y-95475842D01*
X134579077Y-95382577D01*
X134683991Y-95312301D01*
X134818926Y-95258155D01*
X134990847Y-95222431D01*
X135208155Y-95209317D01*
X135370715Y-95217696D01*
G37*
G36*
X133828183Y-97178220D02*
G01*
X133828183Y-95272057D01*
X133332828Y-95272057D01*
X133293291Y-95492791D01*
X133158946Y-95365096D01*
X133024014Y-95279384D01*
X132875074Y-95227429D01*
X132701002Y-95209317D01*
X132544674Y-95227124D01*
X132418972Y-95277167D01*
X132316931Y-95358305D01*
X132241915Y-95465611D01*
X132194250Y-95602739D01*
X132176949Y-95778250D01*
X132176949Y-97178220D01*
X132744050Y-97178220D01*
X132744050Y-95941587D01*
X132755860Y-95779650D01*
X132782671Y-95696581D01*
X132814175Y-95659477D01*
X132860461Y-95636137D01*
X132927080Y-95627430D01*
X133013663Y-95641433D01*
X133098508Y-95684980D01*
X133177118Y-95750829D01*
X133260929Y-95844654D01*
X133260929Y-97178220D01*
X133828183Y-97178220D01*
G37*
G36*
X130224380Y-95091775D02*
G01*
X130355336Y-95142932D01*
X130508007Y-95183366D01*
X130672896Y-95206734D01*
X130879409Y-95212828D01*
X131042860Y-95222752D01*
X131188964Y-95251305D01*
X131320114Y-95297244D01*
X131441643Y-95362732D01*
X131541582Y-95442403D01*
X131622518Y-95536755D01*
X131682466Y-95644885D01*
X131719204Y-95767291D01*
X131731969Y-95907393D01*
X131722602Y-96028499D01*
X131695901Y-96133199D01*
X131653048Y-96224299D01*
X131592493Y-96304451D01*
X131506813Y-96380680D01*
X131390945Y-96453124D01*
X131482771Y-96526218D01*
X131549855Y-96612797D01*
X131592366Y-96711144D01*
X131606337Y-96813840D01*
X131591462Y-96909258D01*
X131546409Y-96997067D01*
X131466355Y-97080522D01*
X131366026Y-97139083D01*
X131221417Y-97179085D01*
X131017711Y-97194401D01*
X130714392Y-97194401D01*
X130582685Y-97209331D01*
X130504343Y-97246455D01*
X130454535Y-97306573D01*
X130437940Y-97382773D01*
X130446701Y-97440965D01*
X130472897Y-97493140D01*
X130518690Y-97534803D01*
X130603109Y-97571298D01*
X130709034Y-97591652D01*
X130879409Y-97599996D01*
X131048278Y-97592669D01*
X131153266Y-97574809D01*
X131235940Y-97540460D01*
X131280730Y-97496804D01*
X131304970Y-97438851D01*
X131313856Y-97361249D01*
X131816385Y-97361249D01*
X131807151Y-97484908D01*
X131780767Y-97592614D01*
X131738380Y-97687008D01*
X131676450Y-97767913D01*
X131585957Y-97838600D01*
X131460096Y-97898889D01*
X131324064Y-97937090D01*
X131139266Y-97963431D01*
X130893758Y-97973383D01*
X130633238Y-97960502D01*
X130425047Y-97925387D01*
X130260254Y-97872413D01*
X130131110Y-97804550D01*
X130016309Y-97709897D01*
X129937688Y-97603383D01*
X129890590Y-97482676D01*
X129874349Y-97343389D01*
X129884543Y-97239761D01*
X129914393Y-97145957D01*
X129964109Y-97059762D01*
X130030331Y-96984597D01*
X130113558Y-96919465D01*
X130216289Y-96864215D01*
X130326823Y-96825448D01*
X130454210Y-96800954D01*
X130601277Y-96792316D01*
X130913603Y-96792316D01*
X131036004Y-96780830D01*
X131086710Y-96756443D01*
X131114622Y-96717607D01*
X131123499Y-96675690D01*
X131107471Y-96612797D01*
X131087696Y-96585886D01*
X131060759Y-96566239D01*
X130956179Y-96582210D01*
X130840025Y-96587762D01*
X130676449Y-96577863D01*
X130534514Y-96549758D01*
X130411073Y-96505178D01*
X130296866Y-96441566D01*
X130204451Y-96366019D01*
X130131110Y-96278185D01*
X130076493Y-96177939D01*
X130043590Y-96068930D01*
X130032344Y-95948762D01*
X130037629Y-95893044D01*
X130574411Y-95893044D01*
X130588296Y-96023036D01*
X130624907Y-96113351D01*
X130680757Y-96174776D01*
X130758250Y-96212906D01*
X130865060Y-96226894D01*
X130948877Y-96217033D01*
X131018418Y-96188916D01*
X131076940Y-96142630D01*
X131120092Y-96081580D01*
X131147643Y-96002535D01*
X131157693Y-95900219D01*
X131148053Y-95803873D01*
X131121278Y-95727253D01*
X131078772Y-95666051D01*
X131021115Y-95619367D01*
X130951099Y-95590812D01*
X130865060Y-95580719D01*
X130756705Y-95594237D01*
X130678926Y-95630775D01*
X130623653Y-95688847D01*
X130587877Y-95773059D01*
X130574411Y-95893044D01*
X130037629Y-95893044D01*
X130043722Y-95828814D01*
X130075627Y-95730678D01*
X130126530Y-95649870D01*
X130195109Y-95581042D01*
X130285041Y-95517228D01*
X130400235Y-95458750D01*
X130226229Y-95453954D01*
X130086077Y-95440890D01*
X129956463Y-95416626D01*
X129850994Y-95383340D01*
X129983801Y-94966906D01*
X130224380Y-95091775D01*
G37*
G36*
X128876778Y-95225640D02*
G01*
X129044039Y-95272044D01*
X129188027Y-95346551D01*
X129315031Y-95448287D01*
X129419569Y-95570168D01*
X129503100Y-95714442D01*
X129562172Y-95871429D01*
X129598318Y-96041463D01*
X129610720Y-96226894D01*
X129597664Y-96421776D01*
X129560081Y-96595453D01*
X129499437Y-96751100D01*
X129412952Y-96892362D01*
X129303005Y-97011036D01*
X129167419Y-97109221D01*
X129015050Y-97179228D01*
X128834538Y-97223531D01*
X128620010Y-97239280D01*
X128458547Y-97230596D01*
X128314197Y-97205655D01*
X128184800Y-97165702D01*
X128004746Y-97080052D01*
X127859041Y-96977177D01*
X128086950Y-96668515D01*
X128202795Y-96733320D01*
X128322186Y-96783309D01*
X128446215Y-96815563D01*
X128575130Y-96826357D01*
X128692296Y-96814518D01*
X128792863Y-96780559D01*
X128880281Y-96724996D01*
X128948387Y-96648724D01*
X129000061Y-96540373D01*
X129032780Y-96390231D01*
X127797980Y-96390231D01*
X127789889Y-96291618D01*
X127787142Y-96187509D01*
X127796212Y-96049207D01*
X128340046Y-96049207D01*
X129039955Y-96049207D01*
X129015758Y-95891065D01*
X128976910Y-95777998D01*
X128926993Y-95699329D01*
X128858367Y-95638581D01*
X128777680Y-95602322D01*
X128681071Y-95589725D01*
X128567025Y-95605009D01*
X128482805Y-95647051D01*
X128420799Y-95715357D01*
X128378681Y-95802647D01*
X128350926Y-95912190D01*
X128340046Y-96049207D01*
X127796212Y-96049207D01*
X127800408Y-95985236D01*
X127837971Y-95811417D01*
X127897509Y-95661624D01*
X127982231Y-95525429D01*
X128085292Y-95414426D01*
X128208003Y-95325943D01*
X128345805Y-95262444D01*
X128502235Y-95223064D01*
X128681071Y-95209317D01*
X128876778Y-95225640D01*
G37*
G36*
X126288712Y-95385172D02*
G01*
X126382043Y-95308002D01*
X126483903Y-95253643D01*
X126596135Y-95220658D01*
X126721327Y-95209317D01*
X126873623Y-95224332D01*
X127007546Y-95267788D01*
X127126923Y-95339376D01*
X127229903Y-95434807D01*
X127317200Y-95553054D01*
X127389026Y-95697497D01*
X127438641Y-95852001D01*
X127469650Y-96025144D01*
X127480464Y-96219719D01*
X127471265Y-96423643D01*
X127445226Y-96601153D01*
X127404291Y-96755527D01*
X127342323Y-96901183D01*
X127265051Y-97018556D01*
X127172718Y-97111816D01*
X127063016Y-97181283D01*
X126933955Y-97224183D01*
X126780556Y-97239280D01*
X126658272Y-97229762D01*
X126553387Y-97202716D01*
X126462888Y-97159443D01*
X126343279Y-97070231D01*
X126252839Y-96968171D01*
X126224140Y-97178220D01*
X125721610Y-97178220D01*
X125721610Y-95780082D01*
X126288712Y-95780082D01*
X126288712Y-96602112D01*
X126355757Y-96695601D01*
X126427930Y-96763617D01*
X126510530Y-96808148D01*
X126601037Y-96822846D01*
X126682404Y-96809766D01*
X126753537Y-96770792D01*
X126809469Y-96704876D01*
X126857645Y-96588678D01*
X126884516Y-96445279D01*
X126895350Y-96223383D01*
X126882808Y-96008622D01*
X126850742Y-95860909D01*
X126805591Y-95762985D01*
X126737129Y-95683835D01*
X126659413Y-95639015D01*
X126568675Y-95623919D01*
X126484996Y-95634528D01*
X126414344Y-95665135D01*
X126351251Y-95713097D01*
X126288712Y-95780082D01*
X125721610Y-95780082D01*
X125721610Y-94514599D01*
X126288712Y-94455370D01*
X126288712Y-95385172D01*
G37*
G36*
X122433907Y-95224421D02*
G01*
X122598446Y-95267509D01*
X122741695Y-95336781D01*
X122868685Y-95432446D01*
X122974096Y-95550057D01*
X123059363Y-95692154D01*
X123119284Y-95847717D01*
X123156668Y-96023610D01*
X123169731Y-96223383D01*
X123152455Y-96464199D01*
X123104096Y-96664810D01*
X123028146Y-96832186D01*
X122925640Y-96971834D01*
X122823120Y-97065933D01*
X122706121Y-97139581D01*
X122572563Y-97193574D01*
X122419565Y-97227404D01*
X122243592Y-97239280D01*
X122067818Y-97227276D01*
X121914923Y-97193068D01*
X121781361Y-97138426D01*
X121664254Y-97063804D01*
X121561544Y-96968323D01*
X121458776Y-96826882D01*
X121382832Y-96658681D01*
X121334626Y-96458497D01*
X121317454Y-96219719D01*
X121902568Y-96219719D01*
X121914221Y-96433632D01*
X121944074Y-96581913D01*
X121986069Y-96681033D01*
X122051819Y-96759839D01*
X122135657Y-96806431D01*
X122243592Y-96822846D01*
X122351629Y-96806426D01*
X122435513Y-96759829D01*
X122501269Y-96681033D01*
X122543263Y-96581980D01*
X122573026Y-96434743D01*
X122584616Y-96223383D01*
X122573106Y-96015782D01*
X122543414Y-95869703D01*
X122501269Y-95770159D01*
X122435443Y-95690795D01*
X122351552Y-95643930D01*
X122243592Y-95627430D01*
X122135657Y-95643845D01*
X122051819Y-95690437D01*
X121986069Y-95769244D01*
X121943834Y-95868202D01*
X121914095Y-96013391D01*
X121902568Y-96219719D01*
X121317454Y-96219719D01*
X121330473Y-96018666D01*
X121367644Y-95842520D01*
X121427058Y-95687575D01*
X121511738Y-95546227D01*
X121616535Y-95429546D01*
X121742894Y-95334949D01*
X121885491Y-95266862D01*
X122050805Y-95224299D01*
X122243592Y-95209317D01*
X122433907Y-95224421D01*
G37*
G36*
X120350252Y-95272057D02*
G01*
X120350252Y-96576924D01*
X120335159Y-96701621D01*
X120299114Y-96767128D01*
X120239997Y-96805389D01*
X120156537Y-96819183D01*
X120070336Y-96805866D01*
X119980530Y-96763617D01*
X119900441Y-96698732D01*
X119833373Y-96612797D01*
X119833373Y-95272057D01*
X119266272Y-95272057D01*
X119266272Y-97178220D01*
X119761627Y-97178220D01*
X119786662Y-96955653D01*
X119858026Y-97041366D01*
X119942515Y-97111671D01*
X120041590Y-97167534D01*
X120203289Y-97221377D01*
X120371776Y-97239280D01*
X120509212Y-97227846D01*
X120620323Y-97196110D01*
X120710288Y-97146367D01*
X120782867Y-97078691D01*
X120855279Y-96964465D01*
X120901051Y-96822971D01*
X120917506Y-96646991D01*
X120917506Y-95272057D01*
X120350252Y-95272057D01*
G37*
G36*
X118747714Y-97178220D02*
G01*
X118747714Y-96797659D01*
X118496449Y-96797659D01*
X118496449Y-95648954D01*
X118747714Y-95648954D01*
X118747714Y-95272057D01*
X118063987Y-95272057D01*
X117959878Y-95701008D01*
X117881061Y-95543914D01*
X117793852Y-95423948D01*
X117698691Y-95334949D01*
X117587318Y-95269199D01*
X117459151Y-95228780D01*
X117310039Y-95214660D01*
X117137848Y-95229925D01*
X116996035Y-95272057D01*
X117101822Y-96069052D01*
X117457196Y-96069052D01*
X117457196Y-95717189D01*
X117558511Y-95748461D01*
X117652461Y-95805634D01*
X117740975Y-95892281D01*
X117814368Y-95994418D01*
X117877304Y-96113602D01*
X117929348Y-96252081D01*
X117929348Y-96797659D01*
X117552450Y-96797659D01*
X117552450Y-97178220D01*
X118747714Y-97178220D01*
G37*
G36*
X132419207Y-99409317D02*
G01*
X132290499Y-99425357D01*
X132192860Y-99469672D01*
X132118635Y-99541208D01*
X132068727Y-99634975D01*
X132034134Y-99772163D01*
X132020786Y-99967412D01*
X132020786Y-101378220D01*
X132507134Y-101378220D01*
X132507134Y-100032136D01*
X132512906Y-99939143D01*
X132526063Y-99890323D01*
X132553240Y-99859995D01*
X132602236Y-99848954D01*
X132646693Y-99855170D01*
X132694743Y-99875057D01*
X132741038Y-99909095D01*
X132799768Y-99972907D01*
X132799768Y-101378220D01*
X133198189Y-101378220D01*
X133198189Y-100032136D01*
X133203961Y-99939143D01*
X133217118Y-99890323D01*
X133244294Y-99859995D01*
X133293291Y-99848954D01*
X133337747Y-99855170D01*
X133385798Y-99875057D01*
X133432067Y-99909102D01*
X133490670Y-99972907D01*
X133490670Y-101378220D01*
X133984345Y-101378220D01*
X133984345Y-99472057D01*
X133567911Y-99472057D01*
X133530206Y-99656918D01*
X133436326Y-99546009D01*
X133349009Y-99472209D01*
X133250581Y-99425529D01*
X133131785Y-99409317D01*
X133030308Y-99423500D01*
X132947840Y-99464119D01*
X132884300Y-99531469D01*
X132839152Y-99635394D01*
X132747570Y-99543534D01*
X132648948Y-99472209D01*
X132539917Y-99425166D01*
X132419207Y-99409317D01*
G37*
G36*
X130854373Y-98474172D02*
G01*
X130760022Y-98484885D01*
X130681025Y-98515480D01*
X130613947Y-98565763D01*
X130562107Y-98631621D01*
X130531182Y-98706618D01*
X130520524Y-98793672D01*
X130531156Y-98880659D01*
X130562061Y-98955986D01*
X130613947Y-99022497D01*
X130681081Y-99073231D01*
X130760076Y-99104063D01*
X130854373Y-99114852D01*
X130949919Y-99104038D01*
X131029812Y-99073175D01*
X131097548Y-99022497D01*
X131149889Y-98955931D01*
X131181029Y-98880607D01*
X131191734Y-98793672D01*
X131181002Y-98706671D01*
X131149844Y-98631676D01*
X131097548Y-98565763D01*
X131029868Y-98515534D01*
X130949973Y-98484909D01*
X130854373Y-98474172D01*
G37*
G36*
X130511517Y-99472057D02*
G01*
X130511517Y-100990484D01*
X130026848Y-100990484D01*
X130026848Y-101378220D01*
X131619006Y-101378220D01*
X131619006Y-100990484D01*
X131078619Y-100990484D01*
X131078619Y-99859792D01*
X131600993Y-99859792D01*
X131600993Y-99472057D01*
X130511517Y-99472057D01*
G37*
G36*
X129524624Y-101378220D02*
G01*
X129524624Y-99472057D01*
X129029269Y-99472057D01*
X128989732Y-99692791D01*
X128855387Y-99565096D01*
X128720454Y-99479384D01*
X128571515Y-99427429D01*
X128397443Y-99409317D01*
X128241115Y-99427124D01*
X128115412Y-99477167D01*
X128013371Y-99558305D01*
X127938355Y-99665611D01*
X127890690Y-99802739D01*
X127873389Y-99978250D01*
X127873389Y-101378220D01*
X128440491Y-101378220D01*
X128440491Y-100141587D01*
X128452301Y-99979650D01*
X128479112Y-99896581D01*
X128510615Y-99859477D01*
X128556902Y-99836137D01*
X128623520Y-99827430D01*
X128710104Y-99841433D01*
X128794948Y-99884980D01*
X128873558Y-99950829D01*
X128957370Y-100044654D01*
X128957370Y-101378220D01*
X129524624Y-101378220D01*
G37*
G36*
X126288711Y-99585172D02*
G01*
X126382042Y-99508002D01*
X126483902Y-99453643D01*
X126596135Y-99420658D01*
X126721326Y-99409317D01*
X126873623Y-99424332D01*
X127007545Y-99467788D01*
X127126922Y-99539376D01*
X127229902Y-99634807D01*
X127317200Y-99753054D01*
X127389025Y-99897497D01*
X127438641Y-100052001D01*
X127469650Y-100225144D01*
X127480464Y-100419719D01*
X127471264Y-100623643D01*
X127445225Y-100801153D01*
X127404290Y-100955527D01*
X127342322Y-101101183D01*
X127265051Y-101218556D01*
X127172718Y-101311816D01*
X127063015Y-101381283D01*
X126933954Y-101424183D01*
X126780555Y-101439280D01*
X126658271Y-101429762D01*
X126553386Y-101402716D01*
X126462887Y-101359443D01*
X126343278Y-101270231D01*
X126252838Y-101168171D01*
X126224140Y-101378220D01*
X125721610Y-101378220D01*
X125721610Y-99980082D01*
X126288711Y-99980082D01*
X126288711Y-100802112D01*
X126355757Y-100895601D01*
X126427930Y-100963617D01*
X126510529Y-101008148D01*
X126601037Y-101022846D01*
X126682403Y-101009766D01*
X126753536Y-100970792D01*
X126809469Y-100904876D01*
X126857644Y-100788678D01*
X126884515Y-100645279D01*
X126895349Y-100423383D01*
X126882808Y-100208622D01*
X126850741Y-100060909D01*
X126805590Y-99962985D01*
X126737128Y-99883835D01*
X126659413Y-99839015D01*
X126568675Y-99823919D01*
X126484995Y-99834528D01*
X126414344Y-99865135D01*
X126351251Y-99913097D01*
X126288711Y-99980082D01*
X125721610Y-99980082D01*
X125721610Y-98714599D01*
X126288711Y-98655370D01*
X126288711Y-99585172D01*
G37*
G36*
X124456432Y-101033532D02*
G01*
X124322789Y-101021236D01*
X124227607Y-100988805D01*
X124178197Y-100952783D01*
X124150181Y-100908807D01*
X124140595Y-100854166D01*
X124149397Y-100797201D01*
X124174637Y-100751889D01*
X124218731Y-100714941D01*
X124305612Y-100672816D01*
X124592903Y-100583056D01*
X124763575Y-100526927D01*
X124904224Y-100459599D01*
X125019106Y-100382167D01*
X125089495Y-100310899D01*
X125140239Y-100225281D01*
X125172047Y-100122384D01*
X125183360Y-99997942D01*
X125170031Y-99875880D01*
X125131029Y-99766802D01*
X125065714Y-99667578D01*
X124970716Y-99576318D01*
X124861599Y-99507718D01*
X124726536Y-99455535D01*
X124560147Y-99421608D01*
X124355987Y-99409317D01*
X124186735Y-99417225D01*
X124039596Y-99439607D01*
X123911770Y-99474804D01*
X123731861Y-99550705D01*
X123584180Y-99640737D01*
X123810257Y-99974586D01*
X123932794Y-99908608D01*
X124065185Y-99857045D01*
X124202579Y-99823979D01*
X124339806Y-99813081D01*
X124477941Y-99826098D01*
X124557391Y-99857619D01*
X124598829Y-99901549D01*
X124612595Y-99960237D01*
X124603897Y-100005286D01*
X124577637Y-100043738D01*
X124533360Y-100075678D01*
X124445746Y-100115484D01*
X124162119Y-100206159D01*
X123984377Y-100264054D01*
X123840024Y-100326449D01*
X123716612Y-100407440D01*
X123627228Y-100508715D01*
X123587047Y-100588093D01*
X123561182Y-100686749D01*
X123551818Y-100809286D01*
X123566217Y-100943400D01*
X123607617Y-101058385D01*
X123675771Y-101158401D01*
X123765158Y-101242807D01*
X123873640Y-101313147D01*
X124004125Y-101369366D01*
X124215201Y-101421273D01*
X124452768Y-101439280D01*
X124635868Y-101429883D01*
X124797756Y-101403047D01*
X124941101Y-101360359D01*
X125140180Y-101266970D01*
X125301818Y-101151990D01*
X125016359Y-100832642D01*
X124898872Y-100910879D01*
X124764178Y-100976135D01*
X124618530Y-101018856D01*
X124456432Y-101033532D01*
G37*
D11*
X146549123Y-104946738D02*
X146349123Y-105013404D01*
X146349123Y-105013404D02*
X146015790Y-105013404D01*
X146015790Y-105013404D02*
X145882456Y-104946738D01*
X145882456Y-104946738D02*
X145815790Y-104880071D01*
X145815790Y-104880071D02*
X145749123Y-104746738D01*
X145749123Y-104746738D02*
X145749123Y-104613404D01*
X145749123Y-104613404D02*
X145815790Y-104480071D01*
X145815790Y-104480071D02*
X145882456Y-104413404D01*
X145882456Y-104413404D02*
X146015790Y-104346738D01*
X146015790Y-104346738D02*
X146282456Y-104280071D01*
X146282456Y-104280071D02*
X146415790Y-104213404D01*
X146415790Y-104213404D02*
X146482456Y-104146738D01*
X146482456Y-104146738D02*
X146549123Y-104013404D01*
X146549123Y-104013404D02*
X146549123Y-103880071D01*
X146549123Y-103880071D02*
X146482456Y-103746738D01*
X146482456Y-103746738D02*
X146415790Y-103680071D01*
X146415790Y-103680071D02*
X146282456Y-103613404D01*
X146282456Y-103613404D02*
X145949123Y-103613404D01*
X145949123Y-103613404D02*
X145749123Y-103680071D01*
X145349123Y-104080071D02*
X144815790Y-104080071D01*
X145149123Y-103613404D02*
X145149123Y-104813404D01*
X145149123Y-104813404D02*
X145082457Y-104946738D01*
X145082457Y-104946738D02*
X144949123Y-105013404D01*
X144949123Y-105013404D02*
X144815790Y-105013404D01*
X143815790Y-104946738D02*
X143949123Y-105013404D01*
X143949123Y-105013404D02*
X144215790Y-105013404D01*
X144215790Y-105013404D02*
X144349123Y-104946738D01*
X144349123Y-104946738D02*
X144415790Y-104813404D01*
X144415790Y-104813404D02*
X144415790Y-104280071D01*
X144415790Y-104280071D02*
X144349123Y-104146738D01*
X144349123Y-104146738D02*
X144215790Y-104080071D01*
X144215790Y-104080071D02*
X143949123Y-104080071D01*
X143949123Y-104080071D02*
X143815790Y-104146738D01*
X143815790Y-104146738D02*
X143749123Y-104280071D01*
X143749123Y-104280071D02*
X143749123Y-104413404D01*
X143749123Y-104413404D02*
X144415790Y-104546738D01*
X143149123Y-104080071D02*
X143149123Y-105480071D01*
X143149123Y-104146738D02*
X143015790Y-104080071D01*
X143015790Y-104080071D02*
X142749123Y-104080071D01*
X142749123Y-104080071D02*
X142615790Y-104146738D01*
X142615790Y-104146738D02*
X142549123Y-104213404D01*
X142549123Y-104213404D02*
X142482457Y-104346738D01*
X142482457Y-104346738D02*
X142482457Y-104746738D01*
X142482457Y-104746738D02*
X142549123Y-104880071D01*
X142549123Y-104880071D02*
X142615790Y-104946738D01*
X142615790Y-104946738D02*
X142749123Y-105013404D01*
X142749123Y-105013404D02*
X143015790Y-105013404D01*
X143015790Y-105013404D02*
X143149123Y-104946738D01*
X141882456Y-105013404D02*
X141882456Y-103613404D01*
X141282456Y-105013404D02*
X141282456Y-104280071D01*
X141282456Y-104280071D02*
X141349123Y-104146738D01*
X141349123Y-104146738D02*
X141482456Y-104080071D01*
X141482456Y-104080071D02*
X141682456Y-104080071D01*
X141682456Y-104080071D02*
X141815790Y-104146738D01*
X141815790Y-104146738D02*
X141882456Y-104213404D01*
X140615789Y-105013404D02*
X140615789Y-104080071D01*
X140615789Y-103613404D02*
X140682456Y-103680071D01*
X140682456Y-103680071D02*
X140615789Y-103746738D01*
X140615789Y-103746738D02*
X140549123Y-103680071D01*
X140549123Y-103680071D02*
X140615789Y-103613404D01*
X140615789Y-103613404D02*
X140615789Y-103746738D01*
X139415789Y-104946738D02*
X139549122Y-105013404D01*
X139549122Y-105013404D02*
X139815789Y-105013404D01*
X139815789Y-105013404D02*
X139949122Y-104946738D01*
X139949122Y-104946738D02*
X140015789Y-104813404D01*
X140015789Y-104813404D02*
X140015789Y-104280071D01*
X140015789Y-104280071D02*
X139949122Y-104146738D01*
X139949122Y-104146738D02*
X139815789Y-104080071D01*
X139815789Y-104080071D02*
X139549122Y-104080071D01*
X139549122Y-104080071D02*
X139415789Y-104146738D01*
X139415789Y-104146738D02*
X139349122Y-104280071D01*
X139349122Y-104280071D02*
X139349122Y-104413404D01*
X139349122Y-104413404D02*
X140015789Y-104546738D01*
X136549122Y-105013404D02*
X136615789Y-105013404D01*
X136615789Y-105013404D02*
X136749122Y-104946738D01*
X136749122Y-104946738D02*
X136949122Y-104746738D01*
X136949122Y-104746738D02*
X137282455Y-104346738D01*
X137282455Y-104346738D02*
X137415789Y-104146738D01*
X137415789Y-104146738D02*
X137482455Y-103946738D01*
X137482455Y-103946738D02*
X137482455Y-103813404D01*
X137482455Y-103813404D02*
X137415789Y-103680071D01*
X137415789Y-103680071D02*
X137282455Y-103613404D01*
X137282455Y-103613404D02*
X137215789Y-103613404D01*
X137215789Y-103613404D02*
X137082455Y-103680071D01*
X137082455Y-103680071D02*
X137015789Y-103813404D01*
X137015789Y-103813404D02*
X137015789Y-103880071D01*
X137015789Y-103880071D02*
X137082455Y-104013404D01*
X137082455Y-104013404D02*
X137149122Y-104080071D01*
X137149122Y-104080071D02*
X137549122Y-104346738D01*
X137549122Y-104346738D02*
X137615789Y-104413404D01*
X137615789Y-104413404D02*
X137682455Y-104546738D01*
X137682455Y-104546738D02*
X137682455Y-104746738D01*
X137682455Y-104746738D02*
X137615789Y-104880071D01*
X137615789Y-104880071D02*
X137549122Y-104946738D01*
X137549122Y-104946738D02*
X137415789Y-105013404D01*
X137415789Y-105013404D02*
X137215789Y-105013404D01*
X137215789Y-105013404D02*
X137082455Y-104946738D01*
X137082455Y-104946738D02*
X137015789Y-104880071D01*
X137015789Y-104880071D02*
X136815789Y-104613404D01*
X136815789Y-104613404D02*
X136749122Y-104413404D01*
X136749122Y-104413404D02*
X136749122Y-104280071D01*
X146482456Y-106533993D02*
X146015790Y-106533993D01*
X145815790Y-107267326D02*
X146482456Y-107267326D01*
X146482456Y-107267326D02*
X146482456Y-105867326D01*
X146482456Y-105867326D02*
X145815790Y-105867326D01*
X145215789Y-107267326D02*
X145215789Y-106333993D01*
X145215789Y-106600660D02*
X145149123Y-106467326D01*
X145149123Y-106467326D02*
X145082456Y-106400660D01*
X145082456Y-106400660D02*
X144949123Y-106333993D01*
X144949123Y-106333993D02*
X144815789Y-106333993D01*
X144349122Y-107267326D02*
X144349122Y-106333993D01*
X144349122Y-105867326D02*
X144415789Y-105933993D01*
X144415789Y-105933993D02*
X144349122Y-106000660D01*
X144349122Y-106000660D02*
X144282456Y-105933993D01*
X144282456Y-105933993D02*
X144349122Y-105867326D01*
X144349122Y-105867326D02*
X144349122Y-106000660D01*
X143082455Y-107200660D02*
X143215789Y-107267326D01*
X143215789Y-107267326D02*
X143482455Y-107267326D01*
X143482455Y-107267326D02*
X143615789Y-107200660D01*
X143615789Y-107200660D02*
X143682455Y-107133993D01*
X143682455Y-107133993D02*
X143749122Y-107000660D01*
X143749122Y-107000660D02*
X143749122Y-106600660D01*
X143749122Y-106600660D02*
X143682455Y-106467326D01*
X143682455Y-106467326D02*
X143615789Y-106400660D01*
X143615789Y-106400660D02*
X143482455Y-106333993D01*
X143482455Y-106333993D02*
X143215789Y-106333993D01*
X143215789Y-106333993D02*
X143082455Y-106400660D01*
X141415788Y-107267326D02*
X141415788Y-105867326D01*
X141415788Y-105867326D02*
X140949122Y-106867326D01*
X140949122Y-106867326D02*
X140482455Y-105867326D01*
X140482455Y-105867326D02*
X140482455Y-107267326D01*
X139215788Y-107200660D02*
X139349122Y-107267326D01*
X139349122Y-107267326D02*
X139615788Y-107267326D01*
X139615788Y-107267326D02*
X139749122Y-107200660D01*
X139749122Y-107200660D02*
X139815788Y-107133993D01*
X139815788Y-107133993D02*
X139882455Y-107000660D01*
X139882455Y-107000660D02*
X139882455Y-106600660D01*
X139882455Y-106600660D02*
X139815788Y-106467326D01*
X139815788Y-106467326D02*
X139749122Y-106400660D01*
X139749122Y-106400660D02*
X139615788Y-106333993D01*
X139615788Y-106333993D02*
X139349122Y-106333993D01*
X139349122Y-106333993D02*
X139215788Y-106400660D01*
X138615788Y-107267326D02*
X138615788Y-105867326D01*
X138615788Y-105867326D02*
X138282455Y-105867326D01*
X138282455Y-105867326D02*
X138082455Y-105933993D01*
X138082455Y-105933993D02*
X137949122Y-106067326D01*
X137949122Y-106067326D02*
X137882455Y-106200660D01*
X137882455Y-106200660D02*
X137815788Y-106467326D01*
X137815788Y-106467326D02*
X137815788Y-106667326D01*
X137815788Y-106667326D02*
X137882455Y-106933993D01*
X137882455Y-106933993D02*
X137949122Y-107067326D01*
X137949122Y-107067326D02*
X138082455Y-107200660D01*
X138082455Y-107200660D02*
X138282455Y-107267326D01*
X138282455Y-107267326D02*
X138615788Y-107267326D01*
X136615788Y-107267326D02*
X136615788Y-106533993D01*
X136615788Y-106533993D02*
X136682455Y-106400660D01*
X136682455Y-106400660D02*
X136815788Y-106333993D01*
X136815788Y-106333993D02*
X137082455Y-106333993D01*
X137082455Y-106333993D02*
X137215788Y-106400660D01*
X136615788Y-107200660D02*
X136749122Y-107267326D01*
X136749122Y-107267326D02*
X137082455Y-107267326D01*
X137082455Y-107267326D02*
X137215788Y-107200660D01*
X137215788Y-107200660D02*
X137282455Y-107067326D01*
X137282455Y-107067326D02*
X137282455Y-106933993D01*
X137282455Y-106933993D02*
X137215788Y-106800660D01*
X137215788Y-106800660D02*
X137082455Y-106733993D01*
X137082455Y-106733993D02*
X136749122Y-106733993D01*
X136749122Y-106733993D02*
X136615788Y-106667326D01*
X135949121Y-106333993D02*
X135949121Y-107267326D01*
X135949121Y-106467326D02*
X135882455Y-106400660D01*
X135882455Y-106400660D02*
X135749121Y-106333993D01*
X135749121Y-106333993D02*
X135549121Y-106333993D01*
X135549121Y-106333993D02*
X135415788Y-106400660D01*
X135415788Y-106400660D02*
X135349121Y-106533993D01*
X135349121Y-106533993D02*
X135349121Y-107267326D01*
X134682454Y-107267326D02*
X134682454Y-106333993D01*
X134682454Y-105867326D02*
X134749121Y-105933993D01*
X134749121Y-105933993D02*
X134682454Y-106000660D01*
X134682454Y-106000660D02*
X134615788Y-105933993D01*
X134615788Y-105933993D02*
X134682454Y-105867326D01*
X134682454Y-105867326D02*
X134682454Y-106000660D01*
X133482454Y-107200660D02*
X133615787Y-107267326D01*
X133615787Y-107267326D02*
X133882454Y-107267326D01*
X133882454Y-107267326D02*
X134015787Y-107200660D01*
X134015787Y-107200660D02*
X134082454Y-107067326D01*
X134082454Y-107067326D02*
X134082454Y-106533993D01*
X134082454Y-106533993D02*
X134015787Y-106400660D01*
X134015787Y-106400660D02*
X133882454Y-106333993D01*
X133882454Y-106333993D02*
X133615787Y-106333993D01*
X133615787Y-106333993D02*
X133482454Y-106400660D01*
X133482454Y-106400660D02*
X133415787Y-106533993D01*
X133415787Y-106533993D02*
X133415787Y-106667326D01*
X133415787Y-106667326D02*
X134082454Y-106800660D01*
X132615787Y-107267326D02*
X132749121Y-107200660D01*
X132749121Y-107200660D02*
X132815787Y-107067326D01*
X132815787Y-107067326D02*
X132815787Y-105867326D01*
X121266666Y-104080071D02*
X120800000Y-104080071D01*
X120600000Y-104813404D02*
X121266666Y-104813404D01*
X121266666Y-104813404D02*
X121266666Y-103413404D01*
X121266666Y-103413404D02*
X120600000Y-103413404D01*
X120066666Y-104746738D02*
X119933333Y-104813404D01*
X119933333Y-104813404D02*
X119666666Y-104813404D01*
X119666666Y-104813404D02*
X119533333Y-104746738D01*
X119533333Y-104746738D02*
X119466666Y-104613404D01*
X119466666Y-104613404D02*
X119466666Y-104546738D01*
X119466666Y-104546738D02*
X119533333Y-104413404D01*
X119533333Y-104413404D02*
X119666666Y-104346738D01*
X119666666Y-104346738D02*
X119866666Y-104346738D01*
X119866666Y-104346738D02*
X119999999Y-104280071D01*
X119999999Y-104280071D02*
X120066666Y-104146738D01*
X120066666Y-104146738D02*
X120066666Y-104080071D01*
X120066666Y-104080071D02*
X119999999Y-103946738D01*
X119999999Y-103946738D02*
X119866666Y-103880071D01*
X119866666Y-103880071D02*
X119666666Y-103880071D01*
X119666666Y-103880071D02*
X119533333Y-103946738D01*
X119066666Y-103880071D02*
X118533333Y-103880071D01*
X118866666Y-103413404D02*
X118866666Y-104613404D01*
X118866666Y-104613404D02*
X118800000Y-104746738D01*
X118800000Y-104746738D02*
X118666666Y-104813404D01*
X118666666Y-104813404D02*
X118533333Y-104813404D01*
X118066666Y-104680071D02*
X118000000Y-104746738D01*
X118000000Y-104746738D02*
X118066666Y-104813404D01*
X118066666Y-104813404D02*
X118133333Y-104746738D01*
X118133333Y-104746738D02*
X118066666Y-104680071D01*
X118066666Y-104680071D02*
X118066666Y-104813404D01*
X125599999Y-106667326D02*
X124933332Y-106667326D01*
X125733332Y-107067326D02*
X125266666Y-105667326D01*
X125266666Y-105667326D02*
X124799999Y-107067326D01*
X123733332Y-106133993D02*
X123733332Y-107067326D01*
X124333332Y-106133993D02*
X124333332Y-106867326D01*
X124333332Y-106867326D02*
X124266666Y-107000660D01*
X124266666Y-107000660D02*
X124133332Y-107067326D01*
X124133332Y-107067326D02*
X123933332Y-107067326D01*
X123933332Y-107067326D02*
X123799999Y-107000660D01*
X123799999Y-107000660D02*
X123733332Y-106933993D01*
X122466665Y-106133993D02*
X122466665Y-107267326D01*
X122466665Y-107267326D02*
X122533332Y-107400660D01*
X122533332Y-107400660D02*
X122599999Y-107467326D01*
X122599999Y-107467326D02*
X122733332Y-107533993D01*
X122733332Y-107533993D02*
X122933332Y-107533993D01*
X122933332Y-107533993D02*
X123066665Y-107467326D01*
X122466665Y-107000660D02*
X122599999Y-107067326D01*
X122599999Y-107067326D02*
X122866665Y-107067326D01*
X122866665Y-107067326D02*
X122999999Y-107000660D01*
X122999999Y-107000660D02*
X123066665Y-106933993D01*
X123066665Y-106933993D02*
X123133332Y-106800660D01*
X123133332Y-106800660D02*
X123133332Y-106400660D01*
X123133332Y-106400660D02*
X123066665Y-106267326D01*
X123066665Y-106267326D02*
X122999999Y-106200660D01*
X122999999Y-106200660D02*
X122866665Y-106133993D01*
X122866665Y-106133993D02*
X122599999Y-106133993D01*
X122599999Y-106133993D02*
X122466665Y-106200660D01*
X119999998Y-107067326D02*
X120799998Y-107067326D01*
X120399998Y-107067326D02*
X120399998Y-105667326D01*
X120399998Y-105667326D02*
X120533331Y-105867326D01*
X120533331Y-105867326D02*
X120666665Y-106000660D01*
X120666665Y-106000660D02*
X120799998Y-106067326D01*
X118733332Y-105667326D02*
X119399998Y-105667326D01*
X119399998Y-105667326D02*
X119466665Y-106333993D01*
X119466665Y-106333993D02*
X119399998Y-106267326D01*
X119399998Y-106267326D02*
X119266665Y-106200660D01*
X119266665Y-106200660D02*
X118933332Y-106200660D01*
X118933332Y-106200660D02*
X118799998Y-106267326D01*
X118799998Y-106267326D02*
X118733332Y-106333993D01*
X118733332Y-106333993D02*
X118666665Y-106467326D01*
X118666665Y-106467326D02*
X118666665Y-106800660D01*
X118666665Y-106800660D02*
X118733332Y-106933993D01*
X118733332Y-106933993D02*
X118799998Y-107000660D01*
X118799998Y-107000660D02*
X118933332Y-107067326D01*
X118933332Y-107067326D02*
X119266665Y-107067326D01*
X119266665Y-107067326D02*
X119399998Y-107000660D01*
X119399998Y-107000660D02*
X119466665Y-106933993D01*
X117999999Y-107000660D02*
X117999999Y-107067326D01*
X117999999Y-107067326D02*
X118066665Y-107200660D01*
X118066665Y-107200660D02*
X118133332Y-107267326D01*
X116399998Y-105800660D02*
X116333331Y-105733993D01*
X116333331Y-105733993D02*
X116199998Y-105667326D01*
X116199998Y-105667326D02*
X115866665Y-105667326D01*
X115866665Y-105667326D02*
X115733331Y-105733993D01*
X115733331Y-105733993D02*
X115666665Y-105800660D01*
X115666665Y-105800660D02*
X115599998Y-105933993D01*
X115599998Y-105933993D02*
X115599998Y-106067326D01*
X115599998Y-106067326D02*
X115666665Y-106267326D01*
X115666665Y-106267326D02*
X116466665Y-107067326D01*
X116466665Y-107067326D02*
X115599998Y-107067326D01*
X114733332Y-105667326D02*
X114599998Y-105667326D01*
X114599998Y-105667326D02*
X114466665Y-105733993D01*
X114466665Y-105733993D02*
X114399998Y-105800660D01*
X114399998Y-105800660D02*
X114333332Y-105933993D01*
X114333332Y-105933993D02*
X114266665Y-106200660D01*
X114266665Y-106200660D02*
X114266665Y-106533993D01*
X114266665Y-106533993D02*
X114333332Y-106800660D01*
X114333332Y-106800660D02*
X114399998Y-106933993D01*
X114399998Y-106933993D02*
X114466665Y-107000660D01*
X114466665Y-107000660D02*
X114599998Y-107067326D01*
X114599998Y-107067326D02*
X114733332Y-107067326D01*
X114733332Y-107067326D02*
X114866665Y-107000660D01*
X114866665Y-107000660D02*
X114933332Y-106933993D01*
X114933332Y-106933993D02*
X114999998Y-106800660D01*
X114999998Y-106800660D02*
X115066665Y-106533993D01*
X115066665Y-106533993D02*
X115066665Y-106200660D01*
X115066665Y-106200660D02*
X114999998Y-105933993D01*
X114999998Y-105933993D02*
X114933332Y-105800660D01*
X114933332Y-105800660D02*
X114866665Y-105733993D01*
X114866665Y-105733993D02*
X114733332Y-105667326D01*
X113733332Y-105800660D02*
X113666665Y-105733993D01*
X113666665Y-105733993D02*
X113533332Y-105667326D01*
X113533332Y-105667326D02*
X113199999Y-105667326D01*
X113199999Y-105667326D02*
X113066665Y-105733993D01*
X113066665Y-105733993D02*
X112999999Y-105800660D01*
X112999999Y-105800660D02*
X112933332Y-105933993D01*
X112933332Y-105933993D02*
X112933332Y-106067326D01*
X112933332Y-106067326D02*
X112999999Y-106267326D01*
X112999999Y-106267326D02*
X113799999Y-107067326D01*
X113799999Y-107067326D02*
X112933332Y-107067326D01*
X111733332Y-105667326D02*
X111999999Y-105667326D01*
X111999999Y-105667326D02*
X112133332Y-105733993D01*
X112133332Y-105733993D02*
X112199999Y-105800660D01*
X112199999Y-105800660D02*
X112333332Y-106000660D01*
X112333332Y-106000660D02*
X112399999Y-106267326D01*
X112399999Y-106267326D02*
X112399999Y-106800660D01*
X112399999Y-106800660D02*
X112333332Y-106933993D01*
X112333332Y-106933993D02*
X112266666Y-107000660D01*
X112266666Y-107000660D02*
X112133332Y-107067326D01*
X112133332Y-107067326D02*
X111866666Y-107067326D01*
X111866666Y-107067326D02*
X111733332Y-107000660D01*
X111733332Y-107000660D02*
X111666666Y-106933993D01*
X111666666Y-106933993D02*
X111599999Y-106800660D01*
X111599999Y-106800660D02*
X111599999Y-106467326D01*
X111599999Y-106467326D02*
X111666666Y-106333993D01*
X111666666Y-106333993D02*
X111733332Y-106267326D01*
X111733332Y-106267326D02*
X111866666Y-106200660D01*
X111866666Y-106200660D02*
X112133332Y-106200660D01*
X112133332Y-106200660D02*
X112266666Y-106267326D01*
X112266666Y-106267326D02*
X112333332Y-106333993D01*
X112333332Y-106333993D02*
X112399999Y-106467326D01*
D12*
X144586441Y-92321328D02*
X144674905Y-91819620D01*
X145615565Y-92502790D02*
X145704029Y-92001082D01*
X139263958Y-82446754D02*
X139756048Y-82578609D01*
X139534422Y-81437361D02*
X140026512Y-81569216D01*
X112086441Y-88321328D02*
X112174905Y-87819620D01*
X113115565Y-88502790D02*
X113204029Y-88001082D01*
X114695655Y-96197331D02*
X115055889Y-96557565D01*
X115434581Y-95458405D02*
X115794815Y-95818639D01*
X142095655Y-95818639D02*
X142455889Y-95458405D01*
X142834581Y-96557565D02*
X143194815Y-96197331D01*
X126695655Y-106697331D02*
X127055889Y-107057565D01*
X127434581Y-105958405D02*
X127794815Y-106318639D01*
X134455889Y-102458405D02*
X134095655Y-102818639D01*
X135194815Y-103197331D02*
X134834581Y-103557565D01*
X118695655Y-99697331D02*
X119055889Y-100057565D01*
X119434581Y-98958405D02*
X119794815Y-99318639D01*
X134263958Y-81569216D02*
X134756048Y-81437361D01*
X134534422Y-82578609D02*
X135026512Y-82446754D01*
X130455889Y-105958405D02*
X130095655Y-106318639D01*
X131194815Y-106697331D02*
X130834581Y-107057565D01*
X112174905Y-92502790D02*
X112086441Y-92001082D01*
X113204029Y-92321328D02*
X113115565Y-91819620D01*
X113595655Y-83818639D02*
X113955889Y-83458405D01*
X114334581Y-84557565D02*
X114694815Y-84197331D01*
X138455889Y-98958405D02*
X138095655Y-99318639D01*
X139194815Y-99697331D02*
X138834581Y-100057565D01*
X143095655Y-84197331D02*
X143455889Y-84557565D01*
X143834581Y-83458405D02*
X144194815Y-83818639D01*
X126595655Y-85197331D02*
X126955889Y-85557565D01*
X127334581Y-84458405D02*
X127694815Y-84818639D01*
X118256048Y-81437361D02*
X117763958Y-81569216D01*
X118526512Y-82446754D02*
X118034422Y-82578609D01*
X130095655Y-84818639D02*
X130455889Y-84458405D01*
X130834581Y-85557565D02*
X131194815Y-85197331D01*
X122763958Y-82446754D02*
X123256048Y-82578609D01*
X123034422Y-81437361D02*
X123526512Y-81569216D01*
X144674905Y-88502790D02*
X144586441Y-88001082D01*
X145704029Y-88321328D02*
X145615565Y-87819620D01*
X122695655Y-103197331D02*
X123055889Y-103557565D01*
X123434581Y-102458405D02*
X123794815Y-102818639D01*
%LPC*%
D13*
X187354470Y-96069301D03*
D14*
X187354470Y-94069301D03*
X187354470Y-92069301D03*
D15*
X187354470Y-98219301D03*
X187354470Y-89919301D03*
D16*
X183800000Y-98653220D03*
D17*
X183800000Y-106553220D03*
X182600000Y-89153220D03*
D18*
X184854470Y-84419301D03*
D19*
X184854470Y-84419301D03*
D20*
X144986781Y-93059842D03*
X145303689Y-91262568D03*
D21*
X138763828Y-81771813D03*
X140526642Y-82244157D03*
D20*
X112486781Y-89059842D03*
X112803689Y-87262568D03*
D22*
X114600000Y-95362750D03*
X115890470Y-96653220D03*
D23*
X142000000Y-96653220D03*
X143290470Y-95362750D03*
D22*
X126600000Y-105862750D03*
X127890470Y-107153220D03*
D24*
X135290470Y-102362750D03*
X134000000Y-103653220D03*
D22*
X118600000Y-98862750D03*
X119890470Y-100153220D03*
D25*
X149400000Y-94053220D03*
X182860000Y-94053220D03*
D26*
X166130000Y-94053220D03*
D27*
X133763828Y-82244157D03*
X135526642Y-81771813D03*
D24*
X131290470Y-105862750D03*
X130000000Y-107153220D03*
D28*
X112803689Y-93059842D03*
X112486781Y-91262568D03*
D23*
X113500000Y-84653220D03*
X114790470Y-83362750D03*
D24*
X139290470Y-98862750D03*
X138000000Y-100153220D03*
D22*
X143000000Y-83362750D03*
X144290470Y-84653220D03*
X126500000Y-84362750D03*
X127790470Y-85653220D03*
D29*
X119026642Y-81771813D03*
X117263828Y-82244157D03*
D23*
X130000000Y-85653220D03*
X131290470Y-84362750D03*
D21*
X122263828Y-81771813D03*
X124026642Y-82244157D03*
D28*
X145303689Y-89059842D03*
X144986781Y-87262568D03*
D22*
X122600000Y-102362750D03*
X123890470Y-103653220D03*
%LPD*%
M02*
