%TF.GenerationSoftware,KiCad,Pcbnew,9.0.5*%
%TF.CreationDate,2026-06-15T22:10:03-05:00*%
%TF.ProjectId,keepsake-keychain,6b656570-7361-46b6-952d-6b6579636861,rev?*%
%TF.SameCoordinates,Original*%
%TF.FileFunction,Soldermask,Top*%
%TF.FilePolarity,Negative*%
%FSLAX46Y46*%
G04 Gerber Fmt 4.6, Leading zero omitted, Abs format (unit mm)*
G04 Created by KiCad (PCBNEW 9.0.5) date 2026-06-15 22:10:03*
%MOMM*%
%LPD*%
G01*
G04 APERTURE LIST*
G04 Aperture macros list*
%AMRoundRect*
0 Rectangle with rounded corners*
0 $1 Rounding radius*
0 $2 $3 $4 $5 $6 $7 $8 $9 X,Y pos of 4 corners*
0 Add a 4 corners polygon primitive as box body*
4,1,4,$2,$3,$4,$5,$6,$7,$8,$9,$2,$3,0*
0 Add four circle primitives for the rounded corners*
1,1,$1+$1,$2,$3*
1,1,$1+$1,$4,$5*
1,1,$1+$1,$6,$7*
1,1,$1+$1,$8,$9*
0 Add four rect primitives between the rounded corners*
20,1,$1+$1,$2,$3,$4,$5,0*
20,1,$1+$1,$4,$5,$6,$7,0*
20,1,$1+$1,$6,$7,$8,$9,0*
20,1,$1+$1,$8,$9,$2,$3,0*%
G04 Aperture macros list end*
%ADD10RoundRect,0.102000X0.500000X-0.850000X0.500000X0.850000X-0.500000X0.850000X-0.500000X-0.850000X0*%
%ADD11R,1.397000X0.558800*%
%ADD12R,0.330200X0.330200*%
%ADD13C,1.000000*%
%ADD14RoundRect,0.237500X-0.250000X-0.237500X0.250000X-0.237500X0.250000X0.237500X-0.250000X0.237500X0*%
%ADD15RoundRect,0.237500X0.237500X-0.250000X0.237500X0.250000X-0.237500X0.250000X-0.237500X-0.250000X0*%
%ADD16RoundRect,0.102000X-0.736600X-0.177800X0.736600X-0.177800X0.736600X0.177800X-0.736600X0.177800X0*%
%ADD17RoundRect,0.100500X0.601500X0.301500X-0.601500X0.301500X-0.601500X-0.301500X0.601500X-0.301500X0*%
%ADD18RoundRect,0.102000X0.654000X-0.654000X0.654000X0.654000X-0.654000X0.654000X-0.654000X-0.654000X0*%
%ADD19C,1.512000*%
%ADD20C,1.854000*%
%ADD21R,2.000000X2.000000*%
%ADD22RoundRect,0.237500X0.300000X0.237500X-0.300000X0.237500X-0.300000X-0.237500X0.300000X-0.237500X0*%
%ADD23RoundRect,0.237500X-0.300000X-0.237500X0.300000X-0.237500X0.300000X0.237500X-0.300000X0.237500X0*%
%ADD24RoundRect,0.102000X0.450000X0.400000X-0.450000X0.400000X-0.450000X-0.400000X0.450000X-0.400000X0*%
%ADD25C,2.000000*%
%ADD26RoundRect,0.237500X0.250000X0.237500X-0.250000X0.237500X-0.250000X-0.237500X0.250000X-0.237500X0*%
%ADD27R,1.320800X0.508000*%
%ADD28C,0.904000*%
%ADD29C,3.900000*%
%ADD30C,7.000000*%
%ADD31RoundRect,0.237500X0.237500X-0.300000X0.237500X0.300000X-0.237500X0.300000X-0.237500X-0.300000X0*%
G04 APERTURE END LIST*
D10*
%TO.C,SW2*%
X173500000Y-107490720D03*
X173500000Y-101190720D03*
X177300000Y-107490720D03*
X177300000Y-101190720D03*
%TD*%
D11*
%TO.C,U5*%
X173991400Y-82833220D03*
X173991400Y-84103220D03*
X173991400Y-85373220D03*
X173991400Y-86643220D03*
X173991400Y-87913220D03*
X173991400Y-89183220D03*
X173991400Y-90453220D03*
X179300000Y-90453220D03*
X179300000Y-89183220D03*
X179300000Y-87913220D03*
X179300000Y-86643220D03*
X179300000Y-85373220D03*
X179300000Y-84103220D03*
X179300000Y-82833220D03*
%TD*%
D12*
%TO.C,LED28*%
X145783484Y-101350121D03*
X145783484Y-102010119D03*
X146443482Y-102010119D03*
X146443482Y-101350121D03*
%TD*%
%TO.C,LED26*%
X125821163Y-101350121D03*
X125821163Y-102010119D03*
X126481161Y-102010119D03*
X126481161Y-101350121D03*
%TD*%
D13*
%TO.C,TP4*%
X170700000Y-99053220D03*
%TD*%
D12*
%TO.C,LED31*%
X140792903Y-101350121D03*
X140792903Y-102010119D03*
X141452901Y-102010119D03*
X141452901Y-101350121D03*
%TD*%
%TO.C,LED25*%
X115840002Y-101350121D03*
X115840002Y-102010119D03*
X116500000Y-102010119D03*
X116500000Y-101350121D03*
%TD*%
%TO.C,LED3*%
X135802323Y-87203222D03*
X135802323Y-87863220D03*
X136462321Y-87863220D03*
X136462321Y-87203222D03*
%TD*%
%TO.C,LED5*%
X120830582Y-87203222D03*
X120830582Y-87863220D03*
X121490580Y-87863220D03*
X121490580Y-87203222D03*
%TD*%
D14*
%TO.C,R29*%
X183287500Y-102553220D03*
X185112500Y-102553220D03*
%TD*%
D15*
%TO.C,R30*%
X159919194Y-88345016D03*
X159919194Y-86520016D03*
%TD*%
D12*
%TO.C,LED11*%
X135802323Y-91918855D03*
X135802323Y-92578853D03*
X136462321Y-92578853D03*
X136462321Y-91918855D03*
%TD*%
D16*
%TO.C,U2*%
X164779000Y-92067220D03*
X164779000Y-92727620D03*
X164779000Y-93388020D03*
X164779000Y-94023020D03*
X164779000Y-94683420D03*
X164779000Y-95318420D03*
X164779000Y-95978820D03*
X164779000Y-96639220D03*
X170621000Y-96639220D03*
X170621000Y-95978820D03*
X170621000Y-95318420D03*
X170621000Y-94683420D03*
X170621000Y-94023020D03*
X170621000Y-93388020D03*
X170621000Y-92727620D03*
X170621000Y-92067220D03*
%TD*%
D17*
%TO.C,D1*%
X181230000Y-104558220D03*
X181230000Y-102658220D03*
X179120000Y-103608220D03*
%TD*%
D12*
%TO.C,LED8*%
X150774064Y-87203222D03*
X150774064Y-87863220D03*
X151434062Y-87863220D03*
X151434062Y-87203222D03*
%TD*%
%TO.C,LED27*%
X135802323Y-101350121D03*
X135802323Y-102010119D03*
X136462321Y-102010119D03*
X136462321Y-101350121D03*
%TD*%
D14*
%TO.C,R26*%
X182687500Y-92653220D03*
X184512500Y-92653220D03*
%TD*%
D12*
%TO.C,LED7*%
X140792903Y-87203222D03*
X140792903Y-87863220D03*
X141452901Y-87863220D03*
X141452901Y-87203222D03*
%TD*%
%TO.C,LED23*%
X140792903Y-96634488D03*
X140792903Y-97294486D03*
X141452901Y-97294486D03*
X141452901Y-96634488D03*
%TD*%
D18*
%TO.C,SW1*%
X187354470Y-96069301D03*
D19*
X187354470Y-94069301D03*
X187354470Y-92069301D03*
D20*
X187354470Y-98219301D03*
X187354470Y-89919301D03*
%TD*%
D12*
%TO.C,LED6*%
X130811743Y-87203222D03*
X130811743Y-87863220D03*
X131471741Y-87863220D03*
X131471741Y-87203222D03*
%TD*%
D21*
%TO.C,TP2*%
X183800000Y-98653220D03*
%TD*%
D22*
%TO.C,C9*%
X181162500Y-106453220D03*
X179437500Y-106453220D03*
%TD*%
D16*
%TO.C,U1*%
X164779000Y-82510220D03*
X164779000Y-83170620D03*
X164779000Y-83831020D03*
X164779000Y-84466020D03*
X164779000Y-85126420D03*
X164779000Y-85761420D03*
X164779000Y-86421820D03*
X164779000Y-87082220D03*
X170621000Y-87082220D03*
X170621000Y-86421820D03*
X170621000Y-85761420D03*
X170621000Y-85126420D03*
X170621000Y-84466020D03*
X170621000Y-83831020D03*
X170621000Y-83170620D03*
X170621000Y-82510220D03*
%TD*%
D12*
%TO.C,LED30*%
X130811743Y-101350121D03*
X130811743Y-102010119D03*
X131471741Y-102010119D03*
X131471741Y-101350121D03*
%TD*%
%TO.C,LED9*%
X115840002Y-91918855D03*
X115840002Y-92578853D03*
X116500000Y-92578853D03*
X116500000Y-91918855D03*
%TD*%
D14*
%TO.C,R11*%
X166287500Y-90653220D03*
X168112500Y-90653220D03*
%TD*%
D23*
%TO.C,C5*%
X174537500Y-95453220D03*
X176262500Y-95453220D03*
%TD*%
D12*
%TO.C,LED24*%
X150774064Y-96634488D03*
X150774064Y-97294486D03*
X151434062Y-97294486D03*
X151434062Y-96634488D03*
%TD*%
D14*
%TO.C,R15*%
X166787500Y-100453220D03*
X168612500Y-100453220D03*
%TD*%
D24*
%TO.C,Q3*%
X158000000Y-97787587D03*
X158000000Y-95887587D03*
X156000000Y-96837587D03*
%TD*%
D25*
%TO.C,TP1*%
X183800000Y-106553220D03*
%TD*%
D24*
%TO.C,Q1*%
X158000000Y-88356321D03*
X158000000Y-86456321D03*
X156000000Y-87406321D03*
%TD*%
D23*
%TO.C,C4*%
X175837500Y-81153220D03*
X177562500Y-81153220D03*
%TD*%
D15*
%TO.C,R31*%
X159919194Y-93045016D03*
X159919194Y-91220016D03*
%TD*%
D24*
%TO.C,Q2*%
X158000000Y-93071954D03*
X158000000Y-91171954D03*
X156000000Y-92121954D03*
%TD*%
%TO.C,Q4*%
X158000000Y-102503220D03*
X158000000Y-100603220D03*
X156000000Y-101553220D03*
%TD*%
D15*
%TO.C,R32*%
X159919194Y-97745016D03*
X159919194Y-95920016D03*
%TD*%
D26*
%TO.C,R25*%
X180812500Y-99353220D03*
X178987500Y-99353220D03*
%TD*%
D23*
%TO.C,C6*%
X178637500Y-93853220D03*
X180362500Y-93853220D03*
%TD*%
D22*
%TO.C,C3*%
X168562500Y-107510220D03*
X166837500Y-107510220D03*
%TD*%
%TO.C,C8*%
X176262500Y-93953220D03*
X174537500Y-93953220D03*
%TD*%
D12*
%TO.C,LED4*%
X145783484Y-87203222D03*
X145783484Y-87863220D03*
X146443482Y-87863220D03*
X146443482Y-87203222D03*
%TD*%
%TO.C,LED16*%
X150774064Y-91918855D03*
X150774064Y-92578853D03*
X151434062Y-92578853D03*
X151434062Y-91918855D03*
%TD*%
%TO.C,LED12*%
X145783484Y-91918855D03*
X145783484Y-92578853D03*
X146443482Y-92578853D03*
X146443482Y-91918855D03*
%TD*%
D27*
%TO.C,U4*%
X173900000Y-97253218D03*
X173900000Y-98203219D03*
X173900000Y-99153220D03*
X176490800Y-99153220D03*
X176490800Y-97253218D03*
%TD*%
D25*
%TO.C,TP3*%
X182600000Y-89153220D03*
%TD*%
D22*
%TO.C,C7*%
X184462500Y-95653220D03*
X182737500Y-95653220D03*
%TD*%
D15*
%TO.C,R33*%
X159919194Y-102445016D03*
X159919194Y-100620016D03*
%TD*%
D26*
%TO.C,R27*%
X185125000Y-104153220D03*
X183300000Y-104153220D03*
%TD*%
D12*
%TO.C,LED14*%
X130811743Y-91918855D03*
X130811743Y-92578853D03*
X131471741Y-92578853D03*
X131471741Y-91918855D03*
%TD*%
%TO.C,LED10*%
X125821163Y-91918855D03*
X125821163Y-92578853D03*
X126481161Y-92578853D03*
X126481161Y-91918855D03*
%TD*%
%TO.C,LED15*%
X140792903Y-91918855D03*
X140792903Y-92578853D03*
X141452901Y-92578853D03*
X141452901Y-91918855D03*
%TD*%
D14*
%TO.C,R18*%
X166787500Y-98853220D03*
X168612500Y-98853220D03*
%TD*%
D22*
%TO.C,C1*%
X168562500Y-81153220D03*
X166837500Y-81153220D03*
%TD*%
D12*
%TO.C,LED17*%
X115840002Y-96634488D03*
X115840002Y-97294486D03*
X116500000Y-97294486D03*
X116500000Y-96634488D03*
%TD*%
D28*
%TO.C,U6*%
X178470000Y-95778220D03*
X181130000Y-95778220D03*
X181130000Y-96928220D03*
X178470000Y-96928220D03*
%TD*%
D14*
%TO.C,R14*%
X166287500Y-89053220D03*
X168112500Y-89053220D03*
%TD*%
D16*
%TO.C,U3*%
X164779000Y-101624220D03*
X164779000Y-102284620D03*
X164779000Y-102945020D03*
X164779000Y-103580020D03*
X164779000Y-104240420D03*
X164779000Y-104875420D03*
X164779000Y-105535820D03*
X164779000Y-106196220D03*
X170621000Y-106196220D03*
X170621000Y-105535820D03*
X170621000Y-104875420D03*
X170621000Y-104240420D03*
X170621000Y-103580020D03*
X170621000Y-102945020D03*
X170621000Y-102284620D03*
X170621000Y-101624220D03*
%TD*%
D13*
%TO.C,TP6*%
X177300000Y-92253220D03*
%TD*%
D12*
%TO.C,LED2*%
X125821163Y-87203222D03*
X125821163Y-87863220D03*
X126481161Y-87863220D03*
X126481161Y-87203222D03*
%TD*%
%TO.C,LED13*%
X120830582Y-91918855D03*
X120830582Y-92578853D03*
X121490580Y-92578853D03*
X121490580Y-91918855D03*
%TD*%
%TO.C,LED32*%
X150774064Y-101350121D03*
X150774064Y-102010119D03*
X151434062Y-102010119D03*
X151434062Y-101350121D03*
%TD*%
%TO.C,LED1*%
X115840002Y-87203222D03*
X115840002Y-87863220D03*
X116500000Y-87863220D03*
X116500000Y-87203222D03*
%TD*%
%TO.C,LED19*%
X135802323Y-96634488D03*
X135802323Y-97294486D03*
X136462321Y-97294486D03*
X136462321Y-96634488D03*
%TD*%
D29*
%TO.C,H1*%
X184854470Y-84419301D03*
D30*
X184854470Y-84419301D03*
%TD*%
D12*
%TO.C,LED29*%
X120830582Y-101350121D03*
X120830582Y-102010119D03*
X121490580Y-102010119D03*
X121490580Y-101350121D03*
%TD*%
%TO.C,LED21*%
X120830582Y-96634488D03*
X120830582Y-97294486D03*
X121490580Y-97294486D03*
X121490580Y-96634488D03*
%TD*%
%TO.C,LED22*%
X130811743Y-96634488D03*
X130811743Y-97294486D03*
X131471741Y-97294486D03*
X131471741Y-96634488D03*
%TD*%
%TO.C,LED18*%
X125821163Y-96634488D03*
X125821163Y-97294486D03*
X126481161Y-97294486D03*
X126481161Y-96634488D03*
%TD*%
%TO.C,LED20*%
X145783484Y-96634488D03*
X145783484Y-97294486D03*
X146443482Y-97294486D03*
X146443482Y-96634488D03*
%TD*%
D31*
%TO.C,C2*%
X170600000Y-90778220D03*
X170600000Y-89053220D03*
%TD*%
D13*
%TO.C,TP5*%
X173100000Y-92153220D03*
%TD*%
D26*
%TO.C,R28*%
X185112500Y-100953220D03*
X183287500Y-100953220D03*
%TD*%
M02*
