%TF.GenerationSoftware,KiCad,Pcbnew,9.0.5*%
%TF.CreationDate,2026-06-15T22:10:03-05:00*%
%TF.ProjectId,keepsake-keychain,6b656570-7361-46b6-952d-6b6579636861,rev?*%
%TF.SameCoordinates,Original*%
%TF.FileFunction,AssemblyDrawing,Bot*%
%FSLAX46Y46*%
G04 Gerber Fmt 4.6, Leading zero omitted, Abs format (unit mm)*
G04 Created by KiCad (PCBNEW 9.0.5) date 2026-06-15 22:10:03*
%MOMM*%
%LPD*%
G01*
G04 APERTURE LIST*
%ADD10C,0.060000*%
%ADD11C,0.100000*%
G04 APERTURE END LIST*
D10*
X145369051Y-91939560D02*
X145204621Y-91775176D01*
X145408742Y-91714461D02*
X145014818Y-91645002D01*
X145014818Y-91645002D02*
X144988358Y-91795068D01*
X144988358Y-91795068D02*
X145000501Y-91835892D01*
X145000501Y-91835892D02*
X145015952Y-91857958D01*
X145015952Y-91857958D02*
X145050160Y-91883331D01*
X145050160Y-91883331D02*
X145106435Y-91893254D01*
X145106435Y-91893254D02*
X145147259Y-91881111D01*
X145147259Y-91881111D02*
X145169325Y-91865660D01*
X145169325Y-91865660D02*
X145194698Y-91831451D01*
X145194698Y-91831451D02*
X145221159Y-91681385D01*
X144986183Y-92026782D02*
X144964117Y-92042232D01*
X144964117Y-92042232D02*
X144938744Y-92076441D01*
X144938744Y-92076441D02*
X144922206Y-92170233D01*
X144922206Y-92170233D02*
X144934349Y-92211057D01*
X144934349Y-92211057D02*
X144949800Y-92233123D01*
X144949800Y-92233123D02*
X144984009Y-92258496D01*
X144984009Y-92258496D02*
X145021525Y-92265111D01*
X145021525Y-92265111D02*
X145081108Y-92256276D01*
X145081108Y-92256276D02*
X145345897Y-92070868D01*
X145345897Y-92070868D02*
X145302899Y-92314725D01*
X144920032Y-92401946D02*
X144897966Y-92417397D01*
X144897966Y-92417397D02*
X144872592Y-92451606D01*
X144872592Y-92451606D02*
X144856054Y-92545397D01*
X144856054Y-92545397D02*
X144868198Y-92586221D01*
X144868198Y-92586221D02*
X144883648Y-92608287D01*
X144883648Y-92608287D02*
X144917857Y-92633660D01*
X144917857Y-92633660D02*
X144955374Y-92640276D01*
X144955374Y-92640276D02*
X145014956Y-92631440D01*
X145014956Y-92631440D02*
X145279746Y-92446032D01*
X145279746Y-92446032D02*
X145236747Y-92689889D01*
X139846529Y-82250266D02*
X140024618Y-82100790D01*
X140067312Y-82309425D02*
X140170839Y-81923055D01*
X140170839Y-81923055D02*
X140023651Y-81883616D01*
X140023651Y-81883616D02*
X139981924Y-81892154D01*
X139981924Y-81892154D02*
X139958595Y-81905623D01*
X139958595Y-81905623D02*
X139930337Y-81937490D01*
X139930337Y-81937490D02*
X139915547Y-81992686D01*
X139915547Y-81992686D02*
X139924086Y-82034413D01*
X139924086Y-82034413D02*
X139937555Y-82057742D01*
X139937555Y-82057742D02*
X139969422Y-82086000D01*
X139969422Y-82086000D02*
X140116611Y-82125439D01*
X139478557Y-82151669D02*
X139699340Y-82210827D01*
X139588949Y-82181248D02*
X139692476Y-81794878D01*
X139692476Y-81794878D02*
X139714484Y-81859933D01*
X139714484Y-81859933D02*
X139741421Y-81906590D01*
X139741421Y-81906590D02*
X139773288Y-81934849D01*
X139453295Y-81730789D02*
X139214113Y-81666701D01*
X139214113Y-81666701D02*
X139303464Y-81848399D01*
X139303464Y-81848399D02*
X139248268Y-81833609D01*
X139248268Y-81833609D02*
X139206541Y-81842148D01*
X139206541Y-81842148D02*
X139183213Y-81855617D01*
X139183213Y-81855617D02*
X139154955Y-81887484D01*
X139154955Y-81887484D02*
X139130305Y-81979477D01*
X139130305Y-81979477D02*
X139138844Y-82021204D01*
X139138844Y-82021204D02*
X139152313Y-82044532D01*
X139152313Y-82044532D02*
X139184180Y-82072791D01*
X139184180Y-82072791D02*
X139294571Y-82102370D01*
X139294571Y-82102370D02*
X139336299Y-82093831D01*
X139336299Y-82093831D02*
X139359627Y-82080362D01*
X112835975Y-88127142D02*
X112671545Y-87962759D01*
X112875666Y-87902043D02*
X112481743Y-87832584D01*
X112481743Y-87832584D02*
X112455282Y-87982650D01*
X112455282Y-87982650D02*
X112467425Y-88023474D01*
X112467425Y-88023474D02*
X112482876Y-88045540D01*
X112482876Y-88045540D02*
X112517085Y-88070913D01*
X112517085Y-88070913D02*
X112573359Y-88080836D01*
X112573359Y-88080836D02*
X112614183Y-88068693D01*
X112614183Y-88068693D02*
X112636249Y-88053242D01*
X112636249Y-88053242D02*
X112661623Y-88019033D01*
X112661623Y-88019033D02*
X112688083Y-87868967D01*
X112513823Y-88418484D02*
X112776438Y-88464791D01*
X112380295Y-88298233D02*
X112678206Y-88254055D01*
X112678206Y-88254055D02*
X112635208Y-88497912D01*
X115163733Y-96183767D02*
X115392700Y-96143361D01*
X115325357Y-96345391D02*
X115608200Y-96062549D01*
X115608200Y-96062549D02*
X115500450Y-95954799D01*
X115500450Y-95954799D02*
X115460044Y-95941330D01*
X115460044Y-95941330D02*
X115433107Y-95941330D01*
X115433107Y-95941330D02*
X115392700Y-95954799D01*
X115392700Y-95954799D02*
X115352294Y-95995205D01*
X115352294Y-95995205D02*
X115338826Y-96035611D01*
X115338826Y-96035611D02*
X115338826Y-96062549D01*
X115338826Y-96062549D02*
X115352294Y-96102955D01*
X115352294Y-96102955D02*
X115460044Y-96210704D01*
X115352294Y-95806643D02*
X115177201Y-95631550D01*
X115177201Y-95631550D02*
X115163733Y-95833581D01*
X115163733Y-95833581D02*
X115123326Y-95793175D01*
X115123326Y-95793175D02*
X115082920Y-95779706D01*
X115082920Y-95779706D02*
X115055983Y-95779706D01*
X115055983Y-95779706D02*
X115015577Y-95793175D01*
X115015577Y-95793175D02*
X114948233Y-95860518D01*
X114948233Y-95860518D02*
X114934765Y-95900924D01*
X114934765Y-95900924D02*
X114934765Y-95927862D01*
X114934765Y-95927862D02*
X114948233Y-95968268D01*
X114948233Y-95968268D02*
X115029046Y-96049080D01*
X115029046Y-96049080D02*
X115069452Y-96062549D01*
X115069452Y-96062549D02*
X115096389Y-96062549D01*
X142955704Y-95954800D02*
X142915298Y-95725832D01*
X143117328Y-95793175D02*
X142834486Y-95510332D01*
X142834486Y-95510332D02*
X142726736Y-95618082D01*
X142726736Y-95618082D02*
X142713267Y-95658488D01*
X142713267Y-95658488D02*
X142713267Y-95685426D01*
X142713267Y-95685426D02*
X142726736Y-95725832D01*
X142726736Y-95725832D02*
X142767142Y-95766238D01*
X142767142Y-95766238D02*
X142807548Y-95779706D01*
X142807548Y-95779706D02*
X142834486Y-95779706D01*
X142834486Y-95779706D02*
X142874892Y-95766238D01*
X142874892Y-95766238D02*
X142982641Y-95658488D01*
X142592049Y-95806644D02*
X142565112Y-95806644D01*
X142565112Y-95806644D02*
X142524706Y-95820113D01*
X142524706Y-95820113D02*
X142457362Y-95887456D01*
X142457362Y-95887456D02*
X142443893Y-95927862D01*
X142443893Y-95927862D02*
X142443893Y-95954800D01*
X142443893Y-95954800D02*
X142457362Y-95995206D01*
X142457362Y-95995206D02*
X142484299Y-96022143D01*
X142484299Y-96022143D02*
X142538174Y-96049080D01*
X142538174Y-96049080D02*
X142861423Y-96049080D01*
X142861423Y-96049080D02*
X142686330Y-96224174D01*
X142416956Y-96493547D02*
X142578581Y-96331923D01*
X142497768Y-96412735D02*
X142214926Y-96129892D01*
X142214926Y-96129892D02*
X142282269Y-96143361D01*
X142282269Y-96143361D02*
X142336144Y-96143361D01*
X142336144Y-96143361D02*
X142376550Y-96129892D01*
X127163733Y-106683767D02*
X127392700Y-106643361D01*
X127325357Y-106845391D02*
X127608200Y-106562549D01*
X127608200Y-106562549D02*
X127500450Y-106454799D01*
X127500450Y-106454799D02*
X127460044Y-106441330D01*
X127460044Y-106441330D02*
X127433107Y-106441330D01*
X127433107Y-106441330D02*
X127392700Y-106454799D01*
X127392700Y-106454799D02*
X127352294Y-106495205D01*
X127352294Y-106495205D02*
X127338826Y-106535611D01*
X127338826Y-106535611D02*
X127338826Y-106562549D01*
X127338826Y-106562549D02*
X127352294Y-106602955D01*
X127352294Y-106602955D02*
X127460044Y-106710704D01*
X127190670Y-106145019D02*
X127325357Y-106279706D01*
X127325357Y-106279706D02*
X127204139Y-106427862D01*
X127204139Y-106427862D02*
X127204139Y-106400924D01*
X127204139Y-106400924D02*
X127190670Y-106360518D01*
X127190670Y-106360518D02*
X127123326Y-106293175D01*
X127123326Y-106293175D02*
X127082920Y-106279706D01*
X127082920Y-106279706D02*
X127055983Y-106279706D01*
X127055983Y-106279706D02*
X127015577Y-106293175D01*
X127015577Y-106293175D02*
X126948233Y-106360518D01*
X126948233Y-106360518D02*
X126934765Y-106400924D01*
X126934765Y-106400924D02*
X126934765Y-106427862D01*
X126934765Y-106427862D02*
X126948233Y-106468268D01*
X126948233Y-106468268D02*
X127015577Y-106535611D01*
X127015577Y-106535611D02*
X127055983Y-106549080D01*
X127055983Y-106549080D02*
X127082920Y-106549080D01*
X134955704Y-102954800D02*
X134915298Y-102725832D01*
X135117328Y-102793175D02*
X134834486Y-102510332D01*
X134834486Y-102510332D02*
X134726736Y-102618082D01*
X134726736Y-102618082D02*
X134713267Y-102658488D01*
X134713267Y-102658488D02*
X134713267Y-102685426D01*
X134713267Y-102685426D02*
X134726736Y-102725832D01*
X134726736Y-102725832D02*
X134767142Y-102766238D01*
X134767142Y-102766238D02*
X134807548Y-102779706D01*
X134807548Y-102779706D02*
X134834486Y-102779706D01*
X134834486Y-102779706D02*
X134874892Y-102766238D01*
X134874892Y-102766238D02*
X134982641Y-102658488D01*
X134592049Y-102806644D02*
X134565112Y-102806644D01*
X134565112Y-102806644D02*
X134524706Y-102820113D01*
X134524706Y-102820113D02*
X134457362Y-102887456D01*
X134457362Y-102887456D02*
X134443893Y-102927862D01*
X134443893Y-102927862D02*
X134443893Y-102954800D01*
X134443893Y-102954800D02*
X134457362Y-102995206D01*
X134457362Y-102995206D02*
X134484299Y-103022143D01*
X134484299Y-103022143D02*
X134538174Y-103049080D01*
X134538174Y-103049080D02*
X134861423Y-103049080D01*
X134861423Y-103049080D02*
X134686330Y-103224174D01*
X134255332Y-103278048D02*
X134443894Y-103466610D01*
X134214926Y-103102955D02*
X134484300Y-103237642D01*
X134484300Y-103237642D02*
X134309207Y-103412735D01*
X119163733Y-99683767D02*
X119392700Y-99643361D01*
X119325357Y-99845391D02*
X119608200Y-99562549D01*
X119608200Y-99562549D02*
X119500450Y-99454799D01*
X119500450Y-99454799D02*
X119460044Y-99441330D01*
X119460044Y-99441330D02*
X119433107Y-99441330D01*
X119433107Y-99441330D02*
X119392700Y-99454799D01*
X119392700Y-99454799D02*
X119352294Y-99495205D01*
X119352294Y-99495205D02*
X119338826Y-99535611D01*
X119338826Y-99535611D02*
X119338826Y-99562549D01*
X119338826Y-99562549D02*
X119352294Y-99602955D01*
X119352294Y-99602955D02*
X119460044Y-99710704D01*
X119311888Y-99320112D02*
X119311888Y-99293175D01*
X119311888Y-99293175D02*
X119298420Y-99252769D01*
X119298420Y-99252769D02*
X119231076Y-99185425D01*
X119231076Y-99185425D02*
X119190670Y-99171956D01*
X119190670Y-99171956D02*
X119163733Y-99171956D01*
X119163733Y-99171956D02*
X119123326Y-99185425D01*
X119123326Y-99185425D02*
X119096389Y-99212363D01*
X119096389Y-99212363D02*
X119069452Y-99266237D01*
X119069452Y-99266237D02*
X119069452Y-99589486D01*
X119069452Y-99589486D02*
X118894359Y-99414393D01*
X134940701Y-82117160D02*
X135020193Y-81898665D01*
X135161484Y-82058001D02*
X135057957Y-81671631D01*
X135057957Y-81671631D02*
X134910768Y-81711070D01*
X134910768Y-81711070D02*
X134878901Y-81739328D01*
X134878901Y-81739328D02*
X134865432Y-81762657D01*
X134865432Y-81762657D02*
X134856893Y-81804384D01*
X134856893Y-81804384D02*
X134871683Y-81859579D01*
X134871683Y-81859579D02*
X134899941Y-81891447D01*
X134899941Y-81891447D02*
X134923270Y-81904915D01*
X134923270Y-81904915D02*
X134964997Y-81913454D01*
X134964997Y-81913454D02*
X135112186Y-81874015D01*
X134572730Y-82215757D02*
X134793513Y-82156599D01*
X134683121Y-82186178D02*
X134579594Y-81799808D01*
X134579594Y-81799808D02*
X134631180Y-81845144D01*
X134631180Y-81845144D02*
X134677837Y-81872081D01*
X134677837Y-81872081D02*
X134719564Y-81880620D01*
X134230021Y-81893476D02*
X134193224Y-81903335D01*
X134193224Y-81903335D02*
X134161356Y-81931594D01*
X134161356Y-81931594D02*
X134147888Y-81954922D01*
X134147888Y-81954922D02*
X134139349Y-81996649D01*
X134139349Y-81996649D02*
X134140670Y-82075173D01*
X134140670Y-82075173D02*
X134165319Y-82167166D01*
X134165319Y-82167166D02*
X134203437Y-82235831D01*
X134203437Y-82235831D02*
X134231696Y-82267698D01*
X134231696Y-82267698D02*
X134255024Y-82281167D01*
X134255024Y-82281167D02*
X134296751Y-82289706D01*
X134296751Y-82289706D02*
X134333548Y-82279846D01*
X134333548Y-82279846D02*
X134365416Y-82251588D01*
X134365416Y-82251588D02*
X134378884Y-82228259D01*
X134378884Y-82228259D02*
X134387423Y-82186532D01*
X134387423Y-82186532D02*
X134386102Y-82108008D01*
X134386102Y-82108008D02*
X134361453Y-82016015D01*
X134361453Y-82016015D02*
X134323335Y-81947350D01*
X134323335Y-81947350D02*
X134295076Y-81915483D01*
X134295076Y-81915483D02*
X134271748Y-81902014D01*
X134271748Y-81902014D02*
X134230021Y-81893476D01*
X130955704Y-106454800D02*
X130915298Y-106225832D01*
X131117328Y-106293175D02*
X130834486Y-106010332D01*
X130834486Y-106010332D02*
X130726736Y-106118082D01*
X130726736Y-106118082D02*
X130713267Y-106158488D01*
X130713267Y-106158488D02*
X130713267Y-106185426D01*
X130713267Y-106185426D02*
X130726736Y-106225832D01*
X130726736Y-106225832D02*
X130767142Y-106266238D01*
X130767142Y-106266238D02*
X130807548Y-106279706D01*
X130807548Y-106279706D02*
X130834486Y-106279706D01*
X130834486Y-106279706D02*
X130874892Y-106266238D01*
X130874892Y-106266238D02*
X130982641Y-106158488D01*
X130592049Y-106306644D02*
X130565112Y-106306644D01*
X130565112Y-106306644D02*
X130524706Y-106320113D01*
X130524706Y-106320113D02*
X130457362Y-106387456D01*
X130457362Y-106387456D02*
X130443893Y-106427862D01*
X130443893Y-106427862D02*
X130443893Y-106454800D01*
X130443893Y-106454800D02*
X130457362Y-106495206D01*
X130457362Y-106495206D02*
X130484299Y-106522143D01*
X130484299Y-106522143D02*
X130538174Y-106549080D01*
X130538174Y-106549080D02*
X130861423Y-106549080D01*
X130861423Y-106549080D02*
X130686330Y-106724174D01*
X130228394Y-106616424D02*
X130201457Y-106643361D01*
X130201457Y-106643361D02*
X130187988Y-106683767D01*
X130187988Y-106683767D02*
X130187988Y-106710705D01*
X130187988Y-106710705D02*
X130201457Y-106751111D01*
X130201457Y-106751111D02*
X130241863Y-106818454D01*
X130241863Y-106818454D02*
X130309207Y-106885798D01*
X130309207Y-106885798D02*
X130376550Y-106926204D01*
X130376550Y-106926204D02*
X130416956Y-106939673D01*
X130416956Y-106939673D02*
X130443894Y-106939673D01*
X130443894Y-106939673D02*
X130484300Y-106926204D01*
X130484300Y-106926204D02*
X130511237Y-106899266D01*
X130511237Y-106899266D02*
X130524706Y-106858860D01*
X130524706Y-106858860D02*
X130524706Y-106831923D01*
X130524706Y-106831923D02*
X130511237Y-106791517D01*
X130511237Y-106791517D02*
X130470831Y-106724173D01*
X130470831Y-106724173D02*
X130403487Y-106656830D01*
X130403487Y-106656830D02*
X130336144Y-106616424D01*
X130336144Y-106616424D02*
X130295738Y-106602955D01*
X130295738Y-106602955D02*
X130268800Y-106602955D01*
X130268800Y-106602955D02*
X130228394Y-106616424D01*
X112477647Y-92258450D02*
X112688383Y-92356681D01*
X112517338Y-92483548D02*
X112911261Y-92414089D01*
X112911261Y-92414089D02*
X112884801Y-92264023D01*
X112884801Y-92264023D02*
X112859427Y-92229814D01*
X112859427Y-92229814D02*
X112837361Y-92214364D01*
X112837361Y-92214364D02*
X112796537Y-92202221D01*
X112796537Y-92202221D02*
X112740263Y-92212143D01*
X112740263Y-92212143D02*
X112706054Y-92237517D01*
X112706054Y-92237517D02*
X112690603Y-92259583D01*
X112690603Y-92259583D02*
X112678460Y-92300407D01*
X112678460Y-92300407D02*
X112704921Y-92450473D01*
X112411496Y-91883285D02*
X112451187Y-92108384D01*
X112431341Y-91995834D02*
X112825264Y-91926375D01*
X112825264Y-91926375D02*
X112775605Y-91973814D01*
X112775605Y-91973814D02*
X112744703Y-92017946D01*
X112744703Y-92017946D02*
X112732560Y-92058770D01*
X114321017Y-84089486D02*
X114280611Y-83860519D01*
X114482641Y-83927862D02*
X114199799Y-83645019D01*
X114199799Y-83645019D02*
X114092049Y-83752769D01*
X114092049Y-83752769D02*
X114078580Y-83793175D01*
X114078580Y-83793175D02*
X114078580Y-83820112D01*
X114078580Y-83820112D02*
X114092049Y-83860519D01*
X114092049Y-83860519D02*
X114132455Y-83900925D01*
X114132455Y-83900925D02*
X114172861Y-83914393D01*
X114172861Y-83914393D02*
X114199799Y-83914393D01*
X114199799Y-83914393D02*
X114240205Y-83900925D01*
X114240205Y-83900925D02*
X114347954Y-83793175D01*
X113943893Y-83900925D02*
X113755332Y-84089486D01*
X113755332Y-84089486D02*
X114159393Y-84251111D01*
X138955704Y-99454800D02*
X138915298Y-99225832D01*
X139117328Y-99293175D02*
X138834486Y-99010332D01*
X138834486Y-99010332D02*
X138726736Y-99118082D01*
X138726736Y-99118082D02*
X138713267Y-99158488D01*
X138713267Y-99158488D02*
X138713267Y-99185426D01*
X138713267Y-99185426D02*
X138726736Y-99225832D01*
X138726736Y-99225832D02*
X138767142Y-99266238D01*
X138767142Y-99266238D02*
X138807548Y-99279706D01*
X138807548Y-99279706D02*
X138834486Y-99279706D01*
X138834486Y-99279706D02*
X138874892Y-99266238D01*
X138874892Y-99266238D02*
X138982641Y-99158488D01*
X138686330Y-99724174D02*
X138847954Y-99562549D01*
X138767142Y-99643361D02*
X138484299Y-99360519D01*
X138484299Y-99360519D02*
X138551643Y-99373987D01*
X138551643Y-99373987D02*
X138605518Y-99373987D01*
X138605518Y-99373987D02*
X138645924Y-99360519D01*
X138309207Y-99535611D02*
X138120645Y-99724173D01*
X138120645Y-99724173D02*
X138524706Y-99885798D01*
X143698419Y-84318454D02*
X143927387Y-84278048D01*
X143860044Y-84480078D02*
X144142887Y-84197236D01*
X144142887Y-84197236D02*
X144035137Y-84089486D01*
X144035137Y-84089486D02*
X143994731Y-84076017D01*
X143994731Y-84076017D02*
X143967793Y-84076017D01*
X143967793Y-84076017D02*
X143927387Y-84089486D01*
X143927387Y-84089486D02*
X143886981Y-84129892D01*
X143886981Y-84129892D02*
X143873513Y-84170298D01*
X143873513Y-84170298D02*
X143873513Y-84197236D01*
X143873513Y-84197236D02*
X143886981Y-84237642D01*
X143886981Y-84237642D02*
X143994731Y-84345391D01*
X143429045Y-84049080D02*
X143590670Y-84210704D01*
X143509858Y-84129892D02*
X143792700Y-83847049D01*
X143792700Y-83847049D02*
X143779232Y-83914393D01*
X143779232Y-83914393D02*
X143779232Y-83968268D01*
X143779232Y-83968268D02*
X143792700Y-84008674D01*
X143469452Y-83523801D02*
X143523327Y-83577676D01*
X143523327Y-83577676D02*
X143536795Y-83618082D01*
X143536795Y-83618082D02*
X143536795Y-83645019D01*
X143536795Y-83645019D02*
X143523327Y-83712363D01*
X143523327Y-83712363D02*
X143482920Y-83779706D01*
X143482920Y-83779706D02*
X143375171Y-83887456D01*
X143375171Y-83887456D02*
X143334765Y-83900924D01*
X143334765Y-83900924D02*
X143307827Y-83900924D01*
X143307827Y-83900924D02*
X143267421Y-83887456D01*
X143267421Y-83887456D02*
X143213546Y-83833581D01*
X143213546Y-83833581D02*
X143200078Y-83793175D01*
X143200078Y-83793175D02*
X143200078Y-83766237D01*
X143200078Y-83766237D02*
X143213546Y-83725831D01*
X143213546Y-83725831D02*
X143280890Y-83658488D01*
X143280890Y-83658488D02*
X143321296Y-83645019D01*
X143321296Y-83645019D02*
X143348233Y-83645019D01*
X143348233Y-83645019D02*
X143388640Y-83658488D01*
X143388640Y-83658488D02*
X143442514Y-83712363D01*
X143442514Y-83712363D02*
X143455983Y-83752769D01*
X143455983Y-83752769D02*
X143455983Y-83779706D01*
X143455983Y-83779706D02*
X143442514Y-83820112D01*
X127063733Y-85183767D02*
X127292700Y-85143361D01*
X127225357Y-85345391D02*
X127508200Y-85062549D01*
X127508200Y-85062549D02*
X127400450Y-84954799D01*
X127400450Y-84954799D02*
X127360044Y-84941330D01*
X127360044Y-84941330D02*
X127333107Y-84941330D01*
X127333107Y-84941330D02*
X127292700Y-84954799D01*
X127292700Y-84954799D02*
X127252294Y-84995205D01*
X127252294Y-84995205D02*
X127238826Y-85035611D01*
X127238826Y-85035611D02*
X127238826Y-85062549D01*
X127238826Y-85062549D02*
X127252294Y-85102955D01*
X127252294Y-85102955D02*
X127360044Y-85210704D01*
X127104139Y-84658488D02*
X127158013Y-84712363D01*
X127158013Y-84712363D02*
X127171482Y-84752769D01*
X127171482Y-84752769D02*
X127171482Y-84779706D01*
X127171482Y-84779706D02*
X127158013Y-84847050D01*
X127158013Y-84847050D02*
X127117607Y-84914393D01*
X127117607Y-84914393D02*
X127009858Y-85022143D01*
X127009858Y-85022143D02*
X126969452Y-85035611D01*
X126969452Y-85035611D02*
X126942514Y-85035611D01*
X126942514Y-85035611D02*
X126902108Y-85022143D01*
X126902108Y-85022143D02*
X126848233Y-84968268D01*
X126848233Y-84968268D02*
X126834765Y-84927862D01*
X126834765Y-84927862D02*
X126834765Y-84900924D01*
X126834765Y-84900924D02*
X126848233Y-84860518D01*
X126848233Y-84860518D02*
X126915577Y-84793175D01*
X126915577Y-84793175D02*
X126955983Y-84779706D01*
X126955983Y-84779706D02*
X126982920Y-84779706D01*
X126982920Y-84779706D02*
X127023326Y-84793175D01*
X127023326Y-84793175D02*
X127077201Y-84847050D01*
X127077201Y-84847050D02*
X127090670Y-84887456D01*
X127090670Y-84887456D02*
X127090670Y-84914393D01*
X127090670Y-84914393D02*
X127077201Y-84954799D01*
X118256716Y-82166459D02*
X118336207Y-81947963D01*
X118477499Y-82107300D02*
X118373971Y-81720930D01*
X118373971Y-81720930D02*
X118226782Y-81760369D01*
X118226782Y-81760369D02*
X118194915Y-81788627D01*
X118194915Y-81788627D02*
X118181446Y-81811955D01*
X118181446Y-81811955D02*
X118172908Y-81853683D01*
X118172908Y-81853683D02*
X118187697Y-81908878D01*
X118187697Y-81908878D02*
X118215956Y-81940746D01*
X118215956Y-81940746D02*
X118239284Y-81954214D01*
X118239284Y-81954214D02*
X118281011Y-81962753D01*
X118281011Y-81962753D02*
X118428200Y-81923314D01*
X117976774Y-82004834D02*
X118008641Y-81976576D01*
X118008641Y-81976576D02*
X118022110Y-81953247D01*
X118022110Y-81953247D02*
X118030649Y-81911520D01*
X118030649Y-81911520D02*
X118025719Y-81893122D01*
X118025719Y-81893122D02*
X117997461Y-81861254D01*
X117997461Y-81861254D02*
X117974132Y-81847786D01*
X117974132Y-81847786D02*
X117932405Y-81839247D01*
X117932405Y-81839247D02*
X117858811Y-81858966D01*
X117858811Y-81858966D02*
X117826943Y-81887225D01*
X117826943Y-81887225D02*
X117813475Y-81910553D01*
X117813475Y-81910553D02*
X117804936Y-81952280D01*
X117804936Y-81952280D02*
X117809866Y-81970679D01*
X117809866Y-81970679D02*
X117838124Y-82002546D01*
X117838124Y-82002546D02*
X117861453Y-82016015D01*
X117861453Y-82016015D02*
X117903180Y-82024554D01*
X117903180Y-82024554D02*
X117976774Y-82004834D01*
X117976774Y-82004834D02*
X118018501Y-82013373D01*
X118018501Y-82013373D02*
X118041830Y-82026842D01*
X118041830Y-82026842D02*
X118070088Y-82058709D01*
X118070088Y-82058709D02*
X118089807Y-82132303D01*
X118089807Y-82132303D02*
X118081269Y-82174030D01*
X118081269Y-82174030D02*
X118067800Y-82197359D01*
X118067800Y-82197359D02*
X118035933Y-82225617D01*
X118035933Y-82225617D02*
X117962338Y-82245337D01*
X117962338Y-82245337D02*
X117920611Y-82236798D01*
X117920611Y-82236798D02*
X117897283Y-82223329D01*
X117897283Y-82223329D02*
X117869024Y-82191462D01*
X117869024Y-82191462D02*
X117849305Y-82117868D01*
X117849305Y-82117868D02*
X117857844Y-82076141D01*
X117857844Y-82076141D02*
X117871312Y-82052812D01*
X117871312Y-82052812D02*
X117903180Y-82024554D01*
X130821017Y-85089486D02*
X130780611Y-84860519D01*
X130982641Y-84927862D02*
X130699799Y-84645019D01*
X130699799Y-84645019D02*
X130592049Y-84752769D01*
X130592049Y-84752769D02*
X130578580Y-84793175D01*
X130578580Y-84793175D02*
X130578580Y-84820112D01*
X130578580Y-84820112D02*
X130592049Y-84860519D01*
X130592049Y-84860519D02*
X130632455Y-84900925D01*
X130632455Y-84900925D02*
X130672861Y-84914393D01*
X130672861Y-84914393D02*
X130699799Y-84914393D01*
X130699799Y-84914393D02*
X130740205Y-84900925D01*
X130740205Y-84900925D02*
X130847954Y-84793175D01*
X130686330Y-85224173D02*
X130632455Y-85278048D01*
X130632455Y-85278048D02*
X130592049Y-85291517D01*
X130592049Y-85291517D02*
X130565112Y-85291517D01*
X130565112Y-85291517D02*
X130497768Y-85278048D01*
X130497768Y-85278048D02*
X130430425Y-85237642D01*
X130430425Y-85237642D02*
X130322675Y-85129893D01*
X130322675Y-85129893D02*
X130309206Y-85089486D01*
X130309206Y-85089486D02*
X130309206Y-85062549D01*
X130309206Y-85062549D02*
X130322675Y-85022143D01*
X130322675Y-85022143D02*
X130376550Y-84968268D01*
X130376550Y-84968268D02*
X130416956Y-84954799D01*
X130416956Y-84954799D02*
X130443893Y-84954799D01*
X130443893Y-84954799D02*
X130484300Y-84968268D01*
X130484300Y-84968268D02*
X130551643Y-85035612D01*
X130551643Y-85035612D02*
X130565112Y-85076018D01*
X130565112Y-85076018D02*
X130565112Y-85102955D01*
X130565112Y-85102955D02*
X130551643Y-85143361D01*
X130551643Y-85143361D02*
X130497768Y-85197236D01*
X130497768Y-85197236D02*
X130457362Y-85210705D01*
X130457362Y-85210705D02*
X130430425Y-85210705D01*
X130430425Y-85210705D02*
X130390019Y-85197236D01*
X123346529Y-82250266D02*
X123524618Y-82100790D01*
X123567312Y-82309425D02*
X123670839Y-81923055D01*
X123670839Y-81923055D02*
X123523651Y-81883616D01*
X123523651Y-81883616D02*
X123481924Y-81892154D01*
X123481924Y-81892154D02*
X123458595Y-81905623D01*
X123458595Y-81905623D02*
X123430337Y-81937490D01*
X123430337Y-81937490D02*
X123415547Y-81992686D01*
X123415547Y-81992686D02*
X123424086Y-82034413D01*
X123424086Y-82034413D02*
X123437555Y-82057742D01*
X123437555Y-82057742D02*
X123469422Y-82086000D01*
X123469422Y-82086000D02*
X123616611Y-82125439D01*
X122978557Y-82151669D02*
X123199340Y-82210827D01*
X123088949Y-82181248D02*
X123192476Y-81794878D01*
X123192476Y-81794878D02*
X123214484Y-81859933D01*
X123214484Y-81859933D02*
X123241421Y-81906590D01*
X123241421Y-81906590D02*
X123273288Y-81934849D01*
X122925036Y-81762657D02*
X122911568Y-81739328D01*
X122911568Y-81739328D02*
X122879701Y-81711070D01*
X122879701Y-81711070D02*
X122787708Y-81686420D01*
X122787708Y-81686420D02*
X122745981Y-81694959D01*
X122745981Y-81694959D02*
X122722652Y-81708428D01*
X122722652Y-81708428D02*
X122694394Y-81740295D01*
X122694394Y-81740295D02*
X122684534Y-81777092D01*
X122684534Y-81777092D02*
X122688143Y-81837218D01*
X122688143Y-81837218D02*
X122849767Y-82117160D01*
X122849767Y-82117160D02*
X122610586Y-82053071D01*
X145010723Y-88446032D02*
X145221459Y-88544264D01*
X145050414Y-88671131D02*
X145444337Y-88601671D01*
X145444337Y-88601671D02*
X145417877Y-88451606D01*
X145417877Y-88451606D02*
X145392503Y-88417397D01*
X145392503Y-88417397D02*
X145370437Y-88401946D01*
X145370437Y-88401946D02*
X145329613Y-88389803D01*
X145329613Y-88389803D02*
X145273338Y-88399726D01*
X145273338Y-88399726D02*
X145239130Y-88425099D01*
X145239130Y-88425099D02*
X145223679Y-88447165D01*
X145223679Y-88447165D02*
X145211536Y-88487989D01*
X145211536Y-88487989D02*
X145237997Y-88638055D01*
X144944571Y-88070867D02*
X144984262Y-88295966D01*
X144964417Y-88183416D02*
X145358340Y-88113957D01*
X145358340Y-88113957D02*
X145308680Y-88161396D01*
X145308680Y-88161396D02*
X145277779Y-88205528D01*
X145277779Y-88205528D02*
X145265636Y-88246352D01*
X144911496Y-87883285D02*
X144898265Y-87808252D01*
X144898265Y-87808252D02*
X144910408Y-87767428D01*
X144910408Y-87767428D02*
X144925859Y-87745362D01*
X144925859Y-87745362D02*
X144975519Y-87697923D01*
X144975519Y-87697923D02*
X145047244Y-87665934D01*
X145047244Y-87665934D02*
X145197310Y-87639474D01*
X145197310Y-87639474D02*
X145238134Y-87651617D01*
X145238134Y-87651617D02*
X145260200Y-87667067D01*
X145260200Y-87667067D02*
X145285573Y-87701276D01*
X145285573Y-87701276D02*
X145298804Y-87776309D01*
X145298804Y-87776309D02*
X145286660Y-87817133D01*
X145286660Y-87817133D02*
X145271210Y-87839199D01*
X145271210Y-87839199D02*
X145237001Y-87864572D01*
X145237001Y-87864572D02*
X145143210Y-87881110D01*
X145143210Y-87881110D02*
X145102386Y-87868967D01*
X145102386Y-87868967D02*
X145080320Y-87853517D01*
X145080320Y-87853517D02*
X145054946Y-87819308D01*
X145054946Y-87819308D02*
X145041716Y-87744275D01*
X145041716Y-87744275D02*
X145053859Y-87703451D01*
X145053859Y-87703451D02*
X145069310Y-87681385D01*
X145069310Y-87681385D02*
X145103519Y-87656011D01*
X123298419Y-103318454D02*
X123527387Y-103278048D01*
X123460044Y-103480078D02*
X123742887Y-103197236D01*
X123742887Y-103197236D02*
X123635137Y-103089486D01*
X123635137Y-103089486D02*
X123594731Y-103076017D01*
X123594731Y-103076017D02*
X123567793Y-103076017D01*
X123567793Y-103076017D02*
X123527387Y-103089486D01*
X123527387Y-103089486D02*
X123486981Y-103129892D01*
X123486981Y-103129892D02*
X123473513Y-103170298D01*
X123473513Y-103170298D02*
X123473513Y-103197236D01*
X123473513Y-103197236D02*
X123486981Y-103237642D01*
X123486981Y-103237642D02*
X123594731Y-103345391D01*
X123446575Y-102954799D02*
X123446575Y-102927862D01*
X123446575Y-102927862D02*
X123433106Y-102887456D01*
X123433106Y-102887456D02*
X123365763Y-102820112D01*
X123365763Y-102820112D02*
X123325357Y-102806643D01*
X123325357Y-102806643D02*
X123298419Y-102806643D01*
X123298419Y-102806643D02*
X123258013Y-102820112D01*
X123258013Y-102820112D02*
X123231076Y-102847049D01*
X123231076Y-102847049D02*
X123204139Y-102900924D01*
X123204139Y-102900924D02*
X123204139Y-103224173D01*
X123204139Y-103224173D02*
X123029045Y-103049080D01*
X123217608Y-102671957D02*
X123042514Y-102496863D01*
X123042514Y-102496863D02*
X123029046Y-102698894D01*
X123029046Y-102698894D02*
X122988640Y-102658488D01*
X122988640Y-102658488D02*
X122948233Y-102645019D01*
X122948233Y-102645019D02*
X122921296Y-102645019D01*
X122921296Y-102645019D02*
X122880890Y-102658488D01*
X122880890Y-102658488D02*
X122813546Y-102725831D01*
X122813546Y-102725831D02*
X122800078Y-102766237D01*
X122800078Y-102766237D02*
X122800078Y-102793175D01*
X122800078Y-102793175D02*
X122813546Y-102833581D01*
X122813546Y-102833581D02*
X122894359Y-102914393D01*
X122894359Y-102914393D02*
X122934765Y-102927862D01*
X122934765Y-102927862D02*
X122961702Y-102927862D01*
D11*
%TO.C,R22*%
X144600083Y-92877421D02*
X145412550Y-93020681D01*
X144877920Y-91301729D02*
X144600083Y-92877421D01*
X145412550Y-93020681D02*
X145690387Y-91444989D01*
X145690387Y-91444989D02*
X144877920Y-91301729D01*
%TO.C,R13*%
X138765731Y-82199374D02*
X140311213Y-82613485D01*
X138979257Y-81402485D02*
X138765731Y-82199374D01*
X140311213Y-82613485D02*
X140524739Y-81816596D01*
X140524739Y-81816596D02*
X138979257Y-81402485D01*
%TO.C,R4*%
X112100083Y-88877421D02*
X112912550Y-89020681D01*
X112377920Y-87301729D02*
X112100083Y-88877421D01*
X112912550Y-89020681D02*
X113190387Y-87444989D01*
X113190387Y-87444989D02*
X112377920Y-87301729D01*
%TO.C,R3*%
X114387868Y-95733981D02*
X115519239Y-96865352D01*
X114971231Y-95150618D02*
X114387868Y-95733981D01*
X115519239Y-96865352D02*
X116102602Y-96281989D01*
X116102602Y-96281989D02*
X114971231Y-95150618D01*
%TO.C,R21*%
X141787868Y-96281989D02*
X142371231Y-96865352D01*
X142371231Y-96865352D02*
X143502602Y-95733981D01*
X142919239Y-95150618D02*
X141787868Y-96281989D01*
X143502602Y-95733981D02*
X142919239Y-95150618D01*
%TO.C,R5*%
X126387868Y-106233981D02*
X127519239Y-107365352D01*
X126971231Y-105650618D02*
X126387868Y-106233981D01*
X127519239Y-107365352D02*
X128102602Y-106781989D01*
X128102602Y-106781989D02*
X126971231Y-105650618D01*
%TO.C,R24*%
X133787868Y-103281989D02*
X134371231Y-103865352D01*
X134371231Y-103865352D02*
X135502602Y-102733981D01*
X134919239Y-102150618D02*
X133787868Y-103281989D01*
X135502602Y-102733981D02*
X134919239Y-102150618D01*
%TO.C,R2*%
X118387868Y-99233981D02*
X119519239Y-100365352D01*
X118971231Y-98650618D02*
X118387868Y-99233981D01*
X119519239Y-100365352D02*
X120102602Y-99781989D01*
X120102602Y-99781989D02*
X118971231Y-98650618D01*
X151030000Y-80716720D02*
X181230000Y-80716720D01*
X181230000Y-80589720D02*
G75*
G02*
X181230000Y-80716720I0J-63500D01*
G01*
X181230000Y-80589720D02*
X151030000Y-80589720D01*
X151030000Y-80589720D02*
G75*
G03*
X151030000Y-80716720I0J-63500D01*
G01*
X151093500Y-108293220D02*
X151093500Y-80653220D01*
X150966500Y-80653220D02*
G75*
G02*
X151093500Y-80653220I63500J0D01*
G01*
X150966500Y-80653220D02*
X150966500Y-108293220D01*
X150966500Y-108293220D02*
G75*
G03*
X151093500Y-108293220I63500J0D01*
G01*
X181166500Y-80653220D02*
X181166500Y-108293220D01*
X181293500Y-108293220D02*
G75*
G02*
X181166500Y-108293220I-63500J0D01*
G01*
X181293500Y-108293220D02*
X181293500Y-80653220D01*
X181293500Y-80653220D02*
G75*
G03*
X181166500Y-80653220I-63500J0D01*
G01*
X181230000Y-108229720D02*
X151030000Y-108229720D01*
X151030000Y-108356720D02*
G75*
G02*
X151030000Y-108229720I0J63500D01*
G01*
X151030000Y-108356720D02*
X181230000Y-108356720D01*
X181230000Y-108356720D02*
G75*
G03*
X181230000Y-108229720I0J63500D01*
G01*
%TO.C,R10*%
X133765731Y-81816596D02*
X133979257Y-82613485D01*
X133979257Y-82613485D02*
X135524739Y-82199374D01*
X135311213Y-81402485D02*
X133765731Y-81816596D01*
X135524739Y-82199374D02*
X135311213Y-81402485D01*
%TO.C,R20*%
X129787868Y-106781989D02*
X130371231Y-107365352D01*
X130371231Y-107365352D02*
X131502602Y-106233981D01*
X130919239Y-105650618D02*
X129787868Y-106781989D01*
X131502602Y-106233981D02*
X130919239Y-105650618D01*
%TO.C,R1*%
X112100083Y-91444989D02*
X112377920Y-93020681D01*
X112377920Y-93020681D02*
X113190387Y-92877421D01*
X112912550Y-91301729D02*
X112100083Y-91444989D01*
X113190387Y-92877421D02*
X112912550Y-91301729D01*
%TO.C,R7*%
X113287868Y-84281989D02*
X113871231Y-84865352D01*
X113871231Y-84865352D02*
X115002602Y-83733981D01*
X114419239Y-83150618D02*
X113287868Y-84281989D01*
X115002602Y-83733981D02*
X114419239Y-83150618D01*
%TO.C,R17*%
X137787868Y-99781989D02*
X138371231Y-100365352D01*
X138371231Y-100365352D02*
X139502602Y-99233981D01*
X138919239Y-98650618D02*
X137787868Y-99781989D01*
X139502602Y-99233981D02*
X138919239Y-98650618D01*
%TO.C,R16*%
X142787868Y-83733981D02*
X143919239Y-84865352D01*
X143371231Y-83150618D02*
X142787868Y-83733981D01*
X143919239Y-84865352D02*
X144502602Y-84281989D01*
X144502602Y-84281989D02*
X143371231Y-83150618D01*
%TO.C,R6*%
X126287868Y-84733981D02*
X127419239Y-85865352D01*
X126871231Y-84150618D02*
X126287868Y-84733981D01*
X127419239Y-85865352D02*
X128002602Y-85281989D01*
X128002602Y-85281989D02*
X126871231Y-84150618D01*
%TO.C,R8*%
X117265731Y-81816596D02*
X117479257Y-82613485D01*
X117479257Y-82613485D02*
X119024739Y-82199374D01*
X118811213Y-81402485D02*
X117265731Y-81816596D01*
X119024739Y-82199374D02*
X118811213Y-81402485D01*
%TO.C,R9*%
X129787868Y-85281989D02*
X130371231Y-85865352D01*
X130371231Y-85865352D02*
X131502602Y-84733981D01*
X130919239Y-84150618D02*
X129787868Y-85281989D01*
X131502602Y-84733981D02*
X130919239Y-84150618D01*
%TO.C,R12*%
X122265731Y-82199374D02*
X123811213Y-82613485D01*
X122479257Y-81402485D02*
X122265731Y-82199374D01*
X123811213Y-82613485D02*
X124024739Y-81816596D01*
X124024739Y-81816596D02*
X122479257Y-81402485D01*
%TO.C,R19*%
X144600083Y-87444989D02*
X144877920Y-89020681D01*
X144877920Y-89020681D02*
X145690387Y-88877421D01*
X145412550Y-87301729D02*
X144600083Y-87444989D01*
X145690387Y-88877421D02*
X145412550Y-87301729D01*
%TO.C,R23*%
X122387868Y-102733981D02*
X123519239Y-103865352D01*
X122971231Y-102150618D02*
X122387868Y-102733981D01*
X123519239Y-103865352D02*
X124102602Y-103281989D01*
X124102602Y-103281989D02*
X122971231Y-102150618D01*
%TD*%
X146035000Y-80208220D02*
X186225000Y-108648220D01*
X146035000Y-108648220D02*
X186225000Y-80208220D01*
M02*
