M48
; DRILL file {KiCad 9.0.5} date 2026-06-15T22:10:00-0500
; FORMAT={-:-/ absolute / metric / decimal}
; #@! TF.CreationDate,2026-06-15T22:10:00-05:00
; #@! TF.GenerationSoftware,Kicad,Pcbnew,9.0.5
; #@! TF.FileFunction,MixedPlating,1,4
FMAT,2
METRIC
; #@! TA.AperFunction,Plated,PTH,ViaDrill
T1C0.300
; #@! TA.AperFunction,Plated,PTH,ComponentDrill
T2C0.800
; #@! TA.AperFunction,Plated,PTH,ComponentDrill
T3C1.000
; #@! TA.AperFunction,Plated,PTH,ComponentDrill
T4C1.100
; #@! TA.AperFunction,Plated,PTH,ComponentDrill
T5C3.500
%
G90
G05
T1
X111.6Y-92.153
X113.45Y-89.103
X114.4Y-91.953
X115.05Y-89.753
X115.05Y-93.003
X115.05Y-102.053
X115.095Y-97.308
X115.9Y-82.503
X116.5Y-93.603
X117.05Y-98.553
X117.5Y-87.153
X117.5Y-91.803
X117.5Y-96.553
X117.5Y-101.153
X117.55Y-89.053
X118.2Y-88.103
X119.8Y-88.153
X119.8Y-102.203
X119.95Y-92.803
X119.95Y-97.503
X120.623Y-82.011
X121.35Y-103.953
X121.9Y-84.653
X122.2Y-85.953
X122.2Y-105.803
X122.45Y-94.753
X122.5Y-87.153
X122.5Y-91.853
X122.5Y-96.553
X122.5Y-101.153
X124.665Y-85.269
X124.8Y-88.103
X124.8Y-92.803
X124.8Y-97.553
X124.85Y-102.403
X125.4Y-103.603
X125.8Y-85.053
X127.5Y-87.153
X127.5Y-91.853
X127.5Y-96.553
X127.5Y-101.253
X127.85Y-81.587
X128.3Y-88.103
X128.8Y-84.653
X129.9Y-88.103
X129.9Y-92.803
X129.95Y-97.503
X129.95Y-102.403
X130.1Y-90.753
X130.25Y-81.588
X131.3Y-85.853
X132.5Y-83.353
X132.5Y-87.153
X132.5Y-91.853
X132.5Y-96.553
X132.5Y-101.253
X132.768Y-102.656
X134.436Y-100.903
X134.935Y-88.138
X134.935Y-92.803
X134.95Y-97.553
X136.3Y-85.853
X137.15Y-99.303
X137.45Y-102.953
X137.5Y-87.153
X137.5Y-91.853
X137.5Y-96.553
X137.5Y-101.253
X138.25Y-107.253
X139.3Y-100.903
X139.8Y-92.803
X139.8Y-97.553
X139.9Y-88.153
X141.1Y-102.852
X141.1Y-105.803
X141.112Y-93.303
X141.118Y-97.986
X141.4Y-85.853
X142.315Y-105.738
X142.35Y-88.253
X142.5Y-91.853
X142.5Y-100.053
X142.5Y-101.253
X142.6Y-87.153
X143.1Y-106.703
X143.129Y-96.551
X144.1Y-88.253
X144.65Y-102.852
X144.75Y-90.103
X144.75Y-94.103
X144.9Y-97.503
X145.4Y-107.453
X146.1Y-93.703
X146.15Y-100.053
X146.15Y-102.853
X146.463Y-97.654
X147.0Y-107.454
X147.257Y-88.21
X147.5Y-87.153
X147.5Y-101.253
X148.6Y-97.503
X149.7Y-97.653
X149.8Y-102.853
X149.8Y-107.403
X150.0Y-88.103
X150.0Y-90.853
X151.25Y-102.852
X151.85Y-98.453
X152.3Y-88.203
X152.4Y-102.853
X152.55Y-97.503
X152.7Y-95.953
X152.701Y-94.053
X152.8Y-93.153
X153.219Y-100.634
X153.5Y-88.303
X153.6Y-91.103
X154.6Y-87.453
X154.6Y-92.053
X154.6Y-101.553
X154.616Y-96.838
X154.66Y-104.194
X155.5Y-99.303
X156.6Y-90.153
X156.85Y-103.753
X157.4Y-92.103
X158.05Y-89.353
X158.165Y-94.468
X159.0Y-87.353
X159.0Y-90.553
X159.0Y-92.053
X159.0Y-95.253
X159.0Y-96.753
X159.0Y-99.853
X159.0Y-101.453
X159.85Y-89.703
X160.64Y-87.313
X160.8Y-89.852
X161.0Y-100.253
X161.1Y-96.902
X161.4Y-101.953
X161.45Y-94.703
X161.9Y-83.153
X161.9Y-84.503
X162.119Y-92.584
X162.15Y-90.503
X162.15Y-91.403
X162.15Y-95.953
X162.45Y-104.853
X162.8Y-82.453
X162.8Y-83.853
X162.8Y-85.153
X162.8Y-86.203
X162.8Y-87.253
X163.3Y-102.303
X163.45Y-88.553
X163.45Y-91.034
X164.6Y-107.153
X164.635Y-89.968
X164.7Y-81.503
X164.751Y-91.003
X165.15Y-98.903
X165.5Y-107.553
X165.85Y-88.553
X166.2Y-96.653
X166.3Y-87.053
X166.8Y-101.553
X167.318Y-91.003
X168.0Y-82.453
X168.3Y-86.453
X168.4Y-94.023
X169.0Y-104.353
X169.1Y-82.453
X169.1Y-84.453
X169.1Y-85.753
X169.1Y-87.153
X169.18Y-93.353
X169.2Y-94.853
X169.2Y-95.753
X169.2Y-96.653
X169.3Y-102.953
X169.399Y-89.103
X169.4Y-90.553
X170.065Y-96.902
X170.1Y-100.853
X170.111Y-88.553
X171.1Y-100.653
X172.2Y-83.453
X172.2Y-106.153
X172.5Y-104.853
X173.2Y-104.253
X173.4Y-96.253
X174.7Y-107.453
X174.8Y-101.153
X175.28Y-90.414
X175.3Y-98.453
X175.5Y-82.753
X176.0Y-86.153
X177.3Y-102.853
X177.3Y-104.353
X177.5Y-93.953
X177.6Y-82.153
X177.6Y-97.903
X178.099Y-85.804
X178.1Y-82.853
X178.247Y-89.753
X179.1Y-100.753
X179.2Y-102.153
X179.4Y-107.653
X179.5Y-92.453
X179.6Y-94.653
X179.66Y-96.253
X180.3Y-97.253
X180.8Y-98.353
X181.9Y-99.453
X185.0Y-105.453
X186.06Y-92.653
X186.06Y-95.653
X186.3Y-102.553
X186.3Y-104.153
T2
X187.354Y-92.069
X187.354Y-94.069
X187.354Y-96.069
T3
X182.6Y-89.153
X183.8Y-98.653
X183.8Y-106.553
T4
X187.354Y-89.919
X187.354Y-98.219
T5
X184.854Y-84.419
M30
