%TF.GenerationSoftware,KiCad,Pcbnew,9.0.5*%
%TF.CreationDate,2026-06-15T22:10:03-05:00*%
%TF.ProjectId,keepsake-keychain,6b656570-7361-46b6-952d-6b6579636861,rev?*%
%TF.SameCoordinates,Original*%
%TF.FileFunction,Copper,L4,Bot*%
%TF.FilePolarity,Positive*%
%FSLAX46Y46*%
G04 Gerber Fmt 4.6, Leading zero omitted, Abs format (unit mm)*
G04 Created by KiCad (PCBNEW 9.0.5) date 2026-06-15 22:10:03*
%MOMM*%
%LPD*%
G01*
G04 APERTURE LIST*
G04 Aperture macros list*
%AMRoundRect*
0 Rectangle with rounded corners*
0 $1 Rounding radius*
0 $2 $3 $4 $5 $6 $7 $8 $9 X,Y pos of 4 corners*
0 Add a 4 corners polygon primitive as box body*
4,1,4,$2,$3,$4,$5,$6,$7,$8,$9,$2,$3,0*
0 Add four circle primitives for the rounded corners*
1,1,$1+$1,$2,$3*
1,1,$1+$1,$4,$5*
1,1,$1+$1,$6,$7*
1,1,$1+$1,$8,$9*
0 Add four rect primitives between the rounded corners*
20,1,$1+$1,$2,$3,$4,$5,0*
20,1,$1+$1,$4,$5,$6,$7,0*
20,1,$1+$1,$6,$7,$8,$9,0*
20,1,$1+$1,$8,$9,$2,$3,0*%
G04 Aperture macros list end*
%TA.AperFunction,ComponentPad*%
%ADD10R,1.308000X1.308000*%
%TD*%
%TA.AperFunction,ComponentPad*%
%ADD11C,1.308000*%
%TD*%
%TA.AperFunction,ComponentPad*%
%ADD12C,1.650000*%
%TD*%
%TA.AperFunction,ComponentPad*%
%ADD13R,2.000000X2.000000*%
%TD*%
%TA.AperFunction,ComponentPad*%
%ADD14C,2.000000*%
%TD*%
%TA.AperFunction,ComponentPad*%
%ADD15C,3.900000*%
%TD*%
%TA.AperFunction,ConnectorPad*%
%ADD16C,7.000000*%
%TD*%
%TA.AperFunction,SMDPad,CuDef*%
%ADD17RoundRect,0.237500X0.190480X-0.287443X0.277304X0.204960X-0.190480X0.287443X-0.277304X-0.204960X0*%
%TD*%
%TA.AperFunction,SMDPad,CuDef*%
%ADD18RoundRect,0.237500X-0.302951X-0.164703X0.180012X-0.294112X0.302951X0.164703X-0.180012X0.294112X0*%
%TD*%
%TA.AperFunction,SMDPad,CuDef*%
%ADD19RoundRect,0.237500X-0.344715X0.008839X0.008839X-0.344715X0.344715X-0.008839X-0.008839X0.344715X0*%
%TD*%
%TA.AperFunction,SMDPad,CuDef*%
%ADD20RoundRect,0.237500X-0.008839X-0.344715X0.344715X0.008839X0.008839X0.344715X-0.344715X-0.008839X0*%
%TD*%
%TA.AperFunction,SMDPad,CuDef*%
%ADD21RoundRect,0.237500X0.008839X0.344715X-0.344715X-0.008839X-0.008839X-0.344715X0.344715X0.008839X0*%
%TD*%
%TA.AperFunction,SMDPad,CuDef*%
%ADD22R,5.300000X5.300000*%
%TD*%
%TA.AperFunction,SMDPad,CuDef*%
%ADD23R,5.000000X5.000000*%
%TD*%
%TA.AperFunction,SMDPad,CuDef*%
%ADD24RoundRect,0.237500X-0.180012X-0.294112X0.302951X-0.164703X0.180012X0.294112X-0.302951X0.164703X0*%
%TD*%
%TA.AperFunction,SMDPad,CuDef*%
%ADD25RoundRect,0.237500X0.277304X-0.204960X0.190480X0.287443X-0.277304X0.204960X-0.190480X-0.287443X0*%
%TD*%
%TA.AperFunction,SMDPad,CuDef*%
%ADD26RoundRect,0.237500X0.180012X0.294112X-0.302951X0.164703X-0.180012X-0.294112X0.302951X-0.164703X0*%
%TD*%
%TA.AperFunction,ViaPad*%
%ADD27C,0.700000*%
%TD*%
%TA.AperFunction,Conductor*%
%ADD28C,0.200000*%
%TD*%
%TA.AperFunction,Conductor*%
%ADD29C,1.600000*%
%TD*%
G04 APERTURE END LIST*
D10*
%TO.P,SW1,1*%
%TO.N,+3V3*%
X187354470Y-96069301D03*
D11*
%TO.P,SW1,2*%
%TO.N,Net-(BT1-Pad1)*%
X187354470Y-94069301D03*
%TO.P,SW1,3*%
%TO.N,unconnected-(SW1-Pad3)*%
X187354470Y-92069301D03*
D12*
%TO.P,SW1,SH1,SH1*%
%TO.N,unconnected-(SW1-PadSH1)*%
X187354470Y-98219301D03*
%TO.P,SW1,SH2,SH2*%
%TO.N,unconnected-(SW1-PadSH2)*%
X187354470Y-89919301D03*
%TD*%
D13*
%TO.P,TP2,1*%
%TO.N,GND*%
X183800000Y-98653220D03*
%TD*%
D14*
%TO.P,TP1,1*%
%TO.N,+3V3*%
X183800000Y-106553220D03*
%TD*%
%TO.P,TP3,1*%
%TO.N,Net-(U5-PA0{slash}\u002ARESET{slash}UPDI)*%
X182600000Y-89153220D03*
%TD*%
D15*
%TO.P,H1,1,1*%
%TO.N,unconnected-(H1-Pad1)_2*%
X184854470Y-84419301D03*
D16*
%TO.N,unconnected-(H1-Pad1)*%
X184854470Y-84419301D03*
%TD*%
D17*
%TO.P,R22,1*%
%TO.N,BLUE_7*%
X144986781Y-93059842D03*
%TO.P,R22,2*%
%TO.N,Net-(U1-Q7)*%
X145303689Y-91262568D03*
%TD*%
D18*
%TO.P,R13,1*%
%TO.N,BLUE_4*%
X138763828Y-81771813D03*
%TO.P,R13,2*%
%TO.N,Net-(U1-Q4)*%
X140526642Y-82244157D03*
%TD*%
D17*
%TO.P,R4,1*%
%TO.N,BLUE_1*%
X112486781Y-89059842D03*
%TO.P,R4,2*%
%TO.N,Net-(U1-Q1)*%
X112803689Y-87262568D03*
%TD*%
D19*
%TO.P,R3,1*%
%TO.N,RED_0*%
X114600000Y-95362750D03*
%TO.P,R3,2*%
%TO.N,Net-(U3-Q0)*%
X115890470Y-96653220D03*
%TD*%
D20*
%TO.P,R21,1*%
%TO.N,RED_6*%
X142000000Y-96653220D03*
%TO.P,R21,2*%
%TO.N,Net-(U3-Q6)*%
X143290470Y-95362750D03*
%TD*%
D19*
%TO.P,R5,1*%
%TO.N,GREEN_1*%
X126600000Y-105862750D03*
%TO.P,R5,2*%
%TO.N,Net-(U2-Q1)*%
X127890470Y-107153220D03*
%TD*%
D21*
%TO.P,R24,1*%
%TO.N,RED_7*%
X135290470Y-102362750D03*
%TO.P,R24,2*%
%TO.N,Net-(U3-Q7)*%
X134000000Y-103653220D03*
%TD*%
D19*
%TO.P,R2,1*%
%TO.N,GREEN_0*%
X118600000Y-98862750D03*
%TO.P,R2,2*%
%TO.N,Net-(U2-Q0)*%
X119890470Y-100153220D03*
%TD*%
D22*
%TO.P,BT1,*%
%TO.N,*%
X149400000Y-94053220D03*
%TO.P,BT1,1*%
%TO.N,Net-(BT1-Pad1)*%
X182860000Y-94053220D03*
D23*
%TO.P,BT1,2*%
%TO.N,GND*%
X166130000Y-94053220D03*
%TD*%
D24*
%TO.P,R10,1*%
%TO.N,BLUE_3*%
X133763828Y-82244157D03*
%TO.P,R10,2*%
%TO.N,Net-(U1-Q3)*%
X135526642Y-81771813D03*
%TD*%
D21*
%TO.P,R20,1*%
%TO.N,GREEN_6*%
X131290470Y-105862750D03*
%TO.P,R20,2*%
%TO.N,Net-(U2-Q6)*%
X130000000Y-107153220D03*
%TD*%
D25*
%TO.P,R1,1*%
%TO.N,BLUE_0*%
X112803689Y-93059842D03*
%TO.P,R1,2*%
%TO.N,Net-(U1-Q0)*%
X112486781Y-91262568D03*
%TD*%
D20*
%TO.P,R7,1*%
%TO.N,BLUE_2*%
X113500000Y-84653220D03*
%TO.P,R7,2*%
%TO.N,Net-(U1-Q2)*%
X114790470Y-83362750D03*
%TD*%
D21*
%TO.P,R17,1*%
%TO.N,GREEN_5*%
X139290470Y-98862750D03*
%TO.P,R17,2*%
%TO.N,Net-(U2-Q5)*%
X138000000Y-100153220D03*
%TD*%
D19*
%TO.P,R16,1*%
%TO.N,BLUE_5*%
X143000000Y-83362750D03*
%TO.P,R16,2*%
%TO.N,Net-(U1-Q5)*%
X144290470Y-84653220D03*
%TD*%
%TO.P,R6,1*%
%TO.N,RED_1*%
X126500000Y-84362750D03*
%TO.P,R6,2*%
%TO.N,Net-(U3-Q1)*%
X127790470Y-85653220D03*
%TD*%
D26*
%TO.P,R8,1*%
%TO.N,GREEN_2*%
X119026642Y-81771813D03*
%TO.P,R8,2*%
%TO.N,Net-(U2-Q2)*%
X117263828Y-82244157D03*
%TD*%
D20*
%TO.P,R9,1*%
%TO.N,RED_2*%
X130000000Y-85653220D03*
%TO.P,R9,2*%
%TO.N,Net-(U3-Q2)*%
X131290470Y-84362750D03*
%TD*%
D18*
%TO.P,R12,1*%
%TO.N,RED_3*%
X122263828Y-81771813D03*
%TO.P,R12,2*%
%TO.N,Net-(U3-Q3)*%
X124026642Y-82244157D03*
%TD*%
D25*
%TO.P,R19,1*%
%TO.N,BLUE_6*%
X145303689Y-89059842D03*
%TO.P,R19,2*%
%TO.N,Net-(U1-Q6)*%
X144986781Y-87262568D03*
%TD*%
D19*
%TO.P,R23,1*%
%TO.N,GREEN_7*%
X122600000Y-102362750D03*
%TO.P,R23,2*%
%TO.N,Net-(U2-Q7)*%
X123890470Y-103653220D03*
%TD*%
D27*
%TO.N,GND*%
X186060002Y-95653220D03*
X166200000Y-96653220D03*
X169000000Y-104353220D03*
X169100000Y-84453220D03*
X173400000Y-96253220D03*
X170111391Y-88553220D03*
X177600000Y-82153220D03*
X179500000Y-92453220D03*
X174700000Y-107453220D03*
X166300000Y-87053220D03*
X164600000Y-107153220D03*
X179400000Y-107653220D03*
X175300000Y-98453220D03*
X180300000Y-97253222D03*
X186300000Y-102553220D03*
X174800000Y-101153220D03*
X179600000Y-94653220D03*
X165500000Y-107553220D03*
X168400000Y-94023020D03*
X168000000Y-82453220D03*
X178100000Y-82853220D03*
%TO.N,+3V3*%
X169400000Y-90553220D03*
X177600000Y-97903220D03*
X186300000Y-104153220D03*
X159000000Y-95253220D03*
X185000000Y-105453220D03*
X172200000Y-106153220D03*
X160640380Y-87312840D03*
X168300000Y-86453220D03*
X159000000Y-99853220D03*
X179659998Y-96253220D03*
X159000000Y-101453220D03*
X159000000Y-92053220D03*
X159000000Y-96753220D03*
X169200000Y-96653220D03*
X161000000Y-100253220D03*
X169100000Y-82453220D03*
X159000000Y-87353220D03*
X177500000Y-93953220D03*
X170100000Y-100853220D03*
X186060002Y-92653220D03*
X159000000Y-90553220D03*
X175500000Y-82753220D03*
%TO.N,MIC*%
X181900000Y-99453220D03*
X179200000Y-102153220D03*
%TO.N,ROW_0*%
X122500000Y-87153220D03*
X132500000Y-87153220D03*
X137500000Y-87153220D03*
X127500000Y-87153220D03*
X117500000Y-87153220D03*
X147500000Y-87153220D03*
X154600000Y-87453220D03*
X142600000Y-87153220D03*
%TO.N,GREEN_0*%
X115050000Y-89753220D03*
X117050000Y-98553220D03*
X115050000Y-102053220D03*
X115050000Y-93003220D03*
X115095450Y-97307770D03*
%TO.N,BLUE_0*%
X114400000Y-91953220D03*
%TO.N,RED_0*%
X118200000Y-88103220D03*
X116500000Y-93603220D03*
%TO.N,RED_2*%
X128300000Y-88103220D03*
%TO.N,BLUE_2*%
X121900000Y-84653220D03*
%TO.N,GREEN_2*%
X124800000Y-92803220D03*
X124800000Y-88103220D03*
X124800000Y-97553220D03*
X124850000Y-102403220D03*
X120623466Y-82010514D03*
X124665380Y-85268600D03*
%TO.N,GREEN_4*%
X134934620Y-92803220D03*
X165850000Y-88553220D03*
X134934620Y-88137840D03*
X134950000Y-97553220D03*
X153500000Y-88303220D03*
X134436184Y-100903220D03*
%TO.N,RED_4*%
X143100000Y-106703220D03*
X166800000Y-101553220D03*
%TO.N,BLUE_4*%
X136300000Y-85853220D03*
%TO.N,GREEN_6*%
X144650000Y-102852220D03*
X144750000Y-90103220D03*
X144900000Y-97503220D03*
X141100000Y-105803220D03*
X144750000Y-94103220D03*
%TO.N,RED_6*%
X146150000Y-100053220D03*
X146100000Y-93703220D03*
X146150000Y-102853220D03*
X142500000Y-100053220D03*
X147257008Y-88210228D03*
X146462993Y-97654220D03*
%TO.N,BLUE_6*%
X144100000Y-88253220D03*
%TO.N,GREEN_1*%
X119800000Y-88153220D03*
X119950000Y-97503220D03*
X122200000Y-105803220D03*
X119950000Y-92803220D03*
X119800000Y-102203220D03*
%TO.N,BLUE_1*%
X113450000Y-89103220D03*
%TO.N,RED_1*%
X125800000Y-85053220D03*
X122200000Y-85953220D03*
%TO.N,GREEN_3*%
X129900000Y-88103220D03*
X129950000Y-97503220D03*
X129900000Y-92803220D03*
X129950000Y-102403220D03*
X156600000Y-90153220D03*
X164635121Y-89968099D03*
X130100000Y-90753220D03*
%TO.N,BLUE_3*%
X131300000Y-85853220D03*
%TO.N,RED_3*%
X127850000Y-81586620D03*
%TO.N,BLUE_5*%
X141400000Y-85853220D03*
%TO.N,RED_5*%
X165150000Y-98903220D03*
X142350000Y-88253220D03*
X141118333Y-97985700D03*
X141112132Y-93303220D03*
X141100000Y-102852220D03*
%TO.N,GREEN_5*%
X139800000Y-92803220D03*
X139900000Y-88153220D03*
X139300000Y-100903220D03*
X139800000Y-97553220D03*
%TO.N,GREEN_7*%
X148600000Y-97503220D03*
X152701000Y-94053220D03*
X153600000Y-91103220D03*
X151850000Y-98453220D03*
X121350000Y-103953220D03*
X142315380Y-105737840D03*
%TO.N,BLUE_7*%
X149700000Y-97653220D03*
X152700000Y-95953220D03*
X150000000Y-88103220D03*
X150000000Y-90853220D03*
%TO.N,RED_7*%
X152800001Y-93153219D03*
X147000000Y-107454220D03*
X152550000Y-97503220D03*
X137450000Y-102953220D03*
X153218947Y-100634273D03*
X152300000Y-88203220D03*
X151250000Y-102852220D03*
%TO.N,Net-(U1-Q0)*%
X164700000Y-81503220D03*
X111600000Y-92153220D03*
%TO.N,ROW_1*%
X132500000Y-91853220D03*
X122500000Y-91853220D03*
X127500000Y-91853220D03*
X142500000Y-91853220D03*
X117500000Y-91803220D03*
X137500000Y-91853220D03*
X154600000Y-92053220D03*
%TO.N,Net-(U2-Q0)*%
X160800000Y-89852220D03*
X157400000Y-92103220D03*
X122450000Y-94753220D03*
X164751000Y-91003218D03*
%TO.N,Net-(U3-Q0)*%
X171100000Y-100653220D03*
%TO.N,Net-(U1-Q1)*%
X162800000Y-82453220D03*
%TO.N,Net-(U2-Q1)*%
X158164674Y-94467894D03*
X162150000Y-90503220D03*
X149800000Y-102853220D03*
X145400000Y-107453220D03*
%TO.N,Net-(U3-Q1)*%
X159850000Y-89703220D03*
X128800000Y-84653220D03*
X161400000Y-101953220D03*
%TO.N,Net-(U1-Q2)*%
X161900000Y-83153220D03*
%TO.N,Net-(U2-Q2)*%
X163450000Y-91033509D03*
X158050000Y-89353220D03*
X115900000Y-82503220D03*
X117550000Y-89053220D03*
%TO.N,Net-(U3-Q2)*%
X132500000Y-83353220D03*
X163450000Y-88553220D03*
X163300000Y-102303220D03*
%TO.N,Net-(U1-Q3)*%
X162800000Y-83853220D03*
%TO.N,Net-(U2-Q3)*%
X162150000Y-91403223D03*
X167317734Y-91003218D03*
%TO.N,Net-(U3-Q3)*%
X130250000Y-81587620D03*
X156850000Y-103753220D03*
%TO.N,Net-(U1-Q4)*%
X161900000Y-84503220D03*
%TO.N,Net-(U2-Q4)*%
X169399000Y-89103220D03*
X162119180Y-92584040D03*
%TO.N,Net-(U1-Q5)*%
X162800000Y-85153220D03*
%TO.N,Net-(U2-Q5)*%
X137150000Y-99303220D03*
X161450000Y-94703220D03*
X155500000Y-99303220D03*
%TO.N,Net-(U1-Q6)*%
X162800000Y-86203220D03*
%TO.N,Net-(U2-Q6)*%
X149800000Y-107403220D03*
X138250000Y-107253220D03*
X154659620Y-104193600D03*
X161100000Y-96902220D03*
%TO.N,Net-(U3-Q6)*%
X162450000Y-104853220D03*
%TO.N,Net-(U1-Q7)*%
X162800000Y-87253220D03*
%TO.N,Net-(U2-Q7)*%
X162150000Y-95953220D03*
X125400000Y-103603220D03*
%TO.N,Net-(U3-Q7)*%
X152400000Y-102853220D03*
X132767610Y-102655835D03*
%TO.N,ROW_2*%
X132500000Y-96553220D03*
X137500000Y-96553220D03*
X127500000Y-96553220D03*
X154615633Y-96837587D03*
X143128963Y-96551467D03*
X117500000Y-96553220D03*
X122500000Y-96553220D03*
%TO.N,Net-(U1-DS)*%
X172200000Y-83453220D03*
X176000000Y-86153220D03*
%TO.N,ROW_3*%
X137500000Y-101253220D03*
X127500000Y-101253220D03*
X154600000Y-101553220D03*
X132500000Y-101253220D03*
X117500000Y-101153220D03*
X122500000Y-101153220D03*
X142500000Y-101253220D03*
X147500000Y-101253220D03*
%TO.N,Net-(U1-Q7_2)*%
X169100000Y-87153220D03*
X169180002Y-93353220D03*
%TO.N,SHIFT_CLK*%
X172500000Y-104853220D03*
X178099085Y-85804275D03*
X169200000Y-95753220D03*
X169100000Y-85753220D03*
%TO.N,LATCH_CLK*%
X173200000Y-104253220D03*
X169200000Y-94853220D03*
X175279571Y-90413551D03*
%TO.N,Net-(U2-Q7_2)*%
X169300000Y-102953220D03*
X170064870Y-96902220D03*
%TO.N,Net-(U4-VOUT)*%
X180800000Y-98353220D03*
X179100000Y-100753220D03*
%TO.N,Net-(U5-PB0)*%
X177300000Y-104353220D03*
X177300000Y-102853220D03*
X178247343Y-89753019D03*
%TD*%
D28*
%TO.N,MIC*%
X181900000Y-99453220D02*
X179200000Y-102153220D01*
%TO.N,ROW_0*%
X117500000Y-87103220D02*
X117500000Y-87153220D01*
%TO.N,GREEN_0*%
X113712132Y-97303220D02*
X113712132Y-100715352D01*
X113712132Y-94341088D02*
X113712132Y-97303220D01*
X115090900Y-97303220D02*
X115095450Y-97307770D01*
X115050000Y-93003220D02*
X113712132Y-94341088D01*
X115050000Y-89753220D02*
X115050000Y-93003220D01*
X113712132Y-100715352D02*
X115050000Y-102053220D01*
X117359530Y-98862750D02*
X117050000Y-98553220D01*
X118600000Y-98862750D02*
X117359530Y-98862750D01*
X113712132Y-97303220D02*
X115090900Y-97303220D01*
%TO.N,BLUE_0*%
X114600000Y-91953220D02*
X113493378Y-93059842D01*
X113493378Y-93059842D02*
X112803689Y-93059842D01*
%TO.N,RED_0*%
X116359530Y-93603220D02*
X114600000Y-95362750D01*
X116500000Y-93603220D02*
X116359530Y-93603220D01*
%TO.N,RED_2*%
X128400000Y-87903220D02*
X128250000Y-87753220D01*
X128250000Y-87403220D02*
X130000000Y-85653220D01*
X128250000Y-87753220D02*
X128250000Y-87403220D01*
%TO.N,BLUE_2*%
X121900000Y-84653220D02*
X113500000Y-84653220D01*
%TO.N,GREEN_2*%
X124800000Y-97553220D02*
X124800000Y-102353220D01*
X124800000Y-88103220D02*
X124800000Y-85403220D01*
X120384765Y-81771813D02*
X120623466Y-82010514D01*
X124800000Y-88103220D02*
X124800000Y-92803220D01*
X124800000Y-85403220D02*
X124665380Y-85268600D01*
X119026642Y-81771813D02*
X120384765Y-81771813D01*
X124800000Y-102353220D02*
X124850000Y-102403220D01*
X124800000Y-92803220D02*
X124800000Y-97553220D01*
%TO.N,GREEN_4*%
X134934620Y-97518600D02*
X134934620Y-97537840D01*
X134934620Y-88137840D02*
X134934620Y-92787840D01*
X134934620Y-92787840D02*
X134950000Y-92803220D01*
X134950000Y-97553220D02*
X134950000Y-100389404D01*
X134950000Y-92803220D02*
X134934620Y-92803220D01*
X134934620Y-97537840D02*
X134950000Y-97553220D01*
X134950000Y-100389404D02*
X134436184Y-100903220D01*
X134934620Y-92803220D02*
X134934620Y-97518600D01*
%TO.N,BLUE_4*%
X138763828Y-81771813D02*
X138763828Y-83389392D01*
X138763828Y-83389392D02*
X136300000Y-85853220D01*
%TO.N,GREEN_6*%
X144650000Y-102203220D02*
X144900000Y-101953220D01*
X131290470Y-105862750D02*
X141040470Y-105862750D01*
X144900000Y-97503220D02*
X144900000Y-101953220D01*
X141040470Y-105862750D02*
X141100000Y-105803220D01*
X144650000Y-102852220D02*
X144650000Y-102203220D01*
%TO.N,RED_6*%
X146150000Y-100053220D02*
X146150000Y-102853220D01*
X146100000Y-93703220D02*
X146150000Y-93653220D01*
X142000000Y-99553220D02*
X142500000Y-100053220D01*
X146100000Y-93703220D02*
X146100000Y-97291227D01*
X142000000Y-96653220D02*
X142000000Y-99553220D01*
X146462993Y-97654220D02*
X146150000Y-97967213D01*
X146150000Y-97967213D02*
X146150000Y-100053220D01*
X146100000Y-97291227D02*
X146462993Y-97654220D01*
%TO.N,BLUE_6*%
X145350000Y-89103220D02*
X144650000Y-88403220D01*
X145306622Y-89059842D02*
X145350000Y-89103220D01*
X145303689Y-89059842D02*
X145306622Y-89059842D01*
X144650000Y-88403220D02*
X143950000Y-88403220D01*
%TO.N,GREEN_1*%
X126600000Y-105862750D02*
X122259530Y-105862750D01*
X122259530Y-105862750D02*
X122200000Y-105803220D01*
X119950000Y-97503220D02*
X119900000Y-97553220D01*
X119900000Y-97453220D02*
X119950000Y-97503220D01*
X119900000Y-92753220D02*
X119900000Y-88153220D01*
X119900000Y-99028582D02*
X119002602Y-99925980D01*
X119900000Y-97553220D02*
X119900000Y-99028582D01*
X119002602Y-99925980D02*
X119002602Y-101405822D01*
X119950000Y-92803220D02*
X119900000Y-92753220D01*
X119900000Y-92853220D02*
X119900000Y-97453220D01*
X119002602Y-101405822D02*
X119800000Y-102203220D01*
X119900000Y-88153220D02*
X119800000Y-88153220D01*
X119950000Y-92803220D02*
X119900000Y-92853220D01*
%TO.N,BLUE_1*%
X113450000Y-89103220D02*
X112530159Y-89103220D01*
X112530159Y-89103220D02*
X112486781Y-89059842D01*
%TO.N,RED_1*%
X126500000Y-84362750D02*
X126490470Y-84362750D01*
X126490470Y-84362750D02*
X125800000Y-85053220D01*
%TO.N,GREEN_3*%
X164635121Y-89968099D02*
X164635121Y-88817687D01*
X164635121Y-88817687D02*
X163719654Y-87902220D01*
X159930346Y-88702220D02*
X158479346Y-90153220D01*
X129900000Y-97453220D02*
X129950000Y-97503220D01*
X162133900Y-88702220D02*
X159930346Y-88702220D01*
X129900000Y-92803220D02*
X129900000Y-97453220D01*
X129950000Y-97503220D02*
X129950000Y-102403220D01*
X158479346Y-90153220D02*
X156600000Y-90153220D01*
X129900000Y-88103220D02*
X129900000Y-92803220D01*
X162933900Y-87902220D02*
X162133900Y-88702220D01*
X163719654Y-87902220D02*
X162933900Y-87902220D01*
%TO.N,BLUE_3*%
X131300000Y-85853220D02*
X133763828Y-83389392D01*
X133763828Y-83389392D02*
X133763828Y-82244157D01*
%TO.N,RED_3*%
X127672344Y-81408964D02*
X122626677Y-81408964D01*
X127850000Y-81586620D02*
X127672344Y-81408964D01*
X122626677Y-81408964D02*
X122263828Y-81771813D01*
%TO.N,BLUE_5*%
X141400000Y-85853220D02*
X143000000Y-84253220D01*
X143000000Y-84253220D02*
X143000000Y-83362750D01*
%TO.N,RED_5*%
X141112132Y-97965352D02*
X141112132Y-93303220D01*
X141118507Y-97971727D02*
X141112132Y-97965352D01*
X141100000Y-102852220D02*
X141100000Y-98070288D01*
X162719654Y-105504220D02*
X165150000Y-103073874D01*
X141100000Y-102853220D02*
X143751000Y-105504220D01*
X165150000Y-103073874D02*
X165150000Y-98903220D01*
X141118333Y-97985700D02*
X141118507Y-97985526D01*
X141100000Y-98070288D02*
X141118333Y-98051955D01*
X141112132Y-93303220D02*
X141112132Y-89491088D01*
X141118333Y-98051955D02*
X141118333Y-97985700D01*
X143751000Y-105504220D02*
X162719654Y-105504220D01*
X141118507Y-97985526D02*
X141118507Y-97971727D01*
X141112132Y-89491088D02*
X142350000Y-88253220D01*
X141100000Y-102852220D02*
X141100000Y-102853220D01*
%TO.N,GREEN_5*%
X139800000Y-98853220D02*
X139800000Y-100403220D01*
X139800000Y-92803220D02*
X139800000Y-97553220D01*
X139290470Y-98862750D02*
X139790470Y-98862750D01*
X139800000Y-88253220D02*
X139800000Y-92803220D01*
X139790470Y-98862750D02*
X139800000Y-98853220D01*
X139900000Y-88153220D02*
X139800000Y-88253220D01*
X139800000Y-97553220D02*
X139800000Y-98853220D01*
X139800000Y-100403220D02*
X139300000Y-100903220D01*
%TO.N,GREEN_7*%
X122600000Y-102362750D02*
X121350000Y-103612750D01*
X148600000Y-97503220D02*
X149550000Y-98453220D01*
X149550000Y-98453220D02*
X151850000Y-98453220D01*
X121350000Y-103612750D02*
X121350000Y-103953220D01*
%TO.N,BLUE_7*%
X146119947Y-90833629D02*
X146119947Y-91926676D01*
X150000000Y-88103220D02*
X148850356Y-88103220D01*
X146119947Y-91926676D02*
X144986781Y-93059842D01*
X150000000Y-90853220D02*
X150000000Y-88103220D01*
X148850356Y-88103220D02*
X146119947Y-90833629D01*
%TO.N,RED_7*%
X151250000Y-102603220D02*
X151250000Y-102852220D01*
X153351000Y-93704218D02*
X153351000Y-96702220D01*
X152351000Y-92704218D02*
X152351000Y-91102220D01*
X135290470Y-102362750D02*
X135880940Y-102953220D01*
X135880940Y-102953220D02*
X137450000Y-102953220D01*
X152351000Y-91102220D02*
X152300000Y-91102220D01*
X153351000Y-96702220D02*
X152550000Y-97503220D01*
X153218947Y-100634273D02*
X151250000Y-102603220D01*
X152300000Y-91102220D02*
X152300000Y-88203220D01*
X152800001Y-93153219D02*
X153351000Y-93704218D01*
X152800001Y-93153219D02*
X152351000Y-92704218D01*
%TO.N,Net-(U1-Q0)*%
X111600000Y-92153220D02*
X111600000Y-92149349D01*
X111600000Y-92149349D02*
X112486781Y-91262568D01*
X112486781Y-91262568D02*
X112486781Y-91066439D01*
%TO.N,Net-(U2-Q0)*%
X121500000Y-95703220D02*
X121500000Y-98543690D01*
X122450000Y-94753220D02*
X121500000Y-95703220D01*
X121500000Y-98543690D02*
X119890470Y-100153220D01*
%TO.N,Net-(U3-Q0)*%
X115800000Y-98553220D02*
X115800000Y-96753220D01*
X115900000Y-96653220D02*
X115890470Y-96653220D01*
X115800000Y-96753220D02*
X115900000Y-96653220D01*
X171100000Y-102073874D02*
X169569654Y-103604220D01*
X169569654Y-103604220D02*
X168549000Y-103604220D01*
X171100000Y-100653220D02*
X171100000Y-102073874D01*
X143650000Y-106153220D02*
X142100000Y-104603220D01*
X118151000Y-100883566D02*
X117769654Y-100502220D01*
X168549000Y-103604220D02*
X166000000Y-106153220D01*
X117769654Y-100502220D02*
X117749000Y-100502220D01*
X118151000Y-102654220D02*
X118151000Y-100883566D01*
X142100000Y-104603220D02*
X120100000Y-104603220D01*
X166000000Y-106153220D02*
X143650000Y-106153220D01*
X117749000Y-100502220D02*
X115800000Y-98553220D01*
X120100000Y-104603220D02*
X118151000Y-102654220D01*
%TO.N,Net-(U1-Q1)*%
X145567100Y-81753220D02*
X143766100Y-79952220D01*
X143766100Y-79952220D02*
X133801000Y-79952220D01*
X160600000Y-82453220D02*
X159900000Y-81753220D01*
X159900000Y-81753220D02*
X145567100Y-81753220D01*
X132816600Y-80936620D02*
X116119170Y-80936620D01*
X112612132Y-84443658D02*
X112612132Y-87071011D01*
X112612132Y-87071011D02*
X112803689Y-87262568D01*
X162800000Y-82453220D02*
X160600000Y-82453220D01*
X116119170Y-80936620D02*
X112612132Y-84443658D01*
X133801000Y-79952220D02*
X132816600Y-80936620D01*
%TO.N,Net-(U2-Q1)*%
X158164674Y-94467894D02*
X149789674Y-102842894D01*
X128778338Y-108041088D02*
X127890470Y-107153220D01*
X145400000Y-107453220D02*
X144812132Y-108041088D01*
X144812132Y-108041088D02*
X128778338Y-108041088D01*
%TO.N,Net-(U3-Q1)*%
X127790470Y-85653220D02*
X127800000Y-85653220D01*
X127800000Y-85653220D02*
X128800000Y-84653220D01*
X159850000Y-100403220D02*
X161400000Y-101953220D01*
X159850000Y-89703220D02*
X159850000Y-100403220D01*
%TO.N,Net-(U1-Q2)*%
X131290470Y-83362750D02*
X114790470Y-83362750D01*
X161900000Y-83153220D02*
X161800000Y-83253220D01*
X161800000Y-83253220D02*
X160450000Y-83253220D01*
X143300000Y-80453220D02*
X134200000Y-80453220D01*
X159650000Y-82453220D02*
X145300000Y-82453220D01*
X134200000Y-80453220D02*
X131290470Y-83362750D01*
X160450000Y-83253220D02*
X159650000Y-82453220D01*
X145300000Y-82453220D02*
X143300000Y-80453220D01*
%TO.N,Net-(U2-Q2)*%
X117004765Y-82503220D02*
X117263828Y-82244157D01*
X115900000Y-82503220D02*
X117004765Y-82503220D01*
%TO.N,Net-(U3-Q2)*%
X131490470Y-84362750D02*
X132500000Y-83353220D01*
X163450000Y-88553220D02*
X162850000Y-88553220D01*
X162800000Y-101803220D02*
X163300000Y-102303220D01*
X162800000Y-88603220D02*
X162800000Y-101803220D01*
X131290470Y-84362750D02*
X131490470Y-84362750D01*
X162850000Y-88553220D02*
X162800000Y-88603220D01*
%TO.N,Net-(U1-Q3)*%
X136361835Y-80936620D02*
X135526642Y-81771813D01*
X145100000Y-83153220D02*
X142883400Y-80936620D01*
X142883400Y-80936620D02*
X136361835Y-80936620D01*
X159300000Y-83153220D02*
X145100000Y-83153220D01*
X160000000Y-83853220D02*
X159300000Y-83153220D01*
X162800000Y-83853220D02*
X160000000Y-83853220D01*
%TO.N,Net-(U3-Q3)*%
X130250000Y-81587620D02*
X129593463Y-82244157D01*
X129593463Y-82244157D02*
X124026642Y-82244157D01*
%TO.N,Net-(U1-Q4)*%
X161900000Y-84503220D02*
X159650000Y-84503220D01*
X143390937Y-82244157D02*
X140526642Y-82244157D01*
X159650000Y-84503220D02*
X159100000Y-83953220D01*
X145100000Y-83953220D02*
X143390937Y-82244157D01*
X159100000Y-83953220D02*
X145100000Y-83953220D01*
%TO.N,Net-(U1-Q5)*%
X162800000Y-85153220D02*
X159400000Y-85153220D01*
X159000000Y-84753220D02*
X144390470Y-84753220D01*
X159400000Y-85153220D02*
X159000000Y-84753220D01*
X144390470Y-84753220D02*
X144290470Y-84653220D01*
%TO.N,Net-(U2-Q5)*%
X138000000Y-100153220D02*
X137150000Y-99303220D01*
%TO.N,Net-(U1-Q6)*%
X158050000Y-85603220D02*
X161750000Y-85603220D01*
X161750000Y-85603220D02*
X161825000Y-85678220D01*
X161825000Y-85678220D02*
X162350000Y-86203220D01*
X162350000Y-86203220D02*
X162800000Y-86203220D01*
X144986781Y-87262568D02*
X146646129Y-85603220D01*
X146646129Y-85603220D02*
X158050000Y-85603220D01*
%TO.N,Net-(U2-Q6)*%
X138150000Y-107153220D02*
X130000000Y-107153220D01*
X138250000Y-107253220D02*
X138150000Y-107153220D01*
%TO.N,Net-(U3-Q6)*%
X143290470Y-95362750D02*
X143290470Y-95900467D01*
X143779963Y-96281813D02*
X143779963Y-104183183D01*
X144450000Y-104853220D02*
X162450000Y-104853220D01*
X143779963Y-104183183D02*
X144450000Y-104853220D01*
X143290470Y-95900467D02*
X143398617Y-95900467D01*
X143398617Y-95900467D02*
X143779963Y-96281813D01*
%TO.N,Net-(U1-Q7)*%
X161500000Y-86403220D02*
X162350000Y-87253220D01*
X149983256Y-86403220D02*
X161500000Y-86403220D01*
X145303689Y-91262568D02*
X145303689Y-91082787D01*
X145303689Y-91082787D02*
X149983256Y-86403220D01*
X162350000Y-87253220D02*
X162750000Y-87253220D01*
%TO.N,Net-(U2-Q7)*%
X123890470Y-103653220D02*
X125350000Y-103653220D01*
X125350000Y-103653220D02*
X125400000Y-103603220D01*
%TO.N,Net-(U3-Q7)*%
X134000000Y-103653220D02*
X133764995Y-103653220D01*
X133764995Y-103653220D02*
X132767610Y-102655835D01*
%TO.N,Net-(U1-DS)*%
X173300000Y-83453220D02*
X172200000Y-83453220D01*
X176000000Y-86153220D02*
X173300000Y-83453220D01*
%TO.N,Net-(U1-Q7_2)*%
X168749000Y-87604220D02*
X168749000Y-91222874D01*
X169100000Y-91553220D02*
X169100000Y-92953220D01*
X169100000Y-92953220D02*
X169180002Y-93033222D01*
X169079346Y-91553220D02*
X169100000Y-91553220D01*
X168749000Y-91222874D02*
X169079346Y-91553220D01*
X169100000Y-87153220D02*
X168749000Y-87604220D01*
X169180002Y-93033222D02*
X169180002Y-93353220D01*
%TO.N,SHIFT_CLK*%
X176200000Y-87653220D02*
X176200000Y-91953220D01*
X177049000Y-86804220D02*
X175730346Y-86804220D01*
X174700000Y-85773874D02*
X174700000Y-85753220D01*
X172406947Y-95746273D02*
X172406947Y-104760167D01*
X175730346Y-86804220D02*
X174700000Y-85773874D01*
X178099085Y-85804275D02*
X178048945Y-85804275D01*
X178048945Y-85804275D02*
X177049000Y-86804220D01*
X169400000Y-95853220D02*
X172300000Y-95853220D01*
X172300000Y-95853220D02*
X172406947Y-95746273D01*
X177049000Y-86804220D02*
X176200000Y-87653220D01*
X176200000Y-91953220D02*
X172406947Y-95746273D01*
X169300000Y-95753220D02*
X169400000Y-95853220D01*
X172406947Y-104760167D02*
X172500000Y-104853220D01*
X174700000Y-85753220D02*
X169100000Y-85753220D01*
%TO.N,Net-(U2-Q7_2)*%
X169300000Y-97667090D02*
X169300000Y-102953220D01*
X170064870Y-96902220D02*
X169300000Y-97667090D01*
%TO.N,Net-(U4-VOUT)*%
X180800000Y-99153220D02*
X180800000Y-98353220D01*
X179100000Y-100753220D02*
X179200000Y-100753220D01*
X179200000Y-100753220D02*
X180800000Y-99153220D01*
%TO.N,Net-(U5-PB0)*%
X177300000Y-104353220D02*
X178251000Y-103402220D01*
X178251000Y-103402220D02*
X178251000Y-89756676D01*
X177300000Y-102853220D02*
X177849000Y-103402220D01*
X178251000Y-89756676D02*
X178247343Y-89753019D01*
X177849000Y-103402220D02*
X178251000Y-103402220D01*
D29*
%TO.N,Net-(BT1-Pad1)*%
X186216081Y-94069301D02*
X186200000Y-94053220D01*
X187354470Y-94069301D02*
X186216081Y-94069301D01*
X186200000Y-94053220D02*
X182860000Y-94053220D01*
%TD*%
M02*
