G04 #@! TF.GenerationSoftware,KiCad,Pcbnew,9.0.5*
G04 #@! TF.CreationDate,2026-06-17T17:35:32-05:00*
G04 #@! TF.ProjectId,keepsake-keychain,6b656570-7361-46b6-952d-6b6579636861,rev?*
G04 #@! TF.SameCoordinates,Original*
G04 #@! TF.FileFunction,Copper,L4,Bot*
G04 #@! TF.FilePolarity,Positive*
%FSLAX46Y46*%
G04 Gerber Fmt 4.6, Leading zero omitted, Abs format (unit mm)*
G04 Created by KiCad (PCBNEW 9.0.5) date 2026-06-17 17:35:32*
%MOMM*%
%LPD*%
G01*
G04 APERTURE LIST*
G04 Aperture macros list*
%AMRoundRect*
0 Rectangle with rounded corners*
0 $1 Rounding radius*
0 $2 $3 $4 $5 $6 $7 $8 $9 X,Y pos of 4 corners*
0 Add a 4 corners polygon primitive as box body*
4,1,4,$2,$3,$4,$5,$6,$7,$8,$9,$2,$3,0*
0 Add four circle primitives for the rounded corners*
1,1,$1+$1,$2,$3*
1,1,$1+$1,$4,$5*
1,1,$1+$1,$6,$7*
1,1,$1+$1,$8,$9*
0 Add four rect primitives between the rounded corners*
20,1,$1+$1,$2,$3,$4,$5,0*
20,1,$1+$1,$4,$5,$6,$7,0*
20,1,$1+$1,$6,$7,$8,$9,0*
20,1,$1+$1,$8,$9,$2,$3,0*%
G04 Aperture macros list end*
G04 #@! TA.AperFunction,ComponentPad*
%ADD10R,1.308000X1.308000*%
G04 #@! TD*
G04 #@! TA.AperFunction,ComponentPad*
%ADD11C,1.308000*%
G04 #@! TD*
G04 #@! TA.AperFunction,ComponentPad*
%ADD12C,1.650000*%
G04 #@! TD*
G04 #@! TA.AperFunction,ComponentPad*
%ADD13R,2.000000X2.000000*%
G04 #@! TD*
G04 #@! TA.AperFunction,ComponentPad*
%ADD14C,2.000000*%
G04 #@! TD*
G04 #@! TA.AperFunction,ComponentPad*
%ADD15C,3.900000*%
G04 #@! TD*
G04 #@! TA.AperFunction,ConnectorPad*
%ADD16C,7.000000*%
G04 #@! TD*
G04 #@! TA.AperFunction,SMDPad,CuDef*
%ADD17RoundRect,0.237500X0.190480X-0.287443X0.277304X0.204960X-0.190480X0.287443X-0.277304X-0.204960X0*%
G04 #@! TD*
G04 #@! TA.AperFunction,SMDPad,CuDef*
%ADD18RoundRect,0.237500X-0.302951X-0.164703X0.180012X-0.294112X0.302951X0.164703X-0.180012X0.294112X0*%
G04 #@! TD*
G04 #@! TA.AperFunction,SMDPad,CuDef*
%ADD19RoundRect,0.237500X-0.344715X0.008839X0.008839X-0.344715X0.344715X-0.008839X-0.008839X0.344715X0*%
G04 #@! TD*
G04 #@! TA.AperFunction,SMDPad,CuDef*
%ADD20RoundRect,0.237500X-0.008839X-0.344715X0.344715X0.008839X0.008839X0.344715X-0.344715X-0.008839X0*%
G04 #@! TD*
G04 #@! TA.AperFunction,SMDPad,CuDef*
%ADD21RoundRect,0.237500X0.008839X0.344715X-0.344715X-0.008839X-0.008839X-0.344715X0.344715X0.008839X0*%
G04 #@! TD*
G04 #@! TA.AperFunction,SMDPad,CuDef*
%ADD22R,5.300000X5.300000*%
G04 #@! TD*
G04 #@! TA.AperFunction,SMDPad,CuDef*
%ADD23R,5.000000X5.000000*%
G04 #@! TD*
G04 #@! TA.AperFunction,SMDPad,CuDef*
%ADD24RoundRect,0.237500X-0.180012X-0.294112X0.302951X-0.164703X0.180012X0.294112X-0.302951X0.164703X0*%
G04 #@! TD*
G04 #@! TA.AperFunction,SMDPad,CuDef*
%ADD25RoundRect,0.237500X0.277304X-0.204960X0.190480X0.287443X-0.277304X0.204960X-0.190480X-0.287443X0*%
G04 #@! TD*
G04 #@! TA.AperFunction,SMDPad,CuDef*
%ADD26RoundRect,0.237500X0.180012X0.294112X-0.302951X0.164703X-0.180012X-0.294112X0.302951X-0.164703X0*%
G04 #@! TD*
G04 #@! TA.AperFunction,ViaPad*
%ADD27C,0.700000*%
G04 #@! TD*
G04 #@! TA.AperFunction,Conductor*
%ADD28C,0.200000*%
G04 #@! TD*
G04 #@! TA.AperFunction,Conductor*
%ADD29C,1.600000*%
G04 #@! TD*
G04 APERTURE END LIST*
D10*
X187354470Y-96069301D03*
D11*
X187354470Y-94069301D03*
X187354470Y-92069301D03*
D12*
X187354470Y-98219301D03*
X187354470Y-89919301D03*
D13*
X183800000Y-98653220D03*
D14*
X183800000Y-106553220D03*
X182600000Y-89153220D03*
D15*
X184854470Y-84419301D03*
D16*
X184854470Y-84419301D03*
D17*
X144986781Y-93059842D03*
X145303689Y-91262568D03*
D18*
X138763828Y-81771813D03*
X140526642Y-82244157D03*
D17*
X112486781Y-89059842D03*
X112803689Y-87262568D03*
D19*
X114600000Y-95362750D03*
X115890470Y-96653220D03*
D20*
X142000000Y-96653220D03*
X143290470Y-95362750D03*
D19*
X126600000Y-105862750D03*
X127890470Y-107153220D03*
D21*
X135290470Y-102362750D03*
X134000000Y-103653220D03*
D19*
X118600000Y-98862750D03*
X119890470Y-100153220D03*
D22*
X149400000Y-94053220D03*
X182860000Y-94053220D03*
D23*
X166130000Y-94053220D03*
D24*
X133763828Y-82244157D03*
X135526642Y-81771813D03*
D21*
X131290470Y-105862750D03*
X130000000Y-107153220D03*
D25*
X112803689Y-93059842D03*
X112486781Y-91262568D03*
D20*
X113500000Y-84653220D03*
X114790470Y-83362750D03*
D21*
X139290470Y-98862750D03*
X138000000Y-100153220D03*
D19*
X143000000Y-83362750D03*
X144290470Y-84653220D03*
X126500000Y-84362750D03*
X127790470Y-85653220D03*
D26*
X119026642Y-81771813D03*
X117263828Y-82244157D03*
D20*
X130000000Y-85653220D03*
X131290470Y-84362750D03*
D18*
X122263828Y-81771813D03*
X124026642Y-82244157D03*
D25*
X145303689Y-89059842D03*
X144986781Y-87262568D03*
D19*
X122600000Y-102362750D03*
X123890470Y-103653220D03*
D27*
X186060002Y-95653220D03*
X169000000Y-104353220D03*
X169100000Y-84453220D03*
X173400000Y-96253220D03*
X170111391Y-88553220D03*
X177600000Y-82153220D03*
X162500000Y-97053220D03*
X179500000Y-92453220D03*
X174700000Y-107453220D03*
X166300000Y-87053220D03*
X164600000Y-107153220D03*
X179400000Y-107653220D03*
X175300000Y-98453220D03*
X180300000Y-97253222D03*
X186300000Y-102553220D03*
X174800000Y-101153220D03*
X179600000Y-94653220D03*
X165500000Y-107553220D03*
X169200000Y-93953220D03*
X168000000Y-82453220D03*
X178100000Y-82853220D03*
X169400000Y-90553220D03*
X177600000Y-97903220D03*
X186300000Y-104153220D03*
X159000000Y-95253220D03*
X185000000Y-105453220D03*
X172200000Y-106153220D03*
X160640380Y-87312840D03*
X168300000Y-86453220D03*
X159000000Y-99853220D03*
X179659998Y-96253220D03*
X159000000Y-101453220D03*
X159000000Y-92053220D03*
X159000000Y-96753220D03*
X169200000Y-96653220D03*
X161000000Y-100253220D03*
X169100000Y-82453220D03*
X159000000Y-87353220D03*
X177500000Y-93953220D03*
X170100000Y-100853220D03*
X186060002Y-92653220D03*
X159000000Y-90553220D03*
X175500000Y-82753220D03*
X181900000Y-99453220D03*
X179200000Y-102153220D03*
X122500000Y-87153220D03*
X132500000Y-87153220D03*
X137500000Y-87153220D03*
X127500000Y-87153220D03*
X117500000Y-87153220D03*
X147500000Y-87153220D03*
X154600000Y-87453220D03*
X142600000Y-87153220D03*
X115050000Y-89753220D03*
X117050000Y-98553220D03*
X115050000Y-102053220D03*
X115050000Y-93003220D03*
X115095450Y-97307770D03*
X114400000Y-91953220D03*
X118200000Y-88103220D03*
X116500000Y-93603220D03*
X128300000Y-88103220D03*
X121900000Y-84653220D03*
X124800000Y-92803220D03*
X124800000Y-88103220D03*
X124800000Y-97553220D03*
X124850000Y-102403220D03*
X120623466Y-82010514D03*
X124665380Y-85268600D03*
X134934620Y-92803220D03*
X165850000Y-88553220D03*
X134934620Y-88137840D03*
X134950000Y-97553220D03*
X153500000Y-88303220D03*
X134436184Y-100903220D03*
X143100000Y-106703220D03*
X166800000Y-101553220D03*
X136300000Y-85853220D03*
X144650000Y-102852220D03*
X144750000Y-90103220D03*
X144900000Y-97503220D03*
X140664896Y-105303220D03*
X144750000Y-94103220D03*
X146150000Y-100053220D03*
X146100000Y-93703220D03*
X146150000Y-102853220D03*
X142500000Y-100053220D03*
X147257008Y-88210228D03*
X146462993Y-97654220D03*
X144100000Y-88253220D03*
X119800000Y-88153220D03*
X119950000Y-97503220D03*
X122200000Y-105803220D03*
X119950000Y-92803220D03*
X119800000Y-102203220D03*
X113450000Y-89103220D03*
X125800000Y-85053220D03*
X122200000Y-85953220D03*
X129900000Y-88103220D03*
X129950000Y-97503220D03*
X129900000Y-92803220D03*
X129950000Y-102403220D03*
X156600000Y-90153220D03*
X164635121Y-89968099D03*
X130100000Y-90753220D03*
X131300000Y-85853220D03*
X127850000Y-81586620D03*
X141400000Y-85853220D03*
X165150000Y-98903220D03*
X142350000Y-88253220D03*
X141118333Y-97985700D03*
X141112132Y-93303220D03*
X141100000Y-102852220D03*
X139800000Y-92803220D03*
X139900000Y-88153220D03*
X139300000Y-100903220D03*
X139800000Y-97553220D03*
X148600000Y-97503220D03*
X152701000Y-94053220D03*
X153600000Y-91103220D03*
X151850000Y-98453220D03*
X121350000Y-103953220D03*
X142315380Y-105737840D03*
X149700000Y-97653220D03*
X152700000Y-95953220D03*
X150000000Y-88103220D03*
X150000000Y-90803220D03*
X152800001Y-93153219D03*
X147000000Y-107454220D03*
X152550000Y-97503220D03*
X137450000Y-102953220D03*
X153218947Y-100634273D03*
X152300000Y-88203220D03*
X151250000Y-102852220D03*
X164700000Y-81503220D03*
X111600000Y-92153220D03*
X132500000Y-91853220D03*
X122500000Y-91853220D03*
X127500000Y-91853220D03*
X142500000Y-91853220D03*
X117500000Y-91803220D03*
X137500000Y-91853220D03*
X154600000Y-92053220D03*
X160800000Y-89852220D03*
X157400000Y-92103220D03*
X122450000Y-94753220D03*
X164751000Y-91003218D03*
X171100000Y-100653220D03*
X144959620Y-81693600D03*
X162800000Y-82453220D03*
X112600000Y-83253220D03*
X158164674Y-94467894D03*
X162150000Y-90503220D03*
X149800000Y-102853220D03*
X145400000Y-107453220D03*
X159850000Y-89703220D03*
X128800000Y-84653220D03*
X161400000Y-101953220D03*
X161900000Y-83153220D03*
X163450000Y-91033509D03*
X158050000Y-89353220D03*
X115900000Y-82503220D03*
X117550000Y-89053220D03*
X132500000Y-83353220D03*
X163450000Y-88553220D03*
X163300000Y-102303220D03*
X162800000Y-83853220D03*
X162150000Y-91403223D03*
X167317734Y-91003218D03*
X130250000Y-81587620D03*
X156850000Y-103753220D03*
X161900000Y-84503220D03*
X169399000Y-89103220D03*
X162119180Y-92584040D03*
X162800000Y-85153220D03*
X137150000Y-99303220D03*
X161450000Y-94703220D03*
X155500000Y-99303220D03*
X162800000Y-86203220D03*
X149800000Y-107403220D03*
X138250000Y-107253220D03*
X154659620Y-104193600D03*
X161100000Y-96902220D03*
X163190380Y-104243600D03*
X162800000Y-87253220D03*
X161907333Y-95976536D03*
X125400000Y-103603220D03*
X152400000Y-102853220D03*
X132767610Y-102655835D03*
X132500000Y-96553220D03*
X137500000Y-96553220D03*
X127500000Y-96553220D03*
X154615633Y-96837587D03*
X143128963Y-96551467D03*
X117500000Y-96553220D03*
X122500000Y-96553220D03*
X172200000Y-83453220D03*
X176000000Y-86153220D03*
X137500000Y-101253220D03*
X127500000Y-101253220D03*
X154600000Y-101553220D03*
X132500000Y-101253220D03*
X117500000Y-101153220D03*
X122500000Y-101153220D03*
X142500000Y-101253220D03*
X147500000Y-101253220D03*
X169100000Y-87153220D03*
X172000000Y-93953220D03*
X172500000Y-104853220D03*
X178099085Y-85804275D03*
X169200000Y-95753220D03*
X169100000Y-85753220D03*
X173200000Y-104253220D03*
X169200000Y-94853220D03*
X175279571Y-90413551D03*
X169300000Y-102953220D03*
X170064870Y-96902220D03*
X180800000Y-98353220D03*
X179100000Y-100753220D03*
X177300000Y-104353220D03*
X177300000Y-102853220D03*
X178247343Y-89753019D03*
D28*
X166130000Y-94053220D02*
X166100000Y-94053220D01*
X181900000Y-99453220D02*
X179200000Y-102153220D01*
X117500000Y-87103220D02*
X117500000Y-87153220D01*
X113712132Y-97303220D02*
X113712132Y-100715352D01*
X113712132Y-94341088D02*
X113712132Y-97303220D01*
X115090900Y-97303220D02*
X115095450Y-97307770D01*
X115050000Y-93003220D02*
X113712132Y-94341088D01*
X115050000Y-89753220D02*
X115050000Y-93003220D01*
X113712132Y-100715352D02*
X115050000Y-102053220D01*
X117359530Y-98862750D02*
X117050000Y-98553220D01*
X118600000Y-98862750D02*
X117359530Y-98862750D01*
X113712132Y-97303220D02*
X115090900Y-97303220D01*
X114600000Y-91953220D02*
X113493378Y-93059842D01*
X113493378Y-93059842D02*
X112803689Y-93059842D01*
X116359530Y-93603220D02*
X114600000Y-95362750D01*
X116500000Y-93603220D02*
X116359530Y-93603220D01*
X128400000Y-87903220D02*
X128250000Y-87753220D01*
X128250000Y-87403220D02*
X130000000Y-85653220D01*
X128250000Y-87753220D02*
X128250000Y-87403220D01*
X121900000Y-84653220D02*
X113500000Y-84653220D01*
X124800000Y-97553220D02*
X124800000Y-102353220D01*
X124800000Y-88103220D02*
X124800000Y-85403220D01*
X120384765Y-81771813D02*
X120623466Y-82010514D01*
X124800000Y-88103220D02*
X124800000Y-92803220D01*
X124800000Y-85403220D02*
X124665380Y-85268600D01*
X124800000Y-102353220D02*
X124850000Y-102403220D01*
X119026642Y-81771813D02*
X120384765Y-81771813D01*
X124800000Y-92803220D02*
X124800000Y-97553220D01*
X134934620Y-97518600D02*
X134934620Y-97537840D01*
X134934620Y-88137840D02*
X134934620Y-92787840D01*
X134934620Y-92787840D02*
X134950000Y-92803220D01*
X134950000Y-97553220D02*
X134950000Y-100389404D01*
X134950000Y-92803220D02*
X134934620Y-92803220D01*
X134934620Y-97537840D02*
X134950000Y-97553220D01*
X134950000Y-100389404D02*
X134436184Y-100903220D01*
X134934620Y-92803220D02*
X134934620Y-97518600D01*
X138763828Y-81771813D02*
X138763828Y-83389392D01*
X138763828Y-83389392D02*
X136300000Y-85853220D01*
X144650000Y-102852220D02*
X144900000Y-102602220D01*
X144900000Y-102602220D02*
X144900000Y-97503220D01*
X140365896Y-105004220D02*
X132149000Y-105004220D01*
X140664896Y-105303220D02*
X140365896Y-105004220D01*
X132149000Y-105004220D02*
X131290470Y-105862750D01*
X146150000Y-100053220D02*
X146150000Y-102853220D01*
X146100000Y-93703220D02*
X146150000Y-93653220D01*
X142000000Y-99553220D02*
X142500000Y-100053220D01*
X146100000Y-93703220D02*
X146100000Y-97291227D01*
X142000000Y-96653220D02*
X142000000Y-99553220D01*
X146462993Y-97654220D02*
X146150000Y-97967213D01*
X146150000Y-97967213D02*
X146150000Y-100053220D01*
X146100000Y-97291227D02*
X146462993Y-97654220D01*
X145350000Y-89103220D02*
X144650000Y-88403220D01*
X145306622Y-89059842D02*
X145350000Y-89103220D01*
X145303689Y-89059842D02*
X145306622Y-89059842D01*
X144650000Y-88403220D02*
X143950000Y-88403220D01*
X126600000Y-105862750D02*
X122259530Y-105862750D01*
X122259530Y-105862750D02*
X122200000Y-105803220D01*
X119950000Y-97503220D02*
X119900000Y-97553220D01*
X119900000Y-97453220D02*
X119950000Y-97503220D01*
X119900000Y-92753220D02*
X119900000Y-88153220D01*
X119900000Y-99028582D02*
X119002602Y-99925980D01*
X119900000Y-97553220D02*
X119900000Y-99028582D01*
X119002602Y-99925980D02*
X119002602Y-101405822D01*
X119950000Y-92803220D02*
X119900000Y-92753220D01*
X119900000Y-92853220D02*
X119900000Y-97453220D01*
X119002602Y-101405822D02*
X119800000Y-102203220D01*
X119900000Y-88153220D02*
X119800000Y-88153220D01*
X119950000Y-92803220D02*
X119900000Y-92853220D01*
X113450000Y-89103220D02*
X112530159Y-89103220D01*
X112530159Y-89103220D02*
X112486781Y-89059842D01*
X126500000Y-84362750D02*
X126490470Y-84362750D01*
X126490470Y-84362750D02*
X125800000Y-85053220D01*
X163151000Y-87902220D02*
X162000000Y-89053220D01*
X163719654Y-87902220D02*
X163151000Y-87902220D01*
X129900000Y-97453220D02*
X129950000Y-97503220D01*
X158479346Y-90153220D02*
X156600000Y-90153220D01*
X129900000Y-92803220D02*
X129900000Y-97453220D01*
X162000000Y-89053220D02*
X159579346Y-89053220D01*
X129950000Y-97503220D02*
X129950000Y-102403220D01*
X164635121Y-89968099D02*
X164635121Y-88817687D01*
X129900000Y-88103220D02*
X129900000Y-92803220D01*
X164635121Y-88817687D02*
X163719654Y-87902220D01*
X159579346Y-89053220D02*
X158479346Y-90153220D01*
X131300000Y-85853220D02*
X133763828Y-83389392D01*
X133763828Y-83389392D02*
X133763828Y-82244157D01*
X127672344Y-81408964D02*
X122626677Y-81408964D01*
X127850000Y-81586620D02*
X127672344Y-81408964D01*
X122626677Y-81408964D02*
X122263828Y-81771813D01*
X141400000Y-85853220D02*
X143000000Y-84253220D01*
X143000000Y-84253220D02*
X143000000Y-83362750D01*
X141112132Y-97965352D02*
X141112132Y-93303220D01*
X163500000Y-105753220D02*
X165150000Y-104103220D01*
X165150000Y-104103220D02*
X165150000Y-98903220D01*
X141118507Y-97971727D02*
X141112132Y-97965352D01*
X141100000Y-102852220D02*
X141100000Y-103003220D01*
X141100000Y-102852220D02*
X141100000Y-98070288D01*
X141118333Y-97985700D02*
X141118507Y-97985526D01*
X141100000Y-98070288D02*
X141118333Y-98051955D01*
X141100000Y-103003220D02*
X143850000Y-105753220D01*
X143850000Y-105753220D02*
X163500000Y-105753220D01*
X141112132Y-93303220D02*
X141112132Y-89491088D01*
X141118333Y-98051955D02*
X141118333Y-97985700D01*
X141118507Y-97985526D02*
X141118507Y-97971727D01*
X141112132Y-89491088D02*
X142350000Y-88253220D01*
X139800000Y-98853220D02*
X139800000Y-100403220D01*
X139800000Y-92803220D02*
X139800000Y-97553220D01*
X139290470Y-98862750D02*
X139790470Y-98862750D01*
X139800000Y-88253220D02*
X139800000Y-92803220D01*
X139790470Y-98862750D02*
X139800000Y-98853220D01*
X139900000Y-88153220D02*
X139800000Y-88253220D01*
X139800000Y-97553220D02*
X139800000Y-98853220D01*
X139800000Y-100403220D02*
X139300000Y-100903220D01*
X122600000Y-102362750D02*
X121350000Y-103612750D01*
X148600000Y-97503220D02*
X149450000Y-98353220D01*
X121350000Y-103612750D02*
X121350000Y-103953220D01*
X149450000Y-98353220D02*
X151750000Y-98353220D01*
X151750000Y-98353220D02*
X151850000Y-98453220D01*
X145093378Y-93059842D02*
X144986781Y-93059842D01*
X150000000Y-90803220D02*
X150000000Y-88103220D01*
X150000000Y-90803220D02*
X146748000Y-90803220D01*
X146119947Y-92033273D02*
X145093378Y-93059842D01*
X146119947Y-91431273D02*
X146119947Y-92033273D01*
X146748000Y-90803220D02*
X146119947Y-91431273D01*
X153218947Y-100634273D02*
X152718947Y-100634273D01*
X151250000Y-102103220D02*
X151250000Y-102852220D01*
X153351000Y-93704218D02*
X153351000Y-96302220D01*
X152351000Y-88254220D02*
X152300000Y-88203220D01*
X135290470Y-102362750D02*
X135880940Y-102953220D01*
X135880940Y-102953220D02*
X137450000Y-102953220D01*
X152351000Y-92704218D02*
X152351000Y-88254220D01*
X152800001Y-93153219D02*
X152351000Y-92704218D01*
X152800001Y-93153219D02*
X153351000Y-93704218D01*
X152550000Y-97103220D02*
X152550000Y-97503220D01*
X153351000Y-96302220D02*
X152550000Y-97103220D01*
X152718947Y-100634273D02*
X151250000Y-102103220D01*
X111600000Y-92153220D02*
X111600000Y-92149349D01*
X111600000Y-92149349D02*
X112486781Y-91262568D01*
X112486781Y-91262568D02*
X112486781Y-91066439D01*
X121500000Y-95703220D02*
X121500000Y-98543690D01*
X122450000Y-94753220D02*
X121500000Y-95703220D01*
X121500000Y-98543690D02*
X119890470Y-100153220D01*
X142100000Y-104603220D02*
X120100000Y-104603220D01*
X171100000Y-100853220D02*
X169951000Y-102002220D01*
X169951000Y-103222874D02*
X169569654Y-103604220D01*
X118151000Y-102654220D02*
X118151000Y-100883566D01*
X120100000Y-104603220D02*
X118151000Y-102654220D01*
X169569654Y-103604220D02*
X168549000Y-103604220D01*
X168549000Y-103604220D02*
X166000000Y-106153220D01*
X171100000Y-100653220D02*
X171100000Y-100853220D01*
X117769654Y-100502220D02*
X117749000Y-100502220D01*
X169951000Y-102002220D02*
X169951000Y-103222874D01*
X115800000Y-96753220D02*
X115900000Y-96653220D01*
X166000000Y-106153220D02*
X143650000Y-106153220D01*
X143650000Y-106153220D02*
X142100000Y-104603220D01*
X117749000Y-100502220D02*
X115800000Y-98553220D01*
X115900000Y-96653220D02*
X115890470Y-96653220D01*
X118151000Y-100883566D02*
X117769654Y-100502220D01*
X115800000Y-98553220D02*
X115800000Y-96753220D01*
X161200000Y-82453220D02*
X160801000Y-82852220D01*
X159664400Y-83149220D02*
X145597300Y-83149220D01*
X160758900Y-82852220D02*
X160460900Y-83150220D01*
X160801000Y-82852220D02*
X160758900Y-82852220D01*
X112612132Y-87071011D02*
X112803689Y-87262568D01*
X145597300Y-83149220D02*
X144959620Y-82511540D01*
X144959620Y-82511540D02*
X144959620Y-81693600D01*
X162800000Y-82453220D02*
X161200000Y-82453220D01*
X159665400Y-83150220D02*
X159664400Y-83149220D01*
X112612132Y-83241088D02*
X112612132Y-87071011D01*
X160460900Y-83150220D02*
X159665400Y-83150220D01*
X158164674Y-94467894D02*
X149789674Y-102842894D01*
X128778338Y-108041088D02*
X127890470Y-107153220D01*
X145400000Y-107453220D02*
X144812132Y-108041088D01*
X144812132Y-108041088D02*
X128778338Y-108041088D01*
X127790470Y-85653220D02*
X127800000Y-85653220D01*
X127800000Y-85653220D02*
X128800000Y-84653220D01*
X159850000Y-100403220D02*
X161400000Y-101953220D01*
X159850000Y-89703220D02*
X159850000Y-100403220D01*
X161900000Y-83153220D02*
X161800000Y-83253220D01*
X159833200Y-83552220D02*
X159832200Y-83551220D01*
X160626000Y-83552220D02*
X159833200Y-83552220D01*
X159499300Y-83551220D02*
X159498300Y-83550220D01*
X159832200Y-83551220D02*
X159499300Y-83551220D01*
X114790470Y-82262750D02*
X114790470Y-83362750D01*
X130200000Y-80853220D02*
X130199000Y-80854220D01*
X133467100Y-80853220D02*
X130200000Y-80853220D01*
X159498300Y-83550220D02*
X145431200Y-83550220D01*
X160925000Y-83253220D02*
X160626000Y-83552220D01*
X116199000Y-80854220D02*
X114790470Y-82262750D01*
X133867100Y-80453220D02*
X133467100Y-80853220D01*
X145431200Y-83550220D02*
X142334200Y-80453220D01*
X142334200Y-80453220D02*
X133867100Y-80453220D01*
X161800000Y-83253220D02*
X160925000Y-83253220D01*
X130199000Y-80854220D02*
X116199000Y-80854220D01*
X117004765Y-82503220D02*
X117263828Y-82244157D01*
X115900000Y-82503220D02*
X117004765Y-82503220D01*
X163450000Y-88553220D02*
X163200000Y-88553220D01*
X131490470Y-84362750D02*
X132500000Y-83353220D01*
X160449000Y-91283566D02*
X160449000Y-97702220D01*
X162300000Y-101303220D02*
X163300000Y-102303220D01*
X162300000Y-99553220D02*
X162300000Y-101303220D01*
X163200000Y-88553220D02*
X161901000Y-89852220D01*
X161880346Y-89852220D02*
X160449000Y-91283566D01*
X160449000Y-97702220D02*
X162300000Y-99553220D01*
X161901000Y-89852220D02*
X161880346Y-89852220D01*
X131290470Y-84362750D02*
X131490470Y-84362750D01*
X159667100Y-83953220D02*
X159666100Y-83952220D01*
X145265100Y-83951220D02*
X142250500Y-80936620D01*
X159666100Y-83952220D02*
X159333200Y-83952220D01*
X159332200Y-83951220D02*
X145265100Y-83951220D01*
X142250500Y-80936620D02*
X136361835Y-80936620D01*
X160949000Y-83804220D02*
X160800000Y-83953220D01*
X162800000Y-83853220D02*
X162751000Y-83804220D01*
X136361835Y-80936620D02*
X135526642Y-81771813D01*
X159333200Y-83952220D02*
X159332200Y-83951220D01*
X162751000Y-83804220D02*
X160949000Y-83804220D01*
X160800000Y-83953220D02*
X159667100Y-83953220D01*
X130250000Y-81587620D02*
X128865600Y-81587620D01*
X124317579Y-81953220D02*
X124026642Y-82244157D01*
X128215600Y-82237620D02*
X127484400Y-82237620D01*
X127484400Y-82237620D02*
X127200000Y-81953220D01*
X128865600Y-81587620D02*
X128215600Y-82237620D01*
X127200000Y-81953220D02*
X124317579Y-81953220D01*
X161750000Y-84353220D02*
X159167100Y-84353220D01*
X159167100Y-84353220D02*
X159166100Y-84352220D01*
X142100000Y-81353220D02*
X141417579Y-81353220D01*
X141417579Y-81353220D02*
X140526642Y-82244157D01*
X161900000Y-84503220D02*
X161750000Y-84353220D01*
X145099000Y-84352220D02*
X142100000Y-81353220D01*
X159166100Y-84352220D02*
X145099000Y-84352220D01*
X161600000Y-85153220D02*
X161200000Y-84753220D01*
X161200000Y-84753220D02*
X144390470Y-84753220D01*
X144390470Y-84753220D02*
X144290470Y-84653220D01*
X162800000Y-85153220D02*
X161600000Y-85153220D01*
X138000000Y-100153220D02*
X137150000Y-99303220D01*
X147096129Y-85153220D02*
X161000000Y-85153220D01*
X161000000Y-85153220D02*
X162050000Y-86203220D01*
X162050000Y-86203220D02*
X162800000Y-86203220D01*
X144986781Y-87262568D02*
X147096129Y-85153220D01*
X137863132Y-107640088D02*
X130486868Y-107640088D01*
X130486868Y-107640088D02*
X130000000Y-107153220D01*
X138250000Y-107253220D02*
X137863132Y-107640088D01*
X163190380Y-104243600D02*
X157509620Y-104243600D01*
X143398617Y-95900467D02*
X143290470Y-95900467D01*
X157509620Y-104243600D02*
X156900000Y-104853220D01*
X143779963Y-102933183D02*
X143779963Y-96281813D01*
X156900000Y-104853220D02*
X145700000Y-104853220D01*
X143779963Y-96281813D02*
X143398617Y-95900467D01*
X143290470Y-95900467D02*
X143290470Y-95362750D01*
X145700000Y-104853220D02*
X143779963Y-102933183D01*
X147299000Y-85554220D02*
X160801000Y-85554220D01*
X146200000Y-89753220D02*
X146200000Y-86653220D01*
X145303689Y-90650531D02*
X145580346Y-90373874D01*
X146200000Y-86653220D02*
X147299000Y-85554220D01*
X145303689Y-91262568D02*
X145303689Y-90650531D01*
X160801000Y-85554220D02*
X162500000Y-87253220D01*
X145580346Y-90372874D02*
X146200000Y-89753220D01*
X145580346Y-90373874D02*
X145580346Y-90372874D01*
X162500000Y-87253220D02*
X162750000Y-87253220D01*
X123890470Y-103653220D02*
X125350000Y-103653220D01*
X125350000Y-103653220D02*
X125400000Y-103603220D01*
X134000000Y-103653220D02*
X133764995Y-103653220D01*
X133764995Y-103653220D02*
X132767610Y-102655835D01*
X173300000Y-83453220D02*
X172200000Y-83453220D01*
X176000000Y-86153220D02*
X173300000Y-83453220D01*
X169100000Y-87153220D02*
X168749000Y-87604220D01*
X171479346Y-93953220D02*
X172000000Y-93953220D01*
X168749000Y-91222874D02*
X171479346Y-93953220D01*
X168749000Y-87604220D02*
X168749000Y-91222874D01*
X176200000Y-87653220D02*
X176200000Y-91953220D01*
X177049000Y-86804220D02*
X175730346Y-86804220D01*
X174700000Y-85773874D02*
X174700000Y-85753220D01*
X172406947Y-95746273D02*
X172406947Y-104760167D01*
X175730346Y-86804220D02*
X174700000Y-85773874D01*
X169300000Y-95753220D02*
X172400000Y-95753220D01*
X178099085Y-85804275D02*
X178048945Y-85804275D01*
X178048945Y-85804275D02*
X177049000Y-86804220D01*
X177049000Y-86804220D02*
X176200000Y-87653220D01*
X176200000Y-91953220D02*
X172406947Y-95746273D01*
X172400000Y-95753220D02*
X172406947Y-95746273D01*
X172406947Y-104760167D02*
X172500000Y-104853220D01*
X174700000Y-85753220D02*
X169100000Y-85753220D01*
X169300000Y-97667090D02*
X169300000Y-102953220D01*
X170064870Y-96902220D02*
X169300000Y-97667090D01*
X180800000Y-99153220D02*
X180800000Y-98353220D01*
X179100000Y-100753220D02*
X179200000Y-100753220D01*
X179200000Y-100753220D02*
X180800000Y-99153220D01*
X177300000Y-104353220D02*
X178251000Y-103402220D01*
X178251000Y-103402220D02*
X178251000Y-89756676D01*
X177300000Y-102853220D02*
X177849000Y-103402220D01*
X178251000Y-89756676D02*
X178247343Y-89753019D01*
X177849000Y-103402220D02*
X178251000Y-103402220D01*
D29*
X182876081Y-94069301D02*
X182860000Y-94053220D01*
X187354470Y-94069301D02*
X182876081Y-94069301D01*
G04 #@! TA.AperFunction,Conductor*
G36*
X184924994Y-79679085D02*
G01*
X186070817Y-79829929D01*
X186095780Y-79836618D01*
X187217190Y-80301116D01*
X187239572Y-80314038D01*
X188202550Y-81052951D01*
X188220825Y-81071225D01*
X188647863Y-81627749D01*
X188897223Y-81952720D01*
X188959748Y-82034203D01*
X188972670Y-82056585D01*
X189437175Y-83177993D01*
X189443864Y-83202957D01*
X189603123Y-84412646D01*
X189603970Y-84425568D01*
X189603970Y-104412812D01*
X189603123Y-104425734D01*
X189443835Y-105635636D01*
X189437146Y-105660600D01*
X188972645Y-106782001D01*
X188959723Y-106804383D01*
X188220804Y-107767354D01*
X188202529Y-107785628D01*
X187239558Y-108524536D01*
X187217176Y-108537458D01*
X186095772Y-109001953D01*
X186070809Y-109008642D01*
X184860668Y-109167954D01*
X184854908Y-109168542D01*
X184851337Y-109168801D01*
X184773079Y-109168801D01*
X184764398Y-109175107D01*
X184738593Y-109176979D01*
X184736806Y-109176386D01*
X184731431Y-109177238D01*
X114977508Y-109177238D01*
X114946915Y-109172392D01*
X114935865Y-109168801D01*
X114860961Y-109168801D01*
X114848039Y-109167954D01*
X113638137Y-109008661D01*
X113613174Y-109001972D01*
X112491775Y-108537467D01*
X112469393Y-108524545D01*
X112469381Y-108524536D01*
X111988379Y-108155447D01*
X111506424Y-107785627D01*
X111488150Y-107767352D01*
X111048892Y-107194897D01*
X111010130Y-107144381D01*
X127099175Y-107144381D01*
X127133169Y-107315281D01*
X127133170Y-107315282D01*
X127205535Y-107423585D01*
X127205538Y-107423589D01*
X127620101Y-107838152D01*
X127620104Y-107838154D01*
X127728407Y-107910519D01*
X127728408Y-107910520D01*
X127728410Y-107910521D01*
X127899309Y-107944515D01*
X128070208Y-107910521D01*
X128094124Y-107894540D01*
X128168437Y-107879757D01*
X128219129Y-107906851D01*
X128467725Y-108155446D01*
X128653867Y-108341588D01*
X144936603Y-108341588D01*
X145122745Y-108155446D01*
X145245476Y-108032716D01*
X145315479Y-108003720D01*
X145628024Y-108003720D01*
X145628025Y-108003720D01*
X145950500Y-107681245D01*
X145950500Y-107226195D01*
X146449500Y-107226195D01*
X146449500Y-107682245D01*
X146771975Y-108004720D01*
X146771976Y-108004720D01*
X147228024Y-108004720D01*
X147228025Y-108004720D01*
X147550500Y-107682245D01*
X147550500Y-107226195D01*
X147499500Y-107175195D01*
X149249500Y-107175195D01*
X149249500Y-107631245D01*
X149571975Y-107953720D01*
X149571976Y-107953720D01*
X150028024Y-107953720D01*
X150028025Y-107953720D01*
X150350500Y-107631245D01*
X150350500Y-107175195D01*
X150028025Y-106852720D01*
X149571975Y-106852720D01*
X149249500Y-107175195D01*
X147499500Y-107175195D01*
X147228025Y-106903720D01*
X146771975Y-106903720D01*
X146449500Y-107226195D01*
X145950500Y-107226195D01*
X145950500Y-107225195D01*
X145628025Y-106902720D01*
X145171975Y-106902720D01*
X144849500Y-107225195D01*
X144849500Y-107225196D01*
X144849500Y-107537741D01*
X144820504Y-107607745D01*
X144716657Y-107711592D01*
X144646653Y-107740588D01*
X138780164Y-107740588D01*
X138710160Y-107711592D01*
X138681164Y-107641588D01*
X138710159Y-107571585D01*
X138800500Y-107481245D01*
X138800500Y-107025195D01*
X138478025Y-106702720D01*
X138021975Y-106702720D01*
X137699500Y-107025195D01*
X137699500Y-107025196D01*
X137699500Y-107240588D01*
X137670504Y-107310592D01*
X137600500Y-107339588D01*
X130873098Y-107339588D01*
X130803094Y-107310592D01*
X130774098Y-107240588D01*
X130776000Y-107221274D01*
X130776039Y-107221077D01*
X130791295Y-107144381D01*
X130757301Y-106973482D01*
X130684932Y-106865173D01*
X130288047Y-106468288D01*
X130271668Y-106457344D01*
X130179740Y-106395920D01*
X130179739Y-106395919D01*
X130008839Y-106361925D01*
X129837938Y-106395919D01*
X129837937Y-106395920D01*
X129729634Y-106468285D01*
X129315065Y-106882854D01*
X129242700Y-106991157D01*
X129242699Y-106991158D01*
X129208705Y-107162059D01*
X129242699Y-107332959D01*
X129242700Y-107332960D01*
X129303253Y-107423585D01*
X129315068Y-107441267D01*
X129445386Y-107571585D01*
X129474382Y-107641588D01*
X129445386Y-107711592D01*
X129375382Y-107740588D01*
X128943817Y-107740588D01*
X128873813Y-107711592D01*
X128644101Y-107481880D01*
X128615105Y-107411876D01*
X128631790Y-107356874D01*
X128647771Y-107332958D01*
X128681765Y-107162059D01*
X128647771Y-106991160D01*
X128575402Y-106882851D01*
X128160839Y-106468288D01*
X128144460Y-106457344D01*
X128052532Y-106395920D01*
X128052531Y-106395919D01*
X127881631Y-106361925D01*
X127710730Y-106395919D01*
X127710729Y-106395920D01*
X127602426Y-106468285D01*
X127205535Y-106865176D01*
X127133170Y-106973479D01*
X127133169Y-106973480D01*
X127099175Y-107144381D01*
X111010130Y-107144381D01*
X110749241Y-106804383D01*
X110736319Y-106782002D01*
X110703894Y-106703720D01*
X110271819Y-105660594D01*
X110265132Y-105635636D01*
X110154342Y-104794099D01*
X110105817Y-104425510D01*
X110104970Y-104412588D01*
X110104970Y-91925195D01*
X111049500Y-91925195D01*
X111049500Y-92381245D01*
X111371975Y-92703720D01*
X111371976Y-92703720D01*
X111828025Y-92703720D01*
X111966209Y-92565535D01*
X112036212Y-92536539D01*
X112106215Y-92565535D01*
X112135212Y-92635539D01*
X112126828Y-92675410D01*
X112090389Y-92758223D01*
X112090389Y-92758225D01*
X112087547Y-92888446D01*
X112087548Y-92888460D01*
X112165624Y-93331245D01*
X112189355Y-93465828D01*
X112236567Y-93587233D01*
X112357061Y-93713103D01*
X112516552Y-93783281D01*
X112526569Y-93783499D01*
X112646770Y-93786122D01*
X112646771Y-93786121D01*
X112646782Y-93786122D01*
X113199535Y-93688657D01*
X113320941Y-93641445D01*
X113446810Y-93520950D01*
X113491463Y-93419468D01*
X113546196Y-93367073D01*
X113582078Y-93360342D01*
X113617848Y-93360342D01*
X113617849Y-93360342D01*
X114445475Y-92532716D01*
X114515479Y-92503720D01*
X114531968Y-92503720D01*
X114601972Y-92532716D01*
X114630968Y-92602720D01*
X114601972Y-92672722D01*
X114499500Y-92775195D01*
X114499500Y-92775196D01*
X114499500Y-93087741D01*
X114470504Y-93157745D01*
X113587661Y-94040588D01*
X113587660Y-94040587D01*
X113411632Y-94216616D01*
X113411632Y-94216617D01*
X113411632Y-97178749D01*
X113411632Y-100590881D01*
X113411632Y-100839823D01*
X114470504Y-101898695D01*
X114499500Y-101968698D01*
X114499500Y-102281245D01*
X114821975Y-102603720D01*
X114821976Y-102603720D01*
X115278024Y-102603720D01*
X115278025Y-102603720D01*
X115600500Y-102281245D01*
X115600500Y-101825195D01*
X115278025Y-101502720D01*
X115278024Y-101502720D01*
X114965479Y-101502720D01*
X114895475Y-101473724D01*
X114041628Y-100619877D01*
X114012632Y-100549873D01*
X114012632Y-97702720D01*
X114041628Y-97632716D01*
X114111632Y-97603720D01*
X114571867Y-97603720D01*
X114641870Y-97632716D01*
X114766829Y-97757674D01*
X114867425Y-97858270D01*
X115323474Y-97858270D01*
X115323475Y-97858270D01*
X115330497Y-97851247D01*
X115400500Y-97822252D01*
X115470504Y-97851248D01*
X115499500Y-97921252D01*
X115499500Y-98428749D01*
X115499500Y-98677691D01*
X116397004Y-99575195D01*
X117278248Y-100456439D01*
X117307244Y-100526443D01*
X117278248Y-100596446D01*
X116949500Y-100925194D01*
X116949500Y-100925195D01*
X116949500Y-101381245D01*
X117271975Y-101703720D01*
X117271976Y-101703720D01*
X117747717Y-101703720D01*
X117747717Y-101709689D01*
X117789385Y-101709689D01*
X117842964Y-101763267D01*
X117850500Y-101801153D01*
X117850500Y-102529749D01*
X117850500Y-102778691D01*
X119975529Y-104903720D01*
X120224471Y-104903720D01*
X126429260Y-104903720D01*
X126499264Y-104932716D01*
X126528260Y-105002720D01*
X126499264Y-105072724D01*
X126448575Y-105099817D01*
X126427143Y-105104080D01*
X126420261Y-105105449D01*
X126420259Y-105105450D01*
X126311953Y-105177817D01*
X125956516Y-105533254D01*
X125886513Y-105562250D01*
X122778563Y-105562250D01*
X122708560Y-105533254D01*
X122428025Y-105252720D01*
X121971975Y-105252720D01*
X121649500Y-105575195D01*
X121649500Y-106031245D01*
X121971975Y-106353720D01*
X121971976Y-106353720D01*
X122428025Y-106353720D01*
X122508762Y-106272982D01*
X122589500Y-106192246D01*
X122659503Y-106163250D01*
X125904191Y-106163250D01*
X125974194Y-106192246D01*
X126329631Y-106547682D01*
X126437937Y-106620049D01*
X126437938Y-106620050D01*
X126437940Y-106620051D01*
X126608839Y-106654045D01*
X126779738Y-106620051D01*
X126888047Y-106547682D01*
X127284932Y-106150797D01*
X127357301Y-106042488D01*
X127391295Y-105871589D01*
X127357301Y-105700690D01*
X127284932Y-105592381D01*
X126870369Y-105177818D01*
X126862054Y-105172262D01*
X126762062Y-105105450D01*
X126762060Y-105105449D01*
X126733746Y-105099817D01*
X126670746Y-105057721D01*
X126655964Y-104983406D01*
X126698061Y-104920404D01*
X126753062Y-104903720D01*
X131137408Y-104903720D01*
X131207412Y-104932716D01*
X131236408Y-105002720D01*
X131207412Y-105072724D01*
X131156723Y-105099817D01*
X131135291Y-105104080D01*
X131128409Y-105105449D01*
X131128407Y-105105450D01*
X131020104Y-105177815D01*
X130605535Y-105592384D01*
X130533170Y-105700687D01*
X130533169Y-105700688D01*
X130499175Y-105871589D01*
X130533169Y-106042489D01*
X130533170Y-106042490D01*
X130605535Y-106150793D01*
X130605538Y-106150797D01*
X131002423Y-106547682D01*
X131002426Y-106547684D01*
X131110729Y-106620049D01*
X131110730Y-106620050D01*
X131110732Y-106620051D01*
X131281631Y-106654045D01*
X131452530Y-106620051D01*
X131560839Y-106547682D01*
X131975402Y-106133119D01*
X132047771Y-106024810D01*
X132081765Y-105853911D01*
X132047771Y-105683012D01*
X132031789Y-105659093D01*
X132017007Y-105584778D01*
X132044102Y-105534088D01*
X132133512Y-105444679D01*
X132244475Y-105333716D01*
X132314478Y-105304720D01*
X140015396Y-105304720D01*
X140085400Y-105333716D01*
X140114396Y-105403720D01*
X140114396Y-105531245D01*
X140436871Y-105853720D01*
X140436872Y-105853720D01*
X140892920Y-105853720D01*
X140892921Y-105853720D01*
X141215396Y-105531245D01*
X141215396Y-105075195D01*
X141212923Y-105072722D01*
X141183928Y-105002720D01*
X141212924Y-104932716D01*
X141282928Y-104903720D01*
X141934521Y-104903720D01*
X142004525Y-104932716D01*
X142104063Y-105032254D01*
X142133059Y-105102258D01*
X142104063Y-105172262D01*
X142099149Y-105175546D01*
X142087355Y-105187340D01*
X141764880Y-105509815D01*
X141764880Y-105965865D01*
X142087355Y-106288340D01*
X142087356Y-106288340D01*
X142497348Y-106288340D01*
X142567352Y-106317336D01*
X142596348Y-106387340D01*
X142567352Y-106457342D01*
X142549500Y-106475195D01*
X142549500Y-106931245D01*
X142871975Y-107253720D01*
X142871976Y-107253720D01*
X143328024Y-107253720D01*
X143328025Y-107253720D01*
X143650500Y-106931245D01*
X143650500Y-106552720D01*
X143679496Y-106482716D01*
X143749500Y-106453720D01*
X166124470Y-106453720D01*
X166124471Y-106453720D01*
X166652996Y-105925195D01*
X171649500Y-105925195D01*
X171649500Y-106381245D01*
X171971975Y-106703720D01*
X171971976Y-106703720D01*
X172428024Y-106703720D01*
X172428025Y-106703720D01*
X172750500Y-106381245D01*
X172750500Y-106314425D01*
X182599500Y-106314425D01*
X182599500Y-106792014D01*
X182782263Y-107233246D01*
X182782264Y-107233247D01*
X182782265Y-107233249D01*
X183119971Y-107570955D01*
X183119972Y-107570955D01*
X183119973Y-107570956D01*
X183561205Y-107753720D01*
X183561206Y-107753720D01*
X184038795Y-107753720D01*
X184391210Y-107607745D01*
X184480029Y-107570955D01*
X184817735Y-107233249D01*
X185000500Y-106792014D01*
X185000500Y-106314426D01*
X184932721Y-106150793D01*
X184928502Y-106140606D01*
X184928502Y-106064834D01*
X184982080Y-106011256D01*
X185019966Y-106003720D01*
X185228024Y-106003720D01*
X185228025Y-106003720D01*
X185550500Y-105681245D01*
X185550500Y-105225195D01*
X185228025Y-104902720D01*
X184771975Y-104902720D01*
X184449500Y-105225195D01*
X184449500Y-105225196D01*
X184449500Y-105374675D01*
X184420504Y-105444679D01*
X184350500Y-105473675D01*
X184312615Y-105466139D01*
X184038796Y-105352720D01*
X184038794Y-105352720D01*
X183561206Y-105352720D01*
X183561205Y-105352720D01*
X183119973Y-105535483D01*
X182782263Y-105873193D01*
X182599500Y-106314425D01*
X172750500Y-106314425D01*
X172750500Y-105925195D01*
X172428025Y-105602720D01*
X171971975Y-105602720D01*
X171649500Y-105925195D01*
X166652996Y-105925195D01*
X168644476Y-103933716D01*
X168714480Y-103904720D01*
X169694124Y-103904720D01*
X169694125Y-103904720D01*
X170251500Y-103347345D01*
X170251500Y-103098402D01*
X170251500Y-102167699D01*
X170280496Y-102097695D01*
X171145476Y-101232716D01*
X171215480Y-101203720D01*
X171328024Y-101203720D01*
X171328025Y-101203720D01*
X171650500Y-100881245D01*
X171650500Y-100425195D01*
X171328025Y-100102720D01*
X170871975Y-100102720D01*
X170871974Y-100102720D01*
X170570003Y-100404691D01*
X170500000Y-100433687D01*
X170429997Y-100404691D01*
X170328025Y-100302720D01*
X169871975Y-100302720D01*
X169871974Y-100302720D01*
X169769503Y-100405191D01*
X169699500Y-100434187D01*
X169629496Y-100405190D01*
X169600500Y-100335187D01*
X169600500Y-97832569D01*
X169629496Y-97762565D01*
X169910345Y-97481716D01*
X169980349Y-97452720D01*
X170292894Y-97452720D01*
X170292895Y-97452720D01*
X170615370Y-97130245D01*
X170615370Y-96674195D01*
X170292895Y-96351720D01*
X169836845Y-96351720D01*
X169836843Y-96351720D01*
X169826937Y-96361627D01*
X169793426Y-96375507D01*
X169756936Y-96390622D01*
X169756934Y-96390621D01*
X169756933Y-96390622D01*
X169686932Y-96361626D01*
X169598529Y-96273224D01*
X169569532Y-96203221D01*
X169598528Y-96133217D01*
X169598529Y-96133216D01*
X169649030Y-96082716D01*
X169719033Y-96053720D01*
X172007447Y-96053720D01*
X172077451Y-96082716D01*
X172106447Y-96152720D01*
X172106447Y-104427240D01*
X172077451Y-104497243D01*
X171949500Y-104625194D01*
X171949500Y-104625195D01*
X171949500Y-105081245D01*
X172271975Y-105403720D01*
X172271976Y-105403720D01*
X172728024Y-105403720D01*
X172728025Y-105403720D01*
X173050500Y-105081245D01*
X173050500Y-104902720D01*
X173079496Y-104832716D01*
X173149500Y-104803720D01*
X173428024Y-104803720D01*
X173428025Y-104803720D01*
X173750500Y-104481245D01*
X173750500Y-104025195D01*
X173428025Y-103702720D01*
X172971975Y-103702720D01*
X172971974Y-103702720D01*
X172876450Y-103798244D01*
X172806447Y-103827240D01*
X172736443Y-103798243D01*
X172707447Y-103728240D01*
X172707447Y-102625195D01*
X176749500Y-102625195D01*
X176749500Y-103081245D01*
X177071975Y-103403720D01*
X177384521Y-103403720D01*
X177454525Y-103432716D01*
X177555025Y-103533216D01*
X177584021Y-103603220D01*
X177555025Y-103673224D01*
X177454525Y-103773724D01*
X177384521Y-103802720D01*
X177071975Y-103802720D01*
X176749500Y-104125195D01*
X176749500Y-104581245D01*
X177071975Y-104903720D01*
X177071976Y-104903720D01*
X177528024Y-104903720D01*
X177528025Y-104903720D01*
X177850500Y-104581245D01*
X177850500Y-104268698D01*
X177879495Y-104198695D01*
X178152995Y-103925195D01*
X185749500Y-103925195D01*
X185749500Y-104381245D01*
X186071975Y-104703720D01*
X186071976Y-104703720D01*
X186528024Y-104703720D01*
X186528025Y-104703720D01*
X186850500Y-104381245D01*
X186850500Y-103925195D01*
X186528025Y-103602720D01*
X186071975Y-103602720D01*
X185749500Y-103925195D01*
X178152995Y-103925195D01*
X178551500Y-103526691D01*
X178551500Y-103277749D01*
X178551500Y-102522252D01*
X178580496Y-102452248D01*
X178650500Y-102423252D01*
X178720502Y-102452247D01*
X178971975Y-102703720D01*
X178971976Y-102703720D01*
X179428024Y-102703720D01*
X179428025Y-102703720D01*
X179750500Y-102381245D01*
X179750500Y-102068699D01*
X179779496Y-101998695D01*
X181745475Y-100032716D01*
X181815479Y-100003720D01*
X182128025Y-100003720D01*
X182389930Y-99741815D01*
X182618659Y-99741815D01*
X182655806Y-99797409D01*
X182655810Y-99797413D01*
X182721963Y-99841616D01*
X182780299Y-99853219D01*
X182780303Y-99853220D01*
X182799999Y-99853220D01*
X182800000Y-99853219D01*
X182800000Y-99653221D01*
X184800000Y-99653221D01*
X184800000Y-99853219D01*
X184800001Y-99853220D01*
X184819697Y-99853220D01*
X184819700Y-99853219D01*
X184878036Y-99841616D01*
X184944189Y-99797413D01*
X184944193Y-99797409D01*
X184988396Y-99731256D01*
X184999999Y-99672920D01*
X185000000Y-99672917D01*
X185000000Y-99653221D01*
X184999999Y-99653220D01*
X184800001Y-99653220D01*
X184800000Y-99653221D01*
X182800000Y-99653221D01*
X182799999Y-99653220D01*
X182634261Y-99653220D01*
X182618659Y-99741815D01*
X182389930Y-99741815D01*
X182450500Y-99681245D01*
X182450500Y-99225195D01*
X182128025Y-98902720D01*
X181671975Y-98902720D01*
X181349500Y-99225195D01*
X181349500Y-99225196D01*
X181349500Y-99537741D01*
X181320504Y-99607745D01*
X179354525Y-101573724D01*
X179284521Y-101602720D01*
X178971975Y-101602720D01*
X178720502Y-101854192D01*
X178650500Y-101883188D01*
X178580496Y-101854192D01*
X178551500Y-101784188D01*
X178551500Y-101222252D01*
X178580496Y-101152248D01*
X178650500Y-101123252D01*
X178720502Y-101152247D01*
X178871975Y-101303720D01*
X178871976Y-101303720D01*
X179328024Y-101303720D01*
X179328025Y-101303720D01*
X179650500Y-100981245D01*
X179650500Y-100768698D01*
X179679495Y-100698695D01*
X181100500Y-99277691D01*
X181100500Y-99028748D01*
X181100500Y-98872252D01*
X181129495Y-98802249D01*
X181350500Y-98581245D01*
X181350500Y-98446113D01*
X183300000Y-98446113D01*
X183300000Y-98860327D01*
X183592893Y-99153220D01*
X184007107Y-99153220D01*
X184300000Y-98860327D01*
X184300000Y-98446113D01*
X184007107Y-98153220D01*
X183592893Y-98153220D01*
X183300000Y-98446113D01*
X181350500Y-98446113D01*
X181350500Y-98125195D01*
X181240621Y-98015316D01*
X186328970Y-98015316D01*
X186328970Y-98423286D01*
X186399013Y-98592384D01*
X186485091Y-98800197D01*
X186485092Y-98800198D01*
X186485093Y-98800200D01*
X186773571Y-99088678D01*
X186773572Y-99088678D01*
X186773573Y-99088679D01*
X186838241Y-99115465D01*
X187150485Y-99244801D01*
X187150487Y-99244801D01*
X187558453Y-99244801D01*
X187558455Y-99244801D01*
X187935369Y-99088678D01*
X188223847Y-98800200D01*
X188379970Y-98423286D01*
X188379970Y-98015316D01*
X188229985Y-97653220D01*
X188223848Y-97638404D01*
X188223847Y-97638403D01*
X188223847Y-97638402D01*
X187935369Y-97349924D01*
X187935367Y-97349923D01*
X187935366Y-97349922D01*
X187754955Y-97275194D01*
X187558455Y-97193801D01*
X187150485Y-97193801D01*
X187002047Y-97255286D01*
X186773573Y-97349922D01*
X186485091Y-97638404D01*
X186375804Y-97902248D01*
X186328970Y-98015316D01*
X181240621Y-98015316D01*
X181028025Y-97802720D01*
X180571975Y-97802720D01*
X180249500Y-98125195D01*
X180249500Y-98581245D01*
X180470504Y-98802249D01*
X180499500Y-98872252D01*
X180499500Y-98987741D01*
X180470504Y-99057745D01*
X179354525Y-100173724D01*
X179284521Y-100202720D01*
X178871974Y-100202720D01*
X178720503Y-100354191D01*
X178650500Y-100383187D01*
X178580496Y-100354190D01*
X178551500Y-100284187D01*
X178551500Y-97633519D01*
X182600000Y-97633519D01*
X182600000Y-97653219D01*
X182600001Y-97653220D01*
X182799999Y-97653220D01*
X182800000Y-97653219D01*
X182800000Y-97453221D01*
X184800000Y-97453221D01*
X184800000Y-97653219D01*
X184800001Y-97653220D01*
X184999999Y-97653220D01*
X185000000Y-97653219D01*
X185000000Y-97633522D01*
X184999999Y-97633519D01*
X184988396Y-97575183D01*
X184944193Y-97509030D01*
X184944189Y-97509026D01*
X184878036Y-97464823D01*
X184819700Y-97453220D01*
X184800001Y-97453220D01*
X184800000Y-97453221D01*
X182800000Y-97453221D01*
X182799999Y-97453220D01*
X182780299Y-97453220D01*
X182721963Y-97464823D01*
X182655810Y-97509026D01*
X182655806Y-97509030D01*
X182611603Y-97575183D01*
X182600000Y-97633519D01*
X178551500Y-97633519D01*
X178551500Y-96025195D01*
X179109498Y-96025195D01*
X179109498Y-96481245D01*
X179431973Y-96803720D01*
X179431974Y-96803720D01*
X179888021Y-96803720D01*
X179888023Y-96803720D01*
X179891437Y-96800305D01*
X179961437Y-96771309D01*
X180031442Y-96800303D01*
X180043755Y-96815307D01*
X180059743Y-96839235D01*
X180065448Y-96847772D01*
X180131769Y-96892087D01*
X180176231Y-96900931D01*
X180190241Y-96903718D01*
X180190246Y-96903718D01*
X180190252Y-96903720D01*
X180190253Y-96903720D01*
X185529747Y-96903720D01*
X185529748Y-96903720D01*
X185588231Y-96892087D01*
X185654552Y-96847772D01*
X185698867Y-96781451D01*
X185710500Y-96722968D01*
X185710500Y-95168801D01*
X185739496Y-95098797D01*
X185809500Y-95069801D01*
X186530298Y-95069801D01*
X186600302Y-95098797D01*
X186629298Y-95168801D01*
X186600302Y-95238805D01*
X186585300Y-95251116D01*
X186555921Y-95270746D01*
X186555915Y-95270752D01*
X186511604Y-95337067D01*
X186511602Y-95337073D01*
X186499971Y-95395542D01*
X186499970Y-95395554D01*
X186499970Y-96743047D01*
X186499971Y-96743059D01*
X186511602Y-96801528D01*
X186511604Y-96801534D01*
X186555915Y-96867849D01*
X186555918Y-96867853D01*
X186622239Y-96912168D01*
X186666701Y-96921012D01*
X186680711Y-96923799D01*
X186680716Y-96923799D01*
X186680722Y-96923801D01*
X186680723Y-96923801D01*
X188028217Y-96923801D01*
X188028218Y-96923801D01*
X188086701Y-96912168D01*
X188153022Y-96867853D01*
X188197337Y-96801532D01*
X188208970Y-96743049D01*
X188208970Y-95395553D01*
X188197337Y-95337070D01*
X188153022Y-95270749D01*
X188123640Y-95251116D01*
X188086703Y-95226435D01*
X188086701Y-95226434D01*
X188086698Y-95226433D01*
X188086697Y-95226433D01*
X188028228Y-95214802D01*
X188028218Y-95214801D01*
X187701127Y-95214801D01*
X187631123Y-95185805D01*
X187602127Y-95115801D01*
X187631123Y-95045797D01*
X187663242Y-95024337D01*
X187767275Y-94981245D01*
X187921208Y-94917484D01*
X188202653Y-94636039D01*
X188354970Y-94268313D01*
X188354970Y-93870289D01*
X188335072Y-93822252D01*
X188202654Y-93502565D01*
X188202653Y-93502564D01*
X188202653Y-93502563D01*
X187921208Y-93221118D01*
X187921206Y-93221117D01*
X187921205Y-93221116D01*
X187599207Y-93087741D01*
X187584742Y-93081749D01*
X187531165Y-93028172D01*
X187531165Y-92952400D01*
X187584741Y-92898823D01*
X187838506Y-92793711D01*
X188078880Y-92553337D01*
X188208970Y-92239272D01*
X188208970Y-91899330D01*
X188097927Y-91631248D01*
X188078881Y-91585267D01*
X188078880Y-91585266D01*
X188078880Y-91585265D01*
X187838506Y-91344891D01*
X187838504Y-91344890D01*
X187838503Y-91344889D01*
X187635478Y-91260794D01*
X187524441Y-91214801D01*
X187184499Y-91214801D01*
X187144807Y-91231242D01*
X186870436Y-91344889D01*
X186630058Y-91585267D01*
X186499970Y-91899330D01*
X186499970Y-92075655D01*
X186470974Y-92145659D01*
X186400970Y-92174655D01*
X186330967Y-92145659D01*
X186288027Y-92102720D01*
X185831977Y-92102720D01*
X185812285Y-92102720D01*
X185812285Y-92096337D01*
X185771598Y-92096330D01*
X185718029Y-92042742D01*
X185710500Y-92004873D01*
X185710500Y-91383473D01*
X185710498Y-91383461D01*
X185702983Y-91345681D01*
X185698867Y-91324989D01*
X185654552Y-91258668D01*
X185654548Y-91258665D01*
X185588233Y-91214354D01*
X185588231Y-91214353D01*
X185588228Y-91214352D01*
X185588227Y-91214352D01*
X185529758Y-91202721D01*
X185529748Y-91202720D01*
X180190252Y-91202720D01*
X180190251Y-91202720D01*
X180190241Y-91202721D01*
X180131772Y-91214352D01*
X180131766Y-91214354D01*
X180065451Y-91258665D01*
X180065445Y-91258671D01*
X180021134Y-91324986D01*
X180021132Y-91324992D01*
X180009501Y-91383461D01*
X180009500Y-91383473D01*
X180009500Y-95604873D01*
X179980504Y-95674877D01*
X179910500Y-95703873D01*
X179904701Y-95702720D01*
X179888023Y-95702720D01*
X179431973Y-95702720D01*
X179109498Y-96025195D01*
X178551500Y-96025195D01*
X178551500Y-90268394D01*
X178580495Y-90198391D01*
X178797843Y-89981044D01*
X178797843Y-89524994D01*
X178475368Y-89202519D01*
X178019318Y-89202519D01*
X177696843Y-89524994D01*
X177696843Y-89981044D01*
X177921504Y-90205705D01*
X177950500Y-90275708D01*
X177950500Y-93386187D01*
X177921504Y-93456191D01*
X177851500Y-93485187D01*
X177781497Y-93456191D01*
X177728025Y-93402720D01*
X177271975Y-93402720D01*
X176949500Y-93725195D01*
X176949500Y-94181245D01*
X177271975Y-94503720D01*
X177271976Y-94503720D01*
X177728024Y-94503720D01*
X177728025Y-94503720D01*
X177781497Y-94450247D01*
X177851500Y-94421252D01*
X177921504Y-94450248D01*
X177950500Y-94520252D01*
X177950500Y-97255286D01*
X177921504Y-97325290D01*
X177851500Y-97354286D01*
X177843623Y-97352720D01*
X177828025Y-97352720D01*
X177371975Y-97352720D01*
X177049500Y-97675195D01*
X177049500Y-98131245D01*
X177371975Y-98453720D01*
X177371976Y-98453720D01*
X177847717Y-98453720D01*
X177847717Y-98459689D01*
X177889385Y-98459689D01*
X177942964Y-98513267D01*
X177950500Y-98551153D01*
X177950500Y-102486188D01*
X177921504Y-102556192D01*
X177851500Y-102585188D01*
X177781497Y-102556192D01*
X177528025Y-102302720D01*
X177071975Y-102302720D01*
X176749500Y-102625195D01*
X172707447Y-102625195D01*
X172707447Y-95911751D01*
X172736442Y-95841748D01*
X176500500Y-92077691D01*
X176500500Y-91828749D01*
X176500500Y-88914425D01*
X181399500Y-88914425D01*
X181399500Y-89392014D01*
X181582263Y-89833246D01*
X181582264Y-89833247D01*
X181582265Y-89833249D01*
X181919971Y-90170955D01*
X181919972Y-90170955D01*
X181919973Y-90170956D01*
X182361205Y-90353720D01*
X182361206Y-90353720D01*
X182838795Y-90353720D01*
X183203341Y-90202720D01*
X183280029Y-90170955D01*
X183617735Y-89833249D01*
X183666584Y-89715316D01*
X186328970Y-89715316D01*
X186328970Y-90123286D01*
X186410528Y-90320186D01*
X186485091Y-90500197D01*
X186485092Y-90500198D01*
X186485093Y-90500200D01*
X186773571Y-90788678D01*
X187150485Y-90944801D01*
X187150487Y-90944801D01*
X187558453Y-90944801D01*
X187558455Y-90944801D01*
X187935369Y-90788678D01*
X188223847Y-90500200D01*
X188379970Y-90123286D01*
X188379970Y-89715316D01*
X188246054Y-89392014D01*
X188223848Y-89338404D01*
X188223847Y-89338403D01*
X188223847Y-89338402D01*
X187935369Y-89049924D01*
X187935367Y-89049923D01*
X187935366Y-89049922D01*
X187755355Y-88975359D01*
X187558455Y-88893801D01*
X187150485Y-88893801D01*
X187033741Y-88942158D01*
X186773573Y-89049922D01*
X186485091Y-89338404D01*
X186390719Y-89566240D01*
X186328970Y-89715316D01*
X183666584Y-89715316D01*
X183677627Y-89688656D01*
X183686316Y-89667680D01*
X183686316Y-89667679D01*
X183697183Y-89641445D01*
X183800500Y-89392014D01*
X183800500Y-88914426D01*
X183799976Y-88913162D01*
X183617736Y-88473193D01*
X183617735Y-88473192D01*
X183617735Y-88473191D01*
X183280029Y-88135485D01*
X183280027Y-88135484D01*
X183280026Y-88135483D01*
X182838795Y-87952720D01*
X182838794Y-87952720D01*
X182361206Y-87952720D01*
X182361205Y-87952720D01*
X181919973Y-88135483D01*
X181582263Y-88473193D01*
X181399500Y-88914425D01*
X176500500Y-88914425D01*
X176500500Y-87818699D01*
X176529496Y-87748695D01*
X176906902Y-87371289D01*
X177349500Y-86928692D01*
X177349500Y-86928691D01*
X177894420Y-86383771D01*
X177964424Y-86354775D01*
X178327109Y-86354775D01*
X178327110Y-86354775D01*
X178649585Y-86032300D01*
X178649585Y-85576250D01*
X178327110Y-85253775D01*
X177871060Y-85253775D01*
X177548585Y-85576250D01*
X177548585Y-85576251D01*
X177548585Y-85838656D01*
X177519589Y-85908660D01*
X176953525Y-86474724D01*
X176883521Y-86503720D01*
X176647933Y-86503720D01*
X176577929Y-86474724D01*
X176548933Y-86404720D01*
X176550500Y-86396842D01*
X176550500Y-85925196D01*
X176550500Y-85925195D01*
X176228025Y-85602720D01*
X176228024Y-85602720D01*
X175915479Y-85602720D01*
X175845475Y-85573724D01*
X175079496Y-84807745D01*
X174203872Y-83932121D01*
X181153970Y-83932121D01*
X181153970Y-84906481D01*
X181360757Y-85678220D01*
X181406154Y-85847645D01*
X181887273Y-86680965D01*
X181893333Y-86691461D01*
X182582310Y-87380438D01*
X182837360Y-87527691D01*
X183426126Y-87867616D01*
X183426124Y-87867616D01*
X183426128Y-87867617D01*
X183426130Y-87867618D01*
X184367290Y-88119801D01*
X184367292Y-88119801D01*
X185341648Y-88119801D01*
X185341650Y-88119801D01*
X186282810Y-87867618D01*
X186282812Y-87867616D01*
X186282814Y-87867616D01*
X186566691Y-87703719D01*
X187126630Y-87380438D01*
X187815607Y-86691461D01*
X188258589Y-85924195D01*
X188302785Y-85847645D01*
X188302785Y-85847643D01*
X188302787Y-85847641D01*
X188554970Y-84906481D01*
X188554970Y-83932121D01*
X188302787Y-82990961D01*
X188302785Y-82990958D01*
X188302785Y-82990956D01*
X187860672Y-82225196D01*
X187815607Y-82147141D01*
X187126630Y-81458164D01*
X187126627Y-81458162D01*
X186282813Y-80970985D01*
X186282815Y-80970985D01*
X185917646Y-80873138D01*
X185341650Y-80718801D01*
X184367290Y-80718801D01*
X183791293Y-80873138D01*
X183426125Y-80970985D01*
X182582312Y-81458162D01*
X181893331Y-82147143D01*
X181406154Y-82990956D01*
X181330078Y-83274876D01*
X181153970Y-83932121D01*
X174203872Y-83932121D01*
X173424471Y-83152720D01*
X173424470Y-83152720D01*
X172719033Y-83152720D01*
X172649030Y-83123724D01*
X172428025Y-82902720D01*
X171971975Y-82902720D01*
X171649500Y-83225195D01*
X171649500Y-83681245D01*
X171971975Y-84003720D01*
X171971976Y-84003720D01*
X172428025Y-84003720D01*
X172569820Y-83861925D01*
X172649030Y-83782716D01*
X172719033Y-83753720D01*
X173134521Y-83753720D01*
X173204525Y-83782716D01*
X174705525Y-85283716D01*
X174734521Y-85353720D01*
X174705525Y-85423724D01*
X174635521Y-85452720D01*
X169619033Y-85452720D01*
X169549030Y-85423724D01*
X169328025Y-85202720D01*
X168871975Y-85202720D01*
X168549500Y-85525195D01*
X168549500Y-85525196D01*
X168549500Y-85803720D01*
X168520504Y-85873724D01*
X168450500Y-85902720D01*
X168071975Y-85902720D01*
X167749500Y-86225195D01*
X167749500Y-86681245D01*
X168071975Y-87003720D01*
X168071976Y-87003720D01*
X168450500Y-87003720D01*
X168520504Y-87032716D01*
X168549500Y-87102720D01*
X168549500Y-87337304D01*
X168528631Y-87398103D01*
X168527098Y-87400073D01*
X168518971Y-87409277D01*
X168448500Y-87479748D01*
X168448500Y-87479749D01*
X168448500Y-87501064D01*
X168435408Y-87517886D01*
X168448500Y-87622882D01*
X168448500Y-91254220D01*
X168419504Y-91324224D01*
X168349500Y-91353220D01*
X167965873Y-91353220D01*
X167895869Y-91324224D01*
X167866873Y-91254220D01*
X167868234Y-91247379D01*
X167868234Y-90775194D01*
X167868234Y-90775193D01*
X167545759Y-90452718D01*
X167089709Y-90452718D01*
X166767234Y-90775193D01*
X166767234Y-91231243D01*
X167089709Y-91553718D01*
X167089710Y-91553718D01*
X167531000Y-91553718D01*
X167601004Y-91582714D01*
X167630000Y-91652718D01*
X167630000Y-92553219D01*
X167630001Y-92553220D01*
X168829999Y-92553220D01*
X168830000Y-92553219D01*
X168830000Y-91967853D01*
X168858996Y-91897849D01*
X168929000Y-91868853D01*
X168999003Y-91897848D01*
X171354874Y-94253720D01*
X171354875Y-94253720D01*
X171480967Y-94253720D01*
X171550970Y-94282716D01*
X171689507Y-94421252D01*
X171771975Y-94503720D01*
X172228024Y-94503720D01*
X172228025Y-94503720D01*
X172550500Y-94181245D01*
X172550500Y-93725195D01*
X172228025Y-93402720D01*
X171771975Y-93402720D01*
X171771974Y-93402720D01*
X171632899Y-93541794D01*
X171562895Y-93570790D01*
X171492892Y-93541794D01*
X169223822Y-91272724D01*
X169194826Y-91202720D01*
X169223822Y-91132716D01*
X169293826Y-91103720D01*
X169628024Y-91103720D01*
X169628025Y-91103720D01*
X169950500Y-90781245D01*
X169950500Y-90325195D01*
X169628025Y-90002720D01*
X169171975Y-90002720D01*
X169152283Y-90002720D01*
X169152283Y-90002719D01*
X169148500Y-90004286D01*
X169130296Y-89996746D01*
X169110594Y-89996742D01*
X169096680Y-89982821D01*
X169078496Y-89975290D01*
X169070955Y-89957086D01*
X169057028Y-89943152D01*
X169049500Y-89905286D01*
X169049500Y-89751567D01*
X169078496Y-89681563D01*
X169148500Y-89652567D01*
X169154295Y-89653720D01*
X169170975Y-89653720D01*
X169627024Y-89653720D01*
X169627025Y-89653720D01*
X169949500Y-89331245D01*
X169949500Y-88875195D01*
X169627025Y-88552720D01*
X169170975Y-88552720D01*
X169151283Y-88552720D01*
X169151283Y-88546336D01*
X169110593Y-88546327D01*
X169057027Y-88492736D01*
X169049500Y-88454872D01*
X169049500Y-87802720D01*
X169078496Y-87732716D01*
X169148500Y-87703720D01*
X169328024Y-87703720D01*
X169328025Y-87703720D01*
X169650500Y-87381245D01*
X169650500Y-86925195D01*
X169328025Y-86602720D01*
X168949500Y-86602720D01*
X168879496Y-86573724D01*
X168850500Y-86503720D01*
X168850500Y-86402720D01*
X168879496Y-86332716D01*
X168949500Y-86303720D01*
X169328025Y-86303720D01*
X169450501Y-86181244D01*
X169549030Y-86082716D01*
X169619033Y-86053720D01*
X174513867Y-86053720D01*
X174583870Y-86082715D01*
X175605874Y-87104720D01*
X175605875Y-87104720D01*
X176084521Y-87104720D01*
X176154525Y-87133716D01*
X176183521Y-87203720D01*
X176154525Y-87273724D01*
X176075529Y-87352720D01*
X176075528Y-87352719D01*
X175899500Y-87528748D01*
X175899500Y-90015948D01*
X175870504Y-90085952D01*
X175800500Y-90114948D01*
X175730497Y-90085952D01*
X175507596Y-89863051D01*
X175051546Y-89863051D01*
X174729071Y-90185526D01*
X174729071Y-90641576D01*
X175051546Y-90964051D01*
X175051547Y-90964051D01*
X175507595Y-90964051D01*
X175507596Y-90964051D01*
X175730497Y-90741149D01*
X175800500Y-90712154D01*
X175870504Y-90741150D01*
X175899500Y-90811154D01*
X175899500Y-91787741D01*
X175870504Y-91857745D01*
X172304525Y-95423724D01*
X172234521Y-95452720D01*
X169719033Y-95452720D01*
X169649029Y-95423724D01*
X169598528Y-95373223D01*
X169569532Y-95303219D01*
X169598526Y-95233218D01*
X169750500Y-95081245D01*
X169750500Y-94625195D01*
X169428025Y-94302720D01*
X168971975Y-94302720D01*
X168649500Y-94625195D01*
X168649500Y-94625196D01*
X168649500Y-95081245D01*
X168801471Y-95233217D01*
X168830467Y-95303220D01*
X168801471Y-95373223D01*
X168650472Y-95524223D01*
X168580468Y-95553220D01*
X167630001Y-95553220D01*
X167630000Y-95553221D01*
X167630000Y-96753219D01*
X167630001Y-96753220D01*
X168550500Y-96753220D01*
X168620504Y-96782216D01*
X168649500Y-96852220D01*
X168649500Y-96881245D01*
X168971975Y-97203720D01*
X169099391Y-97203720D01*
X169169395Y-97232716D01*
X169198391Y-97302720D01*
X169169395Y-97372723D01*
X168999500Y-97542618D01*
X168999500Y-102434187D01*
X168970504Y-102504190D01*
X168749500Y-102725194D01*
X168749500Y-103200937D01*
X168743531Y-103200937D01*
X168743531Y-103242605D01*
X168689953Y-103296184D01*
X168652067Y-103303720D01*
X168424528Y-103303720D01*
X167147005Y-104581244D01*
X165904525Y-105823724D01*
X165834521Y-105852720D01*
X164064479Y-105852720D01*
X163994475Y-105823724D01*
X163965479Y-105753720D01*
X163994475Y-105683716D01*
X164620470Y-105057721D01*
X165450500Y-104227692D01*
X165450500Y-103978749D01*
X165450500Y-101325195D01*
X166249500Y-101325195D01*
X166249500Y-101781245D01*
X166571975Y-102103720D01*
X166571976Y-102103720D01*
X167028024Y-102103720D01*
X167028025Y-102103720D01*
X167350500Y-101781245D01*
X167350500Y-101325195D01*
X167028025Y-101002720D01*
X166571975Y-101002720D01*
X166249500Y-101325195D01*
X165450500Y-101325195D01*
X165450500Y-99422252D01*
X165479495Y-99352249D01*
X165700500Y-99131245D01*
X165700500Y-98675195D01*
X165378025Y-98352720D01*
X164921975Y-98352720D01*
X164599500Y-98675195D01*
X164599500Y-99131245D01*
X164820504Y-99352249D01*
X164849500Y-99422252D01*
X164849500Y-103937740D01*
X164820504Y-104007744D01*
X163404525Y-105423724D01*
X163334521Y-105452720D01*
X144015480Y-105452720D01*
X143945476Y-105423724D01*
X141679496Y-103157744D01*
X141650500Y-103087740D01*
X141650500Y-102624195D01*
X141650499Y-102624194D01*
X141429496Y-102403190D01*
X141400500Y-102333187D01*
X141400500Y-98523065D01*
X141429495Y-98453062D01*
X141530497Y-98352060D01*
X141600500Y-98323065D01*
X141670504Y-98352061D01*
X141699500Y-98422065D01*
X141699500Y-99428749D01*
X141699500Y-99677691D01*
X141920504Y-99898695D01*
X141949500Y-99968698D01*
X141949500Y-100281245D01*
X142251472Y-100583217D01*
X142280468Y-100653220D01*
X142251472Y-100723222D01*
X141949500Y-101025195D01*
X141949500Y-101481245D01*
X142271975Y-101803720D01*
X142271976Y-101803720D01*
X142728024Y-101803720D01*
X142728025Y-101803720D01*
X143050500Y-101481245D01*
X143050500Y-101025195D01*
X142748527Y-100723222D01*
X142719532Y-100653220D01*
X142748527Y-100583217D01*
X143050500Y-100281245D01*
X143050500Y-99825195D01*
X142728025Y-99502720D01*
X142728024Y-99502720D01*
X142415479Y-99502720D01*
X142345475Y-99473724D01*
X142329496Y-99457745D01*
X142300500Y-99387741D01*
X142300500Y-97349028D01*
X142329496Y-97279025D01*
X142478277Y-97130244D01*
X142633742Y-96974778D01*
X142703745Y-96945782D01*
X142773748Y-96974778D01*
X142900937Y-97101966D01*
X142900938Y-97101967D01*
X143376680Y-97101967D01*
X143376680Y-97107936D01*
X143418348Y-97107936D01*
X143471927Y-97161514D01*
X143479463Y-97199400D01*
X143479463Y-102808712D01*
X143479463Y-103057654D01*
X145575528Y-105153720D01*
X145575529Y-105153720D01*
X157024470Y-105153720D01*
X157024471Y-105153720D01*
X157605095Y-104573096D01*
X157675099Y-104544100D01*
X162671347Y-104544100D01*
X162741350Y-104573096D01*
X162871975Y-104703720D01*
X162962355Y-104794100D01*
X163418404Y-104794100D01*
X163418405Y-104794100D01*
X163740880Y-104471625D01*
X163740880Y-104015575D01*
X163418405Y-103693100D01*
X162962355Y-103693100D01*
X162962354Y-103693100D01*
X162741350Y-103914104D01*
X162671347Y-103943100D01*
X157499500Y-103943100D01*
X157429496Y-103914104D01*
X157400500Y-103844100D01*
X157400500Y-103525196D01*
X157400500Y-103525195D01*
X157078025Y-103202720D01*
X156621975Y-103202720D01*
X156299500Y-103525195D01*
X156299500Y-103981245D01*
X156621975Y-104303720D01*
X156785521Y-104303720D01*
X156855525Y-104332716D01*
X156884521Y-104402720D01*
X156855525Y-104472724D01*
X156804525Y-104523724D01*
X156734521Y-104552720D01*
X155303983Y-104552720D01*
X155233979Y-104523724D01*
X155204983Y-104453720D01*
X155210120Y-104427893D01*
X155210120Y-103965576D01*
X155210120Y-103965575D01*
X154887645Y-103643100D01*
X154431595Y-103643100D01*
X154109120Y-103965575D01*
X154109120Y-103965576D01*
X154109120Y-104441317D01*
X154106721Y-104441317D01*
X154106720Y-104491609D01*
X154053140Y-104545185D01*
X154015257Y-104552720D01*
X145865480Y-104552720D01*
X145795476Y-104523724D01*
X145396947Y-104125195D01*
X144838857Y-103567106D01*
X144809862Y-103497103D01*
X144838858Y-103427099D01*
X144870978Y-103405638D01*
X144878022Y-103402720D01*
X144878025Y-103402720D01*
X145200500Y-103080245D01*
X145200500Y-102624195D01*
X145200500Y-102477749D01*
X145200500Y-98022252D01*
X145229495Y-97952249D01*
X145450500Y-97731245D01*
X145450500Y-97275195D01*
X145128025Y-96952720D01*
X144671975Y-96952720D01*
X144349500Y-97275195D01*
X144349500Y-97731245D01*
X144570504Y-97952249D01*
X144599500Y-98022252D01*
X144599500Y-102202720D01*
X144570504Y-102272724D01*
X144500500Y-102301720D01*
X144421975Y-102301720D01*
X144249465Y-102474229D01*
X144179463Y-102503225D01*
X144109459Y-102474229D01*
X144080463Y-102404225D01*
X144080463Y-96157342D01*
X144080462Y-96157341D01*
X143904434Y-95981312D01*
X143904434Y-95981313D01*
X143835824Y-95912703D01*
X143806828Y-95842699D01*
X143835822Y-95772698D01*
X143975402Y-95633119D01*
X144047771Y-95524810D01*
X144081765Y-95353911D01*
X144047771Y-95183012D01*
X143975402Y-95074703D01*
X143578517Y-94677818D01*
X143572278Y-94673649D01*
X143470210Y-94605450D01*
X143470209Y-94605449D01*
X143299309Y-94571455D01*
X143128408Y-94605449D01*
X143128407Y-94605450D01*
X143020104Y-94677815D01*
X142605535Y-95092384D01*
X142533170Y-95200687D01*
X142533169Y-95200688D01*
X142499175Y-95371589D01*
X142533169Y-95542489D01*
X142533170Y-95542490D01*
X142605537Y-95650796D01*
X142858319Y-95903579D01*
X142887315Y-95973582D01*
X142858319Y-96043586D01*
X142680836Y-96221069D01*
X142610832Y-96250065D01*
X142540829Y-96221069D01*
X142288046Y-95968287D01*
X142179740Y-95895920D01*
X142179739Y-95895919D01*
X142008839Y-95861925D01*
X141837938Y-95895919D01*
X141837937Y-95895920D01*
X141729631Y-95968287D01*
X141581635Y-96116283D01*
X141511632Y-96145279D01*
X141441628Y-96116282D01*
X141412632Y-96046279D01*
X141412632Y-93822252D01*
X141441627Y-93752249D01*
X141662632Y-93531245D01*
X141662632Y-93075195D01*
X141557238Y-92969801D01*
X141441628Y-92854190D01*
X141412632Y-92784187D01*
X141412632Y-91625195D01*
X141949500Y-91625195D01*
X141949500Y-92081245D01*
X142271975Y-92403720D01*
X142271976Y-92403720D01*
X142728024Y-92403720D01*
X142728025Y-92403720D01*
X143050500Y-92081245D01*
X143050500Y-91625195D01*
X142728025Y-91302720D01*
X142271975Y-91302720D01*
X141949500Y-91625195D01*
X141412632Y-91625195D01*
X141412632Y-89656567D01*
X141441628Y-89586563D01*
X142195475Y-88832716D01*
X142265479Y-88803720D01*
X142578024Y-88803720D01*
X142578025Y-88803720D01*
X142900500Y-88481245D01*
X142900500Y-88025195D01*
X142748027Y-87872722D01*
X142719032Y-87802720D01*
X142748028Y-87732716D01*
X142818032Y-87703720D01*
X142828024Y-87703720D01*
X142828025Y-87703720D01*
X143150500Y-87381245D01*
X143150500Y-86925195D01*
X142828025Y-86602720D01*
X142371975Y-86602720D01*
X142049500Y-86925195D01*
X142049500Y-87381245D01*
X142201972Y-87533717D01*
X142230968Y-87603720D01*
X142201972Y-87673724D01*
X142131968Y-87702720D01*
X142121975Y-87702720D01*
X141799500Y-88025195D01*
X141799500Y-88025196D01*
X141799500Y-88337741D01*
X141770504Y-88407745D01*
X140987661Y-89190588D01*
X140987660Y-89190587D01*
X140811632Y-89366616D01*
X140811632Y-92784187D01*
X140782636Y-92854190D01*
X140561632Y-93075194D01*
X140561632Y-93075195D01*
X140561632Y-93531245D01*
X140782636Y-93752249D01*
X140811632Y-93822252D01*
X140811632Y-97472868D01*
X140782636Y-97542871D01*
X140567833Y-97757674D01*
X140567833Y-97757675D01*
X140567833Y-98213725D01*
X140770504Y-98416396D01*
X140799500Y-98486399D01*
X140799500Y-102333187D01*
X140770504Y-102403190D01*
X140549500Y-102624194D01*
X140549500Y-102624195D01*
X140549500Y-103080245D01*
X140871975Y-103402720D01*
X141033521Y-103402720D01*
X141103525Y-103431716D01*
X141805525Y-104133716D01*
X141834521Y-104203720D01*
X141805525Y-104273724D01*
X141735521Y-104302720D01*
X134544809Y-104302720D01*
X134474805Y-104273724D01*
X134445809Y-104203720D01*
X134474805Y-104133717D01*
X134629773Y-103978748D01*
X134684932Y-103923589D01*
X134757301Y-103815280D01*
X134791295Y-103644381D01*
X134757301Y-103473482D01*
X134684932Y-103365173D01*
X134288047Y-102968288D01*
X134288043Y-102968285D01*
X134179740Y-102895920D01*
X134179739Y-102895919D01*
X134008839Y-102861925D01*
X133837938Y-102895919D01*
X133837937Y-102895920D01*
X133729631Y-102968287D01*
X133687335Y-103010583D01*
X133617331Y-103039579D01*
X133547328Y-103010582D01*
X133347106Y-102810359D01*
X133318110Y-102740356D01*
X133318110Y-102427811D01*
X133318110Y-102427810D01*
X133261889Y-102371589D01*
X134499175Y-102371589D01*
X134533169Y-102542489D01*
X134533170Y-102542490D01*
X134592473Y-102631244D01*
X134605538Y-102650797D01*
X135002423Y-103047682D01*
X135002426Y-103047684D01*
X135110729Y-103120049D01*
X135110730Y-103120050D01*
X135110732Y-103120051D01*
X135281631Y-103154045D01*
X135452530Y-103120051D01*
X135487043Y-103096989D01*
X135561356Y-103082206D01*
X135612048Y-103109300D01*
X135703686Y-103200937D01*
X135756469Y-103253720D01*
X136930967Y-103253720D01*
X137000970Y-103282716D01*
X137119258Y-103401003D01*
X137221975Y-103503720D01*
X137678024Y-103503720D01*
X137678025Y-103503720D01*
X138000500Y-103181245D01*
X138000500Y-102725195D01*
X137678025Y-102402720D01*
X137221975Y-102402720D01*
X137221974Y-102402720D01*
X137000970Y-102623724D01*
X136930967Y-102652720D01*
X136142952Y-102652720D01*
X136072948Y-102623724D01*
X136043952Y-102553720D01*
X136047807Y-102534758D01*
X136045868Y-102534373D01*
X136047769Y-102524811D01*
X136047771Y-102524810D01*
X136081765Y-102353911D01*
X136047771Y-102183012D01*
X135975402Y-102074703D01*
X135578517Y-101677818D01*
X135491381Y-101619596D01*
X135470210Y-101605450D01*
X135470209Y-101605449D01*
X135299309Y-101571455D01*
X135128408Y-101605449D01*
X135128407Y-101605450D01*
X135020104Y-101677815D01*
X134605535Y-102092384D01*
X134533170Y-102200687D01*
X134533169Y-102200688D01*
X134499175Y-102371589D01*
X133261889Y-102371589D01*
X132995635Y-102105335D01*
X132539585Y-102105335D01*
X132217110Y-102427810D01*
X132217110Y-102883860D01*
X132539585Y-103206335D01*
X132852132Y-103206335D01*
X132922134Y-103235330D01*
X133194542Y-103507739D01*
X133223537Y-103577740D01*
X133221635Y-103597053D01*
X133208705Y-103662059D01*
X133216793Y-103702720D01*
X133242699Y-103832959D01*
X133242700Y-103832960D01*
X133315067Y-103941266D01*
X133507517Y-104133717D01*
X133536513Y-104203720D01*
X133507516Y-104273724D01*
X133437513Y-104302720D01*
X125718032Y-104302720D01*
X125648028Y-104273724D01*
X125619032Y-104203720D01*
X125648027Y-104133717D01*
X125950500Y-103831245D01*
X125950500Y-103375195D01*
X125628025Y-103052720D01*
X125218032Y-103052720D01*
X125148028Y-103023724D01*
X125119032Y-102953720D01*
X125148027Y-102883717D01*
X125400500Y-102631245D01*
X125400500Y-102175195D01*
X125273999Y-102048694D01*
X125129496Y-101904190D01*
X125100500Y-101834187D01*
X125100500Y-101025195D01*
X126949500Y-101025195D01*
X126949500Y-101481245D01*
X127271975Y-101803720D01*
X127271976Y-101803720D01*
X127728024Y-101803720D01*
X127728025Y-101803720D01*
X128050500Y-101481245D01*
X128050500Y-101025195D01*
X127728025Y-100702720D01*
X127271975Y-100702720D01*
X126949500Y-101025195D01*
X125100500Y-101025195D01*
X125100500Y-98072252D01*
X125129495Y-98002249D01*
X125350500Y-97781245D01*
X125350500Y-97325195D01*
X125246557Y-97221252D01*
X125129496Y-97104190D01*
X125100500Y-97034187D01*
X125100500Y-96325195D01*
X126949500Y-96325195D01*
X126949500Y-96781245D01*
X127271975Y-97103720D01*
X127271976Y-97103720D01*
X127728024Y-97103720D01*
X127728025Y-97103720D01*
X128050500Y-96781245D01*
X128050500Y-96325195D01*
X127728025Y-96002720D01*
X127271975Y-96002720D01*
X126949500Y-96325195D01*
X125100500Y-96325195D01*
X125100500Y-93322252D01*
X125129495Y-93252249D01*
X125350500Y-93031245D01*
X125350500Y-92575195D01*
X125252301Y-92476996D01*
X125129496Y-92354190D01*
X125100500Y-92284187D01*
X125100500Y-91625195D01*
X126949500Y-91625195D01*
X126949500Y-92081245D01*
X127271975Y-92403720D01*
X127271976Y-92403720D01*
X127728024Y-92403720D01*
X127728025Y-92403720D01*
X128050500Y-92081245D01*
X128050500Y-91625195D01*
X127728025Y-91302720D01*
X127271975Y-91302720D01*
X126949500Y-91625195D01*
X125100500Y-91625195D01*
X125100500Y-88622252D01*
X125129495Y-88552249D01*
X125350500Y-88331245D01*
X125350500Y-87875195D01*
X125252996Y-87777691D01*
X125129496Y-87654190D01*
X125100500Y-87584187D01*
X125100500Y-86925195D01*
X126949500Y-86925195D01*
X126949500Y-87381245D01*
X127271975Y-87703720D01*
X127271976Y-87703720D01*
X127681968Y-87703720D01*
X127751972Y-87732716D01*
X127780968Y-87802720D01*
X127751972Y-87872722D01*
X127749500Y-87875195D01*
X127749500Y-88331245D01*
X128071975Y-88653720D01*
X128071976Y-88653720D01*
X128528024Y-88653720D01*
X128528025Y-88653720D01*
X128850500Y-88331245D01*
X128850500Y-87875195D01*
X129349500Y-87875195D01*
X129349500Y-88331245D01*
X129570504Y-88552249D01*
X129599500Y-88622252D01*
X129599500Y-90434187D01*
X129570505Y-90504190D01*
X129549500Y-90525195D01*
X129549500Y-90981245D01*
X129570504Y-91002249D01*
X129599500Y-91072252D01*
X129599500Y-92284187D01*
X129570504Y-92354190D01*
X129349500Y-92575194D01*
X129349500Y-92575195D01*
X129349500Y-93031245D01*
X129570504Y-93252249D01*
X129599500Y-93322252D01*
X129599500Y-97034187D01*
X129570504Y-97104190D01*
X129399500Y-97275194D01*
X129399500Y-97275195D01*
X129399500Y-97731245D01*
X129620504Y-97952249D01*
X129649500Y-98022252D01*
X129649500Y-101884187D01*
X129620504Y-101954190D01*
X129399500Y-102175194D01*
X129399500Y-102175195D01*
X129399500Y-102631245D01*
X129721975Y-102953720D01*
X129721976Y-102953720D01*
X130178024Y-102953720D01*
X130178025Y-102953720D01*
X130500500Y-102631245D01*
X130500500Y-102175195D01*
X130394004Y-102068699D01*
X130279496Y-101954190D01*
X130250500Y-101884187D01*
X130250500Y-101025195D01*
X131949500Y-101025195D01*
X131949500Y-101481245D01*
X132271975Y-101803720D01*
X132271976Y-101803720D01*
X132728024Y-101803720D01*
X132728025Y-101803720D01*
X133050500Y-101481245D01*
X133050500Y-101025195D01*
X132728025Y-100702720D01*
X132271975Y-100702720D01*
X131949500Y-101025195D01*
X130250500Y-101025195D01*
X130250500Y-100675195D01*
X133885684Y-100675195D01*
X133885684Y-101131245D01*
X134208159Y-101453720D01*
X134208160Y-101453720D01*
X134664208Y-101453720D01*
X134664209Y-101453720D01*
X134986684Y-101131245D01*
X134986684Y-100818698D01*
X135015679Y-100748695D01*
X135250500Y-100513875D01*
X135250500Y-100264932D01*
X135250500Y-99075195D01*
X136599500Y-99075195D01*
X136599500Y-99531245D01*
X136921975Y-99853720D01*
X137151464Y-99853720D01*
X137221468Y-99882716D01*
X137250464Y-99952720D01*
X137242928Y-99990605D01*
X137242699Y-99991156D01*
X137224581Y-100082245D01*
X137208705Y-100162059D01*
X137211025Y-100173724D01*
X137242699Y-100332959D01*
X137242700Y-100332960D01*
X137310003Y-100433687D01*
X137315068Y-100441267D01*
X137407518Y-100533717D01*
X137436514Y-100603720D01*
X137407518Y-100673724D01*
X137337514Y-100702720D01*
X137271975Y-100702720D01*
X136949500Y-101025195D01*
X136949500Y-101481245D01*
X137271975Y-101803720D01*
X137271976Y-101803720D01*
X137728024Y-101803720D01*
X137728025Y-101803720D01*
X138050500Y-101481245D01*
X138050500Y-101025195D01*
X138050500Y-101013958D01*
X138079496Y-100943954D01*
X138130184Y-100916861D01*
X138162060Y-100910521D01*
X138270369Y-100838152D01*
X138684932Y-100423589D01*
X138757301Y-100315280D01*
X138791295Y-100144381D01*
X138757301Y-99973482D01*
X138684932Y-99865173D01*
X138288047Y-99468288D01*
X138281808Y-99464119D01*
X138179740Y-99395920D01*
X138179739Y-99395919D01*
X138094288Y-99378922D01*
X138008839Y-99361925D01*
X138008838Y-99361925D01*
X137837936Y-99395919D01*
X137837385Y-99396148D01*
X137836788Y-99396148D01*
X137828377Y-99397821D01*
X137828044Y-99396148D01*
X137761613Y-99396148D01*
X137708036Y-99342569D01*
X137700500Y-99304684D01*
X137700500Y-99075196D01*
X137700500Y-99075195D01*
X137496894Y-98871589D01*
X138499175Y-98871589D01*
X138533169Y-99042489D01*
X138533170Y-99042490D01*
X138593457Y-99132717D01*
X138605538Y-99150797D01*
X139002423Y-99547682D01*
X139002426Y-99547684D01*
X139110729Y-99620049D01*
X139110730Y-99620050D01*
X139110732Y-99620051D01*
X139281631Y-99654045D01*
X139381188Y-99634241D01*
X139455501Y-99649023D01*
X139497598Y-99712024D01*
X139499500Y-99731339D01*
X139499500Y-100237741D01*
X139470504Y-100307745D01*
X139454525Y-100323724D01*
X139384521Y-100352720D01*
X139071975Y-100352720D01*
X138749500Y-100675195D01*
X138749500Y-101131245D01*
X139071975Y-101453720D01*
X139071976Y-101453720D01*
X139528024Y-101453720D01*
X139528025Y-101453720D01*
X139850500Y-101131245D01*
X139850500Y-100818698D01*
X139879495Y-100748695D01*
X140100500Y-100527691D01*
X140100500Y-100278749D01*
X140100500Y-98728749D01*
X140100500Y-98072252D01*
X140129495Y-98002249D01*
X140350500Y-97781245D01*
X140350500Y-97325195D01*
X140246557Y-97221252D01*
X140129496Y-97104190D01*
X140100500Y-97034187D01*
X140100500Y-93322252D01*
X140129495Y-93252249D01*
X140350500Y-93031245D01*
X140350500Y-92575195D01*
X140252301Y-92476996D01*
X140129496Y-92354190D01*
X140100500Y-92284187D01*
X140100500Y-88772252D01*
X140129495Y-88702249D01*
X140450500Y-88381245D01*
X140450500Y-87925195D01*
X140128025Y-87602720D01*
X139671975Y-87602720D01*
X139349500Y-87925195D01*
X139349500Y-88381245D01*
X139470504Y-88502249D01*
X139499500Y-88572252D01*
X139499500Y-92284187D01*
X139470504Y-92354190D01*
X139249500Y-92575194D01*
X139249500Y-92575195D01*
X139249500Y-93031245D01*
X139470504Y-93252249D01*
X139499500Y-93322252D01*
X139499500Y-97034187D01*
X139470504Y-97104190D01*
X139249500Y-97325194D01*
X139249500Y-97781245D01*
X139370706Y-97902452D01*
X139399702Y-97972455D01*
X139370705Y-98042459D01*
X139308599Y-98068183D01*
X139308872Y-98069553D01*
X139301987Y-98070922D01*
X139300702Y-98071455D01*
X139299310Y-98071455D01*
X139299309Y-98071455D01*
X139242696Y-98082716D01*
X139128408Y-98105449D01*
X139128407Y-98105450D01*
X139020104Y-98177815D01*
X138605535Y-98592384D01*
X138533170Y-98700687D01*
X138533169Y-98700688D01*
X138499175Y-98871589D01*
X137496894Y-98871589D01*
X137378025Y-98752720D01*
X136921975Y-98752720D01*
X136599500Y-99075195D01*
X135250500Y-99075195D01*
X135250500Y-98072252D01*
X135279495Y-98002249D01*
X135500500Y-97781245D01*
X135500500Y-97325195D01*
X135383140Y-97207835D01*
X135264116Y-97088810D01*
X135235120Y-97018807D01*
X135235120Y-96325195D01*
X136949500Y-96325195D01*
X136949500Y-96781245D01*
X137271975Y-97103720D01*
X137271976Y-97103720D01*
X137728024Y-97103720D01*
X137728025Y-97103720D01*
X138050500Y-96781245D01*
X138050500Y-96325195D01*
X137728025Y-96002720D01*
X137271975Y-96002720D01*
X136949500Y-96325195D01*
X135235120Y-96325195D01*
X135235120Y-93322252D01*
X135264115Y-93252249D01*
X135485120Y-93031245D01*
X135485120Y-92575195D01*
X135386921Y-92476996D01*
X135264116Y-92354190D01*
X135235120Y-92284187D01*
X135235120Y-91625195D01*
X136949500Y-91625195D01*
X136949500Y-92081245D01*
X137271975Y-92403720D01*
X137271976Y-92403720D01*
X137728024Y-92403720D01*
X137728025Y-92403720D01*
X138050500Y-92081245D01*
X138050500Y-91625195D01*
X137728025Y-91302720D01*
X137271975Y-91302720D01*
X136949500Y-91625195D01*
X135235120Y-91625195D01*
X135235120Y-88656872D01*
X135264115Y-88586869D01*
X135485120Y-88365865D01*
X135485120Y-87909815D01*
X135162645Y-87587340D01*
X134706595Y-87587340D01*
X134384120Y-87909815D01*
X134384120Y-88365865D01*
X134605124Y-88586869D01*
X134634120Y-88656872D01*
X134634120Y-92284187D01*
X134605124Y-92354190D01*
X134384120Y-92575194D01*
X134384120Y-92575195D01*
X134384120Y-93031245D01*
X134605124Y-93252249D01*
X134634120Y-93322252D01*
X134634120Y-97049567D01*
X134605124Y-97119570D01*
X134399500Y-97325194D01*
X134399500Y-97325195D01*
X134399500Y-97781245D01*
X134620504Y-98002249D01*
X134649500Y-98072252D01*
X134649500Y-100223925D01*
X134620504Y-100293929D01*
X134590709Y-100323724D01*
X134520705Y-100352720D01*
X134208159Y-100352720D01*
X133885684Y-100675195D01*
X130250500Y-100675195D01*
X130250500Y-98022252D01*
X130279495Y-97952249D01*
X130500500Y-97731245D01*
X130500500Y-97275195D01*
X130376553Y-97151248D01*
X130229496Y-97004190D01*
X130200500Y-96934187D01*
X130200500Y-96325195D01*
X131949500Y-96325195D01*
X131949500Y-96781245D01*
X132271975Y-97103720D01*
X132271976Y-97103720D01*
X132728024Y-97103720D01*
X132728025Y-97103720D01*
X133050500Y-96781245D01*
X133050500Y-96325195D01*
X132728025Y-96002720D01*
X132271975Y-96002720D01*
X131949500Y-96325195D01*
X130200500Y-96325195D01*
X130200500Y-93322252D01*
X130229495Y-93252249D01*
X130450500Y-93031245D01*
X130450500Y-92575195D01*
X130352301Y-92476996D01*
X130229496Y-92354190D01*
X130200500Y-92284187D01*
X130200500Y-91625195D01*
X131949500Y-91625195D01*
X131949500Y-92081245D01*
X132271975Y-92403720D01*
X132271976Y-92403720D01*
X132728024Y-92403720D01*
X132728025Y-92403720D01*
X133050500Y-92081245D01*
X133050500Y-91625195D01*
X132728025Y-91302720D01*
X132271975Y-91302720D01*
X131949500Y-91625195D01*
X130200500Y-91625195D01*
X130200500Y-91402720D01*
X130229496Y-91332716D01*
X130299500Y-91303720D01*
X130328024Y-91303720D01*
X130328025Y-91303720D01*
X130650500Y-90981245D01*
X130650500Y-90525195D01*
X130328025Y-90202720D01*
X130328024Y-90202720D01*
X130299500Y-90202720D01*
X130229496Y-90173724D01*
X130200500Y-90103720D01*
X130200500Y-88622252D01*
X130229495Y-88552249D01*
X130450500Y-88331245D01*
X130450500Y-87875195D01*
X130128025Y-87552720D01*
X129671975Y-87552720D01*
X129349500Y-87875195D01*
X128850500Y-87875195D01*
X128596750Y-87621445D01*
X128567755Y-87551443D01*
X128596750Y-87481440D01*
X129152994Y-86925195D01*
X131949500Y-86925195D01*
X131949500Y-87381245D01*
X132271975Y-87703720D01*
X132271976Y-87703720D01*
X132728024Y-87703720D01*
X132728025Y-87703720D01*
X133050500Y-87381245D01*
X133050500Y-86925195D01*
X136949500Y-86925195D01*
X136949500Y-87381245D01*
X137271975Y-87703720D01*
X137271976Y-87703720D01*
X137728024Y-87703720D01*
X137728025Y-87703720D01*
X138050500Y-87381245D01*
X138050500Y-86925195D01*
X137728025Y-86602720D01*
X137271975Y-86602720D01*
X136949500Y-86925195D01*
X133050500Y-86925195D01*
X132728025Y-86602720D01*
X132271975Y-86602720D01*
X131949500Y-86925195D01*
X129152994Y-86925195D01*
X129671339Y-86406850D01*
X129741342Y-86377855D01*
X129796343Y-86394539D01*
X129820259Y-86410519D01*
X129820260Y-86410520D01*
X129820262Y-86410521D01*
X129991161Y-86444515D01*
X130162060Y-86410521D01*
X130270369Y-86338152D01*
X130580497Y-86028023D01*
X130650500Y-85999028D01*
X130720504Y-86028024D01*
X130736030Y-86065508D01*
X130741964Y-86063051D01*
X130749499Y-86081243D01*
X130749500Y-86081244D01*
X130749500Y-86081245D01*
X131071975Y-86403720D01*
X131071976Y-86403720D01*
X131528024Y-86403720D01*
X131528025Y-86403720D01*
X131850500Y-86081245D01*
X131850500Y-85768698D01*
X131879495Y-85698695D01*
X134064328Y-83513863D01*
X134064328Y-83264921D01*
X134064328Y-82938932D01*
X134093324Y-82868928D01*
X134137703Y-82843306D01*
X134221812Y-82820770D01*
X134338640Y-82763156D01*
X134453529Y-82632150D01*
X134509539Y-82467150D01*
X134508590Y-82452676D01*
X134504523Y-82390623D01*
X134501020Y-82337167D01*
X134355750Y-81795012D01*
X134321300Y-81725156D01*
X134298137Y-81678185D01*
X134298136Y-81678183D01*
X134167130Y-81563295D01*
X134167126Y-81563293D01*
X134002131Y-81507285D01*
X134002126Y-81507284D01*
X133872151Y-81515803D01*
X133872150Y-81515803D01*
X133305843Y-81667544D01*
X133189017Y-81725156D01*
X133189015Y-81725157D01*
X133074127Y-81856163D01*
X133074125Y-81856167D01*
X133018117Y-82021162D01*
X133018116Y-82021167D01*
X133026635Y-82151142D01*
X133026635Y-82151145D01*
X133026636Y-82151147D01*
X133166786Y-82674194D01*
X133171906Y-82693302D01*
X133229518Y-82810128D01*
X133229519Y-82810130D01*
X133289769Y-82862967D01*
X133360526Y-82925019D01*
X133396151Y-82937111D01*
X133413280Y-82952133D01*
X133434332Y-82960853D01*
X133440668Y-82976151D01*
X133453118Y-82987069D01*
X133463328Y-83030857D01*
X133463328Y-83223913D01*
X133434332Y-83293917D01*
X133219504Y-83508745D01*
X133149500Y-83537741D01*
X133079496Y-83508745D01*
X133050500Y-83438741D01*
X133050500Y-83125196D01*
X133050500Y-83125195D01*
X132728025Y-82802720D01*
X132271975Y-82802720D01*
X131949500Y-83125195D01*
X131949500Y-83125196D01*
X131949500Y-83437741D01*
X131920504Y-83507745D01*
X131920503Y-83507745D01*
X131734476Y-83693771D01*
X131664473Y-83722767D01*
X131594470Y-83693771D01*
X131578517Y-83677818D01*
X131499762Y-83625196D01*
X131470210Y-83605450D01*
X131470209Y-83605449D01*
X131299309Y-83571455D01*
X131128408Y-83605449D01*
X131128407Y-83605450D01*
X131020104Y-83677815D01*
X130605535Y-84092384D01*
X130533170Y-84200687D01*
X130533169Y-84200688D01*
X130499175Y-84371589D01*
X130533169Y-84542489D01*
X130533170Y-84542490D01*
X130573414Y-84602720D01*
X130605538Y-84650797D01*
X131002423Y-85047682D01*
X131002426Y-85047684D01*
X131112757Y-85121404D01*
X131154854Y-85184406D01*
X131140072Y-85258721D01*
X131089157Y-85292741D01*
X131090169Y-85295184D01*
X131077889Y-85300270D01*
X131077070Y-85300818D01*
X131076410Y-85300882D01*
X131071974Y-85302720D01*
X130900243Y-85474451D01*
X130830240Y-85503447D01*
X130760236Y-85474450D01*
X130747924Y-85459448D01*
X130684934Y-85365176D01*
X130684932Y-85365173D01*
X130288047Y-84968288D01*
X130288043Y-84968285D01*
X130179740Y-84895920D01*
X130179739Y-84895919D01*
X130008839Y-84861925D01*
X129837938Y-84895919D01*
X129837937Y-84895920D01*
X129729634Y-84968285D01*
X129315065Y-85382854D01*
X129242700Y-85491157D01*
X129242699Y-85491158D01*
X129208705Y-85662059D01*
X129242699Y-85832959D01*
X129242701Y-85832963D01*
X129258679Y-85856876D01*
X129273460Y-85931192D01*
X129246367Y-85981880D01*
X128219504Y-87008744D01*
X128149500Y-87037740D01*
X128079496Y-87008744D01*
X128050500Y-86938740D01*
X128050500Y-86925196D01*
X128050500Y-86925195D01*
X127738822Y-86613517D01*
X127709827Y-86543515D01*
X127738823Y-86473511D01*
X127790848Y-86451961D01*
X127789746Y-86446417D01*
X127799308Y-86444514D01*
X127799309Y-86444515D01*
X127970208Y-86410521D01*
X128078517Y-86338152D01*
X128475402Y-85941267D01*
X128547771Y-85832958D01*
X128581765Y-85662059D01*
X128547771Y-85491160D01*
X128547770Y-85491158D01*
X128547769Y-85491156D01*
X128528526Y-85462358D01*
X128522892Y-85434035D01*
X128511841Y-85407356D01*
X128515721Y-85397988D01*
X128513743Y-85388043D01*
X128540838Y-85337352D01*
X128583007Y-85295184D01*
X128645475Y-85232716D01*
X128715478Y-85203720D01*
X129028024Y-85203720D01*
X129028025Y-85203720D01*
X129350500Y-84881245D01*
X129350500Y-84425195D01*
X129028025Y-84102720D01*
X128571975Y-84102720D01*
X128249500Y-84425195D01*
X128249500Y-84425196D01*
X128249500Y-84737741D01*
X128220504Y-84807744D01*
X128117761Y-84910486D01*
X128047759Y-84939482D01*
X127992758Y-84922798D01*
X127952532Y-84895920D01*
X127952531Y-84895919D01*
X127781631Y-84861925D01*
X127610730Y-84895919D01*
X127610729Y-84895920D01*
X127502426Y-84968285D01*
X127105535Y-85365176D01*
X127033170Y-85473479D01*
X127033169Y-85473480D01*
X126999175Y-85644381D01*
X127033169Y-85815281D01*
X127033170Y-85815282D01*
X127105535Y-85923585D01*
X127105538Y-85923589D01*
X127520101Y-86338152D01*
X127520104Y-86338154D01*
X127628408Y-86410520D01*
X127632595Y-86412254D01*
X127635800Y-86415459D01*
X127636517Y-86415938D01*
X127636421Y-86416080D01*
X127686176Y-86465830D01*
X127686180Y-86541601D01*
X127632604Y-86595182D01*
X127594714Y-86602720D01*
X127271975Y-86602720D01*
X126949500Y-86925195D01*
X125100500Y-86925195D01*
X125100500Y-85653012D01*
X125129495Y-85583009D01*
X125215880Y-85496625D01*
X125215880Y-85486632D01*
X125244876Y-85416628D01*
X125314880Y-85387632D01*
X125384882Y-85416627D01*
X125571975Y-85603720D01*
X125571976Y-85603720D01*
X126028024Y-85603720D01*
X126028025Y-85603720D01*
X126350500Y-85281245D01*
X126350500Y-85243181D01*
X126379496Y-85173177D01*
X126449500Y-85144181D01*
X126468808Y-85146082D01*
X126508839Y-85154045D01*
X126679738Y-85120051D01*
X126788047Y-85047682D01*
X127184932Y-84650797D01*
X127257301Y-84542488D01*
X127291295Y-84371589D01*
X127257301Y-84200690D01*
X127184932Y-84092381D01*
X126770369Y-83677818D01*
X126691614Y-83625196D01*
X126662062Y-83605450D01*
X126662061Y-83605449D01*
X126491161Y-83571455D01*
X126320260Y-83605449D01*
X126320259Y-83605450D01*
X126211956Y-83677815D01*
X125815065Y-84074706D01*
X125742700Y-84183009D01*
X125742699Y-84183010D01*
X125708705Y-84353911D01*
X125714771Y-84384406D01*
X125699988Y-84458722D01*
X125636987Y-84500818D01*
X125617673Y-84502720D01*
X125571975Y-84502720D01*
X125249500Y-84825195D01*
X125249500Y-84825196D01*
X125249500Y-84835188D01*
X125220504Y-84905192D01*
X125150500Y-84934188D01*
X125080497Y-84905192D01*
X124893405Y-84718100D01*
X124437355Y-84718100D01*
X124114880Y-85040575D01*
X124114880Y-85496625D01*
X124437355Y-85819100D01*
X124437356Y-85819100D01*
X124438382Y-85819525D01*
X124491963Y-85873101D01*
X124499500Y-85910990D01*
X124499500Y-87584187D01*
X124470504Y-87654190D01*
X124249500Y-87875194D01*
X124249500Y-87875195D01*
X124249500Y-88331245D01*
X124470504Y-88552249D01*
X124499500Y-88622252D01*
X124499500Y-92284187D01*
X124470504Y-92354190D01*
X124249500Y-92575194D01*
X124249500Y-92575195D01*
X124249500Y-93031245D01*
X124470504Y-93252249D01*
X124499500Y-93322252D01*
X124499500Y-97034187D01*
X124470504Y-97104190D01*
X124249500Y-97325194D01*
X124249500Y-97325195D01*
X124249500Y-97781245D01*
X124470504Y-98002249D01*
X124499500Y-98072252D01*
X124499500Y-101934187D01*
X124470504Y-102004190D01*
X124299500Y-102175194D01*
X124299500Y-102175195D01*
X124299500Y-102631245D01*
X124621975Y-102953720D01*
X124621976Y-102953720D01*
X125031968Y-102953720D01*
X125101972Y-102982716D01*
X125130968Y-103052720D01*
X125101972Y-103122722D01*
X125101971Y-103122724D01*
X124900970Y-103323724D01*
X124830967Y-103352720D01*
X124586279Y-103352720D01*
X124516276Y-103323724D01*
X124160838Y-102968287D01*
X124052532Y-102895920D01*
X124052531Y-102895919D01*
X123881631Y-102861925D01*
X123710730Y-102895919D01*
X123710729Y-102895920D01*
X123602426Y-102968285D01*
X123205535Y-103365176D01*
X123133170Y-103473479D01*
X123133169Y-103473480D01*
X123099175Y-103644381D01*
X123133169Y-103815281D01*
X123133170Y-103815282D01*
X123205537Y-103923588D01*
X123415665Y-104133717D01*
X123444661Y-104203720D01*
X123415664Y-104273724D01*
X123345661Y-104302720D01*
X121998347Y-104302720D01*
X121928343Y-104273724D01*
X121899347Y-104203720D01*
X121900500Y-104197924D01*
X121900500Y-103725196D01*
X121900500Y-103725195D01*
X121851515Y-103676210D01*
X121822520Y-103606208D01*
X121851516Y-103536205D01*
X122278419Y-103109301D01*
X122348423Y-103080304D01*
X122403425Y-103096989D01*
X122403819Y-103097252D01*
X122421851Y-103109301D01*
X122437936Y-103120048D01*
X122437938Y-103120050D01*
X122437940Y-103120051D01*
X122608839Y-103154045D01*
X122779738Y-103120051D01*
X122888047Y-103047682D01*
X123284932Y-102650797D01*
X123357301Y-102542488D01*
X123391295Y-102371589D01*
X123357301Y-102200690D01*
X123284932Y-102092381D01*
X122882149Y-101689598D01*
X122853154Y-101619596D01*
X122882148Y-101549595D01*
X123050500Y-101381245D01*
X123050500Y-100925195D01*
X122728025Y-100602720D01*
X122271975Y-100602720D01*
X121949500Y-100925195D01*
X121949500Y-101381245D01*
X122209009Y-101640754D01*
X122238005Y-101710757D01*
X122209009Y-101780760D01*
X121915067Y-102074703D01*
X121842700Y-102183009D01*
X121842699Y-102183010D01*
X121808705Y-102353911D01*
X121842699Y-102524811D01*
X121842700Y-102524812D01*
X121865760Y-102559324D01*
X121880542Y-102633640D01*
X121853448Y-102684328D01*
X121225529Y-103312249D01*
X121225528Y-103312250D01*
X121158233Y-103379544D01*
X121126119Y-103401003D01*
X121121977Y-103402718D01*
X121121975Y-103402720D01*
X120799500Y-103725195D01*
X120799500Y-103725196D01*
X120799500Y-104200937D01*
X120793117Y-104200937D01*
X120793120Y-104241599D01*
X120739545Y-104295181D01*
X120701653Y-104302720D01*
X120265479Y-104302720D01*
X120195475Y-104273724D01*
X118480496Y-102558745D01*
X118451500Y-102488741D01*
X118451500Y-100759095D01*
X118451499Y-100759094D01*
X118275472Y-100583066D01*
X117894125Y-100201720D01*
X117877061Y-100194652D01*
X117844943Y-100173192D01*
X116944475Y-99272724D01*
X116915479Y-99202720D01*
X116944475Y-99132716D01*
X117014479Y-99103720D01*
X117134521Y-99103720D01*
X117204525Y-99132716D01*
X117204525Y-99132717D01*
X117222602Y-99150793D01*
X117235059Y-99163250D01*
X117904191Y-99163250D01*
X117974194Y-99192246D01*
X118329631Y-99547682D01*
X118437937Y-99620049D01*
X118437938Y-99620050D01*
X118437940Y-99620051D01*
X118608839Y-99654045D01*
X118608839Y-99654044D01*
X118608840Y-99654045D01*
X118615020Y-99654045D01*
X118685024Y-99683041D01*
X118714020Y-99753045D01*
X118706484Y-99790931D01*
X118702102Y-99801509D01*
X118702102Y-101281351D01*
X118702102Y-101530293D01*
X119220504Y-102048695D01*
X119249500Y-102118698D01*
X119249500Y-102431245D01*
X119571975Y-102753720D01*
X119571976Y-102753720D01*
X120028024Y-102753720D01*
X120028025Y-102753720D01*
X120350500Y-102431245D01*
X120350500Y-101975195D01*
X120028025Y-101652720D01*
X120028024Y-101652720D01*
X119715479Y-101652720D01*
X119645475Y-101623724D01*
X119332098Y-101310347D01*
X119303102Y-101240343D01*
X119303102Y-100760160D01*
X119332098Y-100690156D01*
X119402102Y-100661160D01*
X119472104Y-100690155D01*
X119620101Y-100838152D01*
X119620104Y-100838154D01*
X119728407Y-100910519D01*
X119728408Y-100910520D01*
X119728410Y-100910521D01*
X119899309Y-100944515D01*
X120070208Y-100910521D01*
X120178517Y-100838152D01*
X120575402Y-100441267D01*
X120647771Y-100332958D01*
X120681765Y-100162059D01*
X120647771Y-99991160D01*
X120624709Y-99956645D01*
X120609926Y-99882329D01*
X120637018Y-99831641D01*
X121800500Y-98668161D01*
X121800500Y-98419219D01*
X121800500Y-96871252D01*
X121829496Y-96801248D01*
X121899500Y-96772252D01*
X121969502Y-96801247D01*
X122271975Y-97103720D01*
X122271976Y-97103720D01*
X122728024Y-97103720D01*
X122728025Y-97103720D01*
X123050500Y-96781245D01*
X123050500Y-96325195D01*
X122728025Y-96002720D01*
X122271975Y-96002720D01*
X121969502Y-96305192D01*
X121899500Y-96334188D01*
X121829496Y-96305192D01*
X121800500Y-96235188D01*
X121800500Y-95868699D01*
X121829496Y-95798695D01*
X122295475Y-95332716D01*
X122365479Y-95303720D01*
X122678024Y-95303720D01*
X122678025Y-95303720D01*
X123000500Y-94981245D01*
X123000500Y-94525195D01*
X122678025Y-94202720D01*
X122221975Y-94202720D01*
X121899500Y-94525195D01*
X121899500Y-94525196D01*
X121899500Y-94837741D01*
X121870504Y-94907745D01*
X121375529Y-95402720D01*
X121375528Y-95402719D01*
X121199500Y-95578748D01*
X121199500Y-98378210D01*
X121170504Y-98448214D01*
X120364933Y-99253785D01*
X120294929Y-99282781D01*
X120224925Y-99253785D01*
X120195929Y-99183781D01*
X120200500Y-99160800D01*
X120200500Y-98072252D01*
X120229495Y-98002249D01*
X120500500Y-97731245D01*
X120500500Y-97275195D01*
X120376553Y-97151248D01*
X120229496Y-97004190D01*
X120200500Y-96934187D01*
X120200500Y-93372252D01*
X120229495Y-93302249D01*
X120500500Y-93031245D01*
X120500500Y-92575195D01*
X120376553Y-92451248D01*
X120229496Y-92304190D01*
X120200500Y-92234187D01*
X120200500Y-91625195D01*
X121949500Y-91625195D01*
X121949500Y-92081245D01*
X122271975Y-92403720D01*
X122271976Y-92403720D01*
X122728024Y-92403720D01*
X122728025Y-92403720D01*
X123050500Y-92081245D01*
X123050500Y-91625195D01*
X122728025Y-91302720D01*
X122271975Y-91302720D01*
X121949500Y-91625195D01*
X120200500Y-91625195D01*
X120200500Y-88572252D01*
X120229495Y-88502249D01*
X120350500Y-88381245D01*
X120350500Y-87925195D01*
X120028025Y-87602720D01*
X119571975Y-87602720D01*
X119249500Y-87925195D01*
X119249500Y-88381245D01*
X119570504Y-88702249D01*
X119599500Y-88772252D01*
X119599500Y-92334187D01*
X119570504Y-92404190D01*
X119399500Y-92575194D01*
X119399500Y-92575195D01*
X119399500Y-93031245D01*
X119570504Y-93202249D01*
X119599500Y-93272252D01*
X119599500Y-97034187D01*
X119570504Y-97104190D01*
X119399500Y-97275194D01*
X119399500Y-97275195D01*
X119399500Y-97731245D01*
X119570504Y-97902249D01*
X119599500Y-97972252D01*
X119599500Y-98863102D01*
X119570504Y-98933106D01*
X119560299Y-98943311D01*
X119490295Y-98972307D01*
X119420291Y-98943311D01*
X119394441Y-98880904D01*
X119393197Y-98881152D01*
X119391952Y-98874893D01*
X119391295Y-98873307D01*
X119391295Y-98871590D01*
X119377502Y-98802248D01*
X119357301Y-98700690D01*
X119284932Y-98592381D01*
X118870369Y-98177818D01*
X118870365Y-98177815D01*
X118762062Y-98105450D01*
X118762061Y-98105449D01*
X118591161Y-98071455D01*
X118420260Y-98105449D01*
X118420259Y-98105450D01*
X118311953Y-98177817D01*
X117956517Y-98533252D01*
X117956517Y-98533254D01*
X117886513Y-98562250D01*
X117699500Y-98562250D01*
X117629496Y-98533254D01*
X117600500Y-98463250D01*
X117600500Y-98325196D01*
X117600500Y-98325195D01*
X117278025Y-98002720D01*
X116821975Y-98002720D01*
X116499500Y-98325195D01*
X116499500Y-98325196D01*
X116499500Y-98588741D01*
X116470504Y-98658745D01*
X116400500Y-98687741D01*
X116330496Y-98658745D01*
X116129496Y-98457745D01*
X116100500Y-98387741D01*
X116100500Y-97443197D01*
X116129496Y-97373193D01*
X116144494Y-97360884D01*
X116178517Y-97338152D01*
X116575402Y-96941267D01*
X116647771Y-96832958D01*
X116681765Y-96662059D01*
X116647771Y-96491160D01*
X116575402Y-96382851D01*
X116517746Y-96325195D01*
X116949500Y-96325195D01*
X116949500Y-96781245D01*
X117271975Y-97103720D01*
X117271976Y-97103720D01*
X117728024Y-97103720D01*
X117728025Y-97103720D01*
X118050500Y-96781245D01*
X118050500Y-96325195D01*
X117728025Y-96002720D01*
X117271975Y-96002720D01*
X116949500Y-96325195D01*
X116517746Y-96325195D01*
X116160839Y-95968288D01*
X116160835Y-95968285D01*
X116052532Y-95895920D01*
X116052531Y-95895919D01*
X115881631Y-95861925D01*
X115710730Y-95895919D01*
X115710729Y-95895920D01*
X115602426Y-95968285D01*
X115205535Y-96365176D01*
X115133170Y-96473479D01*
X115133169Y-96473480D01*
X115099175Y-96644382D01*
X115099175Y-96654132D01*
X115095077Y-96654132D01*
X115083312Y-96713273D01*
X115020310Y-96755368D01*
X115000998Y-96757270D01*
X114867424Y-96757270D01*
X114650970Y-96973724D01*
X114580967Y-97002720D01*
X114111632Y-97002720D01*
X114041628Y-96973724D01*
X114012632Y-96903720D01*
X114012632Y-95969690D01*
X114041628Y-95899686D01*
X114111632Y-95870690D01*
X114181634Y-95899685D01*
X114329631Y-96047682D01*
X114329634Y-96047684D01*
X114437937Y-96120049D01*
X114437938Y-96120050D01*
X114437940Y-96120051D01*
X114608839Y-96154045D01*
X114779738Y-96120051D01*
X114888047Y-96047682D01*
X115284932Y-95650797D01*
X115357301Y-95542488D01*
X115391295Y-95371589D01*
X115357301Y-95200690D01*
X115342648Y-95178760D01*
X115334239Y-95166175D01*
X115319456Y-95091859D01*
X115346551Y-95041169D01*
X116205006Y-94182716D01*
X116275009Y-94153720D01*
X116728024Y-94153720D01*
X116728025Y-94153720D01*
X117050500Y-93831245D01*
X117050500Y-93375195D01*
X116728025Y-93052720D01*
X116271975Y-93052720D01*
X115949500Y-93375195D01*
X115949500Y-93375196D01*
X115949500Y-93547270D01*
X115920504Y-93617274D01*
X114921579Y-94616198D01*
X114851575Y-94645194D01*
X114796574Y-94628510D01*
X114762062Y-94605450D01*
X114762061Y-94605449D01*
X114591161Y-94571455D01*
X114420260Y-94605449D01*
X114420259Y-94605450D01*
X114311953Y-94677817D01*
X114181635Y-94808135D01*
X114111632Y-94837131D01*
X114041628Y-94808134D01*
X114012632Y-94738131D01*
X114012632Y-94506567D01*
X114041628Y-94436563D01*
X114895475Y-93582716D01*
X114965479Y-93553720D01*
X115278024Y-93553720D01*
X115278025Y-93553720D01*
X115600500Y-93231245D01*
X115600500Y-92775195D01*
X115498029Y-92672724D01*
X115379496Y-92554190D01*
X115350500Y-92484187D01*
X115350500Y-91575195D01*
X116949500Y-91575195D01*
X116949500Y-92031245D01*
X117271975Y-92353720D01*
X117271976Y-92353720D01*
X117728024Y-92353720D01*
X117728025Y-92353720D01*
X118050500Y-92031245D01*
X118050500Y-91575195D01*
X117728025Y-91252720D01*
X117271975Y-91252720D01*
X116949500Y-91575195D01*
X115350500Y-91575195D01*
X115350500Y-90272252D01*
X115379495Y-90202249D01*
X115600500Y-89981245D01*
X115600500Y-89525195D01*
X115278025Y-89202720D01*
X114821975Y-89202720D01*
X114499500Y-89525195D01*
X114499500Y-89981245D01*
X114720504Y-90202249D01*
X114749500Y-90272252D01*
X114749500Y-91304872D01*
X114720504Y-91374876D01*
X114650500Y-91403872D01*
X114644705Y-91402720D01*
X114628025Y-91402720D01*
X114171975Y-91402720D01*
X113849500Y-91725195D01*
X113849500Y-91725196D01*
X113849500Y-92181244D01*
X113852744Y-92189077D01*
X113852742Y-92264848D01*
X113831283Y-92296965D01*
X113541089Y-92587159D01*
X113471085Y-92616155D01*
X113401081Y-92587159D01*
X113378816Y-92553036D01*
X113370811Y-92532451D01*
X113250317Y-92406581D01*
X113090826Y-92336403D01*
X113090825Y-92336402D01*
X113090824Y-92336402D01*
X112960607Y-92333561D01*
X112960598Y-92333562D01*
X112960597Y-92333562D01*
X112960596Y-92333562D01*
X112765447Y-92367972D01*
X112407840Y-92431027D01*
X112285381Y-92478649D01*
X112209628Y-92476996D01*
X112157231Y-92422261D01*
X112150500Y-92386380D01*
X112150500Y-92086118D01*
X112179496Y-92016114D01*
X112249500Y-91987118D01*
X112251660Y-91987142D01*
X112329862Y-91988848D01*
X112329863Y-91988847D01*
X112329874Y-91988848D01*
X112882627Y-91891383D01*
X113004033Y-91844171D01*
X113129902Y-91723676D01*
X113200080Y-91564186D01*
X113202922Y-91433955D01*
X113101115Y-90856582D01*
X113053903Y-90735177D01*
X112933409Y-90609307D01*
X112773918Y-90539129D01*
X112773917Y-90539128D01*
X112773916Y-90539128D01*
X112643699Y-90536287D01*
X112643690Y-90536288D01*
X112643689Y-90536288D01*
X112643688Y-90536288D01*
X112442720Y-90571724D01*
X112090932Y-90633753D01*
X111969530Y-90680964D01*
X111969529Y-90680964D01*
X111843659Y-90801459D01*
X111773481Y-90960952D01*
X111770639Y-91091171D01*
X111770640Y-91091185D01*
X111831025Y-91433649D01*
X111829067Y-91442480D01*
X111832529Y-91450838D01*
X111821093Y-91478447D01*
X111814625Y-91507624D01*
X111803534Y-91520842D01*
X111750656Y-91573722D01*
X111680653Y-91602720D01*
X111371975Y-91602720D01*
X111049500Y-91925195D01*
X110104970Y-91925195D01*
X110104970Y-89231237D01*
X111770639Y-89231237D01*
X111773481Y-89361457D01*
X111843659Y-89520950D01*
X111969529Y-89641445D01*
X112072692Y-89681563D01*
X112090935Y-89688657D01*
X112643688Y-89786122D01*
X112643697Y-89786121D01*
X112643699Y-89786122D01*
X112753882Y-89783718D01*
X112773918Y-89783281D01*
X112933409Y-89713103D01*
X113033618Y-89608422D01*
X113102971Y-89577907D01*
X113173591Y-89605369D01*
X113175089Y-89606834D01*
X113221975Y-89653720D01*
X113221976Y-89653720D01*
X113678024Y-89653720D01*
X113678025Y-89653720D01*
X114000500Y-89331245D01*
X114000500Y-88875195D01*
X113678025Y-88552720D01*
X113221975Y-88552720D01*
X113221974Y-88552720D01*
X113221972Y-88552721D01*
X113221924Y-88552770D01*
X113151919Y-88581764D01*
X113083463Y-88554278D01*
X113081342Y-88552248D01*
X113004033Y-88478239D01*
X113004032Y-88478238D01*
X112882629Y-88431027D01*
X112600298Y-88381245D01*
X112329874Y-88333562D01*
X112329871Y-88333562D01*
X112329862Y-88333561D01*
X112199645Y-88336402D01*
X112040154Y-88406580D01*
X111919659Y-88532450D01*
X111919658Y-88532452D01*
X111872447Y-88653856D01*
X111770640Y-89231223D01*
X111770639Y-89231237D01*
X110104970Y-89231237D01*
X110104970Y-84425789D01*
X110105817Y-84412867D01*
X110113579Y-84353911D01*
X110265104Y-83202951D01*
X110271789Y-83178003D01*
X110335084Y-83025195D01*
X112049500Y-83025195D01*
X112049500Y-83481245D01*
X112282636Y-83714381D01*
X112311632Y-83784384D01*
X112311632Y-86617014D01*
X112284147Y-86685473D01*
X112236567Y-86735176D01*
X112236566Y-86735178D01*
X112189355Y-86856582D01*
X112087548Y-87433949D01*
X112087547Y-87433963D01*
X112090389Y-87564183D01*
X112160567Y-87723676D01*
X112286437Y-87844171D01*
X112344555Y-87866772D01*
X112407843Y-87891383D01*
X112960596Y-87988848D01*
X112960605Y-87988847D01*
X112960607Y-87988848D01*
X113070790Y-87986444D01*
X113090826Y-87986007D01*
X113250317Y-87915829D01*
X113370811Y-87789959D01*
X113418023Y-87668554D01*
X113519830Y-87091181D01*
X113519461Y-87074293D01*
X113516988Y-86960951D01*
X113516988Y-86960949D01*
X113510135Y-86945374D01*
X113501256Y-86925195D01*
X116949500Y-86925195D01*
X116949500Y-87381245D01*
X117271975Y-87703720D01*
X117271976Y-87703720D01*
X117581968Y-87703720D01*
X117651972Y-87732716D01*
X117680968Y-87802720D01*
X117651972Y-87872722D01*
X117649500Y-87875195D01*
X117649500Y-88331245D01*
X117651972Y-88333717D01*
X117680968Y-88403720D01*
X117651972Y-88473724D01*
X117581968Y-88502720D01*
X117321975Y-88502720D01*
X116999500Y-88825195D01*
X116999500Y-89281245D01*
X117321975Y-89603720D01*
X117321976Y-89603720D01*
X117778024Y-89603720D01*
X117778025Y-89603720D01*
X118100500Y-89281245D01*
X118100500Y-88825195D01*
X118098027Y-88822722D01*
X118069032Y-88752720D01*
X118098028Y-88682716D01*
X118168032Y-88653720D01*
X118428024Y-88653720D01*
X118428025Y-88653720D01*
X118750500Y-88331245D01*
X118750500Y-87875195D01*
X118428025Y-87552720D01*
X118118032Y-87552720D01*
X118048028Y-87523724D01*
X118019032Y-87453720D01*
X118048027Y-87383717D01*
X118050500Y-87381245D01*
X118050500Y-86925195D01*
X117728025Y-86602720D01*
X117271975Y-86602720D01*
X116949500Y-86925195D01*
X113501256Y-86925195D01*
X113446810Y-86801459D01*
X113320940Y-86680964D01*
X113199538Y-86633754D01*
X113199537Y-86633753D01*
X113199535Y-86633753D01*
X112994440Y-86597589D01*
X112930536Y-86556877D01*
X112912632Y-86500093D01*
X112912632Y-85725195D01*
X121649500Y-85725195D01*
X121649500Y-86181245D01*
X121971975Y-86503720D01*
X121971976Y-86503720D01*
X122131968Y-86503720D01*
X122201972Y-86532716D01*
X122230968Y-86602720D01*
X122201972Y-86672722D01*
X121949500Y-86925195D01*
X121949500Y-87381245D01*
X122271975Y-87703720D01*
X122271976Y-87703720D01*
X122728024Y-87703720D01*
X122728025Y-87703720D01*
X123050500Y-87381245D01*
X123050500Y-86925195D01*
X122728025Y-86602720D01*
X122568032Y-86602720D01*
X122498028Y-86573724D01*
X122469032Y-86503720D01*
X122498027Y-86433717D01*
X122750500Y-86181245D01*
X122750500Y-85725195D01*
X122428025Y-85402720D01*
X121971975Y-85402720D01*
X121649500Y-85725195D01*
X112912632Y-85725195D01*
X112912632Y-85277838D01*
X112941628Y-85207834D01*
X113011632Y-85178838D01*
X113081634Y-85207833D01*
X113211953Y-85338152D01*
X113211956Y-85338154D01*
X113320259Y-85410519D01*
X113320260Y-85410520D01*
X113320262Y-85410521D01*
X113491161Y-85444515D01*
X113662060Y-85410521D01*
X113770369Y-85338152D01*
X114025805Y-85082716D01*
X114125806Y-84982716D01*
X114195809Y-84953720D01*
X121380967Y-84953720D01*
X121450970Y-84982716D01*
X121588304Y-85120049D01*
X121671975Y-85203720D01*
X122128024Y-85203720D01*
X122128025Y-85203720D01*
X122450500Y-84881245D01*
X122450500Y-84425195D01*
X122128025Y-84102720D01*
X121671975Y-84102720D01*
X121671974Y-84102720D01*
X121450970Y-84323724D01*
X121380967Y-84352720D01*
X114213487Y-84352720D01*
X114143484Y-84323724D01*
X113788046Y-83968287D01*
X113679740Y-83895920D01*
X113679739Y-83895919D01*
X113508839Y-83861925D01*
X113337938Y-83895919D01*
X113337937Y-83895920D01*
X113229631Y-83968287D01*
X113081635Y-84116283D01*
X113011632Y-84145279D01*
X112941628Y-84116282D01*
X112912632Y-84046279D01*
X112912632Y-83760120D01*
X112941627Y-83690117D01*
X113150500Y-83481245D01*
X113150500Y-83371589D01*
X113999175Y-83371589D01*
X114033169Y-83542489D01*
X114033170Y-83542490D01*
X114075238Y-83605450D01*
X114105538Y-83650797D01*
X114502423Y-84047682D01*
X114502426Y-84047684D01*
X114610729Y-84120049D01*
X114610730Y-84120050D01*
X114610732Y-84120051D01*
X114781631Y-84154045D01*
X114952530Y-84120051D01*
X115060839Y-84047682D01*
X115475402Y-83633119D01*
X115547771Y-83524810D01*
X115581765Y-83353911D01*
X115547771Y-83183012D01*
X115547769Y-83183010D01*
X115545868Y-83173449D01*
X115548863Y-83172853D01*
X115548866Y-83109879D01*
X115602447Y-83056302D01*
X115652283Y-83056303D01*
X115652283Y-83053720D01*
X116128025Y-83053720D01*
X116279025Y-82902720D01*
X116349030Y-82832716D01*
X116419033Y-82803720D01*
X116684950Y-82803720D01*
X116750225Y-82828288D01*
X116774664Y-82849720D01*
X116860526Y-82925019D01*
X117025526Y-82981029D01*
X117025528Y-82981028D01*
X117025529Y-82981029D01*
X117074269Y-82977834D01*
X117155509Y-82972510D01*
X117721812Y-82820770D01*
X117838640Y-82763156D01*
X117953529Y-82632150D01*
X118009539Y-82467150D01*
X118008590Y-82452676D01*
X118004523Y-82390623D01*
X118001020Y-82337167D01*
X117855750Y-81795012D01*
X117821300Y-81725156D01*
X117798137Y-81678185D01*
X117798136Y-81678183D01*
X117667130Y-81563295D01*
X117667126Y-81563293D01*
X117502131Y-81507285D01*
X117502126Y-81507284D01*
X117372151Y-81515803D01*
X117372150Y-81515803D01*
X116805843Y-81667544D01*
X116689017Y-81725156D01*
X116689015Y-81725157D01*
X116574127Y-81856163D01*
X116574125Y-81856167D01*
X116518117Y-82021162D01*
X116518116Y-82021167D01*
X116523103Y-82097245D01*
X116521990Y-82100522D01*
X116523315Y-82103720D01*
X116509961Y-82135958D01*
X116498747Y-82168996D01*
X116495643Y-82170526D01*
X116494319Y-82173724D01*
X116462083Y-82187076D01*
X116430790Y-82202508D01*
X116424315Y-82202720D01*
X116419033Y-82202720D01*
X116349029Y-82173724D01*
X116349028Y-82173722D01*
X116128025Y-81952720D01*
X115764479Y-81952720D01*
X115694475Y-81923724D01*
X115665479Y-81853720D01*
X115694475Y-81783716D01*
X116294475Y-81183716D01*
X116364479Y-81154720D01*
X118319359Y-81154720D01*
X118389363Y-81183716D01*
X118418359Y-81253720D01*
X118393791Y-81318995D01*
X118336941Y-81383819D01*
X118336939Y-81383823D01*
X118280931Y-81548818D01*
X118280930Y-81548823D01*
X118289449Y-81678798D01*
X118289449Y-81678801D01*
X118289450Y-81678803D01*
X118408666Y-82123724D01*
X118434720Y-82220958D01*
X118492332Y-82337784D01*
X118492333Y-82337786D01*
X118595465Y-82428229D01*
X118623340Y-82452675D01*
X118788340Y-82508685D01*
X118788342Y-82508684D01*
X118788343Y-82508685D01*
X118837083Y-82505490D01*
X118918323Y-82500166D01*
X119484626Y-82348426D01*
X119601454Y-82290812D01*
X119716343Y-82159806D01*
X119723240Y-82139489D01*
X119738262Y-82122359D01*
X119746982Y-82101309D01*
X119762282Y-82094971D01*
X119773201Y-82082522D01*
X119816986Y-82072313D01*
X119973966Y-82072313D01*
X120043970Y-82101309D01*
X120072966Y-82171313D01*
X120072966Y-82238539D01*
X120395441Y-82561014D01*
X120395442Y-82561014D01*
X120851490Y-82561014D01*
X120851491Y-82561014D01*
X121173966Y-82238539D01*
X121173966Y-81782489D01*
X120851491Y-81460014D01*
X120395441Y-81460014D01*
X120395440Y-81460014D01*
X120386357Y-81463777D01*
X120348471Y-81471313D01*
X119734359Y-81471313D01*
X119713031Y-81462479D01*
X119690006Y-81460822D01*
X119680304Y-81448923D01*
X119664355Y-81442317D01*
X119640411Y-81403535D01*
X119639487Y-81400756D01*
X119618564Y-81322668D01*
X119603144Y-81291400D01*
X119600998Y-81284942D01*
X119603266Y-81253425D01*
X119601200Y-81221897D01*
X119605922Y-81216511D01*
X119606437Y-81209367D01*
X119630325Y-81188686D01*
X119651160Y-81164929D01*
X119660202Y-81162820D01*
X119663724Y-81159772D01*
X119671024Y-81160297D01*
X119694946Y-81154720D01*
X121595524Y-81154720D01*
X121665528Y-81183716D01*
X121694524Y-81253720D01*
X121684315Y-81297506D01*
X121671905Y-81322669D01*
X121526635Y-81864827D01*
X121518116Y-81994802D01*
X121518117Y-81994807D01*
X121574125Y-82159802D01*
X121574127Y-82159806D01*
X121689015Y-82290812D01*
X121689017Y-82290813D01*
X121747430Y-82319619D01*
X121805844Y-82348426D01*
X122372147Y-82500166D01*
X122437138Y-82504425D01*
X122502126Y-82508685D01*
X122502126Y-82508684D01*
X122502130Y-82508685D01*
X122667130Y-82452675D01*
X122798136Y-82337786D01*
X122855750Y-82220958D01*
X122954151Y-81853720D01*
X122973143Y-81782841D01*
X123019270Y-81722727D01*
X123068770Y-81709464D01*
X123328623Y-81709464D01*
X123398627Y-81738460D01*
X123427623Y-81808464D01*
X123424250Y-81834087D01*
X123289449Y-82337170D01*
X123289449Y-82337171D01*
X123280930Y-82467146D01*
X123280931Y-82467151D01*
X123336939Y-82632146D01*
X123336941Y-82632150D01*
X123451829Y-82763156D01*
X123451831Y-82763157D01*
X123485574Y-82779797D01*
X123568658Y-82820770D01*
X124134961Y-82972510D01*
X124199952Y-82976769D01*
X124264940Y-82981029D01*
X124264940Y-82981028D01*
X124264944Y-82981029D01*
X124429944Y-82925019D01*
X124560950Y-82810130D01*
X124618564Y-82693302D01*
X124699667Y-82390623D01*
X124716689Y-82327097D01*
X124762816Y-82266983D01*
X124812316Y-82253720D01*
X127034522Y-82253720D01*
X127104524Y-82282715D01*
X127359928Y-82538120D01*
X128340070Y-82538120D01*
X128340071Y-82538120D01*
X128961075Y-81917116D01*
X129031079Y-81888120D01*
X129730967Y-81888120D01*
X129800970Y-81917116D01*
X129918058Y-82034203D01*
X130021975Y-82138120D01*
X130478024Y-82138120D01*
X130478025Y-82138120D01*
X130800500Y-81815645D01*
X130800500Y-81359595D01*
X130763627Y-81322722D01*
X130734632Y-81252720D01*
X130763628Y-81182716D01*
X130833632Y-81153720D01*
X133591571Y-81153720D01*
X133962576Y-80782716D01*
X134032579Y-80753720D01*
X135880756Y-80753720D01*
X135950760Y-80782716D01*
X135979756Y-80852720D01*
X135950760Y-80922723D01*
X135950759Y-80922724D01*
X135863420Y-81010062D01*
X135793416Y-81039058D01*
X135774642Y-81035958D01*
X135774609Y-81036214D01*
X135764940Y-81034940D01*
X135634965Y-81043459D01*
X135634964Y-81043459D01*
X135068657Y-81195200D01*
X134951831Y-81252812D01*
X134951829Y-81252813D01*
X134836941Y-81383819D01*
X134836939Y-81383823D01*
X134780931Y-81548818D01*
X134780930Y-81548823D01*
X134789449Y-81678798D01*
X134789449Y-81678801D01*
X134789450Y-81678803D01*
X134908666Y-82123724D01*
X134934720Y-82220958D01*
X134992332Y-82337784D01*
X134992333Y-82337786D01*
X135095465Y-82428229D01*
X135123340Y-82452675D01*
X135288340Y-82508685D01*
X135288342Y-82508684D01*
X135288343Y-82508685D01*
X135337083Y-82505490D01*
X135418323Y-82500166D01*
X135984626Y-82348426D01*
X136101454Y-82290812D01*
X136216343Y-82159806D01*
X136272353Y-81994806D01*
X136263834Y-81864823D01*
X136192991Y-81600435D01*
X136202882Y-81525313D01*
X136218611Y-81504813D01*
X136457310Y-81266116D01*
X136527313Y-81237120D01*
X138065809Y-81237120D01*
X138135813Y-81266116D01*
X138164809Y-81336120D01*
X138161436Y-81361742D01*
X138135600Y-81458164D01*
X138026635Y-81864826D01*
X138026635Y-81864827D01*
X138018116Y-81994802D01*
X138018117Y-81994807D01*
X138074125Y-82159802D01*
X138074127Y-82159806D01*
X138189015Y-82290812D01*
X138189017Y-82290813D01*
X138301048Y-82346061D01*
X138305844Y-82348426D01*
X138389951Y-82370962D01*
X138450064Y-82417087D01*
X138463328Y-82466588D01*
X138463328Y-83223913D01*
X138434332Y-83293917D01*
X136454525Y-85273724D01*
X136384521Y-85302720D01*
X136071975Y-85302720D01*
X135749500Y-85625195D01*
X135749500Y-86081245D01*
X136071975Y-86403720D01*
X136071976Y-86403720D01*
X136528024Y-86403720D01*
X136528025Y-86403720D01*
X136850500Y-86081245D01*
X136850500Y-85768698D01*
X136879495Y-85698695D01*
X139064328Y-83513863D01*
X139064328Y-83264921D01*
X139064328Y-82558513D01*
X139093324Y-82488509D01*
X139131502Y-82464768D01*
X139167130Y-82452675D01*
X139298136Y-82337786D01*
X139355750Y-82220958D01*
X139501020Y-81678803D01*
X139508590Y-81563295D01*
X139509539Y-81548823D01*
X139509538Y-81548822D01*
X139509539Y-81548820D01*
X139483229Y-81471313D01*
X139450395Y-81374586D01*
X139452999Y-81373701D01*
X139444678Y-81310498D01*
X139490804Y-81250384D01*
X139540305Y-81237120D01*
X140869701Y-81237120D01*
X140939705Y-81266116D01*
X140968701Y-81336120D01*
X140939706Y-81406121D01*
X140896904Y-81448923D01*
X140783437Y-81562389D01*
X140713433Y-81591385D01*
X140687812Y-81588012D01*
X140519644Y-81542952D01*
X140418323Y-81515804D01*
X140418320Y-81515803D01*
X140418318Y-81515803D01*
X140288343Y-81507284D01*
X140288338Y-81507285D01*
X140123343Y-81563293D01*
X140123339Y-81563295D01*
X139992333Y-81678183D01*
X139992332Y-81678185D01*
X139934720Y-81795011D01*
X139892462Y-81952720D01*
X139800027Y-82297695D01*
X139789449Y-82337171D01*
X139780930Y-82467146D01*
X139780931Y-82467151D01*
X139836939Y-82632146D01*
X139836941Y-82632150D01*
X139951829Y-82763156D01*
X139951831Y-82763157D01*
X139985574Y-82779797D01*
X140068658Y-82820770D01*
X140634961Y-82972510D01*
X140699952Y-82976769D01*
X140764940Y-82981029D01*
X140764940Y-82981028D01*
X140764944Y-82981029D01*
X140929944Y-82925019D01*
X141060950Y-82810130D01*
X141118564Y-82693302D01*
X141263834Y-82151147D01*
X141270821Y-82044543D01*
X141272353Y-82021167D01*
X141272352Y-82021166D01*
X141272353Y-82021164D01*
X141267369Y-82006481D01*
X141272325Y-81930873D01*
X141291109Y-81904660D01*
X141513054Y-81682716D01*
X141583057Y-81653720D01*
X141934521Y-81653720D01*
X142004525Y-81682716D01*
X142799100Y-82477292D01*
X142828096Y-82547296D01*
X142799100Y-82617300D01*
X142784098Y-82629611D01*
X142711957Y-82677814D01*
X142315065Y-83074706D01*
X142242700Y-83183009D01*
X142242699Y-83183010D01*
X142208705Y-83353911D01*
X142242699Y-83524811D01*
X142242700Y-83524812D01*
X142296580Y-83605450D01*
X142315068Y-83633119D01*
X142670504Y-83988555D01*
X142699500Y-84058558D01*
X142699500Y-84087741D01*
X142670504Y-84157745D01*
X141554525Y-85273724D01*
X141484521Y-85302720D01*
X141171975Y-85302720D01*
X140849500Y-85625195D01*
X140849500Y-86081245D01*
X141171975Y-86403720D01*
X141171976Y-86403720D01*
X141628024Y-86403720D01*
X141628025Y-86403720D01*
X141950500Y-86081245D01*
X141950500Y-85768698D01*
X141979495Y-85698695D01*
X143300500Y-84377691D01*
X143300500Y-84128748D01*
X143300500Y-84076236D01*
X143329495Y-84006233D01*
X143684932Y-83650797D01*
X143733137Y-83578651D01*
X143796138Y-83536555D01*
X143870454Y-83551337D01*
X143885457Y-83563649D01*
X144089570Y-83767762D01*
X144118566Y-83837766D01*
X144089570Y-83907770D01*
X144074568Y-83920081D01*
X144002427Y-83968284D01*
X143605535Y-84365176D01*
X143533170Y-84473479D01*
X143533169Y-84473480D01*
X143499175Y-84644381D01*
X143533169Y-84815281D01*
X143533170Y-84815282D01*
X143594107Y-84906481D01*
X143605538Y-84923589D01*
X144020101Y-85338152D01*
X144020104Y-85338154D01*
X144128407Y-85410519D01*
X144128408Y-85410520D01*
X144128410Y-85410521D01*
X144299309Y-85444515D01*
X144470208Y-85410521D01*
X144578517Y-85338152D01*
X144763949Y-85152720D01*
X144833954Y-85082716D01*
X144903957Y-85053720D01*
X146531650Y-85053720D01*
X146601654Y-85082716D01*
X146630650Y-85152720D01*
X146601654Y-85222724D01*
X145314900Y-86509476D01*
X145244896Y-86538472D01*
X145242737Y-86538448D01*
X145143699Y-86536287D01*
X145143690Y-86536288D01*
X145143689Y-86536288D01*
X145143688Y-86536288D01*
X144931377Y-86573724D01*
X144590932Y-86633753D01*
X144469530Y-86680964D01*
X144469529Y-86680964D01*
X144343659Y-86801459D01*
X144273481Y-86960952D01*
X144270639Y-87091172D01*
X144270640Y-87091186D01*
X144320031Y-87371289D01*
X144355549Y-87572724D01*
X144357984Y-87586529D01*
X144341584Y-87660504D01*
X144277679Y-87701216D01*
X144260488Y-87702720D01*
X143871975Y-87702720D01*
X143549500Y-88025195D01*
X143549500Y-88481245D01*
X143871975Y-88803720D01*
X143871976Y-88803720D01*
X144328025Y-88803720D01*
X144399029Y-88732716D01*
X144469033Y-88703720D01*
X144484522Y-88703720D01*
X144554523Y-88732714D01*
X144554532Y-88732723D01*
X144560279Y-88738471D01*
X144589269Y-88808477D01*
X144589245Y-88810627D01*
X144587547Y-88888443D01*
X144587548Y-88888452D01*
X144587548Y-88888455D01*
X144672121Y-89368087D01*
X144684189Y-89436529D01*
X144667789Y-89510504D01*
X144603884Y-89551216D01*
X144586693Y-89552720D01*
X144521975Y-89552720D01*
X144199500Y-89875195D01*
X144199500Y-90331245D01*
X144521975Y-90653720D01*
X144623523Y-90653720D01*
X144693527Y-90682716D01*
X144722523Y-90752720D01*
X144715792Y-90788597D01*
X144689355Y-90856582D01*
X144689355Y-90856583D01*
X144587548Y-91433949D01*
X144587547Y-91433963D01*
X144590389Y-91564183D01*
X144590389Y-91564185D01*
X144590390Y-91564186D01*
X144599631Y-91585187D01*
X144660567Y-91723676D01*
X144727490Y-91787741D01*
X144786437Y-91844171D01*
X144907843Y-91891383D01*
X145460596Y-91988848D01*
X145460603Y-91988847D01*
X145460605Y-91988848D01*
X145480774Y-91988407D01*
X145499093Y-91988008D01*
X145569713Y-92015469D01*
X145600231Y-92084822D01*
X145572770Y-92155442D01*
X145571259Y-92156988D01*
X145346464Y-92381783D01*
X145276460Y-92410779D01*
X145259269Y-92409275D01*
X144957217Y-92356016D01*
X144829874Y-92333562D01*
X144829872Y-92333562D01*
X144829862Y-92333561D01*
X144699645Y-92336402D01*
X144540154Y-92406580D01*
X144419659Y-92532450D01*
X144419658Y-92532452D01*
X144372447Y-92653856D01*
X144270640Y-93231223D01*
X144270639Y-93231237D01*
X144273481Y-93361457D01*
X144343659Y-93520950D01*
X144371154Y-93547270D01*
X144377891Y-93553720D01*
X144377902Y-93553730D01*
X144408418Y-93623085D01*
X144380956Y-93693704D01*
X144379446Y-93695247D01*
X144199500Y-93875194D01*
X144199500Y-93875195D01*
X144199500Y-94331245D01*
X144521975Y-94653720D01*
X144521976Y-94653720D01*
X144978024Y-94653720D01*
X144978025Y-94653720D01*
X145300500Y-94331245D01*
X145300500Y-93875195D01*
X145300500Y-93855503D01*
X145301267Y-93855503D01*
X145301267Y-93840171D01*
X145300462Y-93803280D01*
X145301267Y-93802439D01*
X145301267Y-93801275D01*
X145352857Y-93748546D01*
X145410630Y-93723125D01*
X145486381Y-93721473D01*
X145541116Y-93773870D01*
X145549500Y-93813742D01*
X145549500Y-93931245D01*
X145770504Y-94152249D01*
X145799500Y-94222252D01*
X145799500Y-97166756D01*
X145799500Y-97415698D01*
X145883497Y-97499695D01*
X145912493Y-97569698D01*
X145912493Y-97738741D01*
X145883497Y-97808745D01*
X145883495Y-97808745D01*
X145849500Y-97842741D01*
X145849500Y-99534187D01*
X145820504Y-99604190D01*
X145599500Y-99825194D01*
X145599500Y-99825195D01*
X145599500Y-100281245D01*
X145820504Y-100502249D01*
X145849500Y-100572252D01*
X145849500Y-102334187D01*
X145820504Y-102404190D01*
X145599500Y-102625194D01*
X145599500Y-102625195D01*
X145599500Y-103081245D01*
X145921975Y-103403720D01*
X145921976Y-103403720D01*
X146378024Y-103403720D01*
X146378025Y-103403720D01*
X146700500Y-103081245D01*
X146700500Y-102625195D01*
X146597075Y-102521770D01*
X146479496Y-102404190D01*
X146450500Y-102334187D01*
X146450500Y-101025195D01*
X146949500Y-101025195D01*
X146949500Y-101481245D01*
X147271975Y-101803720D01*
X147271976Y-101803720D01*
X147728024Y-101803720D01*
X147728025Y-101803720D01*
X148050500Y-101481245D01*
X148050500Y-101025195D01*
X147728025Y-100702720D01*
X147271975Y-100702720D01*
X146949500Y-101025195D01*
X146450500Y-101025195D01*
X146450500Y-100572252D01*
X146479495Y-100502249D01*
X146700500Y-100281245D01*
X146700500Y-99825195D01*
X146594004Y-99718699D01*
X146479496Y-99604190D01*
X146450500Y-99534187D01*
X146450500Y-98303720D01*
X146479496Y-98233716D01*
X146549500Y-98204720D01*
X146691017Y-98204720D01*
X146691018Y-98204720D01*
X147013493Y-97882245D01*
X147013493Y-97426195D01*
X146691018Y-97103720D01*
X146691017Y-97103720D01*
X146499500Y-97103720D01*
X146429496Y-97074724D01*
X146400500Y-97004720D01*
X146400500Y-96867405D01*
X146429496Y-96797401D01*
X146499500Y-96768405D01*
X146569504Y-96797401D01*
X146581813Y-96812401D01*
X146605448Y-96847772D01*
X146671769Y-96892087D01*
X146716231Y-96900931D01*
X146730241Y-96903718D01*
X146730246Y-96903718D01*
X146730252Y-96903720D01*
X146730253Y-96903720D01*
X148181968Y-96903720D01*
X148251972Y-96932716D01*
X148280968Y-97002720D01*
X148251972Y-97072722D01*
X148049500Y-97275195D01*
X148049500Y-97731245D01*
X148371975Y-98053720D01*
X148684521Y-98053720D01*
X148754525Y-98082716D01*
X149325529Y-98653720D01*
X151230968Y-98653720D01*
X151300970Y-98682715D01*
X151621975Y-99003720D01*
X151621976Y-99003720D01*
X152078024Y-99003720D01*
X152078025Y-99003720D01*
X152400500Y-98681245D01*
X152400500Y-98225195D01*
X152398027Y-98222722D01*
X152369032Y-98152720D01*
X152398028Y-98082716D01*
X152468032Y-98053720D01*
X152778024Y-98053720D01*
X152778025Y-98053720D01*
X153100500Y-97731245D01*
X153100500Y-97275195D01*
X153021750Y-97196445D01*
X152992755Y-97126443D01*
X153021750Y-97056440D01*
X153651500Y-96426691D01*
X153651500Y-96177749D01*
X153651500Y-93579747D01*
X153574316Y-93502563D01*
X153475471Y-93403717D01*
X153475471Y-93403718D01*
X153379497Y-93307744D01*
X153350501Y-93237740D01*
X153350501Y-92925195D01*
X153350501Y-92925194D01*
X153028026Y-92602719D01*
X153028025Y-92602719D01*
X152750500Y-92602719D01*
X152680496Y-92573723D01*
X152651500Y-92503719D01*
X152651500Y-91825195D01*
X154049500Y-91825195D01*
X154049500Y-92281245D01*
X154371975Y-92603720D01*
X154371976Y-92603720D01*
X154828024Y-92603720D01*
X154828025Y-92603720D01*
X155150500Y-92281245D01*
X155150500Y-91875195D01*
X156849500Y-91875195D01*
X156849500Y-92331245D01*
X157171975Y-92653720D01*
X157171976Y-92653720D01*
X157628024Y-92653720D01*
X157628025Y-92653720D01*
X157950500Y-92331245D01*
X157950500Y-91875195D01*
X157628025Y-91552720D01*
X157171975Y-91552720D01*
X156849500Y-91875195D01*
X155150500Y-91875195D01*
X155150500Y-91825195D01*
X154828025Y-91502720D01*
X154371975Y-91502720D01*
X154049500Y-91825195D01*
X152651500Y-91825195D01*
X152651500Y-90875195D01*
X153049500Y-90875195D01*
X153049500Y-91331245D01*
X153371975Y-91653720D01*
X153371976Y-91653720D01*
X153828024Y-91653720D01*
X153828025Y-91653720D01*
X154150500Y-91331245D01*
X154150500Y-90875195D01*
X153828025Y-90552720D01*
X153371975Y-90552720D01*
X153049500Y-90875195D01*
X152651500Y-90875195D01*
X152651500Y-88671252D01*
X152680495Y-88601249D01*
X152786447Y-88495297D01*
X152856450Y-88466302D01*
X152926454Y-88495298D01*
X152947914Y-88527416D01*
X152949499Y-88531243D01*
X152949500Y-88531244D01*
X152949500Y-88531245D01*
X153271975Y-88853720D01*
X153271976Y-88853720D01*
X153728024Y-88853720D01*
X153728025Y-88853720D01*
X154050500Y-88531245D01*
X154050500Y-88075195D01*
X153728025Y-87752720D01*
X153271975Y-87752720D01*
X153271974Y-87752720D01*
X153013552Y-88011142D01*
X152943549Y-88040138D01*
X152873545Y-88011141D01*
X152852084Y-87979021D01*
X152850500Y-87975197D01*
X152850500Y-87975195D01*
X152528025Y-87652720D01*
X152071975Y-87652720D01*
X151749500Y-87975195D01*
X151749500Y-88431245D01*
X152021504Y-88703249D01*
X152050500Y-88773252D01*
X152050500Y-91103720D01*
X152021504Y-91173724D01*
X151951500Y-91202720D01*
X150618032Y-91202720D01*
X150548028Y-91173724D01*
X150519032Y-91103720D01*
X150548027Y-91033717D01*
X150550500Y-91031245D01*
X150550500Y-90575195D01*
X150446258Y-90470953D01*
X150329496Y-90354190D01*
X150300500Y-90284187D01*
X150300500Y-88622252D01*
X150329495Y-88552249D01*
X150550500Y-88331245D01*
X150550500Y-87875195D01*
X150228025Y-87552720D01*
X149771975Y-87552720D01*
X149449500Y-87875195D01*
X149449500Y-88331245D01*
X149670504Y-88552249D01*
X149699500Y-88622252D01*
X149699500Y-90284187D01*
X149670504Y-90354191D01*
X149550971Y-90473724D01*
X149480967Y-90502720D01*
X146623528Y-90502720D01*
X146164638Y-90961609D01*
X146094635Y-90990605D01*
X146024631Y-90961608D01*
X146004019Y-90931477D01*
X145998127Y-90918087D01*
X145946810Y-90801460D01*
X145946810Y-90801459D01*
X145873462Y-90731244D01*
X145831334Y-90690914D01*
X145831027Y-90690218D01*
X145830322Y-90689932D01*
X145815813Y-90655638D01*
X145800819Y-90621561D01*
X145801095Y-90620851D01*
X145800798Y-90620149D01*
X145811961Y-90592908D01*
X145828281Y-90550942D01*
X145829265Y-90549929D01*
X145829485Y-90549705D01*
X145880846Y-90498345D01*
X145880846Y-90497563D01*
X145894950Y-90483245D01*
X145895188Y-90483143D01*
X145895475Y-90482716D01*
X146500500Y-89877691D01*
X146500500Y-89628749D01*
X146500500Y-87982203D01*
X146706508Y-87982203D01*
X146706508Y-88438253D01*
X147028983Y-88760728D01*
X147028984Y-88760728D01*
X147485032Y-88760728D01*
X147485033Y-88760728D01*
X147807508Y-88438253D01*
X147807508Y-87982203D01*
X147750500Y-87925195D01*
X147692078Y-87866772D01*
X147663082Y-87796769D01*
X147692079Y-87726765D01*
X147724199Y-87705304D01*
X147728022Y-87703720D01*
X147728025Y-87703720D01*
X148050500Y-87381245D01*
X148050500Y-87225195D01*
X154049500Y-87225195D01*
X154049500Y-87681245D01*
X154371975Y-88003720D01*
X154371976Y-88003720D01*
X154828024Y-88003720D01*
X154828025Y-88003720D01*
X155150500Y-87681245D01*
X155150500Y-87225195D01*
X155050500Y-87125195D01*
X158449500Y-87125195D01*
X158449500Y-87581245D01*
X158771975Y-87903720D01*
X158771976Y-87903720D01*
X159228024Y-87903720D01*
X159228025Y-87903720D01*
X159550500Y-87581245D01*
X159550500Y-87125195D01*
X159510120Y-87084815D01*
X160089880Y-87084815D01*
X160089880Y-87540865D01*
X160412355Y-87863340D01*
X160412356Y-87863340D01*
X160868404Y-87863340D01*
X160868405Y-87863340D01*
X161190880Y-87540865D01*
X161190880Y-87084815D01*
X160868405Y-86762340D01*
X160412355Y-86762340D01*
X160089880Y-87084815D01*
X159510120Y-87084815D01*
X159228025Y-86802720D01*
X158771975Y-86802720D01*
X158449500Y-87125195D01*
X155050500Y-87125195D01*
X154828025Y-86902720D01*
X154371975Y-86902720D01*
X154049500Y-87225195D01*
X148050500Y-87225195D01*
X148050500Y-86925195D01*
X147728025Y-86602720D01*
X147271975Y-86602720D01*
X146949500Y-86925195D01*
X146949500Y-86925196D01*
X146949500Y-87381245D01*
X147064929Y-87496675D01*
X147093925Y-87566678D01*
X147064928Y-87636682D01*
X147032813Y-87658141D01*
X147028985Y-87659726D01*
X147028983Y-87659728D01*
X146706508Y-87982203D01*
X146500500Y-87982203D01*
X146500500Y-86818699D01*
X146529496Y-86748695D01*
X147394475Y-85883716D01*
X147464479Y-85854720D01*
X160635521Y-85854720D01*
X160705525Y-85883716D01*
X162220504Y-87398695D01*
X162249500Y-87468699D01*
X162249500Y-87481245D01*
X162571975Y-87803720D01*
X162585521Y-87803720D01*
X162655525Y-87832716D01*
X162684521Y-87902720D01*
X162655525Y-87972724D01*
X161904525Y-88723724D01*
X161834521Y-88752720D01*
X159703817Y-88752720D01*
X159454875Y-88752720D01*
X159107624Y-89099971D01*
X158769504Y-89438091D01*
X158699500Y-89467087D01*
X158629496Y-89438091D01*
X158600500Y-89368087D01*
X158600500Y-89125196D01*
X158600500Y-89125195D01*
X158278025Y-88802720D01*
X157821975Y-88802720D01*
X157499500Y-89125195D01*
X157499500Y-89581245D01*
X157601972Y-89683717D01*
X157630968Y-89753720D01*
X157601972Y-89823724D01*
X157531968Y-89852720D01*
X157119033Y-89852720D01*
X157049030Y-89823724D01*
X156828025Y-89602720D01*
X156371975Y-89602720D01*
X156049500Y-89925195D01*
X156049500Y-90381245D01*
X156371975Y-90703720D01*
X156371976Y-90703720D01*
X156828025Y-90703720D01*
X156992617Y-90539128D01*
X157049030Y-90482716D01*
X157119033Y-90453720D01*
X158350500Y-90453720D01*
X158420504Y-90482716D01*
X158449500Y-90552720D01*
X158449500Y-90781245D01*
X158771975Y-91103720D01*
X158771976Y-91103720D01*
X159228024Y-91103720D01*
X159228025Y-91103720D01*
X159380497Y-90951247D01*
X159450500Y-90922252D01*
X159520504Y-90951248D01*
X159549500Y-91021252D01*
X159549500Y-91585187D01*
X159520504Y-91655191D01*
X159450500Y-91684187D01*
X159380497Y-91655191D01*
X159228025Y-91502720D01*
X158771975Y-91502720D01*
X158449500Y-91825195D01*
X158449500Y-92281245D01*
X158771975Y-92603720D01*
X158771976Y-92603720D01*
X159228024Y-92603720D01*
X159228025Y-92603720D01*
X159380497Y-92451247D01*
X159450500Y-92422252D01*
X159520504Y-92451248D01*
X159549500Y-92521252D01*
X159549500Y-94785187D01*
X159520504Y-94855191D01*
X159450500Y-94884187D01*
X159380497Y-94855191D01*
X159228025Y-94702720D01*
X158814174Y-94702720D01*
X158744170Y-94673724D01*
X158715174Y-94603720D01*
X158715174Y-94239870D01*
X158715174Y-94239869D01*
X158392699Y-93917394D01*
X157936649Y-93917394D01*
X157614174Y-94239869D01*
X157614174Y-94239870D01*
X157614174Y-94552415D01*
X157585178Y-94622419D01*
X155335137Y-96872460D01*
X155265133Y-96901456D01*
X155195129Y-96872460D01*
X155166133Y-96802456D01*
X155166133Y-96609563D01*
X155166133Y-96609562D01*
X154843658Y-96287087D01*
X154387608Y-96287087D01*
X154065133Y-96609562D01*
X154065133Y-97065612D01*
X154387608Y-97388087D01*
X154580502Y-97388087D01*
X154650506Y-97417083D01*
X154679502Y-97487087D01*
X154650506Y-97557091D01*
X149933873Y-102273724D01*
X149863869Y-102302720D01*
X149571975Y-102302720D01*
X149249500Y-102625195D01*
X149249500Y-103081245D01*
X149571975Y-103403720D01*
X149571976Y-103403720D01*
X150028024Y-103403720D01*
X150028025Y-103403720D01*
X150350500Y-103081245D01*
X150350500Y-102748047D01*
X150379496Y-102678044D01*
X150535768Y-102521771D01*
X150605772Y-102492774D01*
X150675775Y-102521770D01*
X150704772Y-102591774D01*
X150699500Y-102618278D01*
X150699500Y-102624195D01*
X150699500Y-103080245D01*
X151021975Y-103402720D01*
X151021976Y-103402720D01*
X151478024Y-103402720D01*
X151478025Y-103402720D01*
X151754497Y-103126247D01*
X151824500Y-103097252D01*
X151894502Y-103126247D01*
X152171975Y-103403720D01*
X152171976Y-103403720D01*
X152628024Y-103403720D01*
X152628025Y-103403720D01*
X152950500Y-103081245D01*
X152950500Y-102625195D01*
X152628025Y-102302720D01*
X152171975Y-102302720D01*
X152171974Y-102302720D01*
X151895503Y-102579191D01*
X151825500Y-102608187D01*
X151755496Y-102579191D01*
X151579496Y-102403191D01*
X151550500Y-102333187D01*
X151550500Y-102268699D01*
X151579496Y-102198695D01*
X152054467Y-101723724D01*
X152452995Y-101325195D01*
X154049500Y-101325195D01*
X154049500Y-101781245D01*
X154371975Y-102103720D01*
X154371976Y-102103720D01*
X154828024Y-102103720D01*
X154828025Y-102103720D01*
X155150500Y-101781245D01*
X155150500Y-101325195D01*
X155050500Y-101225195D01*
X158449500Y-101225195D01*
X158449500Y-101681245D01*
X158771975Y-102003720D01*
X158771976Y-102003720D01*
X159228024Y-102003720D01*
X159228025Y-102003720D01*
X159550500Y-101681245D01*
X159550500Y-101225195D01*
X159228025Y-100902720D01*
X158771975Y-100902720D01*
X158449500Y-101225195D01*
X155050500Y-101225195D01*
X154828025Y-101002720D01*
X154371975Y-101002720D01*
X154049500Y-101325195D01*
X152452995Y-101325195D01*
X152722167Y-101056023D01*
X152792170Y-101027028D01*
X152862172Y-101056023D01*
X152990922Y-101184773D01*
X152990923Y-101184773D01*
X153446971Y-101184773D01*
X153446972Y-101184773D01*
X153769447Y-100862298D01*
X153769447Y-100406248D01*
X153446972Y-100083773D01*
X153212774Y-100083773D01*
X153142770Y-100054777D01*
X153113774Y-99984773D01*
X153142770Y-99914769D01*
X153982344Y-99075195D01*
X154949500Y-99075195D01*
X154949500Y-99531245D01*
X155271975Y-99853720D01*
X155271976Y-99853720D01*
X155728024Y-99853720D01*
X155728025Y-99853720D01*
X156050500Y-99531245D01*
X156050500Y-99075195D01*
X155728025Y-98752720D01*
X155271975Y-98752720D01*
X154949500Y-99075195D01*
X153982344Y-99075195D01*
X158010149Y-95047390D01*
X158080153Y-95018394D01*
X158350500Y-95018394D01*
X158420504Y-95047390D01*
X158449500Y-95117394D01*
X158449500Y-95481245D01*
X158771975Y-95803720D01*
X158771976Y-95803720D01*
X159228024Y-95803720D01*
X159228025Y-95803720D01*
X159380497Y-95651247D01*
X159450500Y-95622252D01*
X159520504Y-95651248D01*
X159549500Y-95721252D01*
X159549500Y-96285187D01*
X159520504Y-96355191D01*
X159450500Y-96384187D01*
X159380497Y-96355191D01*
X159228025Y-96202720D01*
X158771975Y-96202720D01*
X158449500Y-96525195D01*
X158449500Y-96981245D01*
X158771975Y-97303720D01*
X158771976Y-97303720D01*
X159228024Y-97303720D01*
X159228025Y-97303720D01*
X159380497Y-97151247D01*
X159450500Y-97122252D01*
X159520504Y-97151248D01*
X159549500Y-97221252D01*
X159549500Y-99385187D01*
X159520504Y-99455191D01*
X159450500Y-99484187D01*
X159380497Y-99455191D01*
X159228025Y-99302720D01*
X158771975Y-99302720D01*
X158449500Y-99625195D01*
X158449500Y-100081245D01*
X158771975Y-100403720D01*
X158771976Y-100403720D01*
X159228024Y-100403720D01*
X159228025Y-100403720D01*
X159380497Y-100251247D01*
X159450500Y-100222252D01*
X159520504Y-100251248D01*
X159549500Y-100321252D01*
X159549500Y-100527691D01*
X160820504Y-101798695D01*
X160849500Y-101868698D01*
X160849500Y-102181245D01*
X161171975Y-102503720D01*
X161171976Y-102503720D01*
X161628024Y-102503720D01*
X161628025Y-102503720D01*
X161950500Y-102181245D01*
X161950500Y-101725195D01*
X161628025Y-101402720D01*
X161628024Y-101402720D01*
X161315479Y-101402720D01*
X161245475Y-101373724D01*
X160844475Y-100972724D01*
X160815479Y-100902720D01*
X160844475Y-100832716D01*
X160914479Y-100803720D01*
X161228024Y-100803720D01*
X161228025Y-100803720D01*
X161550500Y-100481245D01*
X161550500Y-100025195D01*
X161228025Y-99702720D01*
X160771975Y-99702720D01*
X160449500Y-100025195D01*
X160449500Y-100025196D01*
X160449500Y-100338741D01*
X160420504Y-100408745D01*
X160350500Y-100437741D01*
X160280496Y-100408745D01*
X160179496Y-100307745D01*
X160150500Y-100237741D01*
X160150500Y-98067699D01*
X160179496Y-97997695D01*
X160249500Y-97968699D01*
X160319504Y-97997695D01*
X161970504Y-99648695D01*
X161999500Y-99718699D01*
X161999500Y-101178749D01*
X161999500Y-101427691D01*
X162720504Y-102148695D01*
X162749500Y-102218698D01*
X162749500Y-102531245D01*
X163071975Y-102853720D01*
X163071976Y-102853720D01*
X163528024Y-102853720D01*
X163528025Y-102853720D01*
X163850500Y-102531245D01*
X163850500Y-102075195D01*
X163528025Y-101752720D01*
X163528024Y-101752720D01*
X163215479Y-101752720D01*
X163145475Y-101723724D01*
X162629496Y-101207745D01*
X162600500Y-101137741D01*
X162600500Y-99428748D01*
X160793476Y-97621724D01*
X160764480Y-97551720D01*
X160793476Y-97481716D01*
X160863480Y-97452720D01*
X161328024Y-97452720D01*
X161328025Y-97452720D01*
X161650500Y-97130245D01*
X161650500Y-96674195D01*
X161650499Y-96674194D01*
X161646244Y-96663921D01*
X161646245Y-96588149D01*
X161699824Y-96534571D01*
X161737709Y-96527036D01*
X162135357Y-96527036D01*
X162135358Y-96527036D01*
X162457833Y-96204561D01*
X162457833Y-95748511D01*
X162262543Y-95553221D01*
X163430000Y-95553221D01*
X163430000Y-96572920D01*
X163441603Y-96631256D01*
X163485806Y-96697409D01*
X163485810Y-96697413D01*
X163551963Y-96741616D01*
X163610299Y-96753219D01*
X163610303Y-96753220D01*
X164629999Y-96753220D01*
X164630000Y-96753219D01*
X164630000Y-95553221D01*
X164629999Y-95553220D01*
X163430001Y-95553220D01*
X163430000Y-95553221D01*
X162262543Y-95553221D01*
X162135358Y-95426036D01*
X161679308Y-95426036D01*
X161356833Y-95748511D01*
X161356833Y-96204561D01*
X161356834Y-96204562D01*
X161361089Y-96214835D01*
X161361088Y-96290607D01*
X161307509Y-96344185D01*
X161269624Y-96351720D01*
X160852283Y-96351720D01*
X160852283Y-96345750D01*
X160810594Y-96345742D01*
X160757028Y-96292152D01*
X160749500Y-96254286D01*
X160749500Y-95020252D01*
X160778496Y-94950248D01*
X160848500Y-94921252D01*
X160918502Y-94950247D01*
X161221975Y-95253720D01*
X161221976Y-95253720D01*
X161603083Y-95253720D01*
X161678025Y-95253720D01*
X162000500Y-94931245D01*
X162000500Y-94475195D01*
X161678025Y-94152720D01*
X161221975Y-94152720D01*
X160918502Y-94456192D01*
X160848500Y-94485188D01*
X160778496Y-94456192D01*
X160749500Y-94386188D01*
X160749500Y-91449045D01*
X160778496Y-91379041D01*
X161085285Y-91072252D01*
X161444001Y-90713535D01*
X161514004Y-90684540D01*
X161584008Y-90713536D01*
X161588473Y-90720218D01*
X161751472Y-90883218D01*
X161780468Y-90953221D01*
X161751472Y-91023224D01*
X161599500Y-91175197D01*
X161599500Y-91175198D01*
X161599500Y-91631248D01*
X161876470Y-91908218D01*
X161905466Y-91978221D01*
X161876470Y-92048224D01*
X161568680Y-92356014D01*
X161568680Y-92356015D01*
X161568680Y-92812065D01*
X161891155Y-93134540D01*
X161891156Y-93134540D01*
X162347204Y-93134540D01*
X162347205Y-93134540D01*
X162669680Y-92812065D01*
X162669680Y-92356015D01*
X162392708Y-92079043D01*
X162363713Y-92009041D01*
X162392707Y-91939040D01*
X162700500Y-91631248D01*
X162700500Y-91175198D01*
X162629022Y-91103720D01*
X162548526Y-91023223D01*
X162519530Y-90953220D01*
X162548526Y-90883218D01*
X162700500Y-90731245D01*
X162700500Y-90275195D01*
X162378025Y-89952720D01*
X162378024Y-89952720D01*
X162371751Y-89946447D01*
X162342755Y-89876443D01*
X162371750Y-89806440D01*
X163078220Y-89099970D01*
X163148223Y-89070975D01*
X163218225Y-89099970D01*
X163221975Y-89103720D01*
X163221976Y-89103720D01*
X163678024Y-89103720D01*
X163678025Y-89103720D01*
X164000500Y-88781245D01*
X164000500Y-88781244D01*
X164014424Y-88767320D01*
X164018644Y-88771540D01*
X164048101Y-88742079D01*
X164123873Y-88742073D01*
X164155999Y-88763536D01*
X164305625Y-88913162D01*
X164334621Y-88983166D01*
X164334621Y-89449066D01*
X164305625Y-89519069D01*
X164084621Y-89740073D01*
X164084621Y-89740074D01*
X164084621Y-90196124D01*
X164362091Y-90473594D01*
X164391087Y-90543597D01*
X164362091Y-90613600D01*
X164200500Y-90775192D01*
X164200500Y-91250935D01*
X164194325Y-91250935D01*
X164194328Y-91292098D01*
X164140754Y-91345681D01*
X164102861Y-91353220D01*
X164099500Y-91353220D01*
X164029496Y-91324224D01*
X164000500Y-91254220D01*
X164000500Y-90805485D01*
X164000500Y-90805484D01*
X163678025Y-90483009D01*
X163221975Y-90483009D01*
X162899500Y-90805484D01*
X162899500Y-91261534D01*
X163221975Y-91584009D01*
X163221976Y-91584009D01*
X163331000Y-91584009D01*
X163401004Y-91613005D01*
X163430000Y-91683009D01*
X163430000Y-92553219D01*
X163430001Y-92553220D01*
X164629999Y-92553220D01*
X164630000Y-92553219D01*
X164630000Y-91652718D01*
X164658996Y-91582714D01*
X164729000Y-91553718D01*
X164979024Y-91553718D01*
X164979025Y-91553718D01*
X165301500Y-91231243D01*
X165301500Y-90775193D01*
X165024028Y-90497721D01*
X164995033Y-90427719D01*
X165024028Y-90357716D01*
X165185621Y-90196124D01*
X165185621Y-89740074D01*
X165086992Y-89641445D01*
X164964617Y-89519069D01*
X164935621Y-89449066D01*
X164935621Y-88693216D01*
X164935620Y-88693215D01*
X164759592Y-88517186D01*
X164759592Y-88517187D01*
X164567600Y-88325195D01*
X165299500Y-88325195D01*
X165299500Y-88781245D01*
X165621975Y-89103720D01*
X165621976Y-89103720D01*
X166078024Y-89103720D01*
X166078025Y-89103720D01*
X166400500Y-88781245D01*
X166400500Y-88325195D01*
X166078025Y-88002720D01*
X165621975Y-88002720D01*
X165299500Y-88325195D01*
X164567600Y-88325195D01*
X163844125Y-87601720D01*
X163844124Y-87601720D01*
X163448761Y-87601720D01*
X163378757Y-87572724D01*
X163349761Y-87502720D01*
X163350500Y-87499006D01*
X163350500Y-87025196D01*
X163350500Y-87025195D01*
X163123527Y-86798222D01*
X163094532Y-86728220D01*
X163123527Y-86658217D01*
X163350500Y-86431245D01*
X163350500Y-85975195D01*
X163123527Y-85748222D01*
X163094532Y-85678220D01*
X163123527Y-85608217D01*
X163350500Y-85381245D01*
X163350500Y-84925195D01*
X163028025Y-84602720D01*
X162571975Y-84602720D01*
X162552283Y-84602720D01*
X162552283Y-84602719D01*
X162549500Y-84603872D01*
X162531295Y-84596331D01*
X162511593Y-84596327D01*
X162497680Y-84582408D01*
X162479496Y-84574876D01*
X162471955Y-84556670D01*
X162458027Y-84542736D01*
X162450500Y-84504872D01*
X162450500Y-84501567D01*
X162479496Y-84431563D01*
X162549500Y-84402567D01*
X162555295Y-84403720D01*
X162571975Y-84403720D01*
X163028024Y-84403720D01*
X163028025Y-84403720D01*
X163350500Y-84081245D01*
X163350500Y-83625195D01*
X163028025Y-83302720D01*
X162571975Y-83302720D01*
X162552283Y-83302720D01*
X162552283Y-83302719D01*
X162549500Y-83303872D01*
X162531295Y-83296331D01*
X162511593Y-83296327D01*
X162497680Y-83282408D01*
X162479496Y-83274876D01*
X162471955Y-83256670D01*
X162458027Y-83242736D01*
X162450500Y-83204872D01*
X162450500Y-83101567D01*
X162479496Y-83031563D01*
X162549500Y-83002567D01*
X162555295Y-83003720D01*
X162571975Y-83003720D01*
X163028024Y-83003720D01*
X163028025Y-83003720D01*
X163350500Y-82681245D01*
X163350500Y-82225195D01*
X168549500Y-82225195D01*
X168549500Y-82681245D01*
X168871975Y-83003720D01*
X168871976Y-83003720D01*
X169328024Y-83003720D01*
X169328025Y-83003720D01*
X169650500Y-82681245D01*
X169650500Y-82525195D01*
X174949500Y-82525195D01*
X174949500Y-82981245D01*
X175271975Y-83303720D01*
X175271976Y-83303720D01*
X175728024Y-83303720D01*
X175728025Y-83303720D01*
X176050500Y-82981245D01*
X176050500Y-82525195D01*
X175728025Y-82202720D01*
X175271975Y-82202720D01*
X174949500Y-82525195D01*
X169650500Y-82525195D01*
X169650500Y-82225195D01*
X169328025Y-81902720D01*
X168871975Y-81902720D01*
X168549500Y-82225195D01*
X163350500Y-82225195D01*
X163028025Y-81902720D01*
X162571975Y-81902720D01*
X162571974Y-81902720D01*
X162350970Y-82123724D01*
X162280967Y-82152720D01*
X161075528Y-82152720D01*
X160705524Y-82522724D01*
X160635521Y-82551720D01*
X160634428Y-82551720D01*
X160365424Y-82820724D01*
X160295421Y-82849720D01*
X159810977Y-82849720D01*
X159805950Y-82848720D01*
X159788871Y-82848720D01*
X145762779Y-82848720D01*
X145692775Y-82819724D01*
X145289116Y-82416065D01*
X145260120Y-82346061D01*
X145260120Y-82212632D01*
X145289115Y-82142629D01*
X145510120Y-81921625D01*
X145510120Y-81465575D01*
X145319740Y-81275195D01*
X164149500Y-81275195D01*
X164149500Y-81731245D01*
X164471975Y-82053720D01*
X164471976Y-82053720D01*
X164928024Y-82053720D01*
X164928025Y-82053720D01*
X165250500Y-81731245D01*
X165250500Y-81275195D01*
X164928025Y-80952720D01*
X164471975Y-80952720D01*
X164149500Y-81275195D01*
X145319740Y-81275195D01*
X145187645Y-81143100D01*
X144731595Y-81143100D01*
X144409120Y-81465575D01*
X144409120Y-81465576D01*
X144409120Y-81864160D01*
X144380124Y-81934164D01*
X144310120Y-81963160D01*
X144240116Y-81934164D01*
X143810761Y-81504809D01*
X142458671Y-80152720D01*
X133991571Y-80152720D01*
X133742628Y-80152720D01*
X133742627Y-80152720D01*
X133371626Y-80523723D01*
X133301622Y-80552720D01*
X130058450Y-80552720D01*
X130053423Y-80553720D01*
X116323471Y-80553720D01*
X116074529Y-80553720D01*
X114665999Y-81962250D01*
X114665998Y-81962249D01*
X114489970Y-82138278D01*
X114489970Y-82666941D01*
X114460974Y-82736944D01*
X114105537Y-83092381D01*
X114033170Y-83200687D01*
X114033169Y-83200688D01*
X113999175Y-83371589D01*
X113150500Y-83371589D01*
X113150500Y-83025195D01*
X112828025Y-82702720D01*
X112371975Y-82702720D01*
X112049500Y-83025195D01*
X110335084Y-83025195D01*
X110736294Y-82056582D01*
X110749215Y-82034204D01*
X110759221Y-82021164D01*
X111488132Y-81071225D01*
X111506403Y-81052953D01*
X111506406Y-81052951D01*
X112469384Y-80314025D01*
X112491754Y-80301110D01*
X113613173Y-79836597D01*
X113638122Y-79829911D01*
X114783721Y-79679085D01*
X114796644Y-79678238D01*
X184912072Y-79678238D01*
X184924994Y-79679085D01*
G37*
G04 #@! TD.AperFunction*
M02*
