G04 #@! TF.GenerationSoftware,KiCad,Pcbnew,9.0.5*
G04 #@! TF.CreationDate,2026-06-17T17:35:32-05:00*
G04 #@! TF.ProjectId,keepsake-keychain,6b656570-7361-46b6-952d-6b6579636861,rev?*
G04 #@! TF.SameCoordinates,Original*
G04 #@! TF.FileFunction,Paste,Bot*
G04 #@! TF.FilePolarity,Positive*
%FSLAX46Y46*%
G04 Gerber Fmt 4.6, Leading zero omitted, Abs format (unit mm)*
G04 Created by KiCad (PCBNEW 9.0.5) date 2026-06-17 17:35:32*
%MOMM*%
%LPD*%
G01*
G04 APERTURE LIST*
G04 Aperture macros list*
%AMRoundRect*
0 Rectangle with rounded corners*
0 $1 Rounding radius*
0 $2 $3 $4 $5 $6 $7 $8 $9 X,Y pos of 4 corners*
0 Add a 4 corners polygon primitive as box body*
4,1,4,$2,$3,$4,$5,$6,$7,$8,$9,$2,$3,0*
0 Add four circle primitives for the rounded corners*
1,1,$1+$1,$2,$3*
1,1,$1+$1,$4,$5*
1,1,$1+$1,$6,$7*
1,1,$1+$1,$8,$9*
0 Add four rect primitives between the rounded corners*
20,1,$1+$1,$2,$3,$4,$5,0*
20,1,$1+$1,$4,$5,$6,$7,0*
20,1,$1+$1,$6,$7,$8,$9,0*
20,1,$1+$1,$8,$9,$2,$3,0*%
G04 Aperture macros list end*
%ADD10RoundRect,0.237500X0.190480X-0.287443X0.277304X0.204960X-0.190480X0.287443X-0.277304X-0.204960X0*%
%ADD11RoundRect,0.237500X-0.302951X-0.164703X0.180012X-0.294112X0.302951X0.164703X-0.180012X0.294112X0*%
%ADD12RoundRect,0.237500X-0.344715X0.008839X0.008839X-0.344715X0.344715X-0.008839X-0.008839X0.344715X0*%
%ADD13RoundRect,0.237500X-0.008839X-0.344715X0.344715X0.008839X0.008839X0.344715X-0.344715X-0.008839X0*%
%ADD14RoundRect,0.237500X0.008839X0.344715X-0.344715X-0.008839X-0.008839X-0.344715X0.344715X0.008839X0*%
%ADD15R,5.300000X5.300000*%
%ADD16R,5.000000X5.000000*%
%ADD17RoundRect,0.237500X-0.180012X-0.294112X0.302951X-0.164703X0.180012X0.294112X-0.302951X0.164703X0*%
%ADD18RoundRect,0.237500X0.277304X-0.204960X0.190480X0.287443X-0.277304X0.204960X-0.190480X-0.287443X0*%
%ADD19RoundRect,0.237500X0.180012X0.294112X-0.302951X0.164703X-0.180012X-0.294112X0.302951X-0.164703X0*%
G04 APERTURE END LIST*
D10*
X144986781Y-93059842D03*
X145303689Y-91262568D03*
D11*
X138763828Y-81771813D03*
X140526642Y-82244157D03*
D10*
X112486781Y-89059842D03*
X112803689Y-87262568D03*
D12*
X114600000Y-95362750D03*
X115890470Y-96653220D03*
D13*
X142000000Y-96653220D03*
X143290470Y-95362750D03*
D12*
X126600000Y-105862750D03*
X127890470Y-107153220D03*
D14*
X135290470Y-102362750D03*
X134000000Y-103653220D03*
D12*
X118600000Y-98862750D03*
X119890470Y-100153220D03*
D15*
X149400000Y-94053220D03*
X182860000Y-94053220D03*
D16*
X166130000Y-94053220D03*
D17*
X133763828Y-82244157D03*
X135526642Y-81771813D03*
D14*
X131290470Y-105862750D03*
X130000000Y-107153220D03*
D18*
X112803689Y-93059842D03*
X112486781Y-91262568D03*
D13*
X113500000Y-84653220D03*
X114790470Y-83362750D03*
D14*
X139290470Y-98862750D03*
X138000000Y-100153220D03*
D12*
X143000000Y-83362750D03*
X144290470Y-84653220D03*
X126500000Y-84362750D03*
X127790470Y-85653220D03*
D19*
X119026642Y-81771813D03*
X117263828Y-82244157D03*
D13*
X130000000Y-85653220D03*
X131290470Y-84362750D03*
D11*
X122263828Y-81771813D03*
X124026642Y-82244157D03*
D18*
X145303689Y-89059842D03*
X144986781Y-87262568D03*
D12*
X122600000Y-102362750D03*
X123890470Y-103653220D03*
M02*
